<svg viewBox="0 0 1077 1024" focusable="false"><path d="M62 841.23V83.33h947.37v757.9zm61.63-66.98h824.2V150.3h-824.2z" /><path d="M156.74 950.18h775.13V888.6H156.74zm156.7-449.63c0 12.84 2.08 23.45 6.2 31.88 7.62 15.5 21.55 23.21 41.73 23.21a46.23 46.23 0 0032.35-12.7c9.2-8.52 13.79-20.7 13.79-36.65 0-21.08-8.53-35.2-25.58-42.26-9.71-3.98-25.06-5.97-45.9-5.97v-45.18c20.41-.29 34.67-2.28 42.77-5.97 13.97-6.16 20.98-18.76 20.98-37.61 0-12.27-3.6-22.22-10.7-29.85-7.1-7.72-17.2-11.55-30.17-11.55-14.88 0-25.77 4.73-32.78 14.2-6.97 9.48-10.33 22.03-10.05 37.8h-58.87a158.97 158.97 0 018.19-45.37c5.21-12.55 13.26-24.11 24.35-34.72 8.24-7.53 18-13.27 29.37-17.3s25.3-5.96 41.77-5.96c30.7 0 55.43 7.91 74.23 23.78 18.76 15.87 28.19 37.18 28.19 63.95 0 18.8-5.64 34.72-16.82 47.74-7.1 8.1-14.5 13.64-22.17 16.58 5.78 0 14.02 4.93 24.82 14.83 16.1 14.92 24.16 35.29 24.16 61.1 0 27.15-9.47 51.02-28.23 71.62-18.8 20.56-46.66 30.89-83.46 30.89-45.43 0-76.98-14.88-94.65-44.53-9.28-15.77-14.44-36.42-15.49-61.96zM592.34 329.46v212.92h63c32.16 0 54.66-15.87 67.35-47.56 6.97-17.43 10.43-38.13 10.43-62.2 0-33.15-5.21-58.73-15.64-76.5s-31.16-26.66-62.14-26.66zm125-49.55c22.93 7.49 41.4 21.32 55.61 41.35a145.19 145.19 0 0123.21 52.68c4.17 18.95 6.26 36.95 6.26 54.05 0 43.34-8.72 80.1-26.2 110.17-23.59 40.6-60.06 60.87-109.42 60.87H526.12V272.81H666.8c20.27.28 37.09 2.65 50.54 7.1z" /></svg>