<svg viewBox="0 0 1024 1024" focusable="false"><path d="M921.44 125.65a18 18 0 00-18.05 17.88V860.2h-150.3V201.16a18 18 0 00-18.06-17.88h-527.4V120.3h606.15v448.06c0 9.87 8.13 17.92 18.11 17.92a18.03 18.03 0 0018.06-17.92V102.4a18 18 0 00-18.06-17.89H189.58a18 18 0 00-18.06 17.89v80.89h-68.94a18 18 0 00-18.05 17.88v127.32a18 18 0 0018.05 17.9 18 18 0 0018.12-17.9v-109.4H717v684.64H120.7v-98.49a18 18 0 00-18.12-17.89 18 18 0 00-18.05 17.9v116.4c0 9.84 8.13 17.89 18.05 17.89h632.48a18 18 0 0018.06-17.89v-25.7h168.35a17.94 17.94 0 0018.06-17.9v-734.5a18 18 0 00-18.06-17.9z" /><path d="M377.03 300.56c141.41 0 256.41 115.06 256.41 256.44 0 141.44-115 256.5-256.41 256.5-141.47 0-256.47-115.06-256.47-256.5 0-141.38 115-256.44 256.47-256.44zm0 548.94C538.3 849.5 669.5 718.3 669.5 557S538.3 264.5 377.03 264.5C215.76 264.5 84.5 395.7 84.5 557s131.26 292.5 292.53 292.5z" /><path d="M338.64 531.4a56.78 56.78 0 01-12.04-8.66 34.6 34.6 0 01-7.65-10.23 27.84 27.84 0 01-2.73-12.74c0-7.8 3.4-14.74 10.13-20.79 6.77-6.07 16.06-10.32 27.87-12.82v72.81a183.8 183.8 0 01-15.58-7.54zm58.33 62.95c6.3 2.59 12.37 5.43 18.22 8.3 5.8 3 10.94 6.1 15.44 9.45s8.05 7 10.72 10.8a21.15 21.15 0 014.02 12.26c0 5.23-1.1 10.1-3.4 14.74a43.03 43.03 0 01-9.7 12.46 55.97 55.97 0 01-15.2 9.64 74.05 74.05 0 01-20.07 5.66v-83.28zm-72.14 60.38a92.81 92.81 0 01-15.44-35.97H264.5a116.77 116.77 0 0011.42 33.64 116.35 116.35 0 0046.66 48.4c9.9 5.6 20.45 9.54 31.64 11.73v47h42.72v-46.18c11.34-1.13 22.47-3.43 33.5-7s20.9-8.47 29.64-14.88a75.38 75.38 0 0021.26-23.71c5.46-9.4 8.13-20.53 8.13-33.39 0-11.47-2.67-21.32-8.13-29.56a82.94 82.94 0 00-21.26-21.63 152.02 152.02 0 00-29.64-16.3 1139.9 1139.9 0 00-33.5-13.54v-88.22c11.14 2.02 20.36 6.3 27.48 12.74 7.17 6.38 12.85 15.24 17.1 26.43h42.72a90.4 90.4 0 00-11.76-30.34 87.9 87.9 0 00-19.96-22.42c-7.8-6.1-16.46-11.02-25.96-14.74s-19.41-6.16-29.65-7.36v-29.96H354.2v29.96a131.74 131.74 0 00-31.78 8.3 97.17 97.17 0 00-26.19 15.4 71.13 71.13 0 00-17.69 21.5 55.4 55.4 0 00-6.5 26.57c0 10.66 2.31 19.97 6.98 27.87a77.74 77.74 0 0018.4 21.12 130.2 130.2 0 0026.3 16.2 528.69 528.69 0 0030.48 13.11v95.6a53.77 53.77 0 01-29.39-20.42z" /></svg>