<svg viewBox="0 0 1024 1024" focusable="false"><path d="M239.36 916.18a5.42 5.42 0 01-5.47 5.38H114.94a5.42 5.42 0 01-5.47-5.38v-428.6l129.89 27.56v401.04zM114.94 386.07H233.9c3.02 0 5.47 2.4 5.47 5.42v93.84l-129.89-27.55V391.5c0-2.97 2.4-5.42 5.47-5.42zM883.9 668.69a14.83 14.83 0 00-15.84 13.44l-6 81.7-3.5 81.74c-3.65 28.8-13.73 59.52-60.72 69.22-94.03 16.8-209.33 14.74-341.9-5.9l-143.52-31.4a14.69 14.69 0 00-3.17-.38h-40.42V425.43c69.8-16.7 158.02-53.76 174-171.22h29.9c27.08 0 49.11-21.79 49.11-48.48v-46.12c0-26.74-22.03-48.48-49.1-48.48A14.64 14.64 0 00458 125.67c0 8.02 6.62 14.54 14.74 14.54 10.8 0 19.63 8.7 19.63 19.4v46.08a19.54 19.54 0 01-19.63 19.39h-27.36c.48-13.1.67-26.21.67-38.98-.05-10.41-.05-20.88.19-31.3.38-14.2.62-28.31.96-42.52l.1-8.98c22.5-2.6 72.86-4.75 106.22 21.4 21.02 16.43 32.06 42.25 32.93 76.47V325.5a46.37 46.37 0 0014.16 33.41c9.12 8.88 21.17 13.92 33.93 13.59l200.26-2.07c24.1 0 43.68 19.35 43.68 43.15 0 8.02 6.58 14.55 14.74 14.55s14.73-6.53 14.73-14.55c0-39.84-32.83-72.28-73.3-72.28l-200.44 2.06a16.85 16.85 0 01-12.91-5.14 17.76 17.76 0 01-5.38-12.72V200.8c-1.1-43.54-15.94-76.8-44.11-98.88-54.48-42.77-138.43-26.16-141.99-25.44a14.6 14.6 0 00-11.76 13.92l-.38 21.31c-.24 14.11-.48 28.18-.86 42.24a1031.04 1031.04 0 00-.24 32.16c0 16.85.04 34.23-1.25 50.98l-.1.96c-.1.53-.33.96-.33 1.53l.1.39c-9.46 103.34-77.1 137.95-146.17 155.47v-3.98a34.75 34.75 0 00-34.94-34.56H114.94A34.75 34.75 0 0080 391.45v524.64c0 19.05 15.65 34.56 34.94 34.56H233.9a34.75 34.75 0 0034.94-34.56v-9.9h38.79l142.84 31.2c75.46 11.77 145.4 17.67 209.28 17.67 51.99 0 99.99-3.89 143.62-11.71h.14l.3-.05c74-15.31 81.5-74.64 84.09-95.33l3.07-69.4 6.53-94.32a14.64 14.64 0 00-13.63-15.6z" /><path d="M914.91 525.85L707.55 730.66a22.42 22.42 0 01-31.2 0l-107.04-105.7c-.96-.95-.96-3.11 0-4.07l14.88-14.74a2.88 2.88 0 014.08-.1l82.32 73.54a32.64 32.64 0 0044.69-1.2L891.2 503.48a2.93 2.93 0 014.08-.1l19.63 18.34a2.78 2.78 0 01.87 2.01 2.74 2.74 0 01-.82 2.12zm.58-43.59a32.5 32.5 0 00-45.22.67L694.35 657.9a2.93 2.93 0 01-4.03.1l-82.27-73.54a32.64 32.64 0 00-44.64 1.1l-14.88 14.74a31.49 31.49 0 00-.05 45.27l107.04 105.7a51.77 51.77 0 0036.38 14.87 52 52 0 0036.48-14.88l207.36-204.81a31.68 31.68 0 00-.67-45.9l-19.58-18.28zm-592.23 327.4a14.54 14.54 0 10-7.48 28.19l43.48 11.28a14.74 14.74 0 0018-10.37A14.54 14.54 0 00366.7 821l-43.44-11.33z" /></svg>