<svg viewBox="0 0 1024 1024" focusable="false"><path d="M877.1 989.5H134.46A109.47 109.47 0 0125.14 880.17l-4.3-731.09c0-60.41 49.05-109.46 109.31-109.46h53.76a32 32 0 010 64h-53.76a45.36 45.36 0 00-45.26 45.31l4.25 731.03c0 25.2 20.33 45.57 45.31 45.57h742.66a45.41 45.41 0 0045.3-45.36l-4.24-731.09a45.41 45.41 0 00-45.41-45.46h-54.9a31.95 31.95 0 110-64h54.9c60.3 0 109.41 49 109.41 109.31l4.25 731.03c0 60.42-49 109.57-109.31 109.57" /><path d="M557.82 103.63h-126a32 32 0 010-64h126a31.95 31.95 0 110 64m-506 119.14H951.9v64H51.76zm253.38-78.64a31.95 31.95 0 01-32-32V36.8a31.95 31.95 0 1164 0v75.27a32.02 32.02 0 01-32 32.05m381.96 0a31.95 31.95 0 01-32-32V36.8a31.95 31.95 0 1164 0v75.27a32.02 32.02 0 01-32 32.05m140.7 705.9H614.5a31.95 31.95 0 110-64h213.35a32 32 0 010 64M614.5 716.74H401.2a31.95 31.95 0 110-64h213.3a32 32 0 010 64M406.53 583.42h-213.3a31.95 31.95 0 110-64h213.3a31.95 31.95 0 110 64M294.7 455.27a15.97 15.97 0 01-13.83-7.94l-26.67-45.46a16.03 16.03 0 0113.82-24.07h53.3a16.08 16.08 0 0113.83 24.07l-26.68 45.46a15.97 15.97 0 01-13.77 7.94" /></svg>