<svg viewBox="0 0 1024 1024" focusable="false"><path d="M954.37 920.83l-60.59-349.27h20.48a29.64 29.64 0 0029.7-29.7V322.44a29.65 29.65 0 00-29.7-29.74H633.1v-208a29.65 29.65 0 00-29.7-29.7H420.52a29.65 29.65 0 00-29.7 29.7v208H109.66a29.65 29.65 0 00-29.7 29.74v219.44a29.64 29.64 0 0029.75 29.7h20.48l-60.6 349.26a29.65 29.65 0 0029.24 34.73H925.1a29.57 29.57 0 0029.27-34.73zM159.96 372.7h310.87V135h82.26v237.7h310.87v118.87H160V372.7zm534.87 502.87V697.3a9.17 9.17 0 00-9.13-9.17h-54.87a9.17 9.17 0 00-9.13 9.17v178.26H402.26V697.3a9.17 9.17 0 00-9.17-9.17h-54.83a9.17 9.17 0 00-9.17 9.17v178.26h-170.5l51.54-297.13H813.7l51.54 297.13H694.83z" /></svg>