<svg viewBox="0 0 1024 1024" focusable="false"><path d="M512 85.33c235.65 0 426.67 191.02 426.67 426.67S747.65 938.67 512 938.67 85.33 747.65 85.33 512 276.35 85.33 512 85.33zm0 85.34a341.33 341.33 0 100 682.66 341.33 341.33 0 000-682.66z" /><path d="M601.26 294.4c-23.3 0-46.3 6.14-66.56 19.03-37.97 22.61-60.16 63.15-60.16 106.8V604.7c0 14.77-8.7 28.72-23.77 37.85a55.88 55.88 0 01-28.11 7.68c-29.36 0-51-21.93-51-45.95 0-7.68 1.84-14.76 5.56-21.08l.17-.3c5.5-9.68 15.87-18.22 30.38-22.78l.17-.04c21.76-.43 37.8-18.56 37.8-39.68s-16.21-39.6-38.66-39.6c-7.25 0-14.08 1.28-22.53 3.76l-.34.08a128.3 128.3 0 00-73.13 57.81l-.13.26c-10.53 18.77-16.55 39.8-16.55 61.57 0 69.72 58.03 125.31 128.34 125.31 23.34 0 46.3-6.19 66.73-18.39a121.81 121.81 0 0060.16-106.03V420.22c0-14.84 8.96-29.7 24.02-38.78a55.61 55.61 0 0128.08-7.68c28.97 0 50.64 21.89 50.64 45.95 0 7.68-1.83 14.76-5.54 21.08l-.3.51c-5.46 9.99-15.66 18.26-29.95 22.49l-.47.12c-21.76.47-37.8 18.56-37.8 39.68s16.2 39.6 38.6 39.6c7.18 0 14.47-1.28 22.83-3.84h.09a128.43 128.43 0 0073.13-57.86l.09-.21c10.58-18.73 16.55-39.8 16.55-61.57 0-69.72-58.03-125.31-128.34-125.31z" /></svg>