<svg viewBox="0 0 1024 1024" focusable="false"><path d="M198.26 724.63a380.7 380.7 0 11100.71 104.8l-30.51 43.25a431.55 431.55 0 00249.62 79.02A433.62 433.62 0 00951.7 518.07 433.62 433.62 0 00518.07 84.5C278.68 84.5 84.5 278.63 84.5 518.08c0 84.6 24.3 165.73 69.3 235.34l44.46-28.8z" /><path d="M667.16 369.04a210.78 210.78 0 11-55.94-40.14l23.4-47.43a263.7 263.7 0 1069.93 50.17l-37.35 37.4z" /><path d="M573.83 518.12a55.71 55.71 0 10-111.42 0 55.71 55.71 0 00111.42 0zm52.92 0a108.67 108.67 0 11-217.35 0 108.67 108.67 0 01217.35 0zm40.86-187.38a20.43 20.43 0 10-40.9 0 20.43 20.43 0 0040.95 0zm52.92 0a73.35 73.35 0 11-146.7 0 73.35 73.35 0 01146.7 0zM278.32 797.88a51.52 51.52 0 10-103.1 0 51.57 51.57 0 10103.1 0zm52.92 0a104.44 104.44 0 11-208.98 0 104.49 104.49 0 11208.98 0z" /></svg>