<svg viewBox="0 0 1024 1024" focusable="false"><path d="M896.62 244.7l-366.03-95.31a75.56 75.56 0 00-37.58.09L127.43 244.7C88.91 254.69 62 292.85 62 337.49c0 44.64 26.91 82.8 65.39 92.79l38.16 12.06v268.52C149.93 795.05 288.04 877.04 512 877.04c223.92 0 343.53-88.92 343.53-166.19V442.35l41.04-12.06c38.52-9.99 65.43-48.15 65.43-92.79 0-44.64-26.91-82.8-65.39-92.79zM793.7 709.1c0 46.44-115.47 104.17-281.7 104.17s-273.82-64.62-281.48-96.25L232.55 458l260.82 67.59a76.59 76.59 0 0037.62-.09L793.7 458v251.15zM518.3 463.63a25.29 25.29 0 01-12.6 0l-365.71-95.18c-12.74-3.33-21.78-16.16-21.78-30.91 0-14.81 9-27.64 21.78-30.97L505.7 211.4a25.88 25.88 0 0112.69 0l365.63 95.17c12.73 3.33 21.78 16.2 21.78 30.96 0 14.76-9 27.59-21.78 30.92L518.3 463.63zm359.33 32.53v285.66c0 17.55 12.6 31.72 28.12 31.72s28.13-14.17 28.13-31.72V496.16c0-17.55-12.6-31.73-28.13-31.73s-28.13 14.22-28.13 31.73z" /></svg>