<svg viewBox="0 0 1024 1024" focusable="false"><path d="M790.55 429.88l-.04.67V840.5a31.5 31.5 0 01-31.55 31.5l-112.72.04V656.58c0-72.09-62.01-130.77-138.29-130.77-76.32 0-138.33 58.68-138.33 130.78v215.86l-120.96.18a31.5 31.5 0 01-31.45-31.5V439.06c0-.36-.23-.72-.23-1.04v-51.3l299.61-248.45L790.55 368.9v60.98zM587.78 872.13l-159.7.23V656.58c0-39.87 35.81-72.22 79.87-72.22 44.01 0 79.83 32.35 79.83 72.22v215.56zM516.86 62L62 439.28l96.66-.23v402.08a90 90 0 0090 90l149.18-.18c.36 0 .67.18.99.18h218.2c.9 0 1.67-.45 2.52-.54l139.41-.09a90 90 0 0090-90V430.55l104.9-.68L516.86 62z" /></svg>