<svg viewBox="0 0 1024 1024" focusable="false"><path d="M277.33 341.33A106.67 106.67 0 01384 234.67h213.33A106.67 106.67 0 01704 341.33v85.34a21.33 21.33 0 01-42.67 0v-85.34a64 64 0 00-64-64H384a64 64 0 00-64 64v341.34a64 64 0 0064 64h128a21.33 21.33 0 010 42.66H384a106.67 106.67 0 01-106.67-106.66V341.33z" /><path d="M682.67 704a21.33 21.33 0 01-21.34-21.33V512a21.33 21.33 0 0142.67 0v170.67A21.33 21.33 0 01682.67 704z" /><path d="M576 597.33A21.33 21.33 0 01597.33 576H768a21.33 21.33 0 010 42.67H597.33A21.33 21.33 0 01576 597.33zM576 768a21.33 21.33 0 0121.33-21.33H768a21.33 21.33 0 010 42.66H597.33A21.33 21.33 0 01576 768z" /></svg>