<svg viewBox="0 0 1024 1024" focusable="false"><path d="M562.94 361.61c0-70.06-51.03-121.41-117.45-121.41s-117.45 51.35-117.45 121.41c0 77.22 57.6 151.97 117.45 151.97s117.45-74.75 117.45-151.97zm55.58 0c0 105.21-78.93 207.54-173.03 207.54S272.42 466.82 272.42 361.61c0-100.67 75.87-176.99 173.07-176.99s173.03 76.32 173.03 176.99z" /><path d="M589.94 327.77c43.11-23.13 100.35 11.79 105.66 67.05 5.67 58.63-50.22 129.69-104.13 134.87-9.77.9-24.52-10.67-32.4-32.54l-52.29 18.81c15.84 43.96 52.38 72.67 90 69.03 85.05-8.15 162.68-106.88 154.13-195.48-8.91-93.24-107.6-153.4-187.2-110.7z" /><path d="M84.5 939.5v-855h855v855zm55.58-55.58h743.85V140.08H140.07z" /><path d="M483.02 533.51l-54.27 12.1 60.57 271.99 54 1.12 65.02-244.49-53.73-14.3-35.77 134.55z" /></svg>