<svg viewBox="0 0 1024 1024" focusable="false"><path d="M870.4 153.6a51.2 51.2 0 016.7 101.94l-6.7.46v409.6a102.4 102.4 0 01-93.39 101.99L768 768H635.6l66.2 66.2a51.2 51.2 0 01-67.33 76.7l-5.07-4.3L512 789.2 394.6 906.6a51.2 51.2 0 01-76.96-67.38l4.56-5.02 66.2-66.2H256a102.4 102.4 0 01-101.99-93.39l-.41-9.01V256a51.2 51.2 0 01-6.7-101.94l6.7-.46h716.8zM716.6 307.81a51.2 51.2 0 00-36 14.4L512 490.8l-66.2-66.2a51.2 51.2 0 00-72.4 0L271 527a51.2 51.2 0 1072.4 72.39l66.2-66.2 66.2 66.2a51.2 51.2 0 0072.4 0L753 394.6a51.2 51.2 0 00-36.35-86.79z" /></svg>