<svg viewBox="0 0 1024 1024" focusable="false"><path d="M208.38 166.06c-23.33 0-42.32 21.22-42.32 47.25v445.5c0 26.07 18.99 47.21 42.32 47.21h129.85a27.42 27.42 0 0127.42 27.42v97.24L502.8 712.64a27.72 27.72 0 0117.9-6.62h294.88c23.33 0 42.32-21.14 42.32-47.17V213.27c0-26.03-18.99-47.17-42.32-47.17h-607.2zm129.85 751.78a27.46 27.46 0 01-27.42-27.42V760.86H208.38c-53.58 0-97.16-45.77-97.16-102.09V213.31c0-56.32 43.58-102.13 97.16-102.13h607.2c53.58 0 97.16 45.81 97.16 102.09v445.5c0 56.32-43.58 102.1-97.16 102.1H530.86L356.07 911.21a27.21 27.21 0 01-17.84 6.62z" /><path d="M509.9 491.16a33.75 33.75 0 01-33.76-33.75V271.1a33.75 33.75 0 0167.5 0v186.3a33.75 33.75 0 01-33.75 33.75m40.59 79.82a40.58 40.58 0 11-81.17 0 40.58 40.58 0 0181.17 0" /></svg>