<svg viewBox="0 0 1024 1024" focusable="false"><path d="M871.38 873.2c-9.12 8.86-20.75 12.87-36.07 12.16H440.94c13.79-16.03 24.13-39.1 24.97-71.24h428.34c-1.4 14.7-6.2 42.97-22.87 59.11zm-439.2-68.34c2.2 70.61-48.56 78.18-54.2 78.81a17.27 17.27 0 00-5.99 1.69l-18.56-.16c13.2-16.61 22.73-40.16 21.67-73.75v-68.08h478.07v36.97H449a16.93 16.93 0 00-16.88 16.87l.06 7.68zm-267.67 51.7c-18.78-18.56-28.19-45.93-27.93-81.5v-638.5h597.54l.55 48.99H225.55a16.93 16.93 0 00-16.88 16.93V804.4c.16 33.62 8.3 60.2 23.34 80.08-7.1.37-41.93-2.58-67.5-27.9zm642.83-147.02H358.2a16.88 16.88 0 00-16.87 16.88l.05 85.56c1.76 59.4-36.28 70.74-47.46 72.72l-2.48-.05a50.63 50.63 0 01-27.69-14.08c-14-13.87-21.17-36.15-21.3-66.29V219.3h564.1l.79 490.22zm104.33 70.77h-24.73v-53.87a16.93 16.93 0 00-16.87-16.87h-28.95l-.85-507.15a16.93 16.93 0 00-16.93-16.87h-54.92l-.76-66.03a16.95 16.95 0 00-16.88-16.74H119.66a16.95 16.95 0 00-16.93 16.93v655.25c-.3 44.85 12.5 80.42 38.02 105.63 38.13 37.75 90.83 37.97 92.94 37.41l54.98.48c4.17.58 7.1.68 7.73.68h.07c.98 0 1.85-.42 2.75-.58l73.4.58 461.96-.05c1.42.08 2.87.08 4.3.08 22.22 0 41-7.3 55.97-21.73 33.8-32.75 33.67-90.83 33.67-93.15v-7.12a16.88 16.88 0 00-16.87-16.88z" /><path d="M368.04 517.64a16.88 16.88 0 0023.07 6.17l63.91-36.86a16.88 16.88 0 00-16.9-29.24l-49.28 28.48-60.62-105.05 105.42-60.9 8.38 13.76a16.88 16.88 0 0028.77-17.62l-17-27.76a16.9 16.9 0 00-22.84-5.78l-134.3 77.55a16.77 16.77 0 00-6.19 23.04l77.55 134.3z" /><path d="M608.5 432.95l-89.64 89.6-35.7-122.14 125.34 32.54zm-161.97-68.08a16.85 16.85 0 00-4.09 16.45l51.97 178.04a16.69 16.69 0 0016.2 12.15 16.95 16.95 0 0011.88-4.93l130.7-130.57a16.85 16.85 0 00-7.67-28.27L462.9 360.28a16.66 16.66 0 00-16.37 4.6z" /><path d="M665.7 501.43l2.1.05a57.67 57.67 0 0155.48 59.62c-1.19 31.72-28.82 55.2-59.62 55.47a57.67 57.67 0 01-55.47-59.61 57.72 57.72 0 0157.5-55.53zm-91.24 54.29a90.54 90.54 0 0024.4 65.52 90.76 90.76 0 0066.89 29.1 91.44 91.44 0 0091.2-88.03A91.44 91.44 0 00669 467.76c-49.23-1.7-92.73 37.67-94.55 87.96z" /></svg>