<svg viewBox="0 0 1024 1024" focusable="false"><path d="M906.34 916.07H186.68a50.18 50.18 0 010-100.35h719.71a29.85 29.85 0 0029.9-29.9V70.8a29.85 29.85 0 00-29.9-29.85H186.68A109.93 109.93 0 0076.8 150.89v715a29.85 29.85 0 0059.7 0v-715a50.18 50.18 0 0150.18-50.18h719.71l-29.85-29.9v715l29.85-29.84H186.68a109.93 109.93 0 000 219.8h719.66a29.85 29.85 0 100-59.7z" /><path d="M221.29 887.04h610.97a20.89 20.89 0 100-41.83H221.29a20.89 20.89 0 000 41.83zM482.7 682.75h69.48a20.89 20.89 0 000-41.78h-69.48a20.89 20.89 0 000 41.78zM473 611.28h90.1a20.89 20.89 0 000-41.83H473a20.89 20.89 0 000 41.83zm-.31-226.87h85.5a20.89 20.89 0 000-41.83h-85.5a20.89 20.89 0 000 41.83z" /><path d="M494.54 365.77v125.14a20.89 20.89 0 1041.83 0V365.77a20.89 20.89 0 10-41.83 0z" /><path d="M618.55 553.73c5.12-13.06 12.6-21.66 33.12-40.25l.1-.1c20.28-18.33 28.99-27.65 37.54-42.6a187.44 187.44 0 0024.93-93.59c0-106.44-88.42-192.51-197.22-192.51v41.83h1.69v-41.78c-108.8 0-197.28 86.02-197.28 192.46 0 33.13 8.7 65.13 24.99 93.65 8.6 14.95 17.25 24.16 37.58 42.54 20.58 18.64 28 27.24 33.18 40.35a20.89 20.89 0 0038.91-15.26c-8.24-21.1-18.8-33.18-44.03-56.06-17.05-15.47-23.7-22.53-29.34-32.36a146.28 146.28 0 01-19.46-72.86c0-83.1 69.48-150.68 155.45-150.68 27.85 0 27.85-41.78 0-41.78H517c-27.85 0-27.85 41.78 0 41.78 85.97 0 155.45 67.58 155.45 150.68 0 25.86-6.76 50.69-19.46 72.86-5.63 9.88-12.28 16.9-29.28 32.36l-.16.1c-25.08 22.78-35.63 34.92-43.92 55.9a20.89 20.89 0 0038.9 15.37z" /></svg>