<svg viewBox="0 0 1024 1024" focusable="false"><path d="M872 75.2a76.8 76.8 0 0176.8 76.66v720.28A76.8 76.8 0 01872 948.8H152a76.8 76.8 0 01-76.8-76.66V151.86A76.8 76.8 0 01152 75.2zm0 9.6H152a67.2 67.2 0 00-67.2 67.06v720.28A67.2 67.2 0 00152 939.2h720a67.2 67.2 0 0067.2-67.06V151.86A67.2 67.2 0 00872 84.8z" /><path d="M595.62 736.78L522.18 563.8c-4.13 8.11-17.28 33.46-39.41 76.03-22.18 42.58-38.64 74.88-49.44 96.96a48 48 0 01-6.82 1.25c-4.41.67-6.62.53-6.62-.38-13.59-32.02-34.8-80.74-63.6-146.11s-50.3-114.87-64.56-148.32a117.5 117.5 0 00-16.56-26.79 136.08 136.08 0 00-25.78-25.05c-9.6-7.1-18.1-10.7-25.39-10.7 0-.82.43-2.8 1.25-5.96a30.77 30.77 0 001.25-6.72h145.1v12.48a71.62 71.62 0 00-19.78 3.94 38.74 38.74 0 00-16.56 10.7c-4.32 4.8-5.13 10.13-2.5 15.94 4.33 9.79 22.28 51.21 53.91 124.22a15294.72 15294.72 0 0058.61 134.4c5.14-10.08 16.8-32.2 34.85-66.34l32.64-61.58c-3.17-6.48-13.63-29.76-31.4-69.98-17.75-40.13-29.03-64.61-33.83-73.44-6.34-11.43-23-17.28-50.07-17.67v-12.43l127.68.24v11.71c-9.93.34-17.66 2.4-23.23 6.24-5.57 3.84-6.58 9.55-3.12 17.19a3328.67 3328.67 0 0121.65 47.13 4311.13 4311.13 0 0021.4 46.7c18.25-35.51 32.65-65.66 43.06-90.38 3.99-9.12 3.17-15.7-2.45-19.77-5.66-4.08-16.36-6.24-32.16-6.63.2-1.15.3-3.21.3-6.24v-5.95c10.6 0 24.76.43 42.42 1.25 17.67.86 32.64.77 44.79-.24 12.24-.96 19.87-.58 23.04 1.25v12.19a65.9 65.9 0 00-29.62 8.2 61.34 61.34 0 00-22.41 20.17l-53 110.01c2.16 5.52 12.72 29.57 31.68 72.2 19.06 42.67 29.14 65.37 30.3 68.2l109.77-253.15a32.16 32.16 0 00-12.34-15.55 49.44 49.44 0 00-16.17-7.83 72.05 72.05 0 00-13.83-2.01v-12.43l114.53.96.24.52-.24 10.95c-23.04.67-39.74 12.72-50.06 36.1a204526.85 204526.85 0 01-139.1 321.35h-12.25z" /></svg>