<svg viewBox="0 0 1024 1024" focusable="false"><path d="M483.74 723.37a58.5 58.5 0 0138.25-14.22h337.63c10.85 0 21.38-11.25 21.38-27.18V170.22c0-15.88-10.57-27.22-21.38-27.22H164.38c-10.84 0-21.37 11.3-21.37 27.23v511.74c0 15.93 10.48 27.18 21.38 27.18h148.68a58.5 58.5 0 0158.5 58.5v129.87L333.3 930.5l-20.25-9.31v-50.5l170.68-147.33zM84.5 681.97V170.22c0-47.29 35.73-85.72 79.88-85.72h695.25c44.1 0 79.87 38.43 79.87 85.72v511.75c0 47.34-35.77 85.68-79.88 85.68H522l-208.94 180.4V767.6H164.38c-44.14.04-79.87-38.25-79.87-85.63z" /></svg>