<svg viewBox="0 0 1024 1024" focusable="false"><path d="M546.489708 220.114143c-3.07136 9.171423-6.52664 18.769423-10.36584 28.666028a34.083566 34.083566 0 0 1-27.045033 23.504436 35.15001 35.15001 0 0 1-34.552801-11.474942c-9.598-10.323183-12.114809-21.968757-7.507769-34.97938l1.15176-3.412622c-37.581504 9.171423-68.849656 27.130348-93.847116 53.876776a180.78367 180.78367 0 0 0-46.582295 96.321266l-20.731681 118.076734-23.035201 17.191085c-33.742304 24.442908-59.464945 52.725016-77.125265 84.846324a206.463653 206.463653 0 0 0-26.447824 100.885649c2.260862 71.067861 34.296855 131.087357 96.107978 180.01583 61.768465 48.885815 140.258779 74.480483 235.428285 76.784003 95.169506-2.30352 173.617163-27.898188 235.470944-76.784003 61.768465-48.928473 93.804457-108.947969 96.107978-180.01583a206.463653 206.463653 0 0 0-26.490482-100.885649c-17.660321-32.121308-43.382962-60.403416-77.125265-84.888982l-23.035201-17.148427-20.731681-118.076734a185.817288 185.817288 0 0 0-50.634785-99.776546A184.281608 184.281608 0 0 0 546.489708 220.114143z m-46.070402-76.784003c9.21408-17.617663 19.196001-34.424828 29.945761-50.464154 26.874401-38.989211 57.161425-68.423079 90.946386-88.301604a39.117184 39.117184 0 0 1 27.642242-3.412622 34.979379 34.979379 0 0 1 21.840783 16.636534 35.15001 35.15001 0 0 1-12.626703 49.866944c-23.035201 14.503645-45.302562 37.06961-66.802083 67.612581l-11.5176 17.191085c49.909602 13.778463 91.714226 39.202499 125.499187 76.27211a260.383087 260.383087 0 0 1 64.455905 131.257988l13.821121 89.410706c41.463362 30.585628 73.883274 66.716767 97.259737 108.350761A281.967923 281.967923 0 0 1 917.185813 693.615497c-3.07136 93.249906-42.615122 171.015039-118.588627 233.295397C722.666338 989.191252 627.112911 1021.483191 511.936906 1023.786711c-115.133347-2.30352-210.686774-34.552801-286.660279-96.875817C149.303122 864.630535 109.75936 786.865403 106.688 693.572839a281.967923 281.967923 0 0 1 36.259113-135.82237c23.419121-41.633993 55.881691-77.765132 97.259737-108.350761l13.863779-89.410706c11.5176-61.128598 39.671735-111.592752 84.590377-151.349802C383.579648 168.924807 437.499081 147.16934 500.419306 143.33014z"></path></svg>
