<svg viewBox="0 0 1024 1024" focusable="false"><path d="M569.69 171.94H454.26a27.77 27.77 0 110-55.62H569.7a27.81 27.81 0 010 55.62" /><path d="M827.45 872.76h-630.9a56.48 56.48 0 01-56.52-56.25V337.45h743.85v478.98c0 31.05-25.29 56.29-56.43 56.29m0-756.45h-44.73a27.77 27.77 0 100 55.57h44.73c31.14 0 56.43 25.3 56.43 56.34v66.51H140.03v-66.46c0-31.05 25.38-56.34 56.47-56.34h39.02a27.77 27.77 0 100-55.58H196.5a112.05 112.05 0 00-112 111.92v588.24a112.1 112.1 0 00112.05 111.92h630.9A112.1 112.1 0 00939.5 816.47V228.23a112.05 112.05 0 00-112.05-111.91" /><path d="M349.1 203.7a27.77 27.77 0 01-27.81-27.8V112.3a27.77 27.77 0 1155.58 0v63.54a27.77 27.77 0 01-27.81 27.81m325.84.05a27.77 27.77 0 01-27.77-27.81V112.3a27.77 27.77 0 1155.58 0v63.54a27.77 27.77 0 01-27.81 27.81M389.06 409.08h242.46a4.43 4.43 0 014.41 4.46v43.87a4.46 4.46 0 01-4.41 4.5H453.86c-4.5 0-8.1 3.6-8.1 8.1v75.16a8.1 8.1 0 008.1 8.14h163.49a4.42 4.42 0 014.4 4.41v41a4.46 4.46 0 01-4.4 4.45H453.86c-4.5 0-8.1 3.6-8.1 8.1v85.95a8.1 8.1 0 008.1 8.14h181.08a4.42 4.42 0 014.41 4.41v43.97a4.5 4.5 0 01-4.41 4.46H396.89a12.24 12.24 0 01-12.28-12.24V413.54a4.47 4.47 0 014.5-4.46" /></svg>