<svg viewBox="0 0 1024 1024" focusable="false"><path d="M896 682.67a42.67 42.67 0 0142.37 37.67l.3 5v85.33a128 128 0 01-120.5 127.78l-7.5.22H213.33a128 128 0 01-127.78-120.5l-.22-7.5v-85.34a42.67 42.67 0 0185.04-4.99l.3 5v85.33a42.67 42.67 0 0037.67 42.36l5 .3h597.33a42.67 42.67 0 0042.36-37.67l.3-5v-85.33A42.67 42.67 0 01896 682.67zM512 85.33A42.67 42.67 0 01554.67 128v408.96l55.16-55.13a42.67 42.67 0 0156.32-3.54l4.02 3.54a42.67 42.67 0 013.54 56.32l-3.54 4.02-128 128-1.88 1.74-2.9 2.4-4.7 3.02-4.86 2.3-4.48 1.5-6.36 1.28-4.99.26-3.2-.13-5.38-.73-4.73-1.28-4.74-1.87-4.18-2.22-4.1-2.86a43.1 43.1 0 01-3.84-3.41l-128-128a42.67 42.67 0 0156.32-63.88l4.02 3.54 55.16 55.13V128A42.67 42.67 0 01512 85.33z" /></svg>