<svg viewBox="0 0 1024 1024" focusable="false"><path d="M847.93 649.67l2.1 3.59a31.06 31.06 0 01-10.24 39.48l-3.58 2.16-310.33 155.13a31 31 0 01-23.32 1.88l-4.38-1.88L187.85 694.9a31 31 0 0123.78-57.12l3.98 1.65 296.33 148.14L808.4 639.43a31.06 31.06 0 0139.48 10.24h.06zm0-155.2l2.1 3.65a31.06 31.06 0 01-10.24 39.48l-3.58 2.16L525.88 694.9a30.95 30.95 0 01-23.32 1.82l-4.38-1.82-310.33-155.2a31.06 31.06 0 0123.83-57.11l3.93 1.7L512 632.33l296.4-148.2a31.06 31.06 0 0139.53 10.24v.06zM498.12 173.92a31.06 31.06 0 0127.7 0l310.33 155.2a31.06 31.06 0 010 55.52L525.82 539.7a31.06 31.06 0 01-27.7 0L187.85 384.62a31.06 31.06 0 010-55.52l310.33-155.25v.06zM512 236.37L271.08 356.81 512 477.3l240.98-120.5L512 236.38z" /></svg>