<svg viewBox="0 0 1024 1024" focusable="false"><path d="M490.8 256c37.5 78.6 121.8 155.99 233.9 259.07l43.3 39.6 43.3-39.9c48.1-44.11 91.06-83.54 127.4-120.4l-.03 458.96a85.33 85.33 0 01-85.34 85.34H170.67a85.33 85.33 0 01-85.34-85.34v-512A85.33 85.33 0 01170.67 256zm112.63 298.67L475.43 715 384 608 256 768h512z" /><path d="M844.8 128c-29.7 0-58.2 13.18-76.8 34a104.28 104.28 0 00-76.8-34c-52.57 0-93.87 39.38-93.87 89.51 0 61.53 58.03 111.66 145.92 187.82L768 426.67l24.75-21.5c87.89-76 145.92-126.13 145.92-187.66 0-50.13-41.3-89.51-93.87-89.51z" /></svg>