<svg viewBox="0 0 1024 1024" focusable="false"><path d="M426.67 512l-.3 5-1.24 6.35-1.02 3.24-1.45 3.46-1.28 2.6-3.08 4.74-2.39 2.9-1.7 1.88-85.34 85.33-4.05 3.54a42.67 42.67 0 01-52.3 0l-4.02-3.54-3.54-4.01a42.67 42.67 0 010-52.31l3.54-4.01 12.46-12.5H128a42.67 42.67 0 01-5-85.04l5-.3h152.96l-12.46-12.5-3.54-4a42.67 42.67 0 0159.86-59.87l4.01 3.54 85.34 85.33 4.13 4.78 2.14 3.16 2.22 4.18 1.87 4.7 1.28 4.77.69 5.08.17 3.5zm128 384a42.67 42.67 0 01-85.04 5l-.3-5V128a42.67 42.67 0 0185.04-5l.3 5v768zm384-384A42.67 42.67 0 01896 554.67H743.04l12.46 12.5a42.67 42.67 0 013.54 56.32l-3.54 4a42.67 42.67 0 01-56.32 3.55l-4.01-3.54-85.34-85.33-1.74-1.88-2.4-2.9-3.02-4.7-1.33-2.64-1.45-3.46-1.02-3.24-1.28-6.36-.26-4.99.17-3.5.69-5.08 1.28-4.73 1.87-4.74 2.22-4.18 2.14-3.16 4.13-4.78 85.34-85.33a42.67 42.67 0 0163.87 56.32l-3.54 4.01-12.46 12.5H896A42.67 42.67 0 01938.67 512z" /></svg>