<svg viewBox="0 0 1024 1024" focusable="false"><path d="M64 918.02h674.76a30.1 30.1 0 0030.11-30.16v-658.8a30.1 30.1 0 00-30.1-30.15H64a30.1 30.1 0 00-30.1 30.16V887.8A30.13 30.13 0 0064 917.96zm0-60.27l30.1 30.1V229.08L64 259.17h674.76l-30.15-30.1V887.8l30.15-30.1H64zm904.2-118.73l-135.38-76.34 15.36 26.22V428.08l-15.36 26.22 135.37-76.4-44.9-26.2v413.54l44.9-26.22zm-29.6 52.48a30.1 30.1 0 0044.9-26.26v-413.5a30.1 30.1 0 00-44.9-26.26l-135.37 76.44a30.11 30.11 0 00-15.36 26.21v260.82a30.11 30.11 0 0015.36 26.21l135.37 76.4z" /><path d="M547.48 558.39a146.18 146.18 0 11-292.35 0 146.18 146.18 0 01292.35 0zm51.36.05a197.43 197.43 0 10-394.91 0 197.43 197.43 0 00394.9 0zM550.5 26.1l-11.1 70.2a21.1 21.1 0 1041.67 6.6l11.06-70.24a21.1 21.1 0 10-41.63-6.6zM683 65.9l-36.65 66.26a21.1 21.1 0 0036.86 20.37l36.66-66.2a21.1 21.1 0 00-36.86-20.48zM415.55 38.25l14.44 74.24a21.1 21.1 0 1041.42-8l-14.5-74.28a21.1 21.1 0 10-41.36 8.04z" /></svg>