<svg viewBox="0 0 1024 1024" focusable="false"><path d="M375.84 550.05h165.02c0-38.82-18.3-61.54-18.3-61.54h-143.2c3.4-70.27 6.46-160.48 7.55-193.98h136.23s-.74-57.63-15.9-57.63H267.77s14.4-75.4 33.63-108.68c0 0-71.49-3.87-95.9 91.5s-60.97 152.98-64.87 163.51c-3.87 10.53 21.06 5 31.58 0s58.21-22.17 72.07-88.67h74.05c.99 42.14 3.93 171.33 3 193.98H168.93c-21.63 15.52-28.83 61.54-28.83 61.54h174.2c-7.26 48.1-20.03 110.11-37.85 143-28.26 52.1-43.23 99.78-145.22 181.8 0 0-16.64 12.2 34.91 7.74s100.32-17.72 134.15-85.34a876.06 876.06 0 0049.92-125l-.03.17 143.55 165.28s18.85-44.35 4.99-93.12L392.29 625.44l-36.03 26.66-.04.12c10.02-35.07 17.22-69.76 19.43-99.93l.16-2.21zm199.4-325.38v572h60.12L660 865.54l104.22-68.87h131.36v-572H575.2zm258.46 510.5h-68.3l-85.14 56.25-20.13-56.25h-21.25V288.5H833.7v446.66z" /></svg>