<svg viewBox="0 0 1024 1024" focusable="false"><path d="M968.223795 55.780345C911.977931-0.463519 832.216124-16.111481 774.118265 17.732437 695.208456 63.698326 447.009057-82.219321 182.393698 182.396038-82.55166 447.345397 63.847985 694.944797 17.734097 774.116605c-33.843918 58.101859-18.199956 137.863666 38.043908 194.10753 56.269864 56.269864 136.021671 71.875826 194.11353 38.041908 78.845809-45.939889 327.113208 99.937758 591.714567-164.657601 264.947358-264.953358 118.545713-512.552759 164.661601-591.720567 33.843918-58.099859 18.199956-137.861666-38.043908-194.10753z m-44.809891 145.787647c-77.599812 133.217677 91.199779 331.269198-149.689638 572.158614-240.879417 240.885417-438.948937 72.095825-572.150614 149.685638-45.35789 26.413936-128.06969-54.481868-100.985756-100.975756 77.599812-133.217677-91.199779-331.269198 149.689638-572.158614C491.146951 9.406457 689.232471 178.174048 822.438148 100.586236c45.45989-26.479936 128.00969 54.575868 100.975756 100.981756z m-339.721178 17.471958c2.739993 21.919947-12.807969 41.913898-34.729916 44.653891-109.691734 13.709967-271.557342 175.573575-285.269309 285.269309-2.745993 21.977947-22.797945 37.467909-44.651891 34.729916-21.921947-2.739993-37.469909-22.731945-34.729916-44.651891 18.323956-146.571645 208.333495-336.429185 354.729141-354.729141 21.905947-2.735993 41.911898 12.805969 44.651891 34.727916z"></path></svg>
