<svg viewBox="0 0 1024 1024" focusable="false"><path d="M341.33 554.67v170.66a42.67 42.67 0 0037.68 42.37l4.99.3h213.33a85.33 85.33 0 0185.34-85.33h170.66A85.33 85.33 0 01938.67 768v85.33a85.33 85.33 0 01-85.34 85.34H682.67a85.33 85.33 0 01-85.34-85.34H384a128 128 0 01-127.79-120.49l-.21-7.5v-384h-42.67a85.33 85.33 0 01-85.12-78.94L128 256v-85.33a85.33 85.33 0 0185.33-85.34H384a85.33 85.33 0 0185.33 85.34V256A85.33 85.33 0 01384 341.33h-42.67v128h256a85.33 85.33 0 0178.94-85.12l6.4-.21h170.66a85.33 85.33 0 0185.34 85.33v85.34A85.33 85.33 0 01853.33 640H682.67a85.33 85.33 0 01-85.34-85.33h-256zm512 213.33H682.67v85.33h170.66V768zm0-298.67H682.67v85.34h170.66v-85.34zM384 170.67H213.33V256H384v-85.33z" /></svg>