<svg viewBox="0 0 1024 1024" focusable="false"><path d="M337.72 626.92l55.9 54.67a12.74 12.74 0 01-.76 18.99C318.61 762.5 218.42 850.77 196.9 867.22c-46.62 35.82-88.93 51.89-103.15 56.66-2.15.71-4.22-1.27-3.46-3.38 4.86-13.92 21.3-55.35 57.89-101L318.4 627.55a13.37 13.37 0 0119.32-.63M194.16 203.9l676.3 661.93a29.53 29.53 0 0041.18 0 28.05 28.05 0 000-40.3L235.25 163.63a29.53 29.53 0 00-41.13 0 28.05 28.05 0 000 40.28zM641.39 214l-118.84 82.18c-21.4 14.76-42.36 32.1-65.14 45.69l227.26 222.41c13.84-22.32 31.6-42.82 46.7-63.75 27.98-38.8 56.24-77.32 84.25-116.1a11.18 11.18 0 0116.8-1.39l6.96 6.8c21.51 21.09 56.48 21.09 78 0s21.52-55.23 0-76.28L713.87 114.42c-21.56-21.13-56.5-21.13-78 0a53.11 53.11 0 000 76.32l6.95 6.8a10.63 10.63 0 01-1.43 16.45m28.64 497.05L307.48 356.16a157.57 157.57 0 01-18.36-8.4c-18.05-9.7-48.09-14.5-67.29-6.62-33.75 13.92-35.94 53.58-10.75 82.94l389.6 381.25c29.95 24.68 70.45 22.57 84.71-10.55 8.06-18.73 3.16-48.13-6.75-65.81a151.03 151.03 0 01-8.6-17.93" /></svg>