<svg viewBox="0 0 1024 1024" focusable="false"><path d="M648.53 147.91a364.09 364.09 0 100 728.18 364.09 364.09 0 000-728.18zm0 91.02a273.07 273.07 0 110 546.14 273.07 273.07 0 010-546.14z" /><path d="M458.75 822.8A369.15 369.15 0 00512 849.65a362.62 362.62 0 01-42.28 14.1L458.8 822.8zm-52.93-39.42l6.24 5.46 5.1 39.05 5.87 45.1a367.6 367.6 0 01-95.12 0l5.91-45.1 5.87-45.14a276.89 276.89 0 0066.13.63zm0-542.76a277.07 277.07 0 00-66.13.63l-5.91-45.14-5.87-45.1a367.5 367.5 0 0195.12 0l-5.92 45.1-5.05 39.05-6.24 5.46zM512 174.4a354.45 354.45 0 00-42.28-14.16L458.8 201.2a359.54 359.54 0 0153.2-26.85zm-219.04 29.8l-11.75-43.96a361.9 361.9 0 00-87.83 36.41l22.8 39.37 22.8 39.41a273 273 0 0165.72-27.3l-11.74-43.92zm-111.42 55.03l-27.76-36.09a366.23 366.23 0 00-67.13 67.22l36.1 27.72 36.08 27.76a273.68 273.68 0 0150.52-50.52l-27.76-36.09zM99.5 352.71l-39.37-22.75a361.9 361.9 0 00-36.4 87.79l43.96 11.74 43.96 11.74a273.64 273.64 0 0127.26-65.72l-39.41-22.75zM11.38 512c0-16.11 1.04-32 3.1-47.56l45.1 5.92 45.14 5.87a276.48 276.48 0 000 71.54l-45.15 5.92-45.1 5.87a367.55 367.55 0 01-3.1-47.56zm56.3 82.51L23.7 606.25a361.81 361.81 0 0036.41 87.84l39.37-22.8 39.41-22.8a270.8 270.8 0 01-27.3-65.72l-43.92 11.74zm55.02 111.41l-36.1 27.76a366.27 366.27 0 0067.23 67.18l27.71-36.1 27.77-36.08a275.25 275.25 0 01-50.52-50.52l-36.1 27.76zm93.48 82.06l-22.76 39.37a361.95 361.95 0 0087.8 36.4l11.74-43.96 11.74-43.96a270.93 270.93 0 01-65.72-27.26l-22.76 39.4z" /></svg>