<svg viewBox="0 0 1024 1024" focusable="false"><path d="M298.67 792.96l55.16-55.13a42.67 42.67 0 0156.32-3.54l4.02 3.54a42.67 42.67 0 013.54 56.32l-3.54 4.02-128 128-1.88 1.74-2.9 2.4-4.7 3.02-2.64 1.33-3.46 1.45-3.24 1.02-6.36 1.28-4.99.26-3.5-.17-5.08-.69-4.73-1.28-4.74-1.87-4.18-2.22-3.16-2.14-4.78-4.13-128-128a42.67 42.67 0 0156.32-63.88l4.02 3.54 55.16 55.13V231.04l-55.16 55.13-4.02 3.54a42.67 42.67 0 01-59.86-59.86l3.54-4.02 128-128 4.78-4.13 3.16-2.14 4.18-2.22 4.7-1.87 4.77-1.28 5.08-.69 3.5-.17 5 .3 6.35 1.24 3.24 1.02 3.46 1.45 2.6 1.28 4.74 3.08 2.9 2.34 1.88 1.8 128 128 3.54 4a42.67 42.67 0 010 52.31l-3.54 4.02-4.02 3.54a42.67 42.67 0 01-52.3 0l-4.02-3.54-55.16-55.13v561.92zM896 810.66a42.67 42.67 0 110 85.34H554.67a42.67 42.67 0 110-85.33H896zm0-341.33a42.67 42.67 0 110 85.34H554.67a42.67 42.67 0 110-85.34H896zM896 128a42.67 42.67 0 110 85.33H554.67a42.67 42.67 0 110-85.33H896z" /></svg>