<svg viewBox="0 0 1024 1024" focusable="false"><path d="M223.82 490.76c-43.2 0-79.52-27.68-92.25-65.7h184.46a96.97 96.97 0 01-92.25 65.7m0-271.35a1092.45 1092.45 0 0145.08 63.36c25.2 38.43 38.61 65.03 45.59 83.7H133.1c7.02-18.68 20.43-45.27 45.63-83.7a1114.3 1114.3 0 0145.09-63.31M848.6 282.8c25.2 38.39 38.61 64.98 45.58 83.7H712.84c6.97-18.72 20.38-45.31 45.62-83.7a1157.6 1157.6 0 0145-63.36 1112.09 1112.09 0 0145.14 63.36m-45.09 207.9c-43.2 0-79.47-27.62-92.25-65.7h184.5a93.42 93.42 0 01-23.18 37.72c-18.45 18.09-42.97 28.03-69.07 28.03m-155.97-94.95c0 84.6 69.97 153.45 155.97 153.45 41.53 0 80.55-15.88 110.07-44.77a151.2 151.2 0 0045.9-108.68c0-34.65-19.71-80.78-62.01-145.17a1138.95 1138.95 0 00-56.75-78.66l-14.3-17.91c-.32-.45-.77-.54-1.13-.9a28.04 28.04 0 00-6.84-5.49c-.99-.59-1.8-1.44-2.83-1.94a29.25 29.25 0 00-12.07-2.74H223.82a29.25 29.25 0 00-12.06 2.7c-1.03.54-1.84 1.35-2.83 1.98a28.89 28.89 0 00-6.84 5.49c-.32.36-.81.45-1.13.9l-14.4 17.91c-2.88 3.69-29.52 37.35-56.7 78.66-42.3 64.35-62.01 110.52-62.01 145.17 0 84.6 69.97 153.45 155.97 153.45 85.95 0 155.93-68.85 155.93-153.45 0-34.65-19.67-80.73-62.01-145.17a1183.37 1183.37 0 00-34.25-49.14h200.97v620.1H215.59a29.25 29.25 0 000 58.59h292c2.03.45 3.92 1.26 6.08 1.26 2.2 0 4.05-.81 6.12-1.26h300.69a29.25 29.25 0 100-58.55H542.92V201.5h201.01a1122.9 1122.9 0 00-34.29 49.05c-42.34 64.48-62.1 110.56-62.1 145.22" /></svg>