<svg viewBox="0 0 1024 1024" focusable="false"><path d="M312.51 301.04h-78.3a22.05 22.05 0 110-44.1h78.3a22.05 22.05 0 010 44.1m388.26 0h-78.3a22.05 22.05 0 110-44.1h78.3a22.05 22.05 0 010 44.1m-194.62 0h-78.3a22.05 22.05 0 110-44.1h78.3a22.05 22.05 0 010 44.1M312.52 466.86h-78.3a22.05 22.05 0 110-44.1h78.3a22.05 22.05 0 010 44.1m154.48 0h-39.15a22.05 22.05 0 110-44.1H467a22.05 22.05 0 010 44.1M312.51 626.13h-78.3a22.05 22.05 0 110-44.1h78.3a22.05 22.05 0 010 44.1" /><path d="M347.88 931.45H99.67A28.66 28.66 0 0171 902.78V122.16A28.65 28.65 0 0199.67 93.5h734.66A28.65 28.65 0 01863 122.16V479.7a28.66 28.66 0 11-57.33 0V150.88H128.29v723.19h190.93v-100.8a28.65 28.65 0 0128.66-28.66H460.7a28.66 28.66 0 110 57.33h-84.15v100.84a28.66 28.66 0 01-28.66 28.67" /><path d="M647.81 808.1a28.44 28.44 0 01-19.98-8.19l-79.56-77.72a28.62 28.62 0 1140.05-40.99l58.32 56.97 139.86-153.4a28.66 28.66 0 1142.3 38.6L669.05 798.65a28.44 28.44 0 01-20.34 9.36l-.86.04" /><path d="M686.1 466.69a211.72 211.72 0 00-211.5 211.5c0 116.54 94.86 211.45 211.5 211.45s211.5-94.86 211.5-211.5c0-116.6-94.86-211.5-211.5-211.5m0 480.38a269.14 269.14 0 01-268.82-268.83A269.19 269.19 0 01686.1 409.3a269.19 269.19 0 01268.82 268.87 269.14 269.14 0 01-268.82 268.83" /></svg>