<svg viewBox="0 0 1024 1024" focusable="false"><path d="M341.33 512A128.04 128.04 0 01256 632.75V896a42.67 42.67 0 11-85.33 0V632.7a128.04 128.04 0 010-241.4V128a42.67 42.67 0 0185.33 0v263.25c49.7 17.58 85.33 65.03 85.33 120.75zM256 512a42.67 42.67 0 10-85.33 0 42.67 42.67 0 0085.33 0zm384 298.67a128 128 0 11-170.67-120.7V128a42.67 42.67 0 1185.34 0v561.92C604.37 707.5 640 754.94 640 810.67zm-85.33 0a42.67 42.67 0 10-85.34 0 42.67 42.67 0 0085.34 0zm384-597.34a128.04 128.04 0 01-85.98 120.96c.43 2.26.64 4.61.64 7.04V896a42.67 42.67 0 11-85.33 0V341.33c0-2.43.21-4.78.6-7.08a128 128 0 11170.07-120.92zm-85.34 0a42.67 42.67 0 10-85.33 0 42.67 42.67 0 0085.33 0z" /></svg>