<svg viewBox="0 0 1024 1024" focusable="false"><path d="M512 85.33c235.65 0 426.67 191.02 426.67 426.67S747.65 938.67 512 938.67 85.33 747.65 85.33 512 276.35 85.33 512 85.33zm0 85.34a341.33 341.33 0 100 682.66 341.33 341.33 0 000-682.66zm0 362.66c95.06 0 165.97 67.84 170.45 141.91l.22 7.43h-85.34c0-29.78-34.22-64-85.33-64-48.55 0-81.88 30.89-85.08 59.52l-.25 4.48h-85.34c0-76.89 72.45-149.34 170.67-149.34zM341.33 384a42.67 42.67 0 110 85.33 42.67 42.67 0 010-85.33zm341.34 0a42.67 42.67 0 110 85.33 42.67 42.67 0 010-85.33z" /></svg>