<svg viewBox="0 0 1024 1024" focusable="false"><path d="M554.67 554.67A85.33 85.33 0 00640 640h170.67A85.33 85.33 0 00896 554.67v-85.34A85.33 85.33 0 00810.67 384H640a85.33 85.33 0 00-85.33 85.33h-256v-128h42.66A85.33 85.33 0 00426.67 256v-85.33a85.33 85.33 0 00-85.34-85.34H170.67a85.33 85.33 0 00-85.34 85.34V256a85.33 85.33 0 0085.34 85.33h42.66v384a128 128 0 00128 128h213.34A85.33 85.33 0 00640 938.67h170.67A85.33 85.33 0 00896 853.33V768a85.33 85.33 0 00-85.33-85.33H640A85.33 85.33 0 00554.67 768H341.33a42.67 42.67 0 01-42.66-42.67V554.67zM640 469.33h170.67v85.34H640zM640 768h170.67v85.33H640zM170.67 256v-85.33h170.66V256z" /></svg>