<svg viewBox="0 0 1024 1024" focusable="false"><path d="M874.67 85.33a64 64 0 0164 64v725.34a64 64 0 01-64 64H149.33a64 64 0 01-64-64V149.33a64 64 0 0164-64h725.34zm-64 85.34H213.33a42.67 42.67 0 00-42.66 42.66v597.34a42.67 42.67 0 0042.66 42.66h597.34a42.67 42.67 0 0042.66-42.66V213.33a42.67 42.67 0 00-42.66-42.66z" /><path d="M256 682.67a42.67 42.67 0 0142.67 42.66V768a42.67 42.67 0 11-85.34 0v-42.67A42.67 42.67 0 01256 682.67zm512 0a42.67 42.67 0 0142.67 42.66V768a42.67 42.67 0 11-85.34 0v-42.67A42.67 42.67 0 01768 682.67zM384 407.89c0-62.59 72.4-97.4 121.3-58.28l130.13 104.1a74.67 74.67 0 010 116.57L505.3 674.38c-48.9 39.13-121.3 4.28-121.3-58.27zm-128 18.78a42.67 42.67 0 0142.67 42.66v85.34a42.67 42.67 0 11-85.34 0v-85.34A42.67 42.67 0 01256 426.67zm512 0a42.67 42.67 0 0142.67 42.66v85.34a42.67 42.67 0 11-85.34 0v-85.34A42.67 42.67 0 01768 426.67zM256 213.33A42.67 42.67 0 01298.67 256v42.67a42.67 42.67 0 01-85.34 0V256A42.67 42.67 0 01256 213.33zm512 0A42.67 42.67 0 01810.67 256v42.67a42.67 42.67 0 11-85.34 0V256A42.67 42.67 0 01768 213.33z" /></svg>