<svg viewBox="0 0 1024 1024" focusable="false"><path d="M512 842.666667c-264.533333 0-377.6-89.6-384-93.866667-12.8-10.666667-14.933333-27.733333-8.533333-40.533333l362.666666-637.866667c8.533333-10.666667 19.2-17.066667 29.866667-17.066667s21.333333 6.4 27.733333 17.066667l362.666667 637.866667c8.533333 12.8 4.266667 29.866667-8.533333 40.533333-4.266667 4.266667-117.333333 93.866667-381.866667 93.866667zM192 712.533333c42.666667 23.466667 142.933333 66.133333 320 66.133334s277.333333-42.666667 320-66.133334L512 149.333333 192 712.533333z"></path><path d="M512 362.666667m-42.666667 0a42.666667 42.666667 0 1 0 85.333334 0 42.666667 42.666667 0 1 0-85.333334 0Z"></path><path d="M576 490.666667m-42.666667 0a42.666667 42.666667 0 1 0 85.333334 0 42.666667 42.666667 0 1 0-85.333334 0Z"></path><path d="M448 490.666667m-42.666667 0a42.666667 42.666667 0 1 0 85.333334 0 42.666667 42.666667 0 1 0-85.333334 0Z"></path><path d="M512 970.666667c-264.533333 0-377.6-89.6-384-93.866667-12.8-10.666667-14.933333-32-4.266667-44.8 10.666667-12.8 32-14.933333 44.8-4.266667 0 0 102.4 78.933333 341.333334 78.933334s341.333333-78.933333 343.466666-78.933334c12.8-10.666667 34.133333-8.533333 44.8 4.266667 10.666667 12.8 8.533333 34.133333-4.266666 44.8-4.266667 4.266667-117.333333 93.866667-381.866667 93.866667z"></path></svg>
