<svg viewBox="0 0 1024 1024" focusable="false"><path d="M938.68 512A42.68 42.68 0 01896 554.68h-38.77a42.68 42.68 0 110-85.36H896A42.68 42.68 0 01938.68 512zm-729.23 0a42.68 42.68 0 01-42.68 42.68H128a42.68 42.68 0 010-85.36h38.77A42.65 42.65 0 01209.45 512zm550.82-178.46c0-47.1-38.21-85.31-85.36-85.31h-46.55a85.3 85.3 0 00-85.31 85.31v387.91a85.3 85.3 0 0085.31 85.32h46.55a85.32 85.32 0 0085.36-85.32v-387.9zM481 240.45c0-47.1-38.21-85.31-85.36-85.31h-46.55a85.3 85.3 0 00-85.32 85.31v574.1a85.3 85.3 0 0085.32 85.31h46.55A85.32 85.32 0 00481 814.55v-574.1z" /></svg>