<svg viewBox="0 0 1024 1024" focusable="false"><path d="M545.93 444.77V242.99c0-28.04 9.9-51.84 29.7-71.46a98.55 98.55 0 0172.05-29.43H851.2a98.55 98.55 0 0172.09 29.43c19.8 19.62 29.7 43.43 29.7 71.46v369.9a260.1 260.1 0 01-21.46 104.31 270.94 270.94 0 01-58.05 85.95 273.6 273.6 0 01-86.67 57.51 266.31 266.31 0 01-105.21 21.29h-33.93a32.76 32.76 0 01-23.85-10 32.17 32.17 0 01-10.04-23.62v-67.28c0-9.08 3.33-17 10.04-23.62a32.76 32.76 0 0123.85-9.99h33.93c37.48 0 69.43-13.14 95.94-39.42a129.06 129.06 0 0039.78-95.13v-16.78c0-14.04-4.95-25.92-14.85-35.73a49.27 49.27 0 00-36.05-14.72H647.68a98.55 98.55 0 01-72.1-29.43 96.89 96.89 0 01-29.7-71.46zM71 242.99c0-28.04 9.9-51.84 29.7-71.46a98.55 98.55 0 0172.09-29.43h203.54a98.55 98.55 0 0172.09 29.43c19.8 19.62 29.7 43.43 29.7 71.46v369.9A260.1 260.1 0 01456.6 717.2a270.94 270.94 0 01-58.05 85.95 273.6 273.6 0 01-86.67 57.51 266.31 266.31 0 01-105.21 21.29h-33.89a32.76 32.76 0 01-23.85-10 32.17 32.17 0 01-10.08-23.62v-67.28c0-9.08 3.33-17 10.04-23.62a32.76 32.76 0 0123.85-9.99h33.93c37.48 0 69.43-13.14 95.94-39.42a129.06 129.06 0 0039.78-95.13v-16.78c0-14.04-4.95-25.92-14.85-35.73a49.27 49.27 0 00-36.05-14.72H172.79a98.55 98.55 0 01-72.09-29.43A96.89 96.89 0 0171 444.77V242.99z" /></svg>