<svg viewBox="0 0 1024 1024" focusable="false"><path d="M968 512a456 456 0 01-456 455.95c-251.86 0-456-204.1-456-456C56 260.1 260.14 56 512 56a456 456 0 01456 456zm-572.16-95.28a47.52 47.52 0 11-95.09 0 47.52 47.52 0 0195.09 0zm331.2 0a47.52 47.52 0 11-95.09 0 47.52 47.52 0 0195.04 0zM514.88 681.87c-61.73 0-110.78-34.27-115.87-78.86a31.2 31.2 0 10-62.02 7.1c9.12 79.68 87.12 134.16 177.89 134.16 89.28 0 156.72-44.16 177.26-130.46a31.2 31.2 0 00-60.72-14.45c-13.24 55.68-54.14 82.51-116.54 82.51z" /></svg>