<svg viewBox="0 0 1024 1024" focusable="false"><path d="M161.5 871.24V393.2h-55.58v533.57h812.2V393.2h-55.57v477.99z" /><path d="M84.5 396.71V208.75h855V396.7zm55.62-55.58h743.8v-76.81H140.08z" /><path d="M797.75 688.67V393.25h-55.62v168.03l-36.18-33.57-48.51 39.14v-173.6h-55.58v289.88l101.57-81.94zM670.22 84.5h-82.75c-41.5 0-75.47 33.97-75.47 75.51v75.47h158.22c41.58 0 75.6-33.93 75.6-75.47S711.8 84.5 670.17 84.5m0 55.58c10.8 0 19.94 9.13 19.94 19.93s-9.09 19.89-19.94 19.89h-102.6v-19.89c0-10.8 9.1-19.93 19.85-19.93zM436.5 84.5h-82.8c-41.4 0-75.42 33.98-75.42 75.51 0 41.53 33.98 75.47 75.47 75.47H512V160c0-41.53-33.93-75.51-75.51-75.51m0 55.58c10.8 0 19.93 9.13 19.93 19.93v19.89H353.74a20.16 20.16 0 01-19.89-19.89c0-10.8 9.14-19.93 19.9-19.93z" /></svg>