<svg viewBox="0 0 1024 1024" focusable="false"><path d="M765.44 309.76a730.88 730.88 0 01-69.12-75.1 649.81 649.81 0 01-61.87-104.1 51.2 51.2 0 00-74.24-19.63 155.73 155.73 0 00-42.66 45.23 326.4 326.4 0 00-28.59 57.17 916.05 916.05 0 00-42.67 139.95 1557.33 1557.33 0 00-31.57 183.04 132.27 132.27 0 01-48.21-54.61 310.19 310.19 0 01-20.48-135.68 51.2 51.2 0 00-85.34-36.27 358.4 358.4 0 10506.88 0zM620.8 774.4a153.6 153.6 0 01-262.4-108.8 276.48 276.48 0 00128 25.6c0-51.2 25.6-204.8 64-230.4a288.85 288.85 0 0070.4 96 154.45 154.45 0 010 217.6z" /></svg>