<svg viewBox="0 0 1024 1024" focusable="false"><path d="M512 157.95l-91.95 143.1-58.54-58.49L478 61.23a40.45 40.45 0 0168.02 0l136.7 212.86a40.39 40.39 0 0023.77 17.24l244.65 64.25c28.5 7.47 39.68 41.94 21.03 64.73L812 616.06a40.45 40.45 0 00-9.05 27.95l2.44 42.37-78.6-78.6a121.2 121.2 0 0122.62-42.92l120.32-147.03-183.77-48.25a121.34 121.34 0 01-71.25-51.8L512 157.95zm-339.2 171.4l66.26 66.17-84.73 22.27 120.31 147.03a121.47 121.47 0 0127.18 83.8l-10.88 189.65 177.03-68.99a121.34 121.34 0 0188.06 0l93.01 36.27 133.42 133.37a40.1 40.1 0 01-20.05-2.43l-235.73-91.82a40.45 40.45 0 00-29.36 0l-235.69 91.86a40.45 40.45 0 01-55.04-39.97L221.1 644a40.45 40.45 0 00-9.08-27.95L51.84 420.31a40.45 40.45 0 0121.04-64.73l99.92-26.24zm21.5-174.56l-59.43 59.4 701.01 700.97 59.4-59.44L194.3 154.75z" /></svg>