<svg viewBox="0 0 1024 1024" focusable="false"><path d="M547.69 426.44l-285.7-27.75 17.66 32.2 115.1-226.24-30.51 9.42 150.83 83.25-11.36-16.9 19.81 170.7 24.22-24.68zm-4.3 44.24A22.22 22.22 0 00567.65 446l-19.81-170.65a22.22 22.22 0 00-11.37-16.9L385.64 175.1a22.22 22.22 0 00-30.57 9.37L240.13 410.73c-7.12 13.97 2.05 30.72 17.61 32.2l285.7 27.75z" /><path d="M88.06 865.8h646.81a31.74 31.74 0 0031.75-31.75V69.63a31.74 31.74 0 00-31.75-31.74H88.07a31.74 31.74 0 00-31.75 31.74v764.42a31.77 31.77 0 0031.74 31.74zm0-63.5l31.75 31.75V69.63l-31.75 31.75h646.81l-31.74-31.75v764.42l31.74-31.75H88.07z" /><path d="M738.61 216.37l208.23-1.8-32-31.73V947.3l31.75-31.74H299.78l31.74 31.74V837.02a31.74 31.74 0 00-63.49 0V947.3a31.7 31.7 0 0031.75 31.75h646.8a31.74 31.74 0 0031.75-31.75V182.9a31.74 31.74 0 00-32.05-31.75l-208.23 1.74a31.74 31.74 0 00.51 63.5z" /><path d="M233.68 631.5h365.05a22.22 22.22 0 000-44.44H233.68a22.22 22.22 0 000 44.44z" /></svg>