<svg viewBox="0 0 1024 1024" focusable="false"><path d="M825.98 533.93a204.67 204.67 0 00-84.86-132.44l-296.5-207.02L303.58 96.1a42.15 42.15 0 00-32.94-10.5 42.58 42.58 0 00-29.78 17.28 40.53 40.53 0 00-6.35 33.28 40.66 40.66 0 0021.37 26.62l63.4 46.64-194.94 263.9a201.22 201.22 0 00-36.27 152.1A204.12 204.12 0 00172 758.23l204.03 142.2a212.9 212.9 0 00155.44 35.46 209.92 209.92 0 00135.8-82.09l121.05-166.44a202.2 202.2 0 0034.56-73 199.85 199.85 0 003.11-80.43zm-633.47-13.06l194-266.24 208.78 145.5 95.31 67.58c19.2 14 33.84 33.07 42.29 55a119.87 119.87 0 015.37 68.56 1686.95 1686.95 0 01-279.3 31.24 1472 1472 0 01-288.85-20.95 118.83 118.83 0 0122.4-80.64zm640.13 173.91s-171.3 222.55 0 243.89c0 0 170.03 0 0-243.89z" /></svg>