<svg viewBox="0 0 1280 1024" focusable="false"><path d="M756.22 398.64c-39.68-7.73-20.37-29.18-20.37-29.18s38.8-64.15-7.68-110.85c-57.7-57.8-197.84 7.37-197.84 7.37-53.56 16.64-39.32-7.62-31.74-48.9 0-48.63-16.64-130.91-159.24-82.32-142.38 48.9-264.7 220.16-264.7 220.16C-10.45 468.68.87 556.65.87 556.65c21.2 194.1 226.97 247.4 387.02 259.99 168.35 13.26 395.57-58.16 464.49-204.9 68.91-146.95-56.32-205.16-96.16-213.1zM400.38 761.86C233.16 769.69 98.1 685.67 98.1 573.85c0-111.97 135.06-201.73 302.23-209.4 167.22-7.8 302.6 61.33 302.6 173.05 0 111.77-135.38 216.73-302.6 224.36z" /><path d="M366.95 438.17c-168.04 19.71-148.63 177.61-148.63 177.61s-1.74 49.97 45.05 75.42c98.36 53.45 199.63 21.1 250.83-45.16s21.15-227.43-147.25-207.87zm-42.4 221.6c-31.33 3.68-56.67-14.45-56.67-40.81 0-26.22 22.53-53.66 53.91-56.94 36.05-3.43 59.55 17.41 59.55 43.73 0 26.21-25.45 50.43-56.78 54.01zm99.13-84.64c-10.65 7.94-23.7 6.86-29.34-2.71a24.83 24.83 0 017.12-32.1c12.44-9.27 25.4-6.61 31.03 2.7 5.63 9.53 1.58 23.87-8.81 32.11zm414.41-244.89a27.34 27.34 0 0027.34-26.06C885.96 119.09 714.2 150.94 714.2 150.94a27.55 27.55 0 00-27.44 27.8c0 15.2 12.18 27.6 27.44 27.6 123.4-27.34 96.15 96.35 96.15 96.35a27.6 27.6 0 0027.75 27.6z" /><path d="M818.07 7.22C758.68-6.71 697.6 5.32 680.45 8.6c-1.28.1-2.56 1.38-3.74 1.64-.61.1-.97.72-.97.72a40.45 40.45 0 0010.85 79.15s21.6-2.92 36.25-8.7c14.6-5.84 137.58-4.35 198.66 98.5 33.33 75.12 14.7 125.34 12.39 133.43 0 0-7.94 19.51-7.94 38.71 0 22.17 17.82 36.1 39.89 36.1 18.48 0 34-2.51 38.5-33.8h.26C1070.23 135.13 924.36 32.1 818.07 7.23z" /></svg>