<svg viewBox="0 0 1024 1024" focusable="false"><path d="M905.6 109.76v390.05l-8.64-8.64a282.29 282.29 0 00-192-74.88c-157.44 0-285.6 128.16-285.6 285.6 0 48.48 12.48 94.08 34.08 134.4a84.53 84.53 0 006.72 11.04h-61.44v65.71a30.11 30.11 0 01-30.24 30.24H109.76c-16.32 0-29.76-13.44-29.76-30.24V109.76A29.91 29.91 0 01109.76 80h766.08a29.91 29.91 0 0129.76 29.76zM309.15 203.6H223.9a24 24 0 100 48h85.25a24 24 0 000-48zm422.55 0h-85.25a24 24 0 100 48h85.25a24 24 0 000-48zm-211.78 0h-85.25a24 24 0 100 48h85.25a24 24 0 000-48zM309.15 384.08H223.9a24 24 0 100 48h85.25a24 24 0 000-48zm168.15 0h-42.63a24 24 0 100 48h42.63a24 24 0 000-48zM309.15 557.41H223.9a24 24 0 100 48h85.25a24 24 0 000-48zm634.08 143.76a235.82 235.82 0 11-471.65 0 235.82 235.82 0 01471.65 0zM664.7 840.85h.96a30.96 30.96 0 0022.08-10.23l173.95-190.84a31.2 31.2 0 10-46.08-42L663.44 764.72l-63.5-62.02a31.2 31.2 0 10-43.59 44.64l86.55 84.58a30.96 30.96 0 0021.79 8.93z" /></svg>