<svg viewBox="0 0 1077 1024" focusable="false"><path d="M62 819.9V62h947.37v757.9zm61.63-66.98h824.2V128.98h-824.2z" /><path d="M156.74 928.84h775.13v-61.58H156.74zm117.7-417.65c9.05-21.55 30.47-44.33 64.14-68.4 29.28-20.93 48.23-35.95 56.85-45 13.26-14.11 19.9-29.55 19.9-46.37 0-13.64-3.8-25-11.47-34.06-7.53-9.04-18.38-13.6-32.5-13.6-19.32 0-32.44 7.2-39.45 21.6-3.98 8.35-6.35 21.56-7.11 39.7h-61.72c1.04-27.52 6.01-49.69 14.92-66.64 17.05-32.21 47.08-48.37 90.33-48.37 34.25 0 61.44 9.52 81.66 28.42 20.23 18.95 30.32 44 30.32 75.18 0 23.92-7.1 45.19-21.41 63.76-9.43 12.31-24.77 26.05-46.23 41.2l-25.44 18.05a493.1 493.1 0 00-32.68 24.5 72.62 72.62 0 00-14.83 17.61h141.02v55.9H259.53a151.1 151.1 0 0114.92-63.48M600.44 303.3v214.38h63.33c32.4 0 55.04-15.96 67.88-47.84 6.91-17.52 10.42-38.46 10.42-62.67 0-33.44-5.21-59.06-15.68-76.97-10.52-17.9-31.36-26.86-62.62-26.86zm125.76-49.88c23.12 7.57 41.68 21.45 55.99 41.68a144.41 144.41 0 0123.45 53.05c4.12 18.95 6.15 37.04 6.15 54.29 0 43.67-8.71 80.67-26.24 110.98-23.78 40.83-60.49 61.25-110.13 61.25H533.8v-328.4h141.63c20.37.28 37.33 2.7 50.83 7.15z" /></svg>