<svg viewBox="0 0 1024 1024" focusable="false"><path d="M84.5 939.5v-855h855v855zm55.58-55.58h743.85V140.08H140.07z" /><path d="M582.2 697.4a22.5 22.5 0 110-45 8.55 8.55 0 004.54-1.13 136.98 136.98 0 0061.7-144c-10.35-52.47-53.23-95.44-106.2-106.42-88.83-18.32-169.47 47.3-169.47 134.46 0 47.88 25.02 91.62 65.39 116.55a9.36 9.36 0 004.81 1.12 22.5 22.5 0 010 45 54 54 0 01-28.49-7.83 181.94 181.94 0 01-86.71-154.84c0-115.65 106.78-202.59 223.56-178.52 70.65 14.58 127.35 71.46 141.3 141.75a181.89 181.89 0 01-81.77 190.71c-8.55 5.45-18.45 8.1-28.66 8.1zm-14.54 59.18H456.34c-30.02 0-30.02-45 0-45h111.33c30.01 0 30.01 45 0 45zM551.6 813.5h-79.79c-29.97 0-29.97-45 0-45h79.79c29.97 0 29.97 45 0 45zm-14.99-516.87a22.5 22.5 0 01-45 0v-55.44a22.5 22.5 0 0145 0zm102.42 34.02a22.5 22.5 0 01-38.83-22.77l26.6-45.27a22.5 22.5 0 0138.83 22.77zm67.69 79.56a22.5 22.5 0 11-25.2-37.3l45.13-30.47a22.5 22.5 0 0125.2 37.35zm-364.28-37.26a22.5 22.5 0 01-25.2 37.26l-45.09-30.51a22.5 22.5 0 1125.2-37.26zm89.46-65.07a22.5 22.5 0 11-38.84 22.77l-26.55-45.27a22.5 22.5 0 1138.84-22.77z" /></svg>