<svg viewBox="0 0 1024 1024" focusable="false"><path d="M273.5 296.27h79.97a22.5 22.5 0 000-45H273.5a22.5 22.5 0 000 45m396.18 0h79.92a22.5 22.5 0 100-45h-79.92a22.5 22.5 0 000 45m-198.58 0h79.96a22.5 22.5 0 000-45H471.1a22.5 22.5 0 000 45M273.5 465.52h79.97a22.5 22.5 0 000-45H273.5a22.5 22.5 0 000 45m396.18 0h79.92a22.5 22.5 0 100-45h-79.92a22.5 22.5 0 000 45m-198.58 0h79.96a22.5 22.5 0 000-45H471.1a22.5 22.5 0 000 45m-197.6 162.4h79.97a22.5 22.5 0 000-45H273.5a22.5 22.5 0 000 45m396.18 0h79.92a22.5 22.5 0 100-45h-79.92a22.5 22.5 0 000 45m-198.58 0h79.96a22.5 22.5 0 000-45H471.1a22.5 22.5 0 000 45" /><path d="M856.7 881H663.65V778.13a29.25 29.25 0 00-29.25-29.25H389.56a29.25 29.25 0 00-29.25 29.25V881H165.46V143.04h691.2V881zm29.25-796.5h-749.7A29.25 29.25 0 00107 113.75v796.5a29.2 29.2 0 0029.25 29.25h253.3a29.25 29.25 0 0029.25-29.25V807.38h186.3v102.83c0 16.2 13.14 29.29 29.25 29.29h251.56a29.25 29.25 0 0029.25-29.25v-796.5A29.25 29.25 0 00885.9 84.5z" /></svg>