<svg viewBox="0 0 1024 1024" focusable="false"><path d="M421.5 122.84a128 128 0 01217.69 76.2 298.8 298.8 0 01171.48 270.3v134.73a44.12 44.12 0 0012.88 31.15l59.95 59.95A42.67 42.67 0 01853.33 768H682.67a170.67 170.67 0 11-341.34 0H170.67a42.67 42.67 0 01-30.17-72.83l59.95-59.95a44.13 44.13 0 0012.88-31.1V469.33c0-119.46 70.19-222.55 171.48-270.29a128 128 0 0136.7-76.2zM426.67 768a85.33 85.33 0 00170.66 0H426.67zM512 170.67a42.67 42.67 0 00-42.67 42.66v14.55a42.67 42.67 0 01-28.46 40.24 213.5 213.5 0 00-142.2 201.21v134.79c0 28.54-9.43 56.1-26.58 78.55h479.87a129.15 129.15 0 01-26.63-78.6V469.33a213.42 213.42 0 00-142.25-201.21 42.67 42.67 0 01-28.41-40.28v-14.5A42.67 42.67 0 00512 170.66z" /></svg>