<svg viewBox="0 0 1024 1024" focusable="false"><path d="M512 597.33l5 .3 6.35 1.24 3.24 1.02 3.46 1.45 2.6 1.28 4.74 3.08 2.9 2.39 1.88 1.7 85.33 85.34 3.54 4.05a42.67 42.67 0 010 52.3l-3.54 4.02-4.01 3.54a42.67 42.67 0 01-52.31 0l-4.01-3.54-12.5-12.46V896a42.67 42.67 0 01-85.04 5l-.3-5V743.04l-12.5 12.46-4 3.54a42.67 42.67 0 01-59.87-59.86l3.54-4.01 85.33-85.34 4.78-4.13 3.16-2.14 4.18-2.22 4.7-1.87 4.77-1.28 5.08-.69 3.5-.17zm384-128a42.67 42.67 0 015 85.04l-5 .3H128a42.67 42.67 0 01-5-85.04l5-.3h768zm-384-384A42.67 42.67 0 01554.67 128v152.96l12.5-12.46a42.67 42.67 0 0156.32-3.54l4 3.54a42.67 42.67 0 013.55 56.32l-3.54 4.01-85.33 85.34-1.88 1.74-2.9 2.4-4.7 3.02-2.64 1.33-3.46 1.45-3.24 1.02-6.36 1.28-4.99.26-3.5-.17-5.08-.69-4.73-1.28-4.74-1.87-4.18-2.22-3.16-2.14-4.78-4.13-85.33-85.34a42.67 42.67 0 0156.32-63.87l4.01 3.54 12.5 12.46V128A42.67 42.67 0 01512 85.33z" /></svg>