<svg viewBox="0 0 1024 1024" focusable="false"><path d="M402.92 90.13h312.05a93.75 93.75 0 0179.78 44.53l202.5 328.12a93.75 93.75 0 010 98.44l-202.5 328.12a93.75 93.75 0 01-79.78 44.53H402.92a93.75 93.75 0 01-79.78-44.53L120.59 561.22a93.75 93.75 0 010-98.44l202.5-328.12a93.75 93.75 0 0179.88-44.53zm312.05 93.75H402.92L200.37 512l202.5 328.13h312.1L917.47 512l-202.5-328.12z" /><path d="M558.87 699.5a187.5 187.5 0 110-375 187.5 187.5 0 010 375zm0-93.75a93.75 93.75 0 100-187.5 93.75 93.75 0 000 187.5z" /></svg>