<svg viewBox="0 0 1024 1024" focusable="false"><path d="M213.33 640v85.33h85.34v85.34H384v-85.34h85.33v85.34h85.34v-85.34H640v85.34h85.33v-85.34h85.34V640h-85.34v-85.33h85.34V213.33H213.33v341.34h85.34V640h-85.34zM384 640v85.33h-85.33V640H384zm0-85.33V640h85.33v85.33h85.34V640H640v85.33h85.33V640H640v-85.33h85.33v-85.34H640v85.34h-85.33v-85.34h-85.34v85.34H384zm0 0v-85.34h-85.33v85.34H384zm85.33 0V640h85.34v-85.33h-85.34zM128 213.33A85.33 85.33 0 01213.33 128h597.34A85.33 85.33 0 01896 213.33v597.34A85.33 85.33 0 01810.67 896H213.33A85.33 85.33 0 01128 810.67V213.33z" /></svg>