<svg viewBox="0 0 1024 1024" focusable="false"><path d="M938.58 512.09H853.5A341.93 341.93 0 01753.37 753.4a341.25 341.25 0 01-482.74 0 341.25 341.25 0 010-482.69 340.82 340.82 0 01450.44-28.07l-60.93 60.92a255.91 255.91 0 00-329.17 27.48 256.21 256.21 0 000 362.03 256.21 256.21 0 00362.06 0 253.61 253.61 0 0074.8-181h-85.08a171.73 171.73 0 01-50.09 120.67 170.62 170.62 0 01-241.32 0 170.62 170.62 0 010-241.37c56.1-56.1 141.48-64.25 206.93-25.94l-64.55 64.55a84.48 84.48 0 00-82.05 21.76 85.59 85.59 0 000 120.67c33.2 33.2 87.47 33.2 120.66 0a83.97 83.97 0 0021.76-82.1l249.77-249.77-30.16-30.2c-166.53-166.53-436.87-166.53-603.4 0-166.52 166.57-166.52 436.9 0 603.43 166.53 166.53 436.87 166.53 603.4 0A425.34 425.34 0 00938.58 512z" /></svg>