<svg viewBox="0 0 1024 1024" focusable="false"><path d="M212.6 469.33a42.67 42.67 0 0143.02 37l.38 4.94.13 9.56a256 256 0 00279.64 246.1L524.5 755.5a42.67 42.67 0 0160.33-60.33l85.34 85.33a42.67 42.67 0 010 60.33l-85.34 85.34a42.67 42.67 0 01-60.33-60.34l13.57-13.48a346.24 346.24 0 01-26.07.98c-180.52 0-329-140.37-340.6-319.57l-.56-10.75-.17-10.28a42.67 42.67 0 0141.94-43.4zm286.9-371.5a42.67 42.67 0 013.54 56.32l-3.54 4.02-13.57 13.48A341.33 341.33 0 01853.33 512a42.67 42.67 0 11-85.29 0 256 256 0 00-279.76-254.93l11.26 11.43a42.67 42.67 0 01-56.32 63.87l-4-3.54-85.34-85.33a42.67 42.67 0 01-3.54-56.32l3.54-4.01 85.33-85.34a42.67 42.67 0 0160.33 0z" /></svg>