<svg viewBox="0 0 1024 1024" focusable="false"><path d="M768 128c20.05 0 37.55 8.96 49.07 23.47l59.3 71.68c12.38 14.5 19.63 33.7 19.63 54.18v533.34c0 46.93-38.4 85.33-85.33 85.33H213.33C166.4 896 128 857.6 128 810.67V277.33c0-20.48 7.25-39.68 19.63-54.18l58.88-71.68C218.45 136.96 235.95 128 256 128h512zM527.96 421.97H406.9v303.36h73.13v-102.9h46.68c36.95 0 65.96-8.84 87.04-26.46 21.3-17.8 31.91-41.47 31.91-71.04a98.56 98.56 0 00-14.8-53.55 94.93 94.93 0 00-41.47-36.48c-17.75-8.57-38.23-12.88-61.44-12.88zm.85 56.5c13.18.12 23.6 4.43 31.23 12.92 7.64 8.45 11.48 19.76 11.48 33.96 0 12.89-3.75 22.92-11.26 30-7.39 7.08-18.14 10.62-32.3 10.62h-47.92v-87.5zm228.95-265.14H266.24L231.25 256h561.92l-35.41-42.67z" /></svg>