<svg viewBox="0 0 1024 1024" focusable="false"><path d="M473.77 162.77a42.67 42.67 0 0176.54 0l89.73 181.85a42.67 42.67 0 0032.13 23.34l200.7 29.18a42.67 42.67 0 0123.64 72.75L751.27 611.46a42.67 42.67 0 00-12.24 37.76l34.26 199.85a42.67 42.67 0 01-61.87 45.01l-179.5-94.38a42.67 42.67 0 00-39.72 0l-179.5 94.38a42.67 42.67 0 01-61.82-45.01l34.26-199.85a42.67 42.67 0 00-12.29-37.76l-145.2-141.57a42.67 42.67 0 0123.65-72.75l200.66-29.18a42.67 42.67 0 0032.13-23.34zm38.27 115.29L460.6 382.38a128 128 0 01-96.43 70.06l-115.07 16.72 83.28 81.2a128 128 0 0136.82 113.28l-19.66 114.64 102.95-54.1a128 128 0 01119.13 0l103 54.1-19.68-114.64a128 128 0 0136.78-113.28l83.33-81.2-115.11-16.77a128 128 0 01-96.43-69.97l-51.46-104.36z" /></svg>