<svg viewBox="0 0 1024 1024" focusable="false"><path d="M513.8 960.88c-246.65 0-447.3-200.7-447.3-447.35 0-246.69 200.65-447.3 447.3-447.3 30.38 0 60.66 3.15 90.14 9.09a29.07 29.07 0 01-11.7 56.97 392.54 392.54 0 00-78.44-7.92c-214.6 0-389.16 174.55-389.16 389.16 0 214.56 174.6 389.16 389.16 389.16 214.6 0 389.16-174.6 389.16-389.16 0-44.37-7.42-87.89-22.05-129.33a29.07 29.07 0 1154.9-19.35 446.85 446.85 0 0125.25 148.68c0 246.6-200.61 447.3-447.3 447.3" /><path d="M723.14 446.12H578.15a5.67 5.67 0 01-5.67-5.67v-65.38a5.4 5.4 0 014.54-5.58c38.39-5.85 94.46-16.11 132.75-30.11a14.27 14.27 0 003.74-24.75l-13.23-10.04a14.45 14.45 0 00-13.5-2.02c-30.06 11.03-92.97 24.52-150.7 32.22a5.63 5.63 0 00-4.87 5.58v159.66c0 65.56-5.35 139.86-45.04 193.28a14.31 14.31 0 004.27 20.88 27.81 27.81 0 016.08 5.03 14.4 14.4 0 0011.52 5.99 14.31 14.31 0 0011.56-5.85c47.39-64.98 52.88-156.29 52.88-219.33v-12.24h60.07a5.73 5.73 0 015.72 5.76v218.79c0 7.87 6.39 14.26 14.27 14.26h13.18a14.27 14.27 0 0014.26-14.26V487.79h43.16a14.22 14.22 0 0014.26-14.22v-13.19a14.27 14.27 0 00-14.26-14.26" /><path d="M489.19 660.63l12.28-5.04a14.27 14.27 0 008.1-17.73c-7.78-22.95-20.02-42.57-36.45-67.9a14.22 14.22 0 00-17.28-5.45l-11.38 4.55a14.13 14.13 0 00-8.2 8.73 14.09 14.09 0 001.36 11.88c14.4 23.63 25.78 42.21 32.67 62.41a14.31 14.31 0 0013.5 9.63c1.8 0 3.6-.36 5.4-1.08M373.22 576.8a14.36 14.36 0 00-9.09-6.84l-13.18-3.2a14.09 14.09 0 00-16.92 9.41c-9.54 29.16-19.85 47.11-39.24 68.8a14.36 14.36 0 00-3.42 12.15c.9 4.37 3.69 8.1 7.65 10.08 1.39.68 4.4 2.93 9.13 6.84a14.09 14.09 0 009.09 3.29c.45 0 .9 0 1.35-.09a14.13 14.13 0 009.63-5.13c22.41-27.27 36.18-52.38 46.17-84.06a14.18 14.18 0 00-1.17-11.25" /><path d="M382.08 381.23h59.31c2.57 0 4.46 2.3 3.74 4.77-5.76 18.9-13.41 41.49-20.79 60.12h-29.93a278.24 278.24 0 00-15.79-59.85 3.69 3.69 0 013.46-5.04m145.26 166.18v-13.23a14.22 14.22 0 00-14.22-14.22h-81.45V487.8h84.15a14.22 14.22 0 0014.27-14.22v-13.23a14.27 14.27 0 00-14.22-14.22h-47.25a1189.04 1189.04 0 0022.5-64.89h17.46a14.27 14.27 0 0014.22-14.27v-13.18a14.22 14.22 0 00-14.22-14.22h-70.25a364.45 364.45 0 00-27.54-45.05 13.95 13.95 0 00-15.93-5.3l-12.78 4.13a14.22 14.22 0 00-7.38 21.51A391.39 391.39 0 01390 339.6h-78.7a14.22 14.22 0 00-14.22 14.18v13.18c0 7.88 6.43 14.27 14.22 14.27h21.38l.63 1.89c8.23 18.99 15.75 43.96 19.08 63h-47.97a14.22 14.22 0 00-14.22 14.22v13.23c0 7.87 6.39 14.22 14.22 14.22h85.99v32.17h-84.6a14.22 14.22 0 00-14.26 14.22v13.23c0 7.83 6.39 14.22 14.26 14.22h80.1c2.57 0 4.5 2.03 4.5 4.5v108.59c-6.61-.14-16.02-.09-27.31-.36-5.31.63-10.04 2.61-12.65 7.11a14.27 14.27 0 00.09 14.49 43.2 43.2 0 014.32 9.76 14.2 14.2 0 0013.82 10.8c22.09 0 35.41 0 45.76-3.87 15.3-6.57 17.24-19.44 17.24-29.92V566.09a4.5 4.5 0 014.5-4.46h76.95a14.22 14.22 0 0014.22-14.22" /></svg>