<svg viewBox="0 0 1024 1024" focusable="false"><path d="M84.5 939.5v-855h855v855zm55.58-55.53h743.85v-743.9H140.12z" /><path d="M427.26 674.09l-45.04-103.28-47.25 103.28zm18.68 43.06H315.89L282.05 791h-49.37l150.3-322.83 145 322.83h-50.13zm165.87 30.74h20.66c20.6 0 37.7-2.2 51.38-6.53 13.64-4.5 25.92-11.83 36.95-21.82 22.59-20.57 33.84-47.43 33.84-80.42 0-33.34-11.12-60.43-33.44-81.09-20.07-18.54-49.63-27.76-88.74-27.76h-20.65zm-45.9 43.06v-303.7h63.81c30.6 0 54.72 2.97 72.36 9 19.08 5.9 36.31 15.93 51.75 30.15 31.41 28.57 47.07 66.15 47.07 112.77 0 46.66-16.29 84.47-49 113.27a143.1 143.1 0 01-51.57 30.14c-16.74 5.63-40.6 8.42-71.42 8.42zM220.49 273.05h276.35v-55.58h-276.3zm0 96.66h177.25v-55.57H220.5z" /></svg>