<svg viewBox="0 0 1024 1024" focusable="false"><path d="M704 128c131.41 0 234.67 101.3 234.67 230.19 0 140.63-114.6 258.13-294.4 419.75L512 896l-61.87-54.83-1.7-1.49c-218.71-195.03-363.1-323.67-363.1-481.5C85.33 229.3 188.6 128 320 128c74.24 0 145.5 33.92 192 87.47A257.58 257.58 0 01704 128zm0 85.33c-48.21 0-96.43 22.19-127.57 58.07L512 345.64l-64.43-74.24A172.25 172.25 0 00320 213.33c-84.65 0-149.33 63.45-149.33 144.86 0 31.87 8.83 63.36 27.82 98.04 34.73 63.32 85.03 118.79 219.39 241.16l26.2 23.76 67.7 60.63 56.11-50.13 26.33-23.72c126.89-114.86 182.48-172.68 218.4-229.8l6.92-11.44 5.72-10.03c19.2-34.86 28.07-66.47 28.07-98.47 0-81.41-64.68-144.86-149.33-144.86z" /></svg>