<svg viewBox="0 0 1024 1024" focusable="false"><path d="M938.67 810.67a128 128 0 01-128 128H213.33a128 128 0 01-128-128V213.33a128 128 0 01128-128H384a42.67 42.67 0 110 85.34H213.33a42.67 42.67 0 00-42.66 42.66v566.53l178.6-250.03a42.67 42.67 0 0157.81-11.05l4.27 3.12 219.48 182.87 59-88.45a42.67 42.67 0 0161.7-9.98l3.97 3.5 97.83 97.79V640a42.67 42.67 0 1185.34 0v170.67zm-546.7-193.8l-168.9 236.46h587.6a42.67 42.67 0 0039.98-27.73l-118.7-118.61-56.45 84.69a42.67 42.67 0 01-58.8 12.07l-4-2.98-220.72-183.9zM725.34 85.33A42.67 42.67 0 01768 128v128h128a42.67 42.67 0 110 85.33H768v128a42.67 42.67 0 11-85.33 0v-128h-128a42.67 42.67 0 110-85.33h128V128a42.67 42.67 0 0142.66-42.67zM341.33 256a85.33 85.33 0 110 170.67 85.33 85.33 0 010-170.67z" /></svg>