<svg viewBox="0 0 1024 1024" focusable="false"><path d="M648.83 642.76c3.75 0 7.48.49 11.1 1.45l198.69 52.85a42.94 42.94 0 017.5 2.76c11.9 5.7 25.3 14.37 37.94 26.5 19.5 18.74 32.76 41.86 36.58 69.46.27 1.95.4 3.9.4 5.88v117.92a43.18 43.18 0 01-43.19 43.18H126.21a43.18 43.18 0 01-43.18-43.18V801.74l-.01-.5c-.12-4.4.26-10 1.46-16.51a99.82 99.82 0 0110.99-30.45c14.92-26.84 41.77-47.42 81.73-58.35l1.22-.33 170.77-51.03a43.18 43.18 0 0112.37-1.81h287.27zm-.24 45H361.82l-171.18 51.16-1.22.32c-28.66 7.76-45.64 20.75-54.62 36.9a55.02 55.02 0 00-6.07 16.76 45 45 0 00-.67 5.34l-.04.63c0 .2 0 .39-.02.57v.6l.02.64.01.65v116.43h768V801.73c-2.35-16.62-10.53-30.83-23.14-42.95a103.24 103.24 0 00-25.99-18.27L648.6 687.76zm-2.53-587.61c19.85 11.16 34.8 27.9 45.14 49.02 8.64 17.67 13.88 38 16.3 60.47 3.08 28.56 1.5 58.63-2.96 87.8-.5 3.26-1.02 6.39-1.54 9.36 1.2.96 2.37 1.93 3.51 2.9 24.11 20.58 34.13 44.9 29.96 70.13-3.12 18.9-13.58 35.82-28.72 51.21a166.35 166.35 0 01-21.65 18.47 356.45 356.45 0 00-4.93 10.85l-.38.87-.77 1.78-.75 1.74c.1-.25-11.33 27.24-16.55 39.21l-.16.36-.76 1.72-.76 1.7c-15.51 34.48-31.04 59.04-52.5 78.52-27.75 25.22-62.8 38.25-106.4 37.5-32.27-.56-61.83-12.3-88.35-33.2-21.62-17.02-40.63-39.6-57.36-66.37-12.93-20.67-23.78-42.67-32.7-64.66a421.6 421.6 0 01-7.23-19.13l-.38-1.1-.87-.47c-28.57-15.98-42.22-41.53-41.8-72 .24-18.3 5.43-36.91 13.8-55.3a197.13 197.13 0 018.59-16.67l.06-.11c-5.7-52 .37-94.6 17.05-128.32 15-30.33 37.87-52.16 66.1-66.37 17-8.56 34.98-13.89 53.1-16.69a181.07 181.07 0 0123-2.14l.72-.01 1.58-.9c52.5-29.37 110.78-23.96 188.61 19.83zM480.01 246.39l-.92-.85c-32.91 31.13-66.4 51.97-99.3 64.1a194.21 194.21 0 01-40.05 10.34c-2.4.34-4.7.6-6.85.81l-.2.35a153.23 153.23 0 00-4.48 9.05c-6.02 13.2-9.62 26.12-9.77 37.26-.22 16.04 6.37 27 24.4 34.89l.55.24 9.72 4.16 3 10.14c.05.2.2.65.42 1.37l.07.2.44 1.4c.32.97.67 2.03 1.07 3.18l.2.59.33.95a373.79 373.79 0 006.8 18.05c8 19.73 17.72 39.45 29.14 57.72 30.69 49.08 67.04 77.7 108.34 78.42 32.21.56 56.14-8.33 75.36-25.8 15.98-14.51 28.53-34.36 41.73-63.69l.44-1 .64-1.43a1781.2 1781.2 0 009.18-21.57l.26-.6 7.21-17.24 1.34-3.13c3.24-7.5 6.12-13.74 9.01-19.49l.38-.75 2.84-5.59 5.33-3.31 1-.66.68-.47a110.9 110.9 0 003.9-2.82c4.6-3.46 9.21-7.42 13.44-11.72 9.23-9.39 15.06-18.82 16.41-27 1.48-8.94-2.17-17.8-14.77-28.57a97.17 97.17 0 00-6.42-5c-49.93-3.26-98.44-23.51-144.14-55.09a424.88 424.88 0 01-45.43-36.24l-1.3-1.2-.92-.85zm-5.28-124.04l-.73.46-6.04 3.8-7.13-.38-.87-.02a86.47 86.47 0 00-3.97.03l-.52.02-.99.04-1.04.05c-4.47.23-9.32.7-14.42 1.5-13.74 2.12-27.27 6.13-39.73 12.4-19.86 10-35.53 24.96-46 46.14-11.12 22.45-16.2 51.5-13.98 88.07 7.66-1.45 16-3.74 24.9-7.03 31.5-11.62 64.44-33.39 97.47-68.07l1-1.06 16.76-17.74 16.32 18.16 1.03 1.1.28.3.29.3.93.97 1.04 1.07a310.54 310.54 0 0011.23 10.89 380.23 380.23 0 0041.75 33.46c34.65 23.94 70.6 40.11 106.37 45.55l1.09.16.14-.94.15-.96c3.92-25.63 5.3-52 2.7-76.16-3.97-36.82-16.59-62.62-38.76-75.1-36.27-20.39-65.87-30.58-90.75-32.15-21.43-1.34-39.9 3.62-58.52 15.14z" /></svg>