<svg viewBox="0 0 1024 1024" focusable="false"><path d="M143.74 529.62a213.12 213.12 0 01-36.33-161.28c20.88-111.84 122.78-126.77 128.78-127.68 68.4-12.48 122.98 36.81 137.38 51.4l26.97 85.3-34.84 76.46a31.2 31.2 0 005.28 33.9l65.13 72-35.52 90.62a30.91 30.91 0 00-1.2 19.3l19.87 75.4c-158.01-81.84-237.02-161-275.52-215.47zm287.19-68.6l31.34-68.64a30.96 30.96 0 001.35-22.32l-32.64-103.53a31.06 31.06 0 00-6.1-11.04c-3.36-3.94-84.77-97.2-198.14-76.47-52.18 6.39-157.1 51.84-180.68 177.84-13.39 71.76 3.65 147.84 46.7 208.8 47.62 67.3 148.86 168.1 360.97 265.92.48.2.86.1 1.25.3 3.74 1.53 7.68 2.63 11.8 2.63a30.29 30.29 0 007.97-1.05c2.4-.63 4.23-1.92 6.24-3.08 1.1-.57 2.16-.86 3.22-1.58a30.24 30.24 0 0010.17-11.52c.2-.43.63-.58.77-.91.63-1.35.58-2.79 1.01-4.13.62-2.06 1.25-4.08 1.49-6.24.14-2.26-.15-4.32-.43-6.58-.15-1.34.14-2.68-.24-4.08l-34.66-131.7 38.93-99.13a31.1 31.1 0 00-5.9-32.35l-64.42-71.14zm454.03 71.24c-40.7 55.58-125.57 136.84-295.87 218.78l.62-86.5 63.46-85.39a31.2 31.2 0 002.78-32.78l-43.53-85.44 48.19-58.08a31.68 31.68 0 007.2-21.31l-3.99-94.7c18.58-17.24 70.13-57.6 135.27-44.55 1.05.14 105.5 16.08 124.8 129.4a213.4 213.4 0 01-38.98 160.57m100.47-171.03C963.92 235 859.8 187.76 809.7 180.85c-114.72-23.52-197.19 68.5-200.64 72.48 0 .05 0 .14-.15.24a30.43 30.43 0 00-6.57 13.15c-.34 1.15-.39 2.2-.48 3.36-.34 1.92-1.06 3.65-.96 5.62l3.98 96.48-53.62 64.7a31.2 31.2 0 00-3.74 34.08l44.06 86.45-58.03 78.1a31.34 31.34 0 00-6.14 18.38l-1.06 146.3.1.34c0 2.2.77 4.37 1.25 6.57.48 1.92.48 3.84 1.24 5.57l.05.39c.2.33.58.48.77.81a29.86 29.86 0 009.6 11.19 30.34 30.34 0 0018.05 6.57h.19a30.72 30.72 0 0012.34-2.59h.24c213.64-94.42 316.46-193.44 365.08-259.92 44.07-60.14 62.4-135.94 50.12-207.84" /></svg>