<svg viewBox="0 0 1024 1024" focusable="false"><path d="M780.9 772.1c-5.5 0-10.9-2.1-15.1-6.2-8.3-8.3-8.3-21.8 0-30.2 56.6-56.6 89.2-130.3 91.9-207.5 2.6-76.7-24.6-147.6-76.8-199.8-52.2-52.2-123.1-79.5-199.8-76.8-77.2 2.7-150.9 35.3-207.5 91.9-49.1 49.1-81 113-89.6 179.8-1.5 11.7-12.2 19.9-23.9 18.4s-19.9-12.2-18.4-23.9c4.9-37.4 15.9-73.8 32.7-108.2 17.4-35.5 40.6-67.9 69.1-96.3C407.8 249 491.6 212 579.7 208.9c43-1.5 84.7 5.2 123.9 20 40.7 15.3 76.9 38.6 107.6 69.3 30.7 30.7 54 66.9 69.3 107.6 14.7 39.2 21.5 80.9 20 123.9-3 88-40.1 171.9-104.4 236.2-4.2 4.1-9.7 6.2-15.2 6.2z"></path><path d="M150.1 758.9c-6.4 0-12.7-2.9-16.9-8.3-7.2-9.3-5.5-22.7 3.9-29.9 54.5-42.1 94.1-121.6 106-212.9 1.5-11.7 12.2-19.9 23.9-18.4s19.9 12.2 18.4 23.9c-6.6 50.6-21.2 99.3-42.2 140.8-21.1 41.5-48.7 76.3-80 100.4-4 2.9-8.6 4.4-13.1 4.4z"></path><path d="M313.9 937c-1 0-2.1-0.1-3.1-0.2-100.1-14.6-176.7-98.5-182.1-199.6-0.6-11.8 8.4-21.8 20.2-22.4 11.8-0.6 21.8 8.4 22.4 20.2 4.3 80.9 65.6 148 145.6 159.6 11.7 1.7 19.7 12.5 18 24.2-1.5 10.5-10.6 18.2-21 18.2z"></path><path d="M387.5 944.3c-51.3 0-82.6-8.7-84.4-9.2-11.3-3.2-17.9-15.1-14.6-26.4 3.2-11.3 15-17.9 26.3-14.6 0.9 0.2 55.4 15 137.9 2.7 48.6-7.3 97.2-22.4 144.7-44.9 59.5-28.2 117.3-68.3 171.7-119.2 8.6-8 22.1-7.6 30.2 1 8 8.6 7.6 22.1-1 30.2-58.1 54.3-120.1 97.1-184.1 127.3-51.6 24.3-104.6 40.5-157.6 48.1-25.8 3.7-49 5-69.1 5z"></path><path d="M744.1 281.2c-3.4 0-6.9-0.8-10.1-2.5-10.4-5.6-14.3-18.5-8.7-28.9 17.9-33.4 40.2-59 66.1-76.1 26.5-17.5 57.2-26.3 91.1-26.3 11.8 0 21.3 9.6 21.3 21.3s-9.6 21.3-21.3 21.3c-51.7 0-90.8 26.1-119.7 79.9-3.7 7.2-11.1 11.3-18.7 11.3z"></path><path d="M873.4 327.8c-2.6 0-5.3-0.2-7.9-0.5-17-2.1-32.1-10.6-42.6-24.1-13.7-17.5-18.6-47-16.6-98.8l1-25.2 24.7 5.1c50.7 10.5 78.1 22.5 91.8 40 10.5 13.5 15.2 30.2 13.1 47.2-2.1 17-10.6 32.1-24.1 42.6-11.5 9-25.2 13.7-39.4 13.7z m-24.8-95.6c0.4 18.4 2.2 37.5 7.9 44.8 3.5 4.5 8.6 7.3 14.2 8 5.7 0.7 11.2-0.9 15.7-4.4 4.5-3.5 7.3-8.6 8-14.2 0.7-5.7-0.9-11.2-4.4-15.7-5.6-7.3-23.6-13.7-41.4-18.5z"></path><path d="M398.3 438.6c-4.4 0-8.9-1.4-12.7-4.2-9.5-7-11.5-20.4-4.5-29.8C431.4 336.7 508.3 293 592 284.7c11.7-1.2 22.2 7.4 23.3 19.1 1.2 11.7-7.4 22.2-19.1 23.3-71.7 7.1-137.6 44.5-180.7 102.8-4.2 5.7-10.6 8.7-17.2 8.7z"></path><path d="M358.1 469.9m-21.3 0a21.3 21.3 0 1 0 42.6 0 21.3 21.3 0 1 0-42.6 0Z"></path></svg>
