<svg viewBox="0 0 1024 1024" focusable="false"><path d="M275.75 851.97c0 14.85 11.38 27.45 26.64 29.43l122.85 19.67c84.1 12.87 162.09 19.3 233.46 19.3 58.5 0 49.86-4.32 100.03-13.1 62.69-12.73 98.73-52.1 107.33-119.74l54.77-366.88c0-52.88-44.46-95.99-99.5-95.99-66.51 0-97.83-.9-164.34-.9-15.12 0-41.22 7.11-43.47-13.86-.81-7.15-.04-15.93.27-23.17 2.52-51.66 15.8-125.91-14.71-169.88-25.66-37.17-72.59-55.8-118.04-49.18a37.71 37.71 0 00-31.82 36.5l-1.35 64.97c-1.21 45.95 3.38 88.38-22.14 128.97-23.85 37.9-76.54 69.4-118.17 76.28a37.48 37.48 0 00-31.77 36.67v440.91zm-74.7-487.21h-72.27c-9.54 0-17.28 10.35-17.28 22.95v478.8c0 12.73 7.74 23.04 17.28 23.04h72.27c9.54 0 17.28-10.3 17.28-23.04V387.7c0-12.6-7.74-22.95-17.28-22.95" /></svg>