<svg viewBox="0 0 1024 1024" focusable="false"><path d="M561.2 133.76c-41.57-18.24-84.34-27.07-125.9-20.4-47.81 7.68-88.42 35.47-117.75 84.77-20.73 34.85 30.29 67 52.8 33.26l5.23-17.33-8.06-20.88c-7.25-6-7.25-6-9.46-7.15l-3.3-1.39-1.83-.58-1.73-.48-3.74-.96-10.56-2.64a235.78 235.78 0 00-20.07-4.46c-31.3-4.32-62.11-.82-87.7 12.77-49.34 26.2-68.97 81.31-58.41 138.33l30.72-5.7-10.42-29.43-3.16.57c-2.21.34-2.21.34-5.1.92-2 .38-2 .38-4.31.96-39.84 9.84-75.5 42.04-96.72 82.75a118.37 118.37 0 00-13.06 69.36c1.25 12.19 2.4 17.47 8.35 42.53a414.91 414.91 0 013.46 15.21c.58 2.79.05 6.87-3.12 21.5-3.84 17.77-5.28 28.66-4.51 42.58 2.59 43.97 17.47 82.56 46.37 108.48 6 7.44 21.3 22.18 42.14 36.87 63.55 44.83 134.98 57.26 205.44 14.54a31.2 31.2 0 00-32.4-53.33c-45.8 27.75-91.78 19.78-137.09-12.19a191.66 191.66 0 01-33.55-29.42c-17.95-16.42-26.88-39.7-28.6-68.55-.4-6.77.47-13.2 3.2-25.77 5.2-24.1 6.25-32.45 3.22-47.24a516.48 516.48 0 00-3.84-17.23c-5.28-21.74-6.14-26.06-7-34.27a56.4 56.4 0 016.38-34.27c13.44-25.92 35.52-45.84 56.54-51.03l4.32-.81c6.1-1.01 9.27-1.68 13.83-3.31a31.2 31.2 0 0020.35-35.14c-6.05-32.45 3.7-59.8 26.2-71.76 12.68-6.72 30.63-8.78 50.46-6.05l13.3 3.22 10.02 2.5 2.88.76c-2.06-.72-2.06-.72-4.36-1.77-2.21-1.16-2.21-1.16-3.75-2.16l-5.71-4.95-8.02-20.88h31.2l26.79 15.94c19.92-33.5 44.54-50.35 73.97-55.06 27.84-4.46 59.37 2.02 90.96 15.89 15.02 6.62 26.4 13.2 32.16 17.18a31.2 31.2 0 0035.23-51.55 272.64 272.64 0 00-42.24-22.7z" /><path d="M577.52 221.26c27.6-16.8 63.65-25.82 109.82-22.36 36.3 2.68 72.48 28.8 102.24 71.18a190.08 190.08 0 0123.1 44.69 35.9 35.9 0 0016.02 19.49c34.13 20.4 54.82 41.28 64.61 67.44 13.06 35.13 3.07 77.47-25.68 121.68a31.2 31.2 0 0052.32 34.03c38.45-59.19 53-120.67 31.83-177.5-15.56-41.67-45.84-72.2-91.01-99.17.96.48 3.36 2.16 5.66 4.8 2.69 2.97 4.32 6.14 4.8 7.68a251.9 251.9 0 00-30.62-59.04c-39.55-56.16-90.72-93.22-148.66-97.54-59.33-4.42-108.33 7.82-146.88 31.34-20.69 12.58-34.37 25.73-41.76 35.67a31.2 31.2 0 1050.02 37.25c2.88-3.9 10.85-11.52 24.19-19.64z" /><path d="M726.46 491.65c31.2.29 51.84 2.16 75.32 9.26 39.45 12 63.21 34.61 69.6 73.97 7.34 45.74-3.36 68.88-25.44 81.12-11.04 6.1-22.7 8.3-28.9 8.4a31.2 31.2 0 00-29.28 21.31 98.2 98.2 0 01-11.52 22.42c-8.74 12.72-16.7 17.76-24.43 16.32a31.2 31.2 0 00-30.82 48.86 252.48 252.48 0 0116.37 27.22c5.38 10.32 9.6 20.16 12.2 28.99 4.74 15.84 3.78 20.83.52 22.37l44.11 22.8c-3.36-19.2-13.44-45.7-34.46-72.2a178.03 178.03 0 00-89.33-60.09c-61.73-18.86-89.95-30.96-96.1-35.33a31.2 31.2 0 10-36.1 50.88c12.68 9.03 46.38 23.47 113.96 44.16 25.44 7.78 44.6 21.27 58.7 39.12 13.64 17.19 20.16 34.37 21.9 44.21a31.2 31.2 0 0044.06 22.85c37.87-17.9 45.02-54.82 32.64-96.58a228.2 228.2 0 00-16.7-40.03 303.65 303.65 0 00-20.94-34.6l-30.81 48.86c36.62 6.43 65.66-11.76 86.73-42.53A156.96 156.96 0 00847 705.49l-29.28 21.31a125.71 125.71 0 0058.47-16.22c45.5-25.16 68.35-74.36 56.83-145.68-10.56-65.28-52.56-105.32-113.04-123.7-30.72-9.31-56.16-11.62-92.88-12-17.67-3.74-34.8 6.1-39.27 22.7a31.2 31.2 0 0021.99 38.26c4.99 1.4 5.13 1.4 16.7 1.44z" /><path d="M322.06 718.02c21.12 36.52 53.9 61.82 98.93 68.78 71.38 11 131-13.06 177.46-59 22.8-22.55 37.68-45.06 45.5-61.1a31.2 31.2 0 10-56.16-27.26 195.36 195.36 0 01-33.21 43.97c-33.36 33.02-74.02 49.44-124.08 41.71-24.92-3.84-42.2-17.18-54.44-38.4a116.64 116.64 0 01-14.88-42.67 31.2 31.2 0 10-62.01 6.62c1.92 17.76 8.4 42.29 22.9 67.35z" /></svg>