<svg viewBox="0 0 1024 1024" focusable="false"><path d="M895.86 149.82a16.88 16.88 0 00-16.96 16.75V838.4H738V220.57a16.88 16.88 0 00-16.88-16.75H226.6v-59.06h568.27v420.06a16.88 16.88 0 0016.96 16.83 16.88 16.88 0 0016.96-16.83V127.97a16.88 16.88 0 00-16.92-16.75H209.73a16.88 16.88 0 00-16.96 16.75v75.85h-64.63a16.88 16.88 0 00-16.92 16.75v119.39a16.88 16.88 0 0016.92 16.75 16.88 16.88 0 0017-16.8v-102.5h558.98v641.83H145.18v-92.39a16.88 16.88 0 00-17-16.75 16.88 16.88 0 00-16.92 16.8v109.13a16.88 16.88 0 0016.92 16.75h592.94a16.88 16.88 0 0016.92-16.75v-24.09h157.87a16.88 16.88 0 0016.91-16.79V166.57a16.88 16.88 0 00-16.91-16.75" /><path d="M385.44 313.76A240.68 240.68 0 01625.9 554.2c0 132.6-107.83 240.47-240.39 240.47a240.68 240.68 0 01-240.55-240.47 240.68 240.68 0 01240.47-240.43m0 514.65c151.16 0 274.17-123.02 274.17-274.22S536.64 279.97 385.44 279.97a274.56 274.56 0 00-274.22 274.22c0 151.2 123.06 274.22 274.22 274.22" /><path d="M349.5 530.18a53.54 53.54 0 01-11.31-8.1 32.44 32.44 0 01-7.17-9.62 25.99 25.99 0 016.96-31.43c6.32-5.7 15.02-9.7 26.11-12.02v68.26a172.8 172.8 0 01-14.6-7.09zm54.63 59.02a254.8 254.8 0 0117.08 7.77 107.74 107.74 0 0114.47 8.86 43.79 43.79 0 0110.04 10.12 19.6 19.6 0 013.8 11.52 30.54 30.54 0 01-3.2 13.8 40.2 40.2 0 01-9.12 11.68 52.14 52.14 0 01-14.22 9.03 70.03 70.03 0 01-18.85 5.27V589.2zm-67.59 56.62a87.2 87.2 0 01-14.51-33.75h-42.06a112.77 112.77 0 0029.4 57.63 110.26 110.26 0 0025.06 19.28 96.67 96.67 0 0029.66 10.97v44.08h40.08v-43.28a148.02 148.02 0 0031.39-6.58 97.08 97.08 0 0027.8-13.93 70.88 70.88 0 0019.91-22.23c5.15-8.82 7.64-19.24 7.64-31.3 0-10.76-2.54-19.96-7.6-27.72a77.37 77.37 0 00-19.95-20.25 141.88 141.88 0 00-27.8-15.27 1000.22 1000.22 0 00-31.43-12.7v-82.69c10.46 1.9 19.1 5.9 25.77 11.9 6.75 5.99 12.07 14.3 16.03 24.8h40.08a82.56 82.56 0 00-29.74-49.44 95.05 95.05 0 00-24.34-13.8 112.56 112.56 0 00-27.8-6.91v-28.1h-40.08v28.1a122.9 122.9 0 00-29.79 7.76 92 92 0 00-24.55 14.47 66.57 66.57 0 00-16.58 20.12 52.06 52.06 0 00-6.07 24.94c0 10 2.1 18.73 6.54 26.15a73.61 73.61 0 0017.25 19.83 126.08 126.08 0 0024.64 15.19c9.32 4.3 18.81 8.44 28.6 12.23v89.65c-11.56-3.37-20.67-9.7-27.55-19.15z" /></svg>