<svg viewBox="0 0 1024 1024" focusable="false"><path d="M687.06 216.28c-52.18-28.12-110.8-45.61-175.06-45.61-221.87 0-376.87 208.6-426.67 341.33A467.93 467.93 0 00190.3 713.05l60.33-60.38a378.37 378.37 0 01-75.3-134.95 544.51 544.51 0 01117.37-164.14C355.03 294.7 429.27 256 512 256c39.13 0 76.37 8.66 111.32 24.02l63.74-63.74zm134.1 107.22L760.75 384c39.2 43.95 69.12 92.33 87.93 133.76C811.14 637.66 702.98 768 512 768a365.57 365.57 0 01-117-18.35l-65.95 65.97c52.26 23.6 113.1 37.71 182.95 37.71 256 0 391.13-189.6 426.67-341.33-21.17-56.4-61.32-126.5-117.5-188.5z" /><path d="M779 184.66L839.35 245 659.03 425.3A170.67 170.67 0 01425.3 659.03L243.46 840.87l-60.33-60.33 37.07-37.12 60.42-60.37 84.35-84.35A170.67 170.67 0 01598.7 364.97l64.21-64.21 61.7-61.74 54.4-54.36zM611.34 473L473 611.33A106.67 106.67 0 00611.33 473zM512 405.33A106.67 106.67 0 00412.67 551L551 412.67a106.41 106.41 0 00-39-7.34z" /></svg>