<svg viewBox="0 0 1024 1024" focusable="false"><path d="M746.27 824.62H276.29a26.1 26.1 0 110-52.3h469.98a26.1 26.1 0 010 52.3zM530.72 711.92a26.1 26.1 0 01-19.84 7.47 25.92 25.92 0 01-19.85-7.47L361.97 555.78a26.37 26.37 0 010-37.21 26.1 26.1 0 0137.03 0l86.18 104.22v-398.7a26.1 26.1 0 0152.2 0V621.8l85.32-103.23a26.19 26.19 0 0137.08 0 26.37 26.37 0 010 37.21L530.72 711.94z" /><path d="M276.29 818.99a20.52 20.52 0 110-41.04h469.98a20.52 20.52 0 010 41.04H276.29zm501.75-20.52a31.77 31.77 0 00-31.77-31.77H276.29a31.77 31.77 0 000 63.54h469.98a31.76 31.76 0 0031.77-31.77zM511.1 713.78a20.75 20.75 0 01-16.2-5.85l-128.7-155.7a20.93 20.93 0 01-.31-29.7 20.48 20.48 0 0129.11 0l85.77 103.86 9.99 12.06V224.09a20.52 20.52 0 0140.95 0v413.37l9.95-12.06 85.32-103.23c7.65-7.65 20.7-7.65 28.8.4a20.8 20.8 0 010 29.25L526.36 708.38a20.39 20.39 0 01-15.3 5.4zm153-154.4a31.86 31.86 0 00-45.45-44.77l-85.64 103.64 9.95 3.6V224a31.73 31.73 0 00-63.45 0v398.75l9.9-3.6-86.08-104.18a31.77 31.77 0 00-45.45-.4 32 32 0 000 45.13l128.74 155.79a31.58 31.58 0 0024.48 9.45c8.5.45 17.15-2.7 23.58-9.04l129.38-156.6z" /><path d="M143 800a76.3 76.3 0 0076.5 76.5h585A76.3 76.3 0 00881 800V215a76.3 76.3 0 00-76.5-76.5h-585A76.3 76.3 0 00143 215v585zm76.5-720h585c74.56 0 135 60.12 135 135v585c0 74.56-60.12 135-135 135h-585c-74.56 0-135-60.12-135-135V215c0-74.56 60.12-135 135-135z" /></svg>