<svg viewBox="0 0 1038 1024" focusable="false"><path d="M177.88 139.04l680.89.05v79.87h55.71V83.42l-792.32-.13v135.67h55.71zm-.1 754.3l.05-175.24h-55.71v230.94l792.32.1V718.1h-55.67l-.04 175.32zm612.55-431.47a73.75 73.75 0 10-147.47.05 73.75 73.75 0 00147.47 0zm55.7 0a129.47 129.47 0 11-258.92-.04 129.47 129.47 0 01258.93.04zm-636.61-25.2l285.3.05V381h-285.3zm0 106.11h185.4v-55.8h-185.4z" /><path d="M461.33 831.37a19.48 19.48 0 11-39.02 0 19.48 19.48 0 0139.02 0m77.67 0a19.53 19.53 0 11-39.06 0 19.53 19.53 0 0139.06 0m77.67 0a19.53 19.53 0 11-39.02 0 19.53 19.53 0 0139.02 0M117.71 705.05V242.81h801.45v462.24h-32.49v55.71h88.2V187.1H62v573.66h824.67v-55.7z" /></svg>