<svg viewBox="0 0 1024 1024" focusable="false"><path d="M85.33 480.85h396.59V85.33H85.33v395.52zm0 457.82h396.59V543.15H85.33v395.52zM542.08 85.33v395.52h396.59V85.33H542.08zm348.16 630.32a172.84 172.84 0 00-51.37-123.44c-66.05-65.83-181.42-65.96-247.6 0a174.5 174.5 0 00123.78 298.03c33.28 0 66.43-9.39 95.36-28.25l76.89 76.68 51.37-51.2-76.89-76.72a173.17 173.17 0 0028.46-95.1zm-102.78 72.23a102.66 102.66 0 01-144.81 0 102.1 102.1 0 0172.4-174.3c27.43 0 53.03 10.55 72.4 29.88a101.12 101.12 0 0130.13 72.19c0 27.35-10.71 52.9-30.12 72.23z" /></svg>