<svg viewBox="0 0 1024 1024" focusable="false"><path d="M870.4 51.2a102.4 102.4 0 01102.4 102.4v716.8a102.4 102.4 0 01-102.4 102.4H153.6A102.4 102.4 0 0151.2 870.4V153.6A102.4 102.4 0 01153.6 51.2h716.8zm-512 153.6a51.2 51.2 0 00-51.2 51.2v25.6h-25.6a51.2 51.2 0 000 102.4h25.6v384a51.2 51.2 0 10102.4 0V384h25.6a51.2 51.2 0 000-102.4h-25.6V256a51.2 51.2 0 00-51.2-51.2zm307.2 0a51.2 51.2 0 00-51.2 51.2v384h-25.6a51.2 51.2 0 100 102.4h25.6V768a51.2 51.2 0 10102.4 0v-25.6h25.6a51.2 51.2 0 100-102.4h-25.6V256a51.2 51.2 0 00-51.2-51.2z" /></svg>