<svg viewBox="0 0 1024 1024" focusable="false"><path d="M679.06 663.07l-2.32.05c-5.06.16-38.26 1.98-49.86 38.39-6.29 19.66-4.1 41.76 5.99 60.58 13.58 25.35 44 64.25 112.09 109.1 68.09-44.85 98.5-83.75 112.1-109.1 10.12-18.86 12.27-40.92 5.98-60.63a53.07 53.07 0 00-48.22-38.26c-27.08-3.04-44.72 21.98-46.62 24.68a27.42 27.42 0 01-45.94.63c-.55-.8-17.97-25.44-43.2-25.44m65.9 268.06a27.5 27.5 0 01-14.47-4.13c-88.6-55.1-128.34-106.02-145.97-139.05a133.99 133.99 0 01-9.91-103.1c19.32-60.55 74.12-76.54 100.44-76.54h.13c30-1.68 53.92 11.65 69.86 25.02 16.12-13.37 40.2-27 71.38-24.89h.22c24.72 0 79.4 15.95 98.71 76.4 10.68 33.75 7.1 71.3-9.9 103.1-17.69 33.04-57.38 83.96-145.98 139.06a27.5 27.5 0 01-14.51 4.13M505 144.97c-110.91 0-201.15 91.04-201.15 202.92 0 111.92 90.28 202.92 201.15 202.92 110.95 0 201.15-91 201.15-202.92 0-111.88-90.24-202.92-201.15-202.92m0 460.69c-141.16 0-256-115.6-256-257.77S363.84 90.13 505 90.13s255.95 115.59 255.95 257.76S646.2 605.66 505 605.66M134.42 933.88A27.42 27.42 0 01107 906.45v-61.17c0-106.44 86.02-193.05 191.78-193.05h183.1a27.42 27.42 0 010 54.89h-183.1c-75.51 0-136.94 61.97-136.94 138.16v61.17a27.42 27.42 0 01-27.42 27.42" /></svg>