<svg viewBox="0 0 1024 1024" focusable="false"><path d="M213.33 128A85.33 85.33 0 00128 213.33V384a85.33 85.33 0 0085.33 85.33H384A85.33 85.33 0 00469.33 384V213.33A85.33 85.33 0 00384 128H213.33zM640 554.67A85.33 85.33 0 00554.67 640v170.67A85.33 85.33 0 00640 896h170.67A85.33 85.33 0 00896 810.67V640a85.33 85.33 0 00-85.33-85.33H640zm-85.33-341.34A85.33 85.33 0 01640 128h170.67A85.33 85.33 0 01896 213.33V384a85.33 85.33 0 01-85.33 85.33H640A85.33 85.33 0 01554.67 384V213.33zM213.33 554.67A85.33 85.33 0 00128 640v170.67A85.33 85.33 0 00213.33 896H384a85.33 85.33 0 0085.33-85.33V640A85.33 85.33 0 00384 554.67H213.33z" /></svg>