<svg viewBox="0 0 1024 1024" focusable="false"><path d="M651.77 947.1a22.5 22.5 0 01-22.5-22.5V645.38a22.5 22.5 0 0122.5-22.5h255.24a22.5 22.5 0 0122.5 22.5v279.23a22.5 22.5 0 01-22.5 22.5H651.77zm232.74-45V667.88H674.27V902.1h210.24z" /><path d="M735.92 754.77h86.98a22.5 22.5 0 100-45h-86.98a22.5 22.5 0 100 45zm0 96.8h43.83a22.5 22.5 0 100-45h-43.83a22.5 22.5 0 100 45zM709.6 336.95c0-119.61-96.13-216.45-214.52-216.45-118.48 0-214.56 96.84-214.56 216.45 0 119.61 96.08 216.45 214.56 216.45 118.4 0 214.52-96.84 214.52-216.45zm58.5 0c0 151.83-122.18 274.95-273.02 274.95-150.88 0-273.06-123.12-273.06-274.95S344.19 62 495.08 62c150.84 0 273.01 123.17 273.01 274.95zM152 932.75V867.5c0-81 65.83-147.42 146.03-147.42h240.34a29.25 29.25 0 100-58.5h-240.3c-112.68 0-204.57 92.7-204.57 205.92v65.25a29.25 29.25 0 1058.5 0z" /></svg>