<svg viewBox="0 0 1024 1024" focusable="false"><path d="M144.6 312.02h35.11V128h-28.5a65.2 65.2 0 01-22.14 29.35 102.19 102.19 0 01-29.87 17.03v31.87a121.09 121.09 0 0045.44-26.62v132.4zm745.04-128a42.67 42.67 0 110 85.33H292.31a42.67 42.67 0 010-85.33h597.33zm42.67 341.33a42.67 42.67 0 00-42.67-42.66H292.31a42.67 42.67 0 100 85.33h597.33a42.67 42.67 0 0042.67-42.67zm0 298.67a42.67 42.67 0 00-42.67-42.67H292.31a42.67 42.67 0 000 85.34h597.33a42.67 42.67 0 0042.67-42.67zM208.47 578.01v32.6H85.33a84.3 84.3 0 0112-35c6.65-11.09 19.83-25.72 39.5-43.98 15.83-14.77 25.56-24.75 29.14-30a38.66 38.66 0 007.26-21.5c0-7.85-2.14-13.83-6.4-18a23.21 23.21 0 00-17.37-6.4 23.38 23.38 0 00-17.5 6.65c-4.34 4.4-6.82 11.73-7.5 22.01l-34.99-3.54c2.1-19.32 8.62-33.2 19.63-41.6 10.96-8.4 24.75-12.63 41.21-12.63 18.1 0 32.3 4.87 42.67 14.64 10.33 9.73 15.49 21.84 15.49 36.35 0 8.28-1.5 16.13-4.52 23.64a94.63 94.63 0 01-14 23.38c-4.26 5.42-11.94 13.23-23 23.38-11.09 10.16-18.13 16.9-21.12 20.22a62.6 62.6 0 00-7.12 9.78h69.76zm-85.89 278.52l-34 4.14c1.75 15.4 8.1 27.9 18.98 37.5 10.93 9.52 24.7 14.26 41.26 14.26 17.5 0 32.13-5.68 43.9-17.03a55.04 55.04 0 0017.63-41.09c0-11.09-3.2-20.56-9.52-28.41a42.41 42.41 0 00-25.13-15.1c17.58-9.6 26.37-22.4 26.37-38.5 0-11.34-4.27-21.5-12.84-30.5-10.46-11-24.28-16.5-41.52-16.5-10.07 0-19.2 1.91-27.39 5.75-8.1 3.76-14.42 8.96-18.99 15.62a72.45 72.45 0 00-10.1 26.5l32.33 5.5c.94-8.02 3.54-14.08 7.77-18.26a21.3 21.3 0 0115.36-6.23c6.1 0 10.96 1.83 14.63 5.5a19.93 19.93 0 015.55 14.72 22.19 22.19 0 01-7.55 17.5c-5 4.35-12.25 6.4-21.76 6.14l-3.84 28.63c6.23-1.75 11.6-2.65 16.13-2.65 6.82 0 12.62 2.6 17.36 7.77 4.74 5.16 7.13 12.16 7.13 20.99 0 9.39-2.52 16.77-7.51 22.27a23.5 23.5 0 01-18.26 8.24 23.9 23.9 0 01-17.24-6.87c-4.74-4.57-7.68-11.23-8.75-19.89z" /></svg>