<svg viewBox="0 0 1024 1024" focusable="false"><path d="M507.8 456.3a109.16 109.16 0 10-.56 218.31 109.16 109.16 0 00.56-218.32zm-.82 284.87a175.72 175.72 0 111.08-351.44 175.72 175.72 0 01-1.03 351.44zm-325.73 56.99c-25.5-52.94-72.55-83.97-152.17-83.97v-61.44c103.78 0 171.98 45 207.52 118.68 19.96 41.42 26.31 82.9 25.75 114.59l-.05 1.12-61.44-2.15a199.42 199.42 0 00-19.56-86.83zm81.1-569.14c.51 31.74-5.79 73.21-25.75 114.58-35.54 73.73-103.74 118.63-207.52 118.63V400.8c79.62 0 126.67-30.97 152.22-83.86 15.05-31.23 19.97-63.85 19.6-86.79 0-.25 61.4-2.25 61.4-2.25v1.13zm500.53 657c-.56-31.75 5.73-73.22 25.7-114.59C824.12 697.7 892.36 652.8 996.1 652.8v61.44c-79.62 0-126.67 30.98-152.17 83.92a199.37 199.37 0 00-19.61 86.73c0 .26-61.44 2.25-61.44 2.25v-1.12zm81.05-569.1c25.5 52.9 72.55 83.87 152.17 83.87v61.44c-103.74 0-171.98-44.95-207.52-118.63a257.84 257.84 0 01-25.7-114.58v-1.13l61.44 2.15c-.41 23.04 4.5 55.6 19.61 86.89z" /><path d="M931.94 140.65l33.18 33.28-821.35-2.41 33.38-33.28v76.8a33.28 33.28 0 01-66.56 0v-76.8a33.28 33.28 0 0133.38-33.28l821.35 2.4a33.28 33.28 0 0133.18 33.29v99.99a33.28 33.28 0 01-66.56 0v-100z" /><path d="M92.16 896.1a40.9 40.9 0 00-40.55-41.06h920.78a40.8 40.8 0 00-40.55 41.06V230.3c0 22.94 18.59 41.06 40.55 41.06H51.61a40.8 40.8 0 0040.55-41.06v665.8zM51.61 204.8h920.78c14.34 0 26.01 11.26 26.01 25.5v665.8a25.75 25.75 0 01-26.01 25.5H51.61a25.65 25.65 0 01-26.01-25.5V230.3c0-14.08 11.62-25.5 26.01-25.5z" /></svg>