<svg viewBox="0 0 1024 1024" focusable="false"><path d="M454.54 113.78l85.16 85.1h340.65c46.88 0 85.22 38.35 85.22 85.22v512.23c0 46.76-38.34 85.1-85.22 85.1H199a85.45 85.45 0 01-85.22-85.1l.4-597.33A85.2 85.2 0 01199 113.78h255.54zm-35.38 85.16H199v597.39h681.36V284.1H504.32l-85.16-85.16zm190.52 189.84c7.68 0 15.07 3.02 20.48 8.48l116.56 115.31s11.9 13.48 11.9 26.17c0 12.74-10.42 24.29-10.42 24.29L630.21 682.27a28.9 28.9 0 01-41.01-.06 29.01 29.01 0 01-.12-41.07l73.22-73.27H356.12a28.96 28.96 0 01-28.95-29.07 29.11 29.11 0 0128.95-29.13h304.3l-71.28-71.28a29.01 29.01 0 0120.6-49.67z" /></svg>