<svg viewBox="0 0 1024 1024" focusable="false"><path d="M510.98 812.54c-20.31 0-38.62-4.05-56.88-14.25L149.33 639.83l-42.66 22.36c-28.46 14.2-28.46 56.87 0 71.12L482.56 930.4c8.1 4.05 18.26 6.06 28.42 6.06s20.3-2 28.45-6.06l375.9-197.12c28.41-14.2 28.41-56.87 0-71.08l-42.67-22.36L567.9 798.29a112.68 112.68 0 01-56.91 14.25z" /><path d="M915.28 475.18l-42.66-22.36-111.74 58.92-67.03 34.56-125.96 67.03c-18.3 8.1-36.6 14.25-56.91 14.25-20.31 0-38.62-4.1-56.88-14.25l-126-67.03-66.98-34.56-111.79-58.88-42.66 22.32c-28.46 14.2-28.46 56.87 0 71.12l42.66 22.36 65.03 34.56L480.5 743.38c8.11 4.05 18.3 6.1 28.46 6.1s20.31-2.05 28.42-6.1l266.15-140.2 65.02-34.56 42.67-22.32c32.51-14.25 32.51-54.87 4.05-71.12z" /><path d="M915.28 290.56L539.4 93.44c-4-2-8.1-4.05-14.16-6.06-4.1-2.05-10.24-2.05-14.25-2.05s-10.16 0-14.21 2.05c-4.05 2-10.16 2-14.21 6.06l-375.9 197.12c-28.45 14.2-28.45 56.88 0 71.08L149.34 384l65.03 34.56 111.74 58.88L391.12 512l89.4 46.72c8.1 4.05 18.3 6.1 28.45 6.1s20.31-2.05 28.42-6.1L626.82 512l64.98-34.56 111.78-58.88L868.52 384l42.67-22.36c32.51-14.2 32.51-56.87 4.05-71.08z" /></svg>