<svg viewBox="0 0 1024 1024" focusable="false"><path d="M938.67 234.67a85.33 85.33 0 00-85.34-85.34v85.34h85.34zM85.33 395.87h85.34v-85.34H85.33v85.33zm0 161.19h85.34v-85.34H85.33v85.34zm395.65 317.6h-85.33v-85.33h85.33v85.34zM85.33 718.22h85.34v-85.33H85.33v85.33zm853.34-322.35h-85.34v-85.33h85.34v85.33zm-85.34 161.2h85.34v-85.34h-85.34v85.34zm85.34 161.15h-85.34v-85.33h85.34v85.33zM85.33 789.33a85.33 85.33 0 0085.34 85.34v-85.34H85.33zm768 85.34a85.33 85.33 0 0085.34-85.34h-85.34v85.34zM170.67 149.33a85.33 85.33 0 00-85.34 85.34h85.34v-85.34zm69.8 725.34h85.33v-85.34h-85.33v85.34zm550.83 0h-85.34v-85.34h85.34v85.34zm-550.83-640h85.33v-85.34h-85.33v85.34zm550.83 0h-85.34v-85.34h85.34v85.34z" /><path d="M640 106.67H384v128h256v-128zm0 682.66H384v128h256v-128z" /></svg>