<svg viewBox="0 0 1024 1024" focusable="false"><path d="M876.18 907.91a69.33 69.33 0 0069.3-69.3V628.55a24.75 24.75 0 00-49.5 0v209.97a19.8 19.8 0 01-19.8 19.8 24.75 24.75 0 100 49.5zM78.52 628.64v209.93a69.3 69.3 0 0069.3 69.3H467a24.75 24.75 0 000-49.5H147.81a19.8 19.8 0 01-19.8-19.8V628.63a24.75 24.75 0 00-49.5 0zm634.72-351.58l12.6 123.75a24.75 24.75 0 0049.27-4.95l-14.89-146.07a24.75 24.75 0 00-24.61-22.23H291.05a24.75 24.75 0 00-24.52 21.6l-13.05 102.19a24.75 24.75 0 1049.05 6.3l10.35-80.6h400.36z" /><path d="M231.65 151.41h560.7L890 603.9h-83.25a24.75 24.75 0 000 49.5H920.6a24.75 24.75 0 0024.21-29.97L836.59 121.4a24.75 24.75 0 00-24.21-19.53H211.63a24.75 24.75 0 00-24.17 19.53L79.19 623.42a24.75 24.75 0 0024.21 29.97h122.53a24.75 24.75 0 000-49.5H134l97.65-452.48z" /><path d="M524.51 780.42a152.77 152.77 0 0036.72 111.6 152.87 152.87 0 00166.86 44.87l17.1-5.94a24.75 24.75 0 0010.62-39.51l-46.08-53.55.45-7.47 9.54.85 45.09 52.34a24.75 24.75 0 0040.73-4.72l8.32-15.98a154.76 154.76 0 0017.1-59.85 152.69 152.69 0 00-36.72-111.6 153 153 0 00-141.66-51.3l-28.8-32.4-15.75-18.36-28.75-32.4a154.8 154.8 0 006.88-35.55 153 153 0 00-36.67-111.6 153.09 153.09 0 00-166.64-45l-17.1 5.94a24.75 24.75 0 00-10.66 39.55l45.04 52.34-.58 9.54-7.47-.63-46-53.55a24.75 24.75 0 00-40.68 4.63l-8.46 16.02a153 153 0 00-17.14 60.08 152.55 152.55 0 0036.72 111.6 152.87 152.87 0 00141.75 51.3l28.75 32.35 15.75 18.32 28.71 32.35a154.44 154.44 0 00-6.97 35.69zm-.23-118.93l-38.6-43.52a24.75 24.75 0 00-25.12-7.42 103.41 103.41 0 01-106.51-32.49 103.05 103.05 0 01-24.89-75.51c.59-8.01 2.03-15.75 4.32-23.13l27.63 32.13a24.75 24.75 0 0016.61 8.5l42.84 3.79a24.75 24.75 0 0026.86-23.18l2.7-44.95a24.75 24.75 0 00-5.89-17.64L417.5 407.1c35.1-5.4 70.56 7.38 94.41 35a103.5 103.5 0 0124.84 75.6 103.77 103.77 0 01-8.55 34.47 24.75 24.75 0 004.05 26.51l38.48 43.29 15.75 18.32 38.7 43.56a24.75 24.75 0 0025.02 7.42 103.59 103.59 0 01106.47 32.53 103.14 103.14 0 0120.56 98.42l-26.64-30.92a24.75 24.75 0 00-16.56-8.46l-44.86-3.96a24.75 24.75 0 00-26.87 23.13l-2.65 42.89a24.75 24.75 0 005.94 17.68l27.72 32.18a103.19 103.19 0 01-94.6-35.01 103.28 103.28 0 01-24.88-75.6 105.5 105.5 0 018.69-34.7 24.75 24.75 0 00-4.14-26.41l-38.25-43.11-15.89-18.45z" /></svg>