<svg viewBox="0 0 1024 1024" focusable="false"><path d="M626.16 412.5c3.33-1.8 4.5-5.3 3.29-13.18-.86-5.17-2.57-15.84-35.5-16.16-2.39 0-8.2-.45-10.49-1.12a27.86 27.86 0 01-19.53-34.11 28.21 28.21 0 0129.52-20.34c16.33.23 29.47 2.56 40.5 6.17a47.88 47.88 0 00-11.93-9.77 32.17 32.17 0 01-7.1-5.85 32.22 32.22 0 01-5.58-9.22 56.12 56.12 0 00-6.44-12.83c-7.83-11.12-16.88-18.09-24.3-18.68-24.3-1.53-33.75 8.87-34.2 9.36a28.35 28.35 0 01-38.7 3.7 27.54 27.54 0 01-10.13-21.6c-.36 0-.8-.1-1.21 0-3.38.76-8.41 2.78-13.68 11.7a27.09 27.09 0 01-31.95 12.46 359.28 359.28 0 00-8.69-2.12 14.85 14.85 0 00-6.34.68c-.9.54-1.71 3.96-.9 8.32a27.9 27.9 0 01-18 31.32 93.96 93.96 0 01-7.83 1.94c-2.3.45-6.75 4-9.77 9.9-.9 1.71-.98 2.52 1.22 12.01l1.89 8.15c1.89 9.31.18 17.32-1.08 23.17-.45 1.94-1.03 4.6-.9 5.5.36 6.56 2.12 10.88 3.69 12.32 2.97 3.15 11.7 12.7 22.5 16.25a27.45 27.45 0 0124.21-25.25 27.9 27.9 0 0130.55 24.35 31.5 31.5 0 001.85 6.52c.45.63 1.17 1.04 1.62 1.71.45.72.45 1.53.81 2.25 1.62 2.21 3.6 4.05 6.66 4.5 26.24 4.37 38.79-21.42 38.88-21.69a27.72 27.72 0 1150.09 24.12c-.59 1.26-1.49 2.61-2.16 3.92l1.57.45a94.5 94.5 0 017.65 2.79 27.9 27.9 0 0112.83-8.96c3.24-12.24 14.4-22.54 27.09-22.68zm57.42-25.2c.18 1.04.54 2.21.72 3.15 4.6 28.8-4.36 46.67-12.73 56.57a57.06 57.06 0 01-22.5 16.25 47.09 47.09 0 01-7.16 11.65c2.16 10.03 2.8 21.51-.8 32.13a42.03 42.03 0 01-22.05 24.88 28.04 28.04 0 01-24.75-.36 27.77 27.77 0 01-14.54-19.89 25.2 25.2 0 00-17.46-17.19 351.31 351.31 0 01-31.86-11.29 84.73 84.73 0 01-48.73 6.3 62.64 62.64 0 01-31.19-14.13 74.43 74.43 0 01-17.46 2.38c-31.59 0-58.36-20.16-70.83-34.92-10.57-9.13-18.22-26.55-19.44-47.7-.5-8.46 1.04-15.39 2.12-20.43l-.54-6.75c-3.02-12.6-7.11-29.92 3.42-50.4 7.15-13.77 17.82-25.02 29.92-31.95 2.97-18.58 13.5-34.33 29.84-43.06a67.5 67.5 0 0137.8-6.84c10.35-10.8 22.95-18 37.12-21.15 25.6-5.67 49.86 3.2 64.08 10.35a115.65 115.65 0 0136.14-2.88c24.66 1.8 47.97 16.83 65.7 42.21a108 108 0 019.63 16.83c15.57 10.75 26.41 23.85 32.22 39.46 7.65 20.8 4.95 43.65-6.66 66.74zM875.15 188.81v647.82h-56.7v55.58h112.32V133.23H814.8v55.58zM140.07 830.6V182.83h60.35v-55.58H84.5v758.92h112.28V830.6zm414.68-19.35a42.75 42.75 0 11-85.5 0 42.75 42.75 0 0185.5 0" /><path d="M255.5 939.5v-855h519.3v855zm55.58-55.58h408.14V140.08H311.07z" /></svg>