<svg viewBox="0 0 1024 1024" focusable="false"><path d="M273.07 119.47h419.19l195.2 192.61v592.45H546.45v34.14H921.6V297.8L706.27 85.33H238.93v409.9h34.14z" /><path d="M102.4 529.07H512v409.6H102.4zm34.13 34.13v341.33h341.34V563.2z" /><path d="M204.8 651.76l180.45 184.5 24.35-20.29-180.45-184.5z" /><path d="M409.6 651.76l-180.45 184.5-24.35-20.29 180.45-184.5zm17.07-208.03h374.49V409.6h-374.5zM614.4 563.2h184.83v-34.13H614.4zm0 136.53h184.83V665.6H614.4zm92.76-606.46h-34.14V332.2h221.32v-34.13H707.16z" /></svg>