<svg viewBox="0 0 1024 1024" focusable="false"><path d="M867.34 871.11l-603.03 6.53-103.88-109.4V175.11h482.62l-169.8 280.25-5.96 99.33a12.32 12.32 0 005.34 11.02 11.14 11.14 0 0011.81.34l81.78-47.86L774.04 175.1h93.3v696zm-62.2-752.19l-81-54.95a11.02 11.02 0 00-8.77-1.63 11.42 11.42 0 00-7.3 5.4l-31 51.18H107.05v672.5l135.2 142.46h11.03l640.95-6.92 26.43-.34V118.98H805.08z" /><path d="M524.54 622.46c-92.8-66.53-199.66-29.47-243.14-.56l30.38 41.23c3.93-2.54 95.83-61.37 180.7-.57a205.85 205.85 0 00121.83 38.81c55.9 0 105.34-20.58 132.05-38.24l-30.48-41.23c-1.01.67-100.84 65.41-191.34.56" /></svg>