<svg viewBox="0 0 1024 1024" focusable="false"><path d="M557.51 785.07a45.51 45.51 0 0145.51-45.51H921.6a45.51 45.51 0 110 91.02H603.02a45.51 45.51 0 01-45.5-45.51z" /><path d="M802.13 635.79a45.51 45.51 0 0164 7.05l91.01 113.78a45.51 45.51 0 010 56.9l-91.02 113.77a45.51 45.51 0 11-71.09-56.89l68.32-85.33-68.27-85.34a45.51 45.51 0 017.1-63.99zM830.58 193.42H533.75l-59.98-74.14a45.51 45.51 0 00-35.32-16.88H193.42A136.53 136.53 0 0056.9 238.93v455.11a136.53 136.53 0 00136.53 136.54h227.56a45.51 45.51 0 100-91.02H193.42a45.51 45.51 0 01-45.5-45.52v-455.1a45.51 45.51 0 0145.5-45.52H416.7l59.9 74.14a45.51 45.51 0 0035.4 16.88h318.58a45.51 45.51 0 0145.5 45.52V512a45.51 45.51 0 1091.03 0V329.96a136.53 136.53 0 00-136.53-136.54z" /></svg>