<svg viewBox="0 0 1024 1024" focusable="false"><path d="M378.3 964.39a61.88 61.88 0 01-44.62-19.31 67.3 67.3 0 01-18.58-46.52V226.01L183.73 362.8a61 61 0 01-89.67 0 67.3 67.3 0 01-18.28-46.3 67.3 67.3 0 0118.28-46.45L320.15 35.25a66.41 66.41 0 0149.95-21.72 64.59 64.59 0 0127.21 5.27A71.97 71.97 0 01428.7 44.9a76.34 76.34 0 0112.8 39.64v814.01a67.3 67.3 0 01-18.5 46.52 61.88 61.88 0 01-44.62 19.3z" /><path d="M333.6 945.08a61.88 61.88 0 0044.62 19.3 61.88 61.88 0 0044.7-19.3 67.3 67.3 0 0018.5-46.52v-814a76.43 76.43 0 00-12.8-39.65 71.97 71.97 0 00-31.45-26.11 64.59 64.59 0 00-27.07-5.27 66.41 66.41 0 00-49.95 21.72L94.13 270.12a67.3 67.3 0 00-18.43 46.44 67.27 67.27 0 0018.36 46.37 61 61 0 0089.67 0L315.1 226.01V898.5A67.3 67.3 0 00333.6 945z" /><path d="M930.89 710.44L705.46 942.88a70.22 70.22 0 01-36.35 19.83 68.24 68.24 0 01-40.74-4.4 71.9 71.9 0 01-31.74-27.13 76.8 76.8 0 01-12.07-40.96V79c0-17.48 6.58-34.23 18.43-46.59a61.59 61.59 0 0144.54-19.23c16.68 0 32.7 6.94 44.55 19.23A67.36 67.36 0 01710.5 79v672.18l130.93-136.93a62.61 62.61 0 0145.64-19.01 62.83 62.83 0 0145.05 20.33 68.75 68.75 0 0118.14 47.69 68.53 68.53 0 01-19.38 47.1z" /></svg>