<svg viewBox="0 0 1024 1024" focusable="false"><path d="M749.6 296.27h-79.92a22.5 22.5 0 110-45h79.92a22.5 22.5 0 010 45m0 169.25h-79.92a22.5 22.5 0 110-45h79.92a22.5 22.5 0 110 45m0 162.44h-79.92a22.5 22.5 0 110-45h79.92a22.5 22.5 0 010 45M551.06 296.27H471.1a22.5 22.5 0 010-45h79.96a22.5 22.5 0 010 45m0 169.24H471.1a22.5 22.5 0 010-45h79.96a22.5 22.5 0 110 45m0 162.45H471.1a22.5 22.5 0 010-45h79.96a22.5 22.5 0 010 45m-197.6-331.69H273.5a22.5 22.5 0 010-45h79.97a22.5 22.5 0 010 45m0 169.25H273.5a22.5 22.5 0 010-45h79.97a22.5 22.5 0 110 45m0 162.44H273.5a22.5 22.5 0 010-45h79.97a22.5 22.5 0 010 45M885.9 84.5H136.25A29.25 29.25 0 00107 113.75v796.54a29.25 29.25 0 0029.25 29.25h253.3a29.25 29.25 0 0029.21-29.25V807.38h186.39V910.3a29.24 29.24 0 0029.2 29.25h251.56a29.25 29.25 0 0029.25-29.25V113.75A29.25 29.25 0 00885.9 84.5" /></svg>