<svg viewBox="0 0 1024 1024" focusable="false"><path d="M821.42 889.96H91.25A29.25 29.25 0 0162 860.7V154.25A29.25 29.25 0 0191.25 125h841.5A29.25 29.25 0 01962 154.25v125.1h-58.5V183.5h-783v647.96h688.46l94.54-98.64V580.54H962v164.02a29.34 29.34 0 01-8.14 20.25L842.52 880.96a29.25 29.25 0 01-21.11 9" /><path d="M796.4 794.15v-70.2h70.29zm-475.2-389.3c-7.38-6.12-17.64-9.22-30.91-9.22h-41a11.25 11.25 0 00-11.25 11.25v59.22c0 6.21 5.04 11.25 11.25 11.25h41c13.27 0 23.53-3.33 30.91-9.99 7.33-6.66 11.03-17.19 11.03-31.64 0-14.4-3.7-24.75-11.03-30.87m44.28 100c-16.29 13.59-39.47 20.38-69.66 20.38h-46.53a11.25 11.25 0 00-11.25 11.25v77.31a11.25 11.25 0 01-11.25 11.25h-35.1a11.25 11.25 0 01-11.25-11.25V358.64a11.25 11.25 0 0111.25-11.25H299.6c27.45 0 49.41 7.2 65.7 21.46 16.38 14.31 24.52 36.45 24.52 66.51 0 32.76-8.1 55.94-24.34 69.48m104.67-97.96v158.67c0 6.17 5.04 11.25 11.25 11.25h42.3c27.45 0 46.53-13.5 57.37-40.5 5.9-14.85 8.87-32.49 8.87-52.97 0-28.21-4.46-49.95-13.32-65.07-8.87-15.12-26.5-22.68-52.92-22.68h-42.3a11.25 11.25 0 00-11.25 11.25m106.33-53.46a91.8 91.8 0 0147.34 35.24 124.2 124.2 0 0119.8 44.82c3.51 16.06 5.27 31.36 5.27 45.99 0 36.9-7.43 68.17-22.28 93.78-20.07 34.56-51.12 51.75-93.1 51.75H425.15a11.25 11.25 0 01-11.25-11.25V358.68a11.25 11.25 0 0111.25-11.25H533.6c17.23.27 31.55 2.25 42.98 6.03m104.62-5.62h175.5a11.25 11.25 0 0111.25 11.25v26.28a11.25 11.25 0 01-11.25 11.25H738.8a11.25 11.25 0 00-11.25 11.25v41.35c0 6.21 5.04 11.25 11.25 11.25h100.49a11.25 11.25 0 0111.25 11.25v25.65a11.25 11.25 0 01-11.25 11.25H738.8a11.25 11.25 0 00-11.25 11.25v93.96a11.25 11.25 0 01-11.25 11.25h-35.1a11.25 11.25 0 01-11.25-11.25V359a11.25 11.25 0 0111.25-11.25" /></svg>