<svg viewBox="0 0 1024 1024" focusable="false"><path d="M62 83.33h900v177.21h-33.98v583.47H95.99V260.54H62zm58.55 118.71H903.5v-60.16H120.54zm34.02 583.52h714.96V260.54H154.57zM391.9 946.61h240.16v-58.5H391.9z" /><path d="M503 379.52c9.18 0 18.18 1.04 27 2.75 2.79.54 5.54 1.53 8.32 2.25a150.7 150.7 0 0116.92 5.26c3.15 1.22 6.03 2.8 9 4.19a153 153 0 0114.18 7.7 154.98 154.98 0 0120.61 15.88c2.43 2.3 4.86 4.54 7.2 6.97 3.73 4.05 7.2 8.28 10.44 12.7 1.85 2.47 3.83 4.94 5.49 7.5 3.47 5.23 6.3 10.8 9 16.48 1.04 2.25 2.25 4.23 3.2 6.43a144.58 144.58 0 017.78 24.93H474.11l-2.48 167.85a147.15 147.15 0 01-23.04-7.2c-3.28-1.35-6.3-3.33-9.45-4.95-4.36-2.2-8.77-4.36-12.87-6.97-3.78-2.48-7.2-5.31-10.75-8.1-3.1-2.43-6.17-4.82-9-7.47a142.92 142.92 0 01-9.59-10 134.32 134.32 0 01-21.06-31.27c-1.8-3.73-3.69-7.42-5.22-11.34a145.98 145.98 0 01-4.63-14.85c-.9-3.28-1.98-6.48-2.65-9.85a143.64 143.64 0 01-2.66-26.55A142.43 142.43 0 01503 379.48m27.18 281.83l1.67-110.25h110.33a142.6 142.6 0 01-112 110.25m-223.96-99.63a200.93 200.93 0 00112.81 141.93c1.49.68 2.75 1.67 4.28 2.3 7.73 3.37 16.01 5.53 24.2 7.92 4.55 1.35 8.91 3.2 13.6 4.23 6.52 1.4 13.31 1.57 20.06 2.34 6.3.67 12.33 2.07 18.81 2.16l29.25.45.05-3.1a199.94 199.94 0 00171.5-168.85h2.96v-29.25c0-110.7-90.09-200.79-200.79-200.79a201.06 201.06 0 00-196.74 240.66" /></svg>