<svg viewBox="0 0 1024 1024" focusable="false"><path d="M818.99 458.69a359.66 359.66 0 01-75.86 221.5L928 865.05l-63.85 63.85-184.87-184.86a359.69 359.69 0 01-221.49 75.86c-199.49 0-361.21-161.72-361.21-361.21 0-199.49 161.72-361.21 361.21-361.21s361.2 161.72 361.2 361.21zm-630.04 33.72c16.6 133.71 130.63 237.19 268.83 237.19s252.23-103.49 268.83-237.19H656.7l-83.77 80.73a33.87 33.87 0 01-52.46-6.85l-111.9-184.84-80.46 98.51a33.87 33.87 0 01-26.23 12.44H188.95zm.04-67.73h96.82l100.64-123.23a33.88 33.88 0 0128.6-12.36 33.87 33.87 0 0126.59 16.24l114.8 189.63 63.09-60.8a33.86 33.86 0 0123.5-9.48h83.53c-16.73-133.56-130.69-236.89-268.79-236.89-138.09 0-252.05 103.33-268.78 236.89z" /></svg>