<svg viewBox="0 0 1024 1024" focusable="false"><path d="M962 152H382.04c0 30.96-21.56 56.07-48.15 56.07-26.73 0-48.28-25.11-48.28-56.07H62v630.13h223.65c0-30.96 21.51-56.07 48.2-56.07 26.63 0 48.19 25.11 48.19 56.07H962V152zm-58.5 58.5v513.18H425.6c-18.68-33.57-52.83-56.07-91.75-56.07-38.97 0-73.13 22.5-91.76 56.07H120.5V210.5h121.59c18.63 33.52 52.78 56.07 91.8 56.07 38.88 0 73.03-22.5 91.71-56.07h477.9z" /><path d="M518.3 308.51h336.82v-58.5H518.3zm-213.57 20.3v276.56h58.5V328.81zm473.99 202.31a49.63 49.63 0 10-94.95 29.12 49.63 49.63 0 0094.95-29.11zm55.93-17.14a108.22 108.22 0 11-206.91 63.45 108.22 108.22 0 01206.91-63.45zM62 907.96h900v-58.5H62z" /></svg>