<svg viewBox="0 0 1024 1024" focusable="false"><path d="M866.56 628.05a159.57 159.57 0 00-154.03-133.12h-140.8a17.5 17.5 0 000-4.69 122.88 122.88 0 0081.07-116.9v-137.4a122.45 122.45 0 00-123.3-125h-35a122.45 122.45 0 00-122.87 125v135.69a122.88 122.88 0 0081.06 116.9 17.5 17.5 0 000 4.7H311.9a159.15 159.15 0 00-154.02 133.12A139.52 139.52 0 0025.6 768v5.12a139.1 139.1 0 00138.24 139.95h6.83A139.1 139.1 0 00308.9 773.12V768a139.95 139.95 0 00-74.24-122.88 85.33 85.33 0 0176.8-73.39h140.8V640a139.95 139.95 0 00-80.64 128v5.12a139.1 139.1 0 00137.81 139.95h5.12a139.1 139.1 0 00137.81-139.95V768a139.95 139.95 0 00-80.64-128v-68.27h140.8a85.33 85.33 0 0176.8 73.39A139.95 139.95 0 00717.23 768v5.12a139.1 139.1 0 00138.24 139.95h4.69A139.1 139.1 0 00998.4 773.12V768a139.52 139.52 0 00-131.84-139.95zM914.77 768v5.12a55.04 55.04 0 01-54.61 55.47h-4.7a55.04 55.04 0 01-54.6-55.47V768a55.47 55.47 0 0154.6-55.9h4.7a55.47 55.47 0 0154.61 55.9zM454.83 235.95a39.25 39.25 0 0139.68-42.67h34.98a39.25 39.25 0 0139.68 42.67v135.68a39.25 39.25 0 01-39.68 40.53h-34.98a39.25 39.25 0 01-39.68-40.53zm54.61 476.16h5.12A55.47 55.47 0 01569.17 768v5.12a55.04 55.04 0 01-54.61 55.47h-5.12a55.04 55.04 0 01-54.61-55.47V768a55.47 55.47 0 0154.61-55.9zM170.67 828.59h-6.83a55.04 55.04 0 01-54.61-55.47V768a55.47 55.47 0 0154.61-55.9h6.83a55.47 55.47 0 0152.48 55.9v5.12a55.04 55.04 0 01-52.48 55.47z" /></svg>