<svg viewBox="0 0 1024 1024" focusable="false"><path d="M451.67 371.5l-97.84-97.84 60.34-60.33L512 311.17l97.83-97.84 60.34 60.33-97.84 97.84h110.34v85.33h-128v42.67h128v85.33h-128v97.84h-85.34v-97.84h-128V499.5h128v-42.67h-128V371.5z" /><path d="M853.33 85.33H170.67a85.33 85.33 0 00-85.34 85.34v663.89a85.33 85.33 0 00102.06 83.71l307.88-61.6a86.52 86.52 0 0133.46 0l307.88 61.6a85.33 85.33 0 00102.06-83.71v-663.9a85.33 85.33 0 00-85.34-85.33zm-682.66 85.34h682.66v663.89l-307.88-61.57a170.62 170.62 0 00-66.94 0l-307.84 61.57v-663.9z" /></svg>