<svg viewBox="0 0 1024 1024" focusable="false"><path d="M488.28 93.44a48 48 0 0147.44 0l332 188.76a48 48 0 0124.31 41.73v376.14c0 17.24-9.3 33.2-24.32 41.73L535.72 930.52a48 48 0 01-47.44 0l-332-188.72a48 48 0 01-24.31-41.73V323.93a48 48 0 0124.32-41.73zm15.78 83.07L220.12 337.96a16 16 0 00-8.1 13.91v320.26a16 16 0 008.1 13.9L504.15 847.5a16 16 0 0015.79 0l284.03-161.45a16 16 0 008.1-13.91V351.87a16 16 0 00-8.1-13.9L519.94 176.5a16 16 0 00-15.8 0zM544 457.98a33.5 33.5 0 00-32.98-34 33.5 33.5 0 00-33.03 34h-80c0-62.42 50.1-114 113.03-114 62.89 0 112.98 51.58 112.98 114l5.25.3a48 48 0 0142.75 47.7v120.03c0 26.5-21.5 48-48 48H400a48 48 0 01-48-48V505.98c0-26.5 21.5-48 48-48h144zm32 80H448a16 16 0 00-16 16v24.03a16 16 0 0016 16h128a16 16 0 0016-16v-24.03a16 16 0 00-16-16z" /></svg>