<svg viewBox="0 0 1024 1024" focusable="false"><path d="M785.53 863.77c-30.87 14.58-107.4 39.74-268.22 39.74-169.36 0-265.02-28.04-306.78-44.55V731.62c0-44.63 52.33-82.34 114.2-82.34h346.6c61.91 0 114.2 37.7 114.2 82.34v132.11zm-114.2-272.9h-346.6c-94.99 0-172.7 63.36-172.7 140.84v163.65S249.87 962 517.32 962c267.4 0 326.67-66.6 326.67-66.6V731.63c0-77.39-77.67-140.79-172.65-140.79zM480.14 123.56V247.3c-61.46 2.97-120.22 14.9-161.3 35.73a193.12 193.12 0 01161.3-159.47m219.67 157.8c-41.53-20.24-100.16-31.63-161.17-34.28V123.55a193.26 193.26 0 01161.17 157.8M538.64 505.07V304.4c98.18 4.86 154.1 34.38 160.68 47.88a193.57 193.57 0 01-160.68 152.8M320 354.8h.45c2.16-14.31 63.72-44.55 159.7-50.3v200.58A193.57 193.57 0 01320 354.8M509.4 566.58a252.11 252.11 0 00248.74-211.93h1.03c0-1.35-.36-2.65-.45-4 1.71-11.88 2.93-23.94 2.93-36.36a252.24 252.24 0 10-252.25 252.29" /></svg>