<svg viewBox="0 0 1024 1024" focusable="false"><path d="M504.67 723.32l-.98.02H102.05a26 26 0 01-25.84-23.13C55.11 510 90.42 368.99 172.05 272.58c44.89-53.03 101.99-90.33 167.27-113.85 48.92-17.63 99.77-26.55 147.19-28.39a26.19 26.19 0 014.23-.34c2.34 0 4.7.01 7.09.04 1.97-.03 3.92-.04 5.86-.04 1.58 0 3.16.09 4.72.26 43 1.25 87.02 6.94 130.85 18.74 57.88 15.6 110.65 40.7 156 77.1 53.87 43.26 95.18 100.88 121.35 173.99 29.23 81.6 39.06 181.08 27.55 299.76a26 26 0 01-28.31 23.37l-.44-.04c.56.06.58.08.49.09l-5.38-.05-15.06-.08-22.67-.05-101.13-.03-94.27.07-172.72.19zm-1.91-51.98l.9-.02 141.28-.17c112.85-.11 187.43-.13 230.36-.03l19.12.06c7.4-100.86-2.19-184.93-26.76-253.56-22.93-64.02-58.53-113.7-104.96-150.96-39.35-31.59-85.65-53.63-136.97-67.45-39.98-10.76-80.48-15.94-120.06-17a26 26 0 01-2.6-.2c-1.6 0-3.2 0-4.82.03a26 26 0 01-.71 0 552.13 552.13 0 00-3.58-.03c-.79.1-1.59.16-2.4.19-43.22 1.37-90 9.38-134.61 25.45-57.14 20.59-106.57 52.88-145.22 98.52-33.54 39.62-58.41 88.72-73.35 148.37-15.26 60.92-19.96 132.14-13 214.3l.22 2.5h377.16z" /><path d="M827.6 632.65h-77.75a26 26 0 110-52h77.74a26 26 0 110 52zM694.62 308.7l-38.86 67.32a26 26 0 11-45.04-26l38.87-67.32a26 26 0 0145.03 26zm120.05 139.08l-67.32 38.87a26 26 0 11-26-45.04l67.32-38.87a26 26 0 1126 45.04zM477.69 243.88v77.73a26 26 0 1052 0v-77.73a26 26 0 10-52 0zm-297.9 388.77h77.73a26 26 0 100-52H179.8a26 26 0 100 52zM312.74 308.7l38.87 67.32a26 26 0 0045.04-26l-38.87-67.32a26 26 0 00-45.04 26zM192.7 447.78l67.32 38.87a26 26 0 1026-45.04l-67.32-38.87a26 26 0 10-26 45.04zM564.26 430l-64.78 112.2a26 26 0 1045.04 26L609.3 456a26 26 0 10-45.04-26z" /><path d="M503.69 658.56a64.87 64.87 0 100-129.74 64.87 64.87 0 000 129.74zm0-52a12.87 12.87 0 110-25.74 12.87 12.87 0 010 25.74z" /></svg>