<svg viewBox="0 0 1024 1024" focusable="false"><path d="M921.6 332.8c-12.8-12.8-29.87-17.07-46.93-17.07H712.53V209.07c0-12.8-4.26-21.34-8.53-34.14-4.27-8.53-8.53-21.33-17.07-25.6-4.26-8.53-12.8-17.06-25.6-21.33-8.53-4.27-21.33-8.53-34.13-8.53H170.67c-12.8 4.26-21.34 4.26-34.14 8.53-8.53 4.27-17.06 12.8-25.6 21.33-8.53 8.54-12.8 17.07-17.06 25.6-4.27 12.8-8.54 21.34-8.54 34.14v554.66c0 38.4 12.8 72.54 42.67 98.14s59.73 42.66 98.13 42.66h648.54c17.06 0 34.13-8.53 46.93-17.06 12.8-12.8 17.07-29.87 17.07-46.94v-460.8c0-17.06-8.54-34.13-17.07-46.93zm-273.07 42.67v460.8H221.87c-21.34 0-38.4-8.54-51.2-21.34s-21.34-34.13-21.34-51.2V200.53c0-4.26 4.27-4.26 4.27-8.53 0 0 4.27-4.27 8.53-4.27H640c4.27 0 4.27 4.27 8.53 4.27 0 0 4.27 4.27 4.27 8.53v174.94zm226.14 460.8H712.53V379.73h162.14v456.54z" /><path d="M512 358.4H307.2c-8.53 0-17.07 4.27-21.33 8.53-4.27 4.27-8.54 12.8-8.54 21.34s4.27 17.06 8.54 21.33c4.26 4.27 12.8 8.53 21.33 8.53H512c8.53 0 17.07-4.26 21.33-8.53 4.27-4.27 8.54-12.8 8.54-21.33s-4.27-17.07-8.54-21.34c-4.26-4.26-12.8-8.53-21.33-8.53zM405.33 516.27H307.2c-8.53 0-17.07 4.26-21.33 8.53s-8.54 12.8-8.54 21.33 4.27 17.07 8.54 21.34c4.26 4.26 12.8 8.53 21.33 8.53h93.87c8.53 0 17.06-4.27 21.33-8.53 4.27-4.27 8.53-12.8 8.53-21.34s-4.26-17.06-8.53-21.33c0-4.27-8.53-8.53-17.07-8.53z" /></svg>