<svg viewBox="0 0 1024 1024" focusable="false"><path d="M663.9 206.5a32 32 0 00-35 29.02 32 32 0 0064 5.97 32 32 0 00-29-34.98zm-109.23 32a32 32 0 1028.58 35 32 32 0 00-28.58-35zm164.69 60.17a32 32 0 1034.99-28.59 32 32 0 00-34.99 28.59z" /><path d="M869.55 387.84A234.67 234.67 0 00464.64 185.6l-31.15-75.95a42.67 42.67 0 00-55.89-24.32L140.8 183.9a42.67 42.67 0 00-23.04 55.47l60.16 146.77h-7.25a85.33 85.33 0 00-85.34 85.34v384a85.33 85.33 0 0085.34 85.33h682.66a85.33 85.33 0 0085.34-85.33v-384a85.33 85.33 0 00-69.12-83.63zm-461.23 0H270.93l38.4-15.79a20.9 20.9 0 0011.52-30.72 21.33 21.33 0 00-27.73-11.94l-58.88 24.32-15.36-37.55 75.52-29.87a21.33 21.33 0 0011.95-27.73 21.76 21.76 0 00-28.16-11.95l-75.52 31.15-17.92-42.67L384 153.6l38.4 98.13a236.37 236.37 0 00-14.08 134.4zm395.52 0H474.03a170.67 170.67 0 11329.81 0z" /></svg>