<svg viewBox="0 0 1024 1024" focusable="false"><path d="M500.78 144.97c-110.91 0-201.15 91.04-201.15 202.92 0 111.92 90.28 202.92 201.15 202.92 110.95 0 201.15-91 201.15-202.92 0-111.88-90.24-202.92-201.15-202.92m0 460.69c-141.16 0-256-115.6-256-257.77s114.84-257.76 256-257.76 255.95 115.59 255.95 257.76-114.75 257.77-255.95 257.77M130.2 933.92a27.42 27.42 0 01-27.42-27.42v-61.22c0-106.44 86.02-193.05 191.79-193.05h183.09a27.42 27.42 0 010 54.89h-183.1c-75.51 0-136.94 61.97-136.94 138.16v61.22a27.42 27.42 0 01-27.42 27.42m548.31-118.09h96.61v-52.6a21.1 21.1 0 0121.1-21.1h40.92L724.29 632.36 615.23 742.13h42.19a21.1 21.1 0 0121.1 21.1v52.6zm117.7 42.2H657.43a21.1 21.1 0 01-21.1-21.1v-52.61h-71.8a21.1 21.1 0 01-14.97-35.99l159.5-160.48a20.93 20.93 0 0129.7-.25l165.09 160.52a21.1 21.1 0 01-14.77 36.2h-71.76v52.6a21.1 21.1 0 01-21.1 21.1zm1.61 69.52H658.18a21.1 21.1 0 010-42.2h139.64a21.1 21.1 0 010 42.2" /></svg>