<svg viewBox="0 0 1024 1024" focusable="false"><path d="M111.85 111.22l-.63 801.56h801.22l.34-658.33-143.73-126.02v-5.15h-5.82l-13.8-12.06H111.85zm52.1 52.1H717v142.3h143.69l-.21 555.06H163.32l.6-697.36zM769.1 197.7l63.62 55.82h-63.62V197.7z" /><path d="M320.98 337.77c24.04 0 43.62-19.83 43.62-44.3s-19.58-44.38-43.63-44.38c-24.04 0-43.57 19.87-43.57 44.38 0 24.47 19.53 44.3 43.58 44.3zm95.76-44.3a96.23 96.23 0 01-95.76 96.44 96.23 96.23 0 01-95.77-96.44 96.23 96.23 0 0195.77-96.53 96.23 96.23 0 0195.76 96.53zM261.24 647.67h34.55v-52.14h-34.6zm80.15 0h421.46v-52.14H341.39zm-80.15 127.5h34.55v-52.15h-34.6zm80.15 0h421.46v-52.15H341.39z" /></svg>