<svg viewBox="0 0 1024 1024" focusable="false"><path d="M467.2 112.98L168.53 297.34A85.33 85.33 0 00128 369.96v284.08a85.33 85.33 0 0040.53 72.57l298.67 184.4a85.33 85.33 0 0089.6 0l298.67-184.35A85.33 85.33 0 00896 654.04V369.92a85.33 85.33 0 00-40.53-72.58L556.8 112.94a85.33 85.33 0 00-89.6 0zM213.33 369.96L512 185.64l298.67 184.32v284.08L512 838.36 213.33 654.04V369.92z" /><path d="M501.97 562.18h-41.43v120.49H384V341.33h124.93c37.67 0 67.11 8.96 88.32 26.97 21.25 17.96 31.87 43.35 31.87 76.2 0 23.72-4.52 43.44-13.53 59.05-8.87 15.66-22.82 28.29-41.9 37.98L640 679.17v3.5h-82l-56.03-120.5zm-41.43-63.58h48.39c14.55 0 25.47-4 32.72-12.16 7.43-8.27 11.1-19.75 11.1-34.47 0-14.68-3.67-26.16-11.1-34.43-7.42-8.45-18.34-12.68-32.72-12.68h-48.39v93.79z" /></svg>