<svg viewBox="0 0 1024 1024" focusable="false"><path d="M125.18 310.76A18.45 18.45 0 00107 328.89v481.77a18.45 18.45 0 0018.18 18.23h764.28a18.5 18.5 0 0018.23-18.23V328.9a18.45 18.45 0 00-18.23-18.14H125.18zm764.28 563.13H125.18c-34.83 0-63.18-28.35-63.18-63.23V328.9c0-34.79 28.35-63.14 63.18-63.14h764.28c34.88 0 63.23 28.35 63.23 63.13v481.77a63.28 63.28 0 01-63.23 63.23z" /><path d="M475.42 733.76v-62.01h-81.9v-47.92h81.9v-28h-81.9v-49h58.9l-66.82-140.9h66.82l54.9 123.89 54.9-123.89h66.92l-66.88 140.9h58.91v49h-81.9v28h81.9v47.92h-81.9v62.01h-31.95zm359.1-501.12H180.16a22.5 22.5 0 010-45h654.35a22.5 22.5 0 010 45M722.01 152H292.66a22.5 22.5 0 010-45h429.35a22.5 22.5 0 010 45" /></svg>