<svg viewBox="0 0 1024 1024" focusable="false"><path d="M128 128h341.33v341.33H128V128zm85.33 85.33V384H384V213.33H213.33zM256 256h85.33v85.33H256V256zm298.67-128H896v341.33H554.67V128zM640 213.33V384h170.67V213.33H640zM682.67 256H768v85.33h-85.33V256zM128 554.67h341.33V896H128V554.67zM213.33 640v170.67H384V640H213.33zm341.34-85.33h128v128h-128v-128zm213.33 0h128v128H768v-128zM554.67 768h128v128h-128V768zM768 768h128v128H768V768zm-85.33-85.33H768V768h-85.33v-85.33zm-426.67 0h85.33V768H256v-85.33z" /></svg>