<svg viewBox="0 0 1024 1024" focusable="false"><path d="M864 277.33l4.57.26 4.39.77a39.26 39.26 0 0129.01 28.67l.86 4.86.3 4.57V864l-.3 4.57a39.13 39.13 0 01-29.44 33.4l-4.82.86-4.57.3H316.46l-4.57-.3-4.4-.77a39.17 39.17 0 01-29-28.67l-.86-4.82-.3-4.57V316.46l.26-4.57a39.13 39.13 0 0129.48-33.45l4.82-.85 4.57-.26H864zm-39.13 78.21H355.54v469.33h469.33V355.54zM707.54 120.87l4.57.26a39.13 39.13 0 010 77.7l-4.57.3H199.13v508.41l-.26 4.57a39.13 39.13 0 01-34.3 34.3l-4.57.26-4.57-.26a39.13 39.13 0 01-34.26-34.3l-.3-4.57V160l.3-4.57a39.13 39.13 0 0134.26-34.3l4.57-.26h547.54z" /></svg>