<svg viewBox="0 0 1024 1024" focusable="false"><path d="M483.36 652.26c-138.02 178.08-307.2 124.67-333.92 111.3-66.78-17.83-89.06-138.02-4.45-178.09 138.02-44.51 262.69 4.45 351.71 48.96-8.9 13.35-13.34 17.83-13.34 17.83zm146.91-49c62.34-111.3 84.58-218.14 84.58-218.14H505.6v-80.13h244.86v-31.17H505.6V153.6H394.3v120.22H171.68v35.62H394.3v80.13H207.33v35.61H590.2c0 4.45 0 4.45-4.45 13.35 0 40.06-26.72 93.5-48.96 138.01-284.93-111.3-365.09-44.5-387.33-35.61-186.97 133.57-13.34 302.75 17.83 298.3 200.35 44.51 329.47-40.06 418.5-146.91 4.44 4.45 13.34 4.45 17.82 4.45 62.33 35.61 356.16 173.63 356.16 173.63V701.22c-53.44-4.45-213.7-57.9-329.48-97.96z" /></svg>