<svg viewBox="0 0 1024 1024" focusable="false"><path d="M810.67 128v85.33h-85.34v163.42a128 128 0 01-57.85 107.09l-7.38 4.48-55.56 31.23 60.63 37.89a128 128 0 0159.9 100.27l.26 8.27v144.69h85.34V896H213.33v-85.33h85.34V668.59a128 128 0 0157.85-107.1l7.38-4.48 73.43-41.34-78.5-49.07a128 128 0 01-59.9-100.3l-.26-8.33V213.33h-85.34V128h597.34zM519.8 567.21l-114.05 64.17a42.67 42.67 0 00-21.46 32.09l-.3 5.12v142.08h256V665.94a42.67 42.67 0 00-15.62-32.98l-4.43-3.2-100.14-62.55zM640 213.33H384v144.73a42.67 42.67 0 0015.62 32.98l4.43 3.2 118.02 73.77 96.17-54.06a42.67 42.67 0 0021.46-32.08l.3-5.12V213.33z" /></svg>