<svg viewBox="0 0 1024 1024" focusable="false"><path d="M876.05 879.97H140.03v-680.4h524.52v-55.58H84.5v791.55h847.08V143.99H767.51v55.58h108.5z" /><path d="M819.58 822.95c0 89.33-48.6 112.64-144.45 112.64V880c68.94 0 88.87-9.59 88.87-57.06 0-24.21-13.5-36.67-41.8-42.88a173.2 173.2 0 00-54-2.34l-31.5 4.23V86.08l26.23-1.49 1.35-.04a140.9 140.9 0 0177.63 21.73c45.27 27.95 73.08 79.38 75.78 155.97 1.8 51.62 2.7 139.23 2.88 253.04a34712.86 34712.86 0 01-1 302.04v5.62zm-54.59-307.62c-.18-113.13-1.08-200.34-2.83-251.1-2.07-58.68-20.52-92.83-49.46-110.7a92.92 92.92 0 00-20.39-9.4v576.99c13.73.22 27.9 1.62 41.81 4.68a144.07 144.07 0 0130.37 10.03c.36-74.61.59-150.08.45-220.5z" /><path d="M300.77 540.85c-54.13-17.73-110.92-16.88-164.43-5.04a263.07 263.07 0 00-31.77 8.82l19.12 52.2c4.19-1.58 12.74-4.14 24.66-6.75 44.6-9.9 91.8-10.58 135.14 3.6 38.97 12.73 72 36.9 97.97 74.97l13.86 20.38 21.91-11.38c5.63-2.93 16.52-7.65 31.05-12.51 32.76-10.9 65.93-15.66 95.76-11.16 41.94 6.3 73.98 30.37 94.95 79.1l51.08-21.95c-28.67-66.65-77.04-102.96-137.75-112.1-39.78-6.03-81.18-.04-121.5 13.37a320.3 320.3 0 00-17.37 6.25 238.68 238.68 0 00-112.68-77.8zm-71.73-214.2h203.4v-55.58h-203.4zm0 94.14h110.88V365.2H229.04z" /></svg>