<svg viewBox="0 0 1024 1024" focusable="false"><path d="M280.3 437.02a31.2 31.2 0 0031.4 53.96l96-55.92a31.2 31.2 0 00-3.7-55.78l-96-40.08a31.2 31.2 0 00-24 57.6l38.06 15.89-41.76 24.33z" /><path d="M512 115.38c-218.74 0-396.77 177.88-396.77 396.62 0 218.69 178.08 396.62 396.77 396.62 218.78 0 396.72-177.93 396.72-396.62 0-218.74-177.94-396.62-396.72-396.62M512 968C260.58 968 56 763.42 56 512S260.58 56 512 56c251.47 0 456 204.58 456 456S763.47 968 512 968" /><path d="M741.92 395.89a31.2 31.2 0 00-27.84-55.78l-96 47.95a31.2 31.2 0 000 55.83l96 48a31.2 31.2 0 0027.84-55.78l-40.18-20.16 40.23-20.06zM422 560h180a84 84 0 010 168H422a84 84 0 010-168z" /></svg>