<svg viewBox="0 0 1024 1024" focusable="false"><path d="M401.4 166.66c34.06-110.64 195.68-108.08 223.24 5.8l1.32 4.7a30.93 30.93 0 0045.31 16.33c104.03-63.4 223.15 55.68 159.75 159.75a30.93 30.93 0 0019.07 46.08c118.4 28.71 118.4 197.12 0 225.87a30.85 30.85 0 00-19.11 46.08c63.4 104.07-55.64 223.15-159.75 159.8a30.9 30.9 0 00-46.08 19.02c-28.71 118.4-197.12 118.4-225.83 0a30.9 30.9 0 00-46.13-19.07c-104.06 63.36-223.14-55.68-159.78-159.75a30.9 30.9 0 00-20.74-46.5l-8.32-2.48c-109.48-36.35-103.68-195.41 8.1-222.46l4.7-1.32a30.9 30.9 0 0016.3-45.32c-63.32-104.02 55.72-223.14 159.83-159.74a30.85 30.85 0 0046.08-19.11l2.13-7.68zm140.8 27.81c-7.59-31.44-52.34-31.44-59.98 0l-1.92 7.09a116.18 116.18 0 01-171.48 64.77c-27.65-16.86-59.3 14.8-42.5 42.45l4.44 7.98a116.22 116.22 0 01-67.7 162.98l-8.54 2.52c-30.17 7.25-31.7 49.62-4.95 58.54l13.7 3.97a116.27 116.27 0 0163.06 170.88l-1.97 3.62c-12.16 26.71 17.97 54.96 44.38 38.83l8.02-4.4A116.18 116.18 0 01482.22 830c7.64 31.44 52.4 31.44 60.03 0a116.3 116.3 0 01173.36-71.81l3.62 1.92c26.71 12.16 55-17.97 38.91-44.38l-4.48-8.02A116.27 116.27 0 01830 542.25c31.45-7.64 31.45-52.4 0-60.03a116.3 116.3 0 01-71.85-173.36l1.92-3.62c12.2-26.71-17.92-55-44.37-38.87l-7.98 4.44a116.22 116.22 0 01-162.98-67.76l-2.48-8.53zM512.22 341.6a170.67 170.67 0 110 341.33 170.67 170.67 0 010-341.33zm0 85.33a85.33 85.33 0 100 170.67 85.33 85.33 0 000-170.67z" /></svg>