<svg viewBox="0 0 1024 1024" focusable="false"><path d="M289.22 936.86H139.76a27.36 27.36 0 01-27.39-27.39V355.13a27.35 27.35 0 0127.39-27.33h149.46a27.3 27.3 0 0127.36 27.33v554.34a27.36 27.36 0 01-27.36 27.39zm-122.07-54.72h94.71V382.55h-94.71v499.59z" /><path d="M669.41 922.67c-60.6 0-126.81-5.7-198.21-16.92l-145.95-18.6-43.47-11.94a27.39 27.39 0 0114.88-52.68l39.48 11.1 142.83 17.91c122.76 19.44 232.35 21.45 317.88 5.85 14.55-2.31 29.13 7.11 31.8 22.11a27.39 27.39 0 01-22.05 31.8c-41.76 7.5-87.66 11.34-137.19 11.34zm215.94-433.41c-.39 0-.81 0-1.26-.06a27.3 27.3 0 01-26.07-28.59l3-66.78c-.06-13.92-12.33-26.16-27.42-26.16l-219 2.31a27.45 27.45 0 01-27.39-27.39V231.95c-.66-28.26-9.15-48.78-25.74-61.92-22.62-17.97-56.16-19.65-77.79-18.39l-.78 36.75c-.27 9.63-.21 19.38-.21 29.13.06 17.25.06 34.59-1.26 51.75-9.3 118.86-88.59 133.92-152.25 145.92a757.11 757.11 0 00-30.18 6.09 27.09 27.09 0 01-32.73-20.64 27.24 27.24 0 0120.64-32.73c10.68-2.46 21.51-4.5 32.07-6.51 63.51-12 101.79-19.23 107.91-96.3 1.14-15.72 1.11-31.53 1.05-47.37 0-10.29-.06-20.52.21-30.78l1.2-60.27a27.33 27.33 0 0121.84-26.22c3.45-.66 88.32-17.64 144.27 26.67 29.73 23.61 45.39 58.68 46.47 104.25v83.67l191.34-2.04a82.29 82.29 0 0182.41 82.11l-3.06 68.04a27.39 27.39 0 01-27.33 26.16z" /><path d="M801.68 911.72a27.39 27.39 0 01-5.55-54.15c33.78-7.05 42.75-25.89 46.26-54.15l3.24-76.5c.66-15.06 13.53-25.83 28.59-26.16a27.42 27.42 0 0126.16 28.53l-3.39 78.72c-7.29 58.26-37.38 92.19-89.64 103.14a24.78 24.78 0 01-5.7.54zm-77.73-156.09a27.36 27.36 0 01-19.32-8.04l-72.66-72.66a27.39 27.39 0 0138.7-38.7l53.28 53.34 135.06-135.12a27.39 27.39 0 0138.7 38.7L743.33 747.59a27.33 27.33 0 01-19.38 8.04z" /></svg>