<svg viewBox="0 0 1024 1024" focusable="false"><path d="M125.28 869.26c0-.14 773.44-.07 773.44-.07V146.3c0 .15-773.44.08-773.44.08v722.88zM90.12 146.3a35.16 35.16 0 0135.16-35.08h773.44a35.2 35.2 0 0135.15 35.08v722.96a35.16 35.16 0 01-35.15 35.08H125.28a35.2 35.2 0 01-35.16-35.08V146.3z" /><path d="M97.86 753.88h828.28v-35.16H97.86zm143.44 78.04h519.6a17.58 17.58 0 100-35.15H241.3a17.58 17.58 0 000 35.15zm-79.25-5.13a17.58 17.58 0 1024.9-24.9 17.58 17.58 0 00-24.9 24.9zm663.54 5.13h25.32a17.58 17.58 0 100-35.15h-25.32a17.58 17.58 0 100 35.15zM512 635.05a203.2 203.2 0 100-406.4 203.2 203.2 0 000 406.4zm0-35.16a168.05 168.05 0 110-336.1 168.05 168.05 0 010 336.1z" /><path d="M473.9 494.77V368.91l113.26 62.93-113.27 62.93zm158.02-47.56a17.58 17.58 0 000-30.73l-167.06-92.81a17.58 17.58 0 00-26.13 15.36v185.63a17.58 17.58 0 0026.13 15.36l167.06-92.81z" /><path d="M515.48 473.36l81.28 121.93 29.25-19.48-81.28-121.92z" /></svg>