<svg viewBox="0 0 1024 1024" focusable="false"><path d="M879.62 971.93c-2.41 0-4.87-.2-7.27-.3l-727.71-2.82c-24.27 0-45.88-9.53-62.46-27.5-46.34-50.38-39.02-156.36-38.1-168.19a31.95 31.95 0 0131.9-29.39l76.08-.05 1.54-691.71a32.05 32.05 0 0132-31.95h.05l771.79 1.28a31.96 31.96 0 0131.9 32v786.69c.1 6.65-.51 68.76-38.91 105.67a93.18 93.18 0 01-65.03 26.06c-2.05.06-3.94.21-5.78.21zm1.84-64.3c14.7-.31 20.68-4.36 24.58-8 16.33-15.82 19.4-50.79 19.35-59.39v-755l-707.84-1.12-1.49 659.46 589.26-.41h.06a32.06 32.06 0 0131.94 30.15l3.95 67.54c.1 26.11 7.63 49.46 18.89 59.9a25.26 25.26 0 0014.85 6.81h4.91c.41 0 .98.26 1.08 0l.51.1zM107.1 807.77c.87 34.2 7.17 73.88 22.17 90.22a19.3 19.3 0 0015.51 6.8l644.77 2.46a179.2 179.2 0 01-12.24-64.56l-2.05-35.53-668.16.56z" /><path d="M322.3 283.9a22.37 22.37 0 11-.05-44.74l485.38-.72a22.43 22.43 0 01.05 44.8l-485.38.66m72.14 290.72h-1.02a22.37 22.37 0 01-22.07-22.68c.16-12.34 9.73-21.3 22.74-22.07 22.37.25 64-26.27 82.02-37.58a23.3 23.3 0 0127.65 2.35c7.42 7.07 9.57 17.92 4.7 26.83-1.94 3.64-2.04 5.84-1.89 6.25.31 0 3.59.36 7.63-3.07 9.88-8.2 30.82-20.59 55.04-34.82 23.55-13.98 59.3-35.02 66.92-43.16a22.43 22.43 0 0137.84 21.5c-2 6.97-2.56 17.05-3.48 28.52-.72 8.2-1.34 16.85-2.41 25.7 13.1 0 23.7 1.54 24.01 1.54 4.61.87 9.12 2.25 13.62 3.74a45.41 45.41 0 007.22 2.05 21.1 21.1 0 0130.46 2.7c8.1 9.43 5.84 23.87-3.53 31.96-18.38 15.66-37.73 9.21-48.18 5.83a52.22 52.22 0 00-7.32-2.04 275.1 275.1 0 00-34.82.66 22.43 22.43 0 01-30.72-26.62 186.37 186.37 0 005.64-33.23c-9.58 5.84-20.38 12.24-32.46 19.4-19.77 11.58-42.1 24.78-49.16 30.72-19.96 16.64-46.8 17.82-65.12 2.77a44.44 44.44 0 01-10.35-12.19c-25.24 13.98-50.84 24.89-72.96 24.89" /></svg>