<svg viewBox="0 0 1024 1024" focusable="false"><path d="M414.72 331.946667a32 32 0 0 0 45.226667-45.226667L414.72 331.946667zM512 85.333333l23.125333-22.144a32 32 0 0 0-42.88-3.029333L512 85.333333z m30.72 201.386667a32 32 0 1 0 45.226667 45.226667l-45.226667-45.226667zM333.098667 374.912a32 32 0 1 0 59.136-24.490667l-59.136 24.490667zM234.666667 192l-5.888-31.445333a32 32 0 0 0-13.653334 56.789333L234.666667 192z m231.296 127.018667a32 32 0 1 0 49.408-40.704l-49.408 40.704z m145.877333 7.125333a32 32 0 1 0 56.32 30.378667l-56.32-30.378667zM768 192l19.498667 25.344a32 32 0 0 0-13.610667-56.789333L768 192z m-281.258667 87.04a32 32 0 0 0 50.517334 39.253333l-50.517334-39.253333zM356.821333 370.645333l-21.205333-23.978666 21.205333 23.978666zM320 405.333333l22.613333 22.613334-22.613333-22.613334z m-106.624 325.973334l-32-0.938667 32 0.938667z m8.746667 72.277333l-29.653334 12.074667 29.653334-12.117334zM298.666667 896l19.2-25.6L298.666667 896z m426.666666 0l-19.2-25.6 19.2 25.6z m76.416-92.117333l-29.610666-12.16 29.610666 12.16z m8.832-72.96l32-0.896-32 0.938666zM704 405.333333l22.613333-22.613333-22.613333 22.613333z m-36.778667-34.688l21.205334-23.978666-21.205334 23.978666z m30.293334 41.685334a32 32 0 0 0-29.696-56.661334l29.696 56.661334zM219.818667 590.336a32 32 0 0 0 29.696 56.661333l-29.696-56.661333z m136.362666-234.666667a32 32 0 1 0-29.696 56.661334l29.696-56.661334z m418.304 291.328a32 32 0 0 0 29.696-56.661333l-29.696 56.661333z m-43.946666 255.317334a32 32 0 1 0 32.256-55.296l-32.256 55.296zM250.794667 548.352a32 32 0 1 0-32.256 55.296l32.256-55.296z m554.666666 55.296a32 32 0 1 0-32.256-55.296l32.256 55.296zM261.205333 847.018667a32 32 0 1 0 32.256 55.296l-32.256-55.296zM459.946667 286.72c2.133333 2.133333 0.853333 3.498667-0.170667-5.162667-1.066667-9.344-1.109333-23.082667-1.109333-46.890666h-64c0 22.058667-0.042667 40.32 1.536 54.186666 1.706667 14.506667 5.674667 30.293333 18.517333 43.093334l45.226667-45.226667z m-1.28-52.053333c0-30.634667 16.213333-60.928 35.797333-85.76a270.506667 270.506667 0 0 1 36.821333-37.973334l0.426667-0.426666h0.085333-0.042666L512 85.333333a4707.456 4707.456 0 0 0-19.797333-25.130666l-0.128 0.085333a200.533333 200.533333 0 0 1-0.298667 0.256l-0.981333 0.768a286.464 286.464 0 0 0-14.08 12.501333 334.165333 334.165333 0 0 0-32.512 35.413334c-23.04 29.226667-49.536 73.6-49.536 125.44h64zM512 85.333333l-23.125333 22.101334h-0.042667c0-0.042667 0 0 0 0l0.341333 0.341333 1.536 1.706667a255.658667 255.658667 0 0 1 25.728 35.84c14.506667 24.533333 27.562667 56.106667 27.562667 89.344h64c0-49.237333-18.944-92.330667-36.48-121.898667a319.488 319.488 0 0 0-32.768-45.525333 179.968 179.968 0 0 0-2.474667-2.816l-0.768-0.810667-0.256-0.256a21.973333 21.973333 0 0 1-0.128-0.128L512 85.333333z m32 149.333334c0 21.248-0.042667 35.157333-1.152 45.226666-1.152 10.752-2.986667 9.6-0.128 6.826667l45.226667 45.226667c13.482667-13.44 17.066667-31.402667 18.517333-45.098667 1.578667-14.336 1.536-32.426667 1.536-52.181333h-64zM392.234667 350.421333c-14.378667-34.602667-38.186667-72.106667-62.976-104.448-24.661333-32.170667-52.138667-61.696-75.093334-79.36l-38.997333 50.773334c16.768 12.885333 40.362667 37.546667 63.317333 67.541333 22.826667 29.781333 43.136 62.336 54.613334 90.026667l59.136-24.533334zM240.554667 223.445333c98.645333-18.474667 181.077333 41.813333 225.408 95.573334l49.408-40.704c-50.688-61.44-154.410667-142.549333-286.592-117.76l11.776 62.890666zM668.16 356.522667c28.458667-52.864 86.016-113.493333 119.338667-139.178667l-38.997334-50.688c-39.04 29.994667-103.168 97.28-136.661333 159.488l56.32 30.378667z m105.728-195.968c-137.130667-25.728-238.08 55.381333-287.146667 118.485333l50.517334 39.253333c41.813333-53.76 121.173333-114.261333 224.853333-94.848l11.776-62.890666zM335.616 346.666667c-12.245333 10.837333-25.002667 22.784-38.229333 36.053333l45.226666 45.226667c12.373333-12.330667 24.149333-23.381333 35.413334-33.322667l-42.410667-47.957333z m-38.229333 36.053333c-50.602667 50.602667-78.634667 120.32-94.464 184.064-15.957333 64.256-20.437333 125.866667-21.504 163.584l64 1.877333c0.981333-35.157333 5.12-91.818667 19.626666-150.016 14.549333-58.666667 38.826667-115.498667 77.610667-154.282666L297.386667 382.72z m-115.968 347.648c-0.725333 24.362667-1.024 55.637333 11.093333 85.290667L251.733333 791.466667c-6.4-15.786667-7.082667-34.56-6.357333-59.221334l-64-1.877333z m11.093333 85.290667c12.16 29.824 37.034667 68.48 86.954667 105.941333l38.4-51.2c-40.746667-30.549333-58.368-59.946667-66.133334-78.933333l-59.264 24.192zM279.466667 921.6c26.709333 20.053333 63.914667 33.28 103.168 41.685333 39.893333 8.533333 84.864 12.714667 129.365333 12.714667 44.544 0 89.472-4.181333 129.365333-12.714667 39.253333-8.405333 76.458667-21.674667 103.168-41.685333l-38.4-51.2c-15.957333 11.946667-42.752 22.741333-78.165333 30.293333-34.773333 7.466667-75.136 11.306667-115.968 11.306667-40.789333 0-81.194667-3.84-115.968-11.306667-35.413333-7.552-62.165333-18.346667-78.165333-30.293333l-38.4 51.2z m465.066666 0c49.749333-37.290667 74.624-75.776 86.826667-105.557333l-59.221333-24.32c-7.765333 19.029333-25.429333 48.213333-66.005334 78.677333l38.4 51.2z m86.826667-105.557333c12.288-29.866667 11.946667-61.44 11.221333-86.058667l-64 1.92c0.768 24.917333 0.128 43.904-6.4 59.818667l59.178667 24.32z m11.221333-86.058667c-1.109333-37.802667-5.589333-99.370667-21.589333-163.498667-15.829333-63.658667-43.818667-133.248-94.336-183.765333l-45.269333 45.226667c38.741333 38.741333 62.933333 95.402667 77.525333 154.026666 14.506667 58.026667 18.645333 114.645333 19.712 149.930667l64-1.877333z m-115.925333-347.306667c-13.226667-13.226667-26.026667-25.173333-38.229333-36.010666L645.973333 394.666667c11.221333 9.941333 23.04 20.992 35.370667 33.322666l45.226667-45.226666z m-38.229333-36.010666c-102.997333-91.050667-249.856-91.050667-352.853334 0L378.026667 394.666667c78.72-69.674667 189.226667-69.674667 267.946666 0l42.453334-47.957334z m-20.608 8.96l-448 234.666666 29.696 56.746667 448-234.666667-29.696-56.746666z m-341.333334 56.746666l448 234.666667 29.696-56.746667-448-234.666666-29.696 56.746666z m436.309334 434.645334l-512-298.666667-32.256 55.296 512 298.666667 32.256-55.296z m10.410666-298.666667l-512 298.666667 32.256 55.296 512-298.666667-32.256-55.296z"></path></svg>
