<svg viewBox="0 0 1024 1024" focusable="false"><path d="M268.2 640.25v159.9l216.38 56.1V622.11l-61.34 63.62a27.42 27.42 0 01-30.2 6.33l-124.88-51.81zm-54.85-22.78l-91.54-37.97a27.42 27.42 0 01-9.24-44.34l108.5-112.51a27.21 27.21 0 0110.76-6.88l162.72-56.24 8.99-1.51h216.92l8.99 1.51 162.72 56.24a27.5 27.5 0 0110.75 6.88l108.51 112.51a27.42 27.42 0 01-9.24 44.34l-91.54 37.97v203.9a27.42 27.42 0 01-20.55 26.57l-271.22 70.28a27.42 27.42 0 01-13.76 0L233.9 847.94a27.42 27.42 0 01-20.55-26.58V617.51zm542.45 22.78l-124.83 51.76a27.42 27.42 0 01-30.2-6.32l-61.35-63.58v234.14l216.38-56.1v-159.9zM317.94 444.04L512 524.49l194.02-80.45-90.15-31.18H408.13l-90.2 31.18zm-70.46 30.16l-67.54 70.03 216.76 89.95 67.59-70.04-216.76-89.94zm596.54 70.03l-67.63-70.03-216.76 89.9 67.58 70.07 216.76-89.9zM553.05 184.41l25.86 26.29a27.34 27.34 0 1039.02-38.4l-72.9-74a27.34 27.34 0 00-38.98 0l-70.58 71.6a27.34 27.34 0 0038.98 38.4l23.88-24.27v139.05a27.34 27.34 0 1054.72 0V184.41z" /></svg>