<svg viewBox="0 0 1024 1024" focusable="false"><path d="M896 682.67a42.67 42.67 0 0142.37 37.67l.3 5v85.33a128 128 0 01-120.5 127.78l-7.5.22H213.33a128 128 0 01-127.78-120.5l-.22-7.5v-85.34a42.67 42.67 0 0185.04-4.99l.3 5v85.33a42.67 42.67 0 0037.67 42.37l5 .3h597.33a42.67 42.67 0 0042.36-37.68l.3-5v-85.33A42.67 42.67 0 01896 682.67zM505.64 85.8l2.52-.3 3.84-.17 3.2.13 5.38.73 4.73 1.28 4.74 1.87 4.18 2.22 4.44 3.16 3.5 3.11 128 128a42.67 42.67 0 01-60.33 60.33L554.66 231v409a42.67 42.67 0 11-85.34 0V231l-55.17 55.17a42.67 42.67 0 01-60.33-60.33l128-128c1.5-1.54 3.12-2.9 4.78-4.14l4.7-3.03 4.86-2.3 4.48-1.5 5-1.07z" /></svg>