<svg viewBox="0 0 1075 1024" focusable="false"><path d="M195.6 554.19a105.47 105.47 0 11105.46-105.47A105.47 105.47 0 01195.6 554.19zm0-168.75a63.28 63.28 0 1063.27 63.28 63.28 63.28 0 00-63.28-63.28z" /><path d="M195.6 385.44a21.1 21.1 0 01-21.1-21.1V111.22a21.1 21.1 0 0142.19 0v253.12a21.1 21.1 0 01-21.1 21.1zm0 548.43a21.1 21.1 0 01-21.1-21.09V533.1a21.1 21.1 0 0142.19 0v379.69a21.1 21.1 0 01-21.1 21.1zm337.5-168.75a105.47 105.47 0 11105.46-105.46A105.47 105.47 0 01533.1 765.12zm0-168.75a63.28 63.28 0 1063.28 63.29 63.28 63.28 0 00-63.29-63.29z" /><path d="M533.1 596.38a21.1 21.1 0 01-21.1-21.1V111.22a21.1 21.1 0 0142.19 0v464.06a21.1 21.1 0 01-21.1 21.1zm0 337.5a21.1 21.1 0 01-21.1-21.1V744.03a21.1 21.1 0 0142.19 0v168.75a21.1 21.1 0 01-21.1 21.1zm337.5-506.25a105.47 105.47 0 11105.46-105.47A105.47 105.47 0 01870.6 427.62zm0-168.75a63.28 63.28 0 1063.28 63.28 63.28 63.28 0 00-63.29-63.29z" /><path d="M870.6 258.88a21.1 21.1 0 01-21.1-21.1V111.22a21.1 21.1 0 0142.19 0v126.56a21.1 21.1 0 01-21.1 21.1zm0 675a21.1 21.1 0 01-21.1-21.1V406.53a21.1 21.1 0 0142.19 0v506.25a21.1 21.1 0 01-21.1 21.1z" /></svg>