<svg viewBox="0 0 1024 1024" focusable="false"><path d="M42.67 128a42.67 42.67 0 0142.66-42.67h256a213.33 213.33 0 01213.34 213.34V896a42.67 42.67 0 11-85.34 0A85.33 85.33 0 00384 810.67H85.33A42.67 42.67 0 0142.67 768V128zm426.66 620.2V298.67a128 128 0 00-128-128H128v554.66h256a170.67 170.67 0 0185.33 22.87z" /><path d="M681.3 122.75a42.67 42.67 0 01-30.63 51.97 128 128 0 00-96 123.95V748.2A170.67 170.67 0 01640 725.33h256v-256a42.67 42.67 0 0185.33 0V768a42.67 42.67 0 01-42.66 42.67H640A85.33 85.33 0 00554.67 896a42.67 42.67 0 11-85.34 0V298.67a213.33 213.33 0 01160-206.55 42.67 42.67 0 0151.97 30.63z" /><path d="M853.33 42.67A42.67 42.67 0 01896 85.33v85.34h85.33a42.67 42.67 0 110 85.33H896v85.33a42.67 42.67 0 11-85.33 0V256h-85.34a42.67 42.67 0 110-85.33h85.34V85.33a42.67 42.67 0 0142.66-42.66z" /></svg>