<svg viewBox="0 0 1024 1024" focusable="false"><path d="M503.16 570.18c105.75 0 316.92 57.16 316.92 170.68v128h-633.9v-128c0-113.52 211.18-170.68 316.98-170.68zm0 85.32c-107.01 0-229.8 55.06-237.76 85.78v42.22h475.46v-42.64c-7.9-30.3-130.79-85.36-237.7-85.36zm0-469.32c87.5 0 158.44 76.34 158.44 170.68 0 94.3-70.9 170.64-158.49 170.64-87.5 0-158.44-76.33-158.44-170.64s70.89-170.68 158.44-170.68zm0 85.32c-43.62 0-79.27 38.4-79.27 85.36 0 46.92 35.65 85.32 79.27 85.32 43.56 0 79.22-38.4 79.22-85.32 0-46.96-35.66-85.36-79.27-85.36z" /></svg>