<svg viewBox="0 0 1024 1024" focusable="false"><path d="M640 554.67a298.67 298.67 0 01298.37 285.56l.3 13.1V896A42.67 42.67 0 01896 938.67H128A42.67 42.67 0 0185.33 896v-42.67A298.67 298.67 0 01512 583.47a298.67 298.67 0 01128-28.85zm0 85.33c-14.38 0-28.71 1.4-42.67 4.27a298.67 298.67 0 0185.34 209.06h170.66A213.33 213.33 0 00640 640zm-256 0a213.33 213.33 0 00-213.33 213.33h426.66A213.33 213.33 0 00384 640zm0-554.67A213.33 213.33 0 01512 128a213.33 213.33 0 110 341.33 213.33 213.33 0 11-128-384zm0 85.34a128 128 0 100 256 128 128 0 000-256zm225.15 3.75a128 128 0 00-40.28 17.8 213.33 213.33 0 010 212.9 128 128 0 1040.28-230.7z" /></svg>