<svg viewBox="0 0 1024 1024" focusable="false"><path d="M706.84 273.07h129.43c19.62 0 38.4 8.36 52.33 23.32 13.83 14.96 21.62 35.22 21.62 56.32V512a41.41 41.41 0 01-10.8 28.16 35.67 35.67 0 01-26.18 11.66 35.67 35.67 0 01-26.16-11.66A41.41 41.41 0 01836.27 512V352.71H244.62v477.87h295.82c9.79 0 19.23 4.2 26.17 11.66a41.7 41.7 0 0110.81 28.16 41.41 41.41 0 01-10.8 28.16 35.73 35.73 0 01-26.18 11.66H244.62c-19.62 0-38.4-8.42-52.34-23.32a82.83 82.83 0 01-21.61-56.32V193.42c0-21.1 7.79-41.36 21.61-56.32 13.94-14.96 32.72-23.32 52.34-23.32h314.31c11.5 0 22.76 2.84 33.06 8.42a75.62 75.62 0 0126.1 23.44l88.75 127.43zm-92.44 0l-55.47-79.65h-314.3v79.65H614.4zm147.91 398.22h110.93c9.79 0 19.23 4.2 26.17 11.66a41.7 41.7 0 0110.81 28.16 41.41 41.41 0 01-10.8 28.16 35.67 35.67 0 01-26.18 11.66H762.31V870.4a41.41 41.41 0 01-10.8 28.16 35.73 35.73 0 01-26.18 11.66 35.73 35.73 0 01-26.17-11.66 41.41 41.41 0 01-10.8-28.16V750.93H577.42a35.67 35.67 0 01-26.17-11.66 41.41 41.41 0 01-10.8-28.16c0-10.58 3.86-20.7 10.8-28.16a35.67 35.67 0 0126.17-11.66h110.94V551.82a41.6 41.6 0 0110.8-28.16A35.67 35.67 0 01725.33 512c9.79 0 19.23 4.21 26.17 11.66a41.7 41.7 0 0110.81 28.16V671.3z" /></svg>