<svg viewBox="0 0 1024 1024" focusable="false"><path d="M871.4 873.2c-9.12 8.87-20.76 12.88-36.07 12.16H440.96c13.8-16.03 24.13-39.1 24.97-71.3h428.29c-1.4 14.77-6.2 43.03-22.87 59.15zm-439.22-68.33c2.2 70.62-48.56 78.17-54.21 78.8a17.55 17.55 0 00-5.99 1.69l-18.56-.17c13.2-16.62 22.74-40.16 21.68-73.74v-68.1h478.07v36.96H449.01c-9.28 0-16.87 7.6-16.87 16.88v7.68zM164.5 856.59c-18.77-18.57-28.18-45.99-27.93-81.5V136.52h597.55l.55 48.94H225.55c-9.28 0-16.88 7.6-16.88 16.96v601.93c.17 33.62 8.31 60.2 23.33 80.07-7.09.38-41.93-2.57-67.5-27.88zm642.81-147.03H358.23a16.88 16.88 0 00-16.88 16.88V812c1.82 59.4-36.28 70.74-47.42 72.73l-2.53-.05a50.54 50.54 0 01-27.63-14.09c-14-13.92-21.18-36.15-21.3-66.27V219.35H806.5l.84 490.21zm104.33 70.75h-24.72v-53.87c0-9.28-7.6-16.88-16.87-16.88H841.1l-.84-507.13a16.92 16.92 0 00-16.92-16.88h-54.92l-.76-66.02a16.96 16.96 0 00-16.88-16.75H119.66a16.96 16.96 0 00-16.88 16.88v655.3c-.3 44.84 12.49 80.4 37.97 105.63 38.18 37.76 90.87 37.97 92.98 37.42l54.97.42c4.18.64 7.09.72 7.72.72h.09c.97 0 1.85-.42 2.74-.59l73.4.6 461.96-.05c1.43.08 2.87.08 4.3.08 22.23 0 41-7.3 55.98-21.72 33.75-32.74 33.67-90.83 33.67-93.15v-7.17a16.88 16.88 0 00-16.88-16.88z" /><path d="M368.01 517.65a16.92 16.92 0 0023.08 6.16L455 486.94a16.88 16.88 0 00-16.87-29.24l-49.32 28.48-60.62-105.05 105.47-60.91 8.35 13.75a16.88 16.88 0 0028.77-17.64l-17-27.75A16.88 16.88 0 00431 282.8l-134.37 77.54a16.8 16.8 0 00-6.2 23.03l77.54 134.28z" /><path d="M608.48 432.94l-89.65 89.6-35.69-122.13 125.34 32.53zm-161.96-68.09a16.88 16.88 0 00-4.09 16.45l51.98 178.03a16.75 16.75 0 0016.2 12.15 16.96 16.96 0 0011.9-4.93l130.7-130.57a16.88 16.88 0 00-7.69-28.27L462.9 360.25a16.66 16.66 0 00-16.36 4.64z" /><path d="M665.69 501.45h2.1a57.67 57.67 0 0155.49 59.61c-1.19 31.73-28.82 55.27-59.62 55.48a57.67 57.67 0 01-55.47-59.61 57.71 57.71 0 0157.5-55.52m-91.21 54.3a90.58 90.58 0 0024.38 65.51 90.79 90.79 0 0066.91 29.11c48.86 0 89.44-38.81 91.21-88.04a91.42 91.42 0 00-87.96-94.5c-49.23-1.69-92.73 37.63-94.54 87.92" /></svg>