<svg viewBox="0 0 1024 1024" focusable="false"><path d="M298.67 938.67a128 128 0 01-128-128v-256H128c-37.97 0-57.05-45.95-30.16-72.83l384-384a42.67 42.67 0 0160.33 0l384 384c26.88 26.88 7.85 72.83-30.17 72.83h-42.67v256a128 128 0 01-128 128H298.67zM512 188.33L228.31 472.06A42.67 42.67 0 01256 512v298.67a42.67 42.67 0 0042.67 42.66l85.33-.04V682.67a85.33 85.33 0 0185.33-85.34h85.34A85.33 85.33 0 01640 682.67v170.62l85.33.04A42.67 42.67 0 00768 810.67V512a42.67 42.67 0 0127.73-39.98L512 188.33zm42.67 494.34h-85.34v170.62h85.34V682.67z" /></svg>