<svg viewBox="0 0 1024 1024" focusable="false"><path d="M84.5 84.5v849.6h855V256L805.31 84.5H84.5zm55.58 55.58h638.19l105.66 135.08v603.45H140.07V140.03z" /><path d="M429.83 792.26h160.6v-55.58h-160.6zm198.4-492.66a112.5 112.5 0 0162.64 205.83A178.74 178.74 0 01513.13 697.9 178.74 178.74 0 01335.2 509.03a112.45 112.45 0 11146.39-164.97 177.62 177.62 0 0157.73-.76 112.19 112.19 0 0188.92-43.74zm56.88 112.45a56.92 56.92 0 00-107.81-25.24l-10.13 20.48-22.05-6.03a121.14 121.14 0 00-31.95-4.46c-12.46 0-24.7 1.89-36.4 5.54l-23.04 7.2-10.35-21.83a56.88 56.88 0 10-69.4 78.21l22.96 7.65-4.37 23.72a123.03 123.03 0 00-2.11 22.27 123.17 123.17 0 00122.67 122.72 123.17 123.17 0 00122.76-122.72c0-8.05-.81-15.97-2.43-23.85l-4.5-22.36 21.06-8.78a56.9 56.9 0 0035.1-52.51z" /></svg>