<svg viewBox="0 0 1024 1024" focusable="false"><path d="M602.38 421.58h271.17a60.16 60.16 0 0160.28 60.28v391.69a60.16 60.16 0 01-60.28 60.28h-391.7a60.16 60.16 0 01-60.27-60.28V602.38H150.45a60.16 60.16 0 01-60.28-60.28V150.45a60.1 60.1 0 0160.24-60.32H542.1a60.16 60.16 0 0160.28 60.28zm0 60.28v60.24a60.16 60.16 0 01-60.28 60.28h-60.24v241.1a30.07 30.07 0 0030.08 30.07h331.49a30.1 30.1 0 0030.12-30.08v-331.5a30.12 30.12 0 00-30.12-30.11H602.38zM150.41 180.49v331.49a30.1 30.1 0 0030.08 30.12h331.49a30.12 30.12 0 0030.12-30.12V180.53a30.12 30.12 0 00-30.12-30.12H180.53a30.12 30.12 0 00-30.12 30.08zm60.24 230.03V259.04h106.18v-63.45h44c6.03.84 9.07 1.69 9.07 2.57a9.96 9.96 0 01-1.27 3.93 69.94 69.94 0 00-3.92 24.55v32.4h112.68v147.6h-47.93v-19.4h-64.7V498.6H318.1V387.24h-63.4v23.28zm44-115.2v56.95h63.45V295.3h-63.4zm174.81 56.95V295.3h-64.7v56.96h64.75zm191.95 459.48h-49.1l86.73-239.49h60.87l84.12 239.53h-51.76l-18.14-50.54h-94.5l-18.14 50.5zm31.09-90.62h68.63l-32.35-102.25h-1.31zm221.05-389.96h-60.24a120.52 120.52 0 00-120.52-120.52v-60.2a180.8 180.8 0 01180.76 180.76zM150.45 692.8h60.24A120.52 120.52 0 00331.21 813.3v60.24a180.8 180.8 0 01-180.76-180.76z" /></svg>