<svg viewBox="0 0 1024 1024" focusable="false"><path d="M884.55 770.08H230.48V672.2l100.35-100.17 38.07 42.84a27.77 27.77 0 0020.16 9.36c7.74 1.94 15.21-2.83 20.61-8.41l130.82-133.83 114.3 118.53a27.9 27.9 0 0020.02 8.55h.09a27.86 27.86 0 0019.94-8.46l62.46-64.22 127.26 112.86v120.83zm-.17-618.53v423l-110.03-97.51a27.81 27.81 0 00-38.43 1.44l-60.97 62.64-114.3-118.4a27.9 27.9 0 00-19.94-8.55 28.89 28.89 0 00-20.02 8.41L390.73 555.53l-37.8-42.62a27.72 27.72 0 00-20.03-9.31c-7.51.63-15.07 2.7-20.47 8.1l-82 81.85V151.55h653.95zm55.66 484.2V139.81a43.97 43.97 0 00-43.88-43.88H218.6a43.97 43.97 0 00-43.92 43.88V660.5l.04.14v121.23a43.95 43.95 0 0043.88 43.96h677.7a44.01 44.01 0 0043.92-43.97V636.75c0-.32-.18-.63-.23-.9z" /><path d="M727.1 282.77a32.67 32.67 0 110 65.34 32.67 32.67 0 010-65.34m0 121a88.52 88.52 0 0088.33-88.38 88.47 88.47 0 00-88.33-88.38 88.47 88.47 0 00-88.38 88.38c0 48.7 39.6 88.38 88.38 88.38m185.08 459.86H135.71V275.84a27.86 27.86 0 10-55.71 0v615.64a27.86 27.86 0 0027.86 27.9h804.33a27.9 27.9 0 000-55.75" /></svg>