<svg viewBox="0 0 1024 1024" focusable="false"><path d="M791.27 93.23h139.31v139.64H791.32V93.23zm-279.18 0h139.27v139.64H512.09V93.23zm-279.55-.14H371.9v139.64H232.54V93.09zm419.28 140.1h139.31v139.6H651.87V233.14zm-279.18 0h139.27v139.6H372.64V233.14zm-279.55-.23H232.4V372.6H93.1V232.96zm698.37 140h139.3v139.6h-139.3V372.92zm-279.23 0h139.31v139.6h-139.3V372.92zm-279.5-.13h139.3v139.64h-139.3V372.83zm419.33 139.64h139.21v139.59H652.01V512.42zm-279.23 0h139.31v139.59H372.78V512.42zm-279.55-.2h139.3v139.65H93.24V512.28zm698.37 139.6H930.9V791.5H791.6V651.87zm-279.23 0h139.3V791.5h-139.3V651.87zm-279.5-.14h139.26v139.64H232.87V651.73zM652.1 791.27h139.31v139.64h-139.3V791.27zm-279.22 0h139.3v139.64H372.93V791.27zm-279.51-.18h139.26v139.63H93.42V791.1z" /></svg>