<svg viewBox="0 0 1024 1024" focusable="false"><path d="M853.33 170.67A85.33 85.33 0 01938.67 256v512a85.33 85.33 0 01-85.34 85.33H170.67A85.33 85.33 0 0185.33 768V256a85.33 85.33 0 0185.34-85.33h682.66zm0 85.33H170.67v512h682.66V256z" /><path d="M300.5 554.33h-31.66V640h-58.5V397.31h95.5c28.75 0 51.28 6.4 67.5 19.2 16.2 12.8 24.31 30.8 24.31 54.19 0 16.85-3.41 30.85-10.32 41.98-6.79 11.1-17.45 20.1-32 26.97l50.69 97.83V640H343.3l-42.8-85.67zm-31.66-45.15h37c11.09 0 19.45-2.9 25-8.7 5.67-5.89 8.53-14.04 8.53-24.5 0-10.44-2.86-18.6-8.53-24.48-5.68-5.97-14-8.96-25-8.96h-37v66.64zm317.02 34.14h-94.34V640h-58.54V397.31h162.35v45.23H491.52v55.8h94.3v44.98zm92.33 14.33V640h-58.54V397.31h96.85c18.56 0 34.95 3.46 49.15 10.37 14.34 6.78 25.39 16.47 33.2 29.14 7.9 12.59 11.82 26.88 11.82 42.84 0 23.68-8.54 42.62-25.52 56.83-16.9 14.08-40.1 21.16-69.63 21.16h-37.33zm0-45.14h38.31c11.35 0 19.93-2.86 25.81-8.53 6.02-5.63 9-13.65 9-23.98 0-11.35-3.02-20.4-9.12-27.18-6.15-6.78-14.47-10.24-25-10.32h-39v69.97z" /></svg>