<svg viewBox="0 0 1024 1024" focusable="false"><path d="M213.33 85.33h85.34a42.67 42.67 0 014.99 85.04l-5 .3h-85.33a42.67 42.67 0 00-42.36 37.67l-.3 5v597.33a42.67 42.67 0 0037.67 42.36l5 .3h597.33a42.67 42.67 0 0042.36-37.67l.3-5v-85.33a42.67 42.67 0 0185.04-4.99l.3 5v85.33a128 128 0 01-120.5 127.78l-7.5.22H213.33a128 128 0 01-127.78-120.5l-.22-7.5V213.33a128 128 0 01120.5-127.78l7.5-.22h85.34-85.34zm682.67 0l3.46.13 5.12.73 4.73 1.28 4.74 1.87 4.18 2.22 4.1 2.86 3.84 3.41 4.13 4.78 3.03 4.7 1.33 2.64 1.45 3.46 1.02 3.24 1.28 6.32.26 5.03v256a42.67 42.67 0 11-85.34 0V231l-268.5 268.5a42.67 42.67 0 01-56.32 3.54l-4-3.54a42.67 42.67 0 01-3.55-56.32l3.54-4.01 268.42-268.5H640a42.67 42.67 0 110-85.34h256z" /></svg>