<svg viewBox="0 0 1024 1024" focusable="false"><path d="M496.61 932.3L95.84 531.53a25.59 25.59 0 010-36.18L491.42 99.86a25.98 25.98 0 0119.05-7.53l386.34 14.43a25.68 25.68 0 0124.63 24.66l14.37 386.34a25.8 25.8 0 01-7.47 19.05L532.79 932.3a25.56 25.56 0 01-36.18 0zm18.09-54.24l369.48-369.54-13.05-351.42-351.48-13.14L150.11 513.5 514.7 878.09z" /><path d="M683.33 416.33a71.07 71.07 0 01-50.61-20.94 71.64 71.64 0 010-101.19c27.03-26.97 74.22-26.97 101.19 0a71.63 71.63 0 010 101.19 71.05 71.05 0 01-50.55 20.94zm0-91.86a20.4 20.4 0 00-14.43 34.77 20.88 20.88 0 0028.8 0 20.4 20.4 0 00-14.37-34.77z" /></svg>