<svg viewBox="0 0 1024 1024" focusable="false"><path d="M658.78 370.05a272 272 0 0129.9 1.82C661.78 246.72 528 153.76 375.3 153.76c-170.76 0-310.6 116.35-310.6 264.13 0 85.31 46.53 155.33 124.3 209.7l-31.08 93.43L266.5 666.6c38.84 7.68 70.01 15.59 108.8 15.59 9.76 0 19.42-.48 28.99-1.25a230.72 230.72 0 01-9.6-65.09c0-135.68 116.51-245.8 264.06-245.8zm-169.18-90.5a48.03 48.03 0 110 96.07 48.03 48.03 0 010-96.07zm-217.31 97a48.03 48.03 0 110-96.07 48.03 48.03 0 010 96.06zm667.77 236.57c0-124.16-124.25-225.38-263.8-225.38-147.78 0-264.16 101.22-264.16 225.38 0 124.38 116.38 225.38 264.16 225.38 30.9 0 62.1-7.81 93.18-15.59l85.18 46.66-23.36-77.63c62.34-46.79 108.8-108.8 108.8-178.85zM595.1 578.3a34.2 34.2 0 110-68.41 34.2 34.2 0 010 68.41zm170.76 1.96a34.2 34.2 0 110-68.42 34.2 34.2 0 010 68.42z" /></svg>