<svg viewBox="0 0 1024 1024" focusable="false"><path d="M450.69 400.6L880.94 557a39.13 39.13 0 011.15 73.1l-140.5 56.18 153.6 153.6a39.13 39.13 0 01-55.3 55.34l-153.6-153.6L630.1 882.1a39.13 39.13 0 01-73.09-1.15L400.64 450.69a39.13 39.13 0 0150.1-50.1zm-96.34 119.68a39.13 39.13 0 010 55.3l-82.9 82.98a39.13 39.13 0 11-55.34-55.25l82.9-82.99a39.13 39.13 0 0155.34-.04zM183 328.7l113.32 30.38a39.13 39.13 0 01-20.22 75.52l-113.37-30.33A39.13 39.13 0 11183 328.7zm475.6-112.64a39.13 39.13 0 010 55.34l-83.03 82.99a39.13 39.13 0 01-55.34-55.3l83-83.03a39.13 39.13 0 0155.33 0zm-254.38-53.29l30.43 113.33a39.13 39.13 0 11-75.57 20.26L328.7 183.04a39.13 39.13 0 0175.52-20.27z" /></svg>