<svg viewBox="0 0 1024 1024" focusable="false"><path d="M512 962C263.46 962 62 760.53 62 512S263.46 62 512 62s450 201.47 450 450-201.47 450-450 450zm126.27-552.91l4.32 3.28H692l4.46-5.17c-7.74-50.22-27-87.44-58.01-111.42-30.82-23.85-71.1-35.78-120.6-35.78-32 0-60.39 6.21-85.05 18.72a182.79 182.79 0 00-61.83 50.22 223.06 223.06 0 00-37.62 72.32 283.41 283.41 0 00-12.78 85.18c0 31.19 3.83 60.48 11.52 87.89a200.7 200.7 0 0035.64 71.64c16.11 20.25 36.63 36.22 61.56 47.88 24.93 11.6 54.45 17.41 88.56 17.41 27 0 50.98-3.87 72-11.61a161.1 161.1 0 0054.59-32.94c15.3-14.13 27.72-31.05 37.44-50.72 9.63-19.53 16.65-41.13 21.01-64.75l-4.41-5.31h-51.84l-4.46 3.74c-5.76 34.2-19.21 60.79-40.27 80.1-21.02 19.12-48.96 28.75-84.06 28.75-24.66 0-45.5-4.81-62.6-14.4a122.72 122.72 0 01-42.2-38.7 168.75 168.75 0 01-24.08-55.26 268.29 268.29 0 01-7.56-63.72c0-21.24 2.65-42.3 7.96-63.27 5.27-20.88 13.46-39.6 24.48-56.16a124.99 124.99 0 0142.26-39.46c17.1-9.9 37.66-14.81 61.74-14.81 31.41 0 57.1 8.46 77.31 25.29 20.34 16.92 34.65 40.55 43.11 71.06z" /></svg>