<svg viewBox="0 0 1024 1024" focusable="false"><path d="M510.96 62C758.51 62 959.9 263.38 959.9 510.96c0 247.55-201.38 448.93-448.93 448.93C263.38 959.88 62 758.5 62 510.95 62 263.38 263.38 62 510.96 62zm81.32 650.3c16.52 13.23 79.2 46.21 141.93-26.42 62.73-75.92 0-128.7 0-128.7s-75.92-62.73-108.9-89.14c-36.31-26.42-49.5-36.32-82.53-36.32-36.31 0-42.93 6.62-59.4 16.52l-33.03 32.98s-9.9 13.23-9.9 19.8c0 6.62 13.19 13.23 26.37 19.8 16.52 6.62 23.13-3.29 23.13-3.29s6.62-9.9 26.42-26.41c19.8-16.47 52.83 3.33 52.83 3.33s102.33 75.92 118.8 92.43c16.51 16.52 19.8 29.7 13.23 49.5-6.62 19.8-16.52 36.32-42.93 39.6-26.42 3.33-42.89-13.18-42.89-13.18l-66.06-52.83s-9.9 13.23-29.7 16.51c-19.8 3.29-32.98 0-32.98 0s89.1 75.92 105.61 85.82zm-303.7-231.08l118.84 95.76s42.93 42.88 95.71 19.8c52.83-23.13 59.4-49.5 59.4-49.5s6.66-13.23-6.57-23.13c-13.18-9.9-29.7-13.19-42.93 0-13.18 13.19-46.21 36.31-75.91 9.9-32.99-26.41-105.62-82.53-118.8-95.72-16.52-13.23-19.8-36.31 0-62.73 19.8-26.41 49.5-33.03 82.48-6.61 33.03 26.41 59.4 49.5 59.4 49.5s9.9-9.9 39.65-13.19c29.7-3.28 49.5 9.9 29.7-3.28-19.8-13.23-92.43-72.63-92.43-72.63s-85.82-66.02-151.83 13.18 3.28 138.65 3.28 138.65z" /></svg>