<svg viewBox="0 0 1024 1024" focusable="false"><path d="M268.2 640.26v159.88l216.38 56.11V622.12l-61.34 63.61a27.42 27.42 0 01-30.2 6.33l-124.88-51.8zm-54.84-22.78l-91.54-37.97a27.42 27.42 0 01-9.24-44.34l108.5-112.51a27.21 27.21 0 0110.76-6.88l162.71-56.23 8.99-1.52h216.92l8.99 1.52 162.71 56.23a27.5 27.5 0 0110.76 6.88l108.5 112.51a27.42 27.42 0 01-9.24 44.34l-91.54 37.97v203.88a27.42 27.42 0 01-20.55 26.58l-271.21 70.28a27.42 27.42 0 01-13.76 0l-271.21-70.28a27.42 27.42 0 01-20.55-26.58V617.52zm542.44 22.78l-124.83 51.76a27.42 27.42 0 01-30.21-6.33l-61.34-63.57v234.13l216.38-56.1v-159.9zM317.94 444.05L512 524.5l194.02-80.45-90.16-31.18H408.14l-90.2 31.18zM247.5 474.2l-67.54 70.03 216.75 89.94 67.59-70.03-216.76-89.94zm596.52 70.03l-67.63-70.03-216.75 89.9 67.58 70.07 216.76-89.9zM553.05 256.2l25.86-26.28a27.34 27.34 0 1139.02 38.39l-72.9 74a27.34 27.34 0 01-38.98 0l-70.58-71.6a27.34 27.34 0 0138.98-38.39l23.88 24.26V117.48a27.34 27.34 0 1154.72 0V256.2z" /></svg>