<svg viewBox="0 0 1024 1024" focusable="false"><path d="M633.515678 877.39873c-24.485546 6.121386-50.269568 11.129794-76.981072 15.210717a24.485546 24.485546 0 0 0 3.709931 48.600099h3.709931c28.009981-4.266421 55.648968-9.645821 81.247494-16.1382a24.300049 24.300049 0 1 0-11.686284-47.301623z m352.443465-258.767702a24.300049 24.300049 0 0 0-32.647395 10.944297 415.883288 415.883288 0 0 1-52.495527 74.198624 623.268442 623.268442 0 0 1-37.099312 38.583285l-10.7588 9.831317a469.862787 469.862787 0 0 1-117.790316 76.239087 24.300049 24.300049 0 0 0 10.016814 46.559636 26.155015 26.155015 0 0 0 10.016815-2.040462 532.004135 532.004135 0 0 0 184.012587-138.751427 452.240614 452.240614 0 0 0 58.060424-82.916962 24.671043 24.671043 0 0 0-11.500787-32.647395zM1192.973304 19.848132a57.318437 57.318437 0 0 0-55.648968-10.758801A131.888054 131.888054 0 0 1 1038.825662 4.822911a57.874927 57.874927 0 0 0-50.640561 2.225958 58.616913 58.616913 0 0 0-30.421436 42.478713L946.077382 115.93535a58.060423 58.060423 0 0 0 5.008407 35.61534 18.549656 18.549656 0 0 0-1.112979 5.564896 184.383581 184.383581 0 0 0 33.389381 111.297937 3.709931 3.709931 0 0 0 0 1.298475l-48.043609 37.099313-1.11298 1.112979C797.680134 440.368834 688.608157 505.478126 570.632344 523.656789a537.940024 537.940024 0 0 1-213.135547-13.170255 1235.96358 1235.96358 0 0 1-271.752461-109.071978l-2.967945-1.483972h-3.153441a44.333678 44.333678 0 0 0-40.623747 12.057276A37.099312 37.099312 0 0 0 29.167885 445.191744 384.163376 384.163376 0 0 0 111.342861 605.275276c-18.549656-7.419862-37.099312-15.210718-55.648968-23.74356l-2.782448-1.112979h-3.153442a43.220699 43.220699 0 0 0-40.067257 15.210718 42.107719 42.107719 0 0 0-7.048869 41.551229 593.588993 593.588993 0 0 0 734.566378 359.306837 594.701972 594.701972 0 0 0 367.28319-329.256394 591.919523 591.919523 0 0 0 33.203884-376.372521 128.549116 128.549116 0 0 1 27.267994-81.618486l-5.564897-5.564897a58.80241 58.80241 0 0 0 40.067257-46.37414L1213.006932 74.198624a58.80241 58.80241 0 0 0-20.033628-54.350492zM82.219901 454.466572a1248.206353 1248.206353 0 0 0 263.590612 103.321584 580.975226 580.975226 0 0 0 232.241694 14.097739c128.549116-19.848132 245.226453-88.667356 389.542776-229.459245a376.001527 376.001527 0 0 1-71.787169 129.847592 782.609987 782.609987 0 0 1-166.946904 152.849166 431.464999 431.464999 0 0 1-177.520208 67.520748 484.517015 484.517015 0 0 1-66.778762 4.451917 803.571099 803.571099 0 0 1-242.258507-44.148181 365.242727 365.242727 0 0 1-160.083532-198.48132z m977.566873 192.54543a550.924784 550.924784 0 0 1-132.630041 185.49656 546.101873 546.101873 0 0 1-873.132309-198.481319c215.732499 92.74828 372.1061 125.210178 504.736141 106.475025s250.791349-92.74828 374.517554-236.879107a430.537516 430.537516 0 0 0 100.35364-241.145528l5.564896-56.761948c6.863373 1.669469 13.726745 3.153442 20.404622 4.266421A570.401922 570.401922 0 0 1 1089.09523 296.794496a22.445084 22.445084 0 0 0 2.225959 8.903835 544.246908 544.246908 0 0 1-31.534415 341.313671zM1151.236578 148.397248a9.831318 9.831318 0 0 1-6.863373 7.976352 200.521782 200.521782 0 0 1-52.86652 7.234366 53.608506 53.608506 0 0 0-55.648968-23.372567 55.648968 55.648968 0 0 0-17.25118 6.121387 155.075124 155.075124 0 0 1-22.259587-14.283235 9.089331 9.089331 0 0 1-2.596952-8.718338l10.944297-66.407769a10.7588 10.7588 0 0 1 5.564897-7.605359 9.645821 9.645821 0 0 1 4.266421-1.112979 7.605359 7.605359 0 0 1 3.524434 0 181.786629 181.786629 0 0 0 134.29951 7.419862 9.274828 9.274828 0 0 1 9.089331 1.669469 10.944297 10.944297 0 0 1 3.524435 9.645821z"></path></svg>
