<svg viewBox="0 0 1024 1024" focusable="false"><path d="M938.67 720.55V322.01a21.33 21.33 0 00-33.84-17.33l-276.1 199.26a21.33 21.33 0 000 34.64l276.1 199.25a21.33 21.33 0 0033.84-17.28zm-819.5 17.28l276.1-199.25a21.33 21.33 0 000-34.6l-276.1-199.25a21.33 21.33 0 00-33.84 17.23v398.5a21.33 21.33 0 0033.84 17.33zM558.38 898.9v39.77h-85.33V898.9h85.33zm0-139.1v79.5h-85.33v-79.53h85.33zm0-139.13v79.49h-85.33v-79.49h85.33zm0-139.13v79.48h-85.33v-79.48h85.33zm0-139.14v79.49h-85.33V342.4h85.33zm0-139.1v79.45h-85.33v-79.49h85.33zm0-99.4v39.76h-85.33v-39.77h85.33z" /></svg>