<svg viewBox="0 0 1024 1024" focusable="false"><path d="M512 516.27c110.93 0 200.53-89.6 200.53-200.54S622.93 119.47 512 119.47 311.47 209.07 311.47 320 401.07 516.27 512 516.27zm0-337.07c76.8 0 136.53 64 136.53 136.53s-64 136.54-136.53 136.54c-76.8 0-136.53-64-136.53-136.54S435.2 179.2 512 179.2zm179.2 401.07H332.8c-102.4 0-183.47 81.06-183.47 183.46v136.54h59.74V763.73c0-68.26 55.46-123.73 123.73-123.73h358.4c68.27 0 123.73 55.47 123.73 123.73v136.54h59.74V763.73c0-102.4-81.07-183.46-183.47-183.46z" /></svg>