<svg viewBox="0 0 1024 1024" focusable="false"><path d="M697.85 844.1c7.92 6.88 12.1 25.7 10.04 28.08-4.6 5.31-41 1.4-92.44-16.56a842.4 842.4 0 01-44.55-17.1 1409.02 1409.02 0 01-42.93-18.67l-30.6-14.09C325.94 727.6 175.5 620.81 123.44 520.51a29.25 29.25 0 00-51.89 27C131.39 662.7 290.55 775.75 473.12 859c1.03.45 22.32 10.3 30.69 14.08 15.57 7.11 30.1 13.46 44.69 19.49a873.06 873.06 0 0047.7 18.31c76.31 26.6 127.7 32.13 155.92-.45 26.1-30.1 13.95-84.51-15.88-110.43a29.25 29.25 0 10-38.39 44.1z" /><path d="M849.73 853.87a75.02 75.02 0 00-12.51-105.4 29.25 29.25 0 00-36.18 45.95 16.52 16.52 0 11-20.39 25.88l-5.94-3.6-253.49-115.66a29.25 29.25 0 00-24.3 53.2l250.66 114.39a75.04 75.04 0 00102.15-14.76z" /><path d="M831.18 702.08l37.35 26.28a16.65 16.65 0 015.36 23.27 16.34 16.34 0 01-22.68 4.68l-251.6-148.87a29.25 29.25 0 00-29.79 50.4l250.25 148.01c33.16 22.14 79.83 12.6 102.6-22.05a74.82 74.82 0 00-21.15-103.77l-36.72-25.79a29.25 29.25 0 10-33.61 47.84z" /><path d="M627.56 201.32c-5.31 4.1-13.28 8.37-27.86 15.03l-11.56 5.22c-43.6 19.89-64.26 34.47-73.67 63.85-2.88 9-3.6 18.32-2.25 27.63 4.1 28.71 24.84 52.79 58.86 79.11 10.98 8.46 43.79 31.41 39.51 28.31a9013.64 9013.64 0 01278.06 210.15c11.16 6.84 13.81 16.96 9.22 24.89a16.47 16.47 0 01-22.5 5.85L664.91 520.76a29.25 29.25 0 10-32.49 48.65l211.95 141.53c37.12 21.82 83.11 9.76 104.04-25.97a75.06 75.06 0 00-27-102.6 8495.55 8495.55 0 00-276.48-209.25c3.24 2.3-28.44-19.8-38.07-27.23-22.5-17.41-35.46-32.53-36.72-41.13 2.43-8.86 14.08-17.1 42.3-29.97l11.56-5.26c18.54-8.46 29.43-14.27 39.38-21.96 40.59-31.5 46.26-88.7 15.61-129.92-7.06-9.72-15.48-17-27.54-20.47-21.06-6.12-44.14 1.08-79.69 18.22a747.78 747.78 0 00-14.8 7.38c-5.45 2.8-23.09 12.02-26.06 13.5-8.1 4.19-13.37 6.71-16.52 7.88a654.39 654.39 0 01-58.95 19.17l-17.95 4.86-20.75 5.53c-4.18 1.13-8.5 2.3-14.17 3.92l-14.4 4.05c-17.69 4.95-29.7 7.96-41.63 10.4-18.31 3.73-33.61 5.26-46.7 4.4a29.25 29.25 0 10-3.7 58.41c18.9 1.17 39.15-.8 62.1-5.49a640.35 640.35 0 0045.68-11.38l14.4-4.05c5.49-1.58 9.63-2.7 13.5-3.74l20.74-5.53a1884.6 1884.6 0 0032.18-8.91 686.6 686.6 0 0050.17-16.88c5.94-2.2 12.7-5.4 22.73-10.57l25.96-13.5a743.5 743.5 0 0113.6-6.75c17-8.24 30.46-12.96 35.73-14.36 11.2 16.38 8.86 36.54-5.36 47.57z" /><path d="M274.58 456.88c9.63 6.03 25.88 14.58 47.25 23.04 58.41 23.13 119.3 30.82 177.57 13.18a211.5 211.5 0 0018-6.3 29.25 29.25 0 00-21.96-54.27 153 153 0 01-13 4.59c-43.65 13.19-91.85 7.11-139.06-11.56a242.55 242.55 0 01-37.57-18.18 29.25 29.25 0 10-31.23 49.5z" /></svg>