<svg viewBox="0 0 1024 1024" focusable="false"><path d="M407.68 419.5a42.67 42.67 0 0018.99-35.5V213.33a128 128 0 00-128-128H128A42.67 42.67 0 0085.33 128c0 424.15 386.52 810.67 810.67 810.67A42.67 42.67 0 00938.67 896V725.33a128 128 0 00-128-128H640a42.67 42.67 0 00-35.5 18.99l-81.28 121.94A805.89 805.89 0 01297.4 518.4l-11.7-17.58 121.95-81.28zm255.15 263.17h147.84a42.67 42.67 0 0142.66 42.66v126.51c-82.64-5.72-163.32-27.82-238.55-62.85l-17.28-8.32 65.33-98zm-490.67-512h126.5a42.67 42.67 0 0142.67 42.66v147.84l-98 65.28c-39.81-80.04-64.98-166.74-71.17-255.78z" /></svg>