<svg viewBox="0 0 1024 1024" focusable="false"><path d="M366.93 469.33h294.4c17.07 0 29.87-12.8 29.87-29.86 0-17.07-12.8-29.87-29.87-29.87h-294.4c-17.06 0-29.86 12.8-29.86 29.87-4.27 17.06 12.8 29.86 29.86 29.86zm0 132.27H524.8c17.07 0 29.87-12.8 29.87-29.87 0-17.06-12.8-29.86-29.87-29.86H366.93c-17.06 0-29.86 12.8-29.86 29.86-4.27 17.07 12.8 29.87 29.86 29.87zm277.34 179.2c12.8 12.8 29.86 12.8 42.66 0l153.6-153.6c12.8-12.8 12.8-29.87 0-42.67s-29.86-12.8-42.66 0L665.6 716.8l-68.27-68.27c-12.8-12.8-29.86-12.8-42.66 0s-12.8 29.87 0 42.67l89.6 89.6z" /><path d="M823.47 836.27h-576c-8.54 0-12.8-4.27-12.8-12.8v-486.4c0-8.54 4.26-12.8 12.8-12.8H780.8c8.53 0 12.8 4.26 12.8 12.8V448c0 17.07 12.8 29.87 29.87 29.87 17.06 0 29.86-12.8 29.86-29.87V337.07a76.48 76.48 0 00-76.8-76.8h-102.4V256L640 174.93C627.2 145.07 601.6 128 571.73 128h-115.2c-34.13 0-59.73 17.07-72.53 46.93l-34.13 85.34v4.26h-102.4c-42.67-4.26-76.8 29.87-76.8 72.54v486.4a76.48 76.48 0 0076.8 76.8h576c17.06 0 29.86-12.8 29.86-29.87 0-21.33-12.8-34.13-29.86-34.13zm-384-635.74c0-4.26 8.53-8.53 12.8-8.53h115.2c4.26 0 8.53 4.27 12.8 8.53l25.6 64h-192l25.6-64z" /></svg>