<svg viewBox="0 0 1024 1024" focusable="false"><path d="M227.6 930.77a29.25 29.25 0 01-48.6-21.96v-697.5a29.25 29.25 0 0129.25-29.25h699.12a29.25 29.25 0 0129.25 29.25v697.5a29.25 29.25 0 01-48.6 21.96L557.77 639.31 227.6 930.77zm9.9-86.76l300.92-265.63a29.25 29.25 0 0138.7 0l301 265.63V240.56H237.5v603.45z" /><path d="M128.42 135.3h676.66a22.5 22.5 0 100-45H105.92a22.5 22.5 0 00-22.5 22.5v723.42a22.5 22.5 0 0038.25 16.02l42.16-41.4a22.5 22.5 0 10-31.5-32.08l-3.91 3.78V135.35zM802.34 464.4a22.5 22.5 0 1045 0V291.27a22.5 22.5 0 00-22.5-22.5h-92.11a22.5 22.5 0 100 45h69.61V464.4z" /></svg>