<svg viewBox="0 0 1024 1024" focusable="false"><path d="M692.82 185.3c-28.67-28.63-66.13-26.03-83.5-8.66L508.42 277.5l-55.3-55.33 100.86-100.83c54.2-54.23 141.66-43.81 194.14 8.67l73.77 73.72c52.48 52.48 62.89 139.95 8.66 194.14L714.2 514.22a234.92 234.92 0 00-181.17 135.2c-30.63-1.01-57.17-17.31-79.91-40.05l-82.94-82.95 55.3-55.34 82.94 82.99c16.34 16.3 25.17 17.28 28.16 17.2 3.7-.13 12.28-2.35 27.17-17.2l211.5-211.5c17.37-17.36 19.93-54.87-8.7-83.5l-73.73-73.77zM425.47 378.88c-12.97 0-22.82 4.44-27.65 9.3l-211.5 211.46c-14.76 14.76-21.11 27.43-22.48 36.48-.98 6.65-.09 15.78 12.71 28.58L287.2 775.34c12.8 12.8 21.97 13.7 28.59 12.71 9.04-1.32 21.76-7.68 36.48-22.48L453.12 664.7l55.3 55.34-100.83 100.87c-21.03 21.03-48.3 39.8-80.34 44.54-34.47 5.12-67.58-7.04-95.36-34.82L121.26 720.04c-27.73-27.77-39.9-60.88-34.77-95.36 4.69-32.08 23.46-59.3 44.54-80.34L342.49 332.8c22.82-22.83 54.48-32.17 82.98-32.17 28.5 0 60.16 9.39 82.95 32.17l82.98 82.99-55.3 55.3-82.98-82.95c-4.82-4.87-14.68-9.3-27.65-9.3zm321.2 559.79a192 192 0 110-384 192 192 0 010 384zm0-55.47a136.53 136.53 0 100-273.07 136.53 136.53 0 000 273.07zM768 743.34l52.48 30.3-21.33 36.98-73.9-42.66.08-.13V640H768v103.34z" /></svg>