<svg viewBox="0 0 1024 1024" focusable="false"><path d="M87.38 502.69a24.47 24.47 0 0124.48 24.43v150.66a24.43 24.43 0 11-48.91 0V527.12a24.43 24.43 0 0124.43-24.43zm847.17 0a24.47 24.47 0 0124.48 24.43v150.66a24.43 24.43 0 11-48.91 0V527.12a24.43 24.43 0 0124.43-24.43zm-107.78-181c22.5 0 41.09 18.41 40.91 41.1v522.44a41.09 41.09 0 01-41.13 41.09H195.2a41.09 41.09 0 01-41.08-41.09V362.78a41.1 41.1 0 0141.08-41.08h288.4V168.88a46.03 46.03 0 0124.44-84.92 45.9 45.9 0 0124.48 84.92V321.7h294.25zM327.05 542.8a45.99 45.99 0 1091.98 0 45.99 45.99 0 00-91.98 0zm270 0a45.99 45.99 0 1091.98 0 45.99 45.99 0 00-91.98 0zM346.99 668.32c0 4.14.22 8.24.63 12.33C355 755.23 427.13 810.85 512 810.85c90 0 165.01-62.46 165.01-142.52a30.02 30.02 0 00-60.03 0c0 44.24-45.9 82.49-104.98 82.49-55.84 0-100.58-34.43-104.67-76.05a65.11 65.11 0 01-.31-6.44 30.02 30.02 0 00-60.03 0z" /></svg>