<svg viewBox="0 0 1024 1024" focusable="false"><path d="M640.16 652.3a188.74 188.74 0 01-127.73 49.54A189.03 189.03 0 01386.2 653.7l127.68-127.68L640.11 652.3zm22.7-24.76a188.42 188.42 0 0038.98-115.1c0-48.49-18.24-92.74-48.2-126.25l-116 116.07L662.9 627.54zm-290.3-242.88a188.74 188.74 0 00-49.58 127.77c0 44.02 15.02 84.53 40.22 116.69l126.91-126.86-117.6-117.6zm24.77-22.7a188.6 188.6 0 01115.1-38.94 188.64 188.64 0 01116.69 40.23L513.92 478.5 397.28 361.95zm-48.53-1.06a222.24 222.24 0 00-59.38 151.53 222.32 222.32 0 0049.92 140.64l-41.47 41.47a280.32 280.32 0 01-66.81-182.1 280.44 280.44 0 0176.41-192.82l41.33 41.28zm24.62-22.85a222.1 222.1 0 01139.06-48.63 222.32 222.32 0 01140.64 49.92l41.47-41.52a280.32 280.32 0 00-182.11-66.81 280.32 280.32 0 00-180.58 65.47L373.38 338zm290.55 338.01a222.24 222.24 0 01-151.49 59.38 222.24 222.24 0 01-150-57.98l-41.38 41.32a280.46 280.46 0 00191.38 75.08 280.46 280.46 0 00192.82-76.42l-41.28-41.38zm22.9-24.62a222.1 222.1 0 0048.62-139 222.24 222.24 0 00-57.99-150l41.33-41.38a280.46 280.46 0 0175.07 191.37 280.32 280.32 0 01-65.52 180.53l-41.52-41.52zm-403.2-355.63a313.92 313.92 0 00-86.26 216.62A313.64 313.64 0 00274 718.35l-60.09 60.1a16.8 16.8 0 1023.76 23.76l59.62-59.62a313.92 313.92 0 00215.13 84.87 313.92 313.92 0 00216.63-86.26l60.96 60.96a16.8 16.8 0 0023.8-23.71l-61.63-61.63a313.78 313.78 0 0075.27-204.39 313.92 313.92 0 00-84.87-215.13l71.23-71.24a16.8 16.8 0 00-23.76-23.76l-71.7 71.72a313.82 313.82 0 00-205.93-76.61c-78 0-149.37 28.32-204.38 75.26l-70.37-70.37a16.8 16.8 0 00-23.76 23.76l69.74 69.75zm508.41 664.03H232.93A167.8 167.8 0 0165.12 792.08v-559.2a167.8 167.8 0 01167.8-167.76h559.16a167.76 167.76 0 01167.76 167.76v559.2a167.76 167.76 0 01-167.76 167.76z" /></svg>