<svg viewBox="0 0 1067 1024" focusable="false"><path d="M567.45 86.63l140.94 219.41a41.7 41.7 0 0024.56 17.85l252.23 66.21a41.7 41.7 0 0121.69 66.72L841.74 658.68a41.7 41.7 0 00-9.38 28.82l14.97 260.36a41.7 41.7 0 01-56.75 41.24l-243.02-94.65a41.7 41.7 0 00-30.27 0L274.3 989.1a41.7 41.7 0 01-56.8-41.28L232.5 687.5a41.7 41.7 0 00-9.39-28.77L57.98 456.86a41.7 41.7 0 0121.68-66.71l252.28-66.26a41.7 41.7 0 0024.47-17.8L497.35 86.66a41.7 41.7 0 0170.14 0zm-35.03 99.65L426.47 351.16a125.1 125.1 0 01-73.4 53.33l-189.43 49.75 124.01 151.61a125.1 125.1 0 0128.07 86.4L304.5 887.82l182.51-71.14a125.1 125.1 0 0190.82 0l182.52 71.1-11.26-195.57a125.1 125.1 0 0128.1-86.36L901.2 454.24l-189.43-49.75a125.1 125.1 0 01-73.47-53.37l-105.92-164.8zm-41.74 221h83.4v159.2L705 636.64l-41.7 72.22-172.63-93.07v-208.5z" /></svg>