<svg viewBox="0 0 1024 1024" focusable="false"><path d="M456.4 320.17c31.1 0 65.63 10.24 90.5 35.16l90.5 90.45-60.33 60.37-90.5-90.5c-5.29-5.28-16.04-10.15-30.16-10.15-14.17 0-24.92 4.87-30.17 10.16L195.5 646.36c-16.09 16.08-23.04 29.9-24.5 39.76-1.1 7.26-.08 17.28 13.87 31.23L305.5 837.97c13.96 13.96 23.98 14.94 31.24 13.87 9.8-1.45 23.68-8.4 39.76-24.5l110.04-110.07 60.33 60.37-110.04 110.04c-22.95 22.95-52.65 43.43-87.64 48.6-37.59 5.54-73.72-7.68-104.02-37.98l-120.7-120.66c-30.3-30.3-43.52-66.43-37.93-104.02 5.16-34.99 25.64-64.68 48.6-87.64l230.7-230.7c24.91-24.91 59.43-35.15 90.53-35.15zM596.6 124.6c59.14-59.14 154.5-47.79 211.76 9.47l80.47 80.47c57.26 57.26 68.61 152.62 9.47 211.75L667.6 657.07c-22.86 22.82-51.7 42.54-87.16 43.69-36.27 1.2-67.42-17.28-93.87-43.7l-90.5-90.53 60.34-60.33 90.5 90.5c17.83 17.83 27.43 18.9 30.71 18.77 4.05-.13 13.4-2.56 29.61-18.78L837.97 366c18.95-18.94 21.76-59.86-9.47-91.09l-80.47-80.47c-31.23-31.23-72.15-28.41-91.1-9.47L546.9 295.04l-60.33-60.37z" /></svg>