<svg viewBox="0 0 1024 1024" focusable="false"><path d="M914.8 684.14a107.7 107.7 0 00-98.59-76.35h-.17c-31.05-2.19-55.2 11.5-71.29 24.86-15.92-13.31-39.22-26.2-69.77-24.94h-.09c-26.33 0-81.02 15.93-100.32 76.43a133.44 133.44 0 009.86 102.98c17.65 33 57.3 83.85 145.79 138.88a27.13 27.13 0 0028.94 0c88.49-55.03 128.1-105.89 145.79-138.88a133.65 133.65 0 009.86-102.98M505 605.05c140.99 0 255.64-115.53 255.64-257.44 0-142-114.6-257.53-255.63-257.53-140.99 0-255.68 115.54-255.68 257.49 0 142 114.7 257.48 255.68 257.48M508.97 683.09a27.3 27.3 0 00-27.1-31.56H299.01c-105.55 0-191.5 86.5-191.5 192.8v61.1a27.38 27.38 0 0027.3 27.43l446.2 1.02h.05a27.39 27.39 0 0019.13-47.03c-104.16-101.5-91.77-199.8-91.22-203.76" /></svg>