<svg viewBox="0 0 1024 1024" focusable="false"><path d="M512 85.32A42.68 42.68 0 01554.68 128v38.77a42.68 42.68 0 11-85.36 0V128A42.68 42.68 0 01512 85.32zm0 729.23a42.68 42.68 0 0142.68 42.68V896a42.68 42.68 0 11-85.36 0v-38.77A42.65 42.65 0 01512 814.55zm193.95-38.78a85.3 85.3 0 0085.32-85.31V643.9a85.29 85.29 0 00-85.32-85.36h-387.9c-47.1 0-85.32 38.2-85.32 85.36v46.55a85.3 85.3 0 0085.32 85.31h387.9zm93.1-279.27a85.3 85.3 0 0085.31-85.32v-46.54a85.29 85.29 0 00-85.31-85.37h-574.1a85.32 85.32 0 00-85.31 85.37v46.54a85.28 85.28 0 0085.31 85.32h574.1z" /></svg>