<svg viewBox="0 0 1024 1024" focusable="false"><path d="M97.1 847.92c0 42.3 34.16 76.41 76.23 76.41l675.72 1.71a76.27 76.27 0 0076.28-76.23V592.73a29.25 29.25 0 10-58.5 0v257.08a17.77 17.77 0 01-17.74 17.74l-675.67-1.71a17.73 17.73 0 01-17.82-17.73l1.44-258.3a29.25 29.25 0 00-58.5-.36L97.1 847.92z" /><path d="M230.48 124.1a76.27 76.27 0 00-76.23 76.28L97.46 579.37c-.32 46.35 33.75 80.55 75.92 80.55h186.7c-2.02 0-7.87-5.45-7.56-4.23l12.69 42.52a29.25 29.25 0 0027.99 20.83h241.2a29.25 29.25 0 0027.99-20.83l12.29-40.95c.72-2.79-5.13 2.7-7.74 2.61H850.8c42.03 0 76.23-34.16 76.23-76.19l-.41-4.72-62.55-383.31-28.89 4.72h29.25a76.2 76.2 0 00-76.23-76.23h-68.85a29.25 29.25 0 100 58.5h68.85a17.7 17.7 0 0117.73 17.73l.4 4.68 62.56 383.31 28.84-4.68h-29.25a17.77 17.77 0 01-17.68 17.69H667.57c-26.91-.54-43.07 14.62-49.32 40.59l-11.88 39.46 28.03-20.83H393.2l28.04 20.83-12.29-40.99c-5.85-24.43-22-39.6-49.5-39.02H173.33a17.73 17.73 0 01-17.73-17.73l56.84-379.03c.31-14.13 8.23-22.05 18.04-22.05h67.86a29.25 29.25 0 000-58.5h-67.86z" /><path d="M473.3 554.39v-94.81H365.84V396.7H473.3v-36.72H365.84v-64.17h77.31L355.4 111.01h87.75l72.09 162.49 72.05-162.45h87.84l-87.84 184.77h77.35v64.17h-107.5v36.72h107.5v62.87h-107.5v94.81h-41.9z" /></svg>