<svg viewBox="0 0 1024 1024" focusable="false"><path d="M354.5 596.51l-63-146.46c-24.24-69.6 20.97-31.38 20.97-31.38l95.82 85.92L855.65 281.6c-75.99-94.2-201.54-155.79-343.68-155.79C280.01 125.81 92 289.73 92 491.93c0 116.31 62.25 219.81 159.24 286.92l-17.49 100.14s-8.52 29.22 21.03 15.66c20.13-9.24 71.46-42.36 102.03-62.52 48.03 16.68 100.35 25.92 155.22 25.92 231.93 0 420-163.92 420-366.12a326.7 326.7 0 00-43.92-162.99C756.86 407.6 451.61 590.39 412.25 612.2c-50.28 27.93-57.72-15.66-57.72-15.66z" /></svg>