<svg viewBox="0 0 1024 1024" focusable="false"><path d="M360.89 353.38c-39.91 0-72.36 32.8-72.36 73.12s32.45 73.13 72.36 73.13 72.36-32.85 72.36-73.13c0-40.32-32.4-73.13-72.36-73.13zm0 191.25A117.9 117.9 0 01243.53 426.5a117.9 117.9 0 01117.36-118.13A117.9 117.9 0 01478.25 426.5a117.9 117.9 0 01-117.36 118.13zm144.86 136.21a22.5 22.5 0 01-22.5-22.5v-25.38c0-25.52-20.52-46.26-45.72-46.26a22.5 22.5 0 110-45c50.04 0 90.72 40.9 90.72 91.26v25.38a22.5 22.5 0 01-22.5 22.5m-289.76 0a22.5 22.5 0 01-22.5-22.5v-25.38c0-50.4 40.68-91.26 90.72-91.26a22.5 22.5 0 010 45c-25.2 0-45.72 20.7-45.72 46.26v25.38a22.5 22.5 0 01-22.5 22.5" /><path d="M120.5 808.19h783V210.5h-783v597.6zm789.75 58.5h-796.5A51.82 51.82 0 0162 814.94v-611.1C62 175.26 85.22 152 113.75 152h796.5A51.84 51.84 0 01962 203.75v611.24a51.84 51.84 0 01-51.75 51.75z" /><path d="M811.34 361.3H602.9a22.5 22.5 0 110-45h208.35a22.5 22.5 0 010 45m.09 158.21H602.9a22.5 22.5 0 110-45h208.35a22.5 22.5 0 010 45m.09 147.29H692.9a22.5 22.5 0 110-45h118.35a22.5 22.5 0 010 45" /></svg>