<svg viewBox="0 0 1024 1024" focusable="false"><path d="M901.88 746.27c0 36.9-26.41 66.96-58.86 66.96h-642.1c-32.5 0-58.9-30.02-58.9-66.96V326.78c0-32.04 19.93-58.81 46.39-65.34v130.27a86.36 86.36 0 0085.9 85.64 87.96 87.96 0 0059.13-22.64c17.2-15.7 27.1-37.7 27.1-60.47v-86.5a29.34 29.34 0 10-58.73 0v86.5a22.95 22.95 0 01-7.92 17.05 27.81 27.81 0 01-22.41 7.2 27.09 27.09 0 01-24.35-26.77v-201.6c0-13.19 12.51-24.4 27.32-24.4h5.9c14.84 0 27.35 11.21 27.35 24.4v23.3a28.98 28.98 0 00-6.07 17.02 29.38 29.38 0 0029.34 29.38h512.05c32.45 0 58.9 30.06 58.9 66.96v419.49zm-58.81-545.22H366.38v-10.98c0-45.81-38.56-83.07-86.04-83.07h-5.9c-47.42 0-86.03 37.26-86.03 83.11v12.33c-58.9 6.76-105.12 59.63-105.12 124.34v419.49C83.33 815.57 136.12 872 200.92 872h642.1c64.85 0 117.63-56.43 117.63-125.73V326.78c0-69.3-52.78-125.69-117.63-125.69z" /><path d="M711.85 441.75a42.62 42.62 0 110 85.19 42.62 42.62 0 010-85.19m50.26 129.83a100.8 100.8 0 0050.85-87.3 101.25 101.25 0 00-101.11-101.11 101.25 101.25 0 00-101.12 101.11c0 37.44 20.61 69.75 50.85 87.3a146.25 146.25 0 00-96.16 136.94 29.25 29.25 0 1058.54 0c0-48.47 39.42-87.89 87.89-87.89s87.88 39.47 87.88 87.93a29.25 29.25 0 0058.55 0 146.25 146.25 0 00-96.17-137.02m-246.06 84.28H258.3a29.25 29.25 0 100 58.55h257.76a29.25 29.25 0 000-58.5m0-111.34H258.3a29.25 29.25 0 100 58.5h257.76a29.25 29.25 0 000-58.5m0-111.32H387.17a29.25 29.25 0 100 58.54h128.88a29.25 29.25 0 000-58.55" /></svg>