<svg viewBox="0 0 1024 1024" focusable="false"><path d="M512 85.33c235.65 0 426.67 191.02 426.67 426.67S747.65 938.67 512 938.67 85.33 747.65 85.33 512 276.35 85.33 512 85.33zm0 85.34a341.33 341.33 0 100 682.66 341.33 341.33 0 000-682.66zm0 512a42.67 42.67 0 110 85.33 42.67 42.67 0 010-85.33zM512 256a170.67 170.67 0 0150.77 333.65l-8.1 2.3v5.38a42.67 42.67 0 01-85.04 5l-.3-5v-42.66a42.67 42.67 0 0137.68-42.37l11.35-.51a85.33 85.33 0 10-91.7-85.12 42.67 42.67 0 11-85.33 0A170.67 170.67 0 01512 256z" /></svg>