<svg viewBox="0 0 1024 1024" focusable="false"><path d="M559.3 960a27 27 0 01-5.64-.64c-.57 0-1.08-.2-1.6-.26h-459A29 29 0 0164 930.11V93C64 77 77 64 93.06 64H928.9c16 0 29.05 13 29.05 28.93l.9 589.12a29.06 29.06 0 01-27.9 37.18h-1.16a29.5 29.5 0 01-11.84-2.56L716.74 627.2 586.18 942.08A29 29 0 01559.3 960zM128 896h412.42l132.35-318.98a28.8 28.8 0 0138.2-15.1L896 644.16 895.17 128H128v768z" /><path d="M755.71 320H268.3c-15.62 0-28.29-14.34-28.29-32 0-17.73 12.67-32 28.29-32H755.7c15.68 0 28.29 14.27 28.29 32 0 17.66-12.6 32-28.29 32M468.8 706.82H267.2c-15.04 0-27.2-14.28-27.2-32 0-17.67 12.16-32 27.2-32h201.6c15.04 0 27.2 14.33 27.2 32 0 17.72-12.16 32-27.2 32M561.28 960a29.06 29.06 0 01-15.8-53.31l369.66-241.03a29.06 29.06 0 0131.74 48.52L577.15 955.33a29.63 29.63 0 01-15.93 4.67" /></svg>