<svg viewBox="0 0 1024 1024" focusable="false"><path d="M305.5 757.57c62.41 0 133.1 13.9 206.41 54.45 51.7-27.95 211.68-98.37 391.59-14.4V251.68c-188.37-104.04-357.12-4.55-376.15 7.42a28.98 28.98 0 01-30.33.32c-170.51-102.56-330.3-32.45-376.52-7.74v546.3a456.21 456.21 0 01185-40.41M932.75 876.5a29.52 29.52 0 01-14.98-4.18c-194.09-117.45-370.9-13.14-390.43-.9a29.11 29.11 0 01-30.33.31c-201.5-121.1-387.98-1.26-389.87-.09a28.71 28.71 0 01-29.88 1.22A29.79 29.79 0 0162 846.76V234.39c0-10.08 5-19.44 13.32-24.88 8.69-5.72 210.33-135.09 436.59-9.81 55.94-30.15 238.5-110.07 435.78 9.22A29.75 29.75 0 01962 234.44V846.8a29.93 29.93 0 01-14.8 25.88 29.07 29.07 0 01-14.45 3.87" /><path d="M513.13 683A27.77 27.77 0 01485 655.55v-282.6c0-15.16 12.6-27.45 28.13-27.45s28.12 12.29 28.12 27.45v282.6c0 15.16-12.6 27.45-28.13 27.45" /></svg>