<svg viewBox="0 0 1024 1024" focusable="false"><path d="M512 85.33a213.33 213.33 0 01213.12 204.08l.21 9.26v128a128 128 0 01128 128v256a128 128 0 01-128 128H298.67a128 128 0 01-128-128v-256a128 128 0 01128-128v-128A213.33 213.33 0 01512 85.33zM725.33 512H298.67A42.67 42.67 0 00256 554.67v256a42.67 42.67 0 0042.67 42.66h426.66A42.67 42.67 0 00768 810.67v-256A42.67 42.67 0 00725.33 512zM519.51 170.88l-7.51-.21a128 128 0 00-127.79 120.49l-.21 7.5v128h256v-128a128 128 0 00-120.5-127.78l-7.5-.21 7.5.21z" /></svg>