<svg viewBox="0 0 1024 1024" focusable="false"><path d="M889.9 554.67a48.78 48.78 0 0148.77 48.76V889.9a48.78 48.78 0 01-48.77 48.77H603.43a48.77 48.77 0 01-48.76-48.77V603.43a48.78 48.78 0 0148.76-48.76H889.9zm-469.33 0a48.74 48.74 0 0148.46 43.43l.3 5.33V889.9a48.74 48.74 0 01-43.43 48.47l-5.33.3H134.1a48.74 48.74 0 01-48.47-43.44l-.3-5.33V603.43a48.74 48.74 0 0143.44-48.46l5.33-.3h286.47zM853.33 640H640v213.33h213.33V640zM384 640H170.67v213.33H384V640zM889.9 85.33a48.78 48.78 0 0148.77 48.77v286.47a48.78 48.78 0 01-48.77 48.76H603.43a48.77 48.77 0 01-48.76-48.76V134.1a48.78 48.78 0 0148.76-48.77H889.9zm-469.33 0a48.78 48.78 0 0148.76 48.77v286.47a48.78 48.78 0 01-48.76 48.76H134.1a48.77 48.77 0 01-48.77-48.76V134.1a48.78 48.78 0 0148.77-48.77h286.47zM384 170.67H170.67V384H384V170.67zm469.33 0H640V384h213.33V170.67z" /></svg>