<svg viewBox="0 0 1024 1024" focusable="false"><path d="M720.17 225.83a42.67 42.67 0 00-60.37 0l-152.92 153-60.37-60.37 152.96-152.91a128 128 0 01181.03 0l92.67 92.63a128 128 0 010 181.03l-153 153-60.37-60.37 153-152.96a42.67 42.67 0 000-60.37l-92.59-92.68zm-371.5 80.18V135.34h85.34V306h-85.34zm-42.66 128H135.34v-85.34H306v85.34zm597.33 256v-85.34H732.67v85.34h170.67zm-256 42.66v170.67h85.33V732.67h-85.33zm-268.5 80.13a42.67 42.67 0 01-60.38 0l-92.63-92.59a42.67 42.67 0 010-60.37l153-152.96-60.37-60.37-152.91 152.96a128 128 0 000 181.03l92.63 92.63a128 128 0 00181.03 0l153-152.96-60.37-60.37-152.96 153z" /></svg>