<svg viewBox="0 0 1024 1024" focusable="false"><path d="M853.33 170.67A85.33 85.33 0 01938.67 256v512a85.33 85.33 0 01-85.34 85.33H170.67A85.33 85.33 0 0185.33 768V256a85.33 85.33 0 0185.34-85.33h682.66zm-547.5 226.68h-95.48V640h58.45v-85.67h31.7L343.34 640h62.68v-2.52l-50.7-97.83c14.56-6.87 25.22-15.87 32-26.97 6.92-11.1 10.33-25.13 10.33-42.02 0-23.34-8.1-41.4-24.32-54.2-16.21-12.75-38.74-19.1-67.5-19.1zm289.5 0H432.98V640h58.54v-96.68h94.3v-44.97h-94.3v-55.9h103.8v-45.14zm121.17 0h-96.85V640h58.54v-82.35h37.33c29.53 0 52.74-7.04 69.63-21.16 17.03-14.2 25.52-33.15 25.52-56.83 0-16-3.93-30.3-11.82-42.84a75.95 75.95 0 00-33.2-29.14 111.49 111.49 0 00-49.15-10.33zm.68 45.15c10.54.12 18.86 3.54 25 10.32 6.1 6.83 9.14 15.83 9.14 27.18 0 10.33-2.99 18.35-8.96 24.02-5.93 5.63-14.5 8.5-25.86 8.5H678.2v-69.98zm-411.35 0c11.01 0 19.33 2.98 25 9 5.68 5.89 8.54 14.08 8.54 24.49 0 10.45-2.86 18.6-8.53 24.49-5.55 5.8-13.91 8.7-25 8.7h-37v-66.73z" /></svg>