<svg viewBox="0 0 1024 1024" focusable="false"><path d="M180.17 170.67a9.5 9.5 0 00-9.5 9.5v663.66c0 5.24 4.26 9.5 9.5 9.5h663.66a9.5 9.5 0 009.5-9.5V180.17a9.5 9.5 0 00-9.5-9.5H180.17zm-94.84 9.5c0-52.34 42.44-94.84 94.84-94.84h663.66c52.34 0 94.84 42.44 94.84 94.84v663.66c0 52.34-42.44 94.84-94.84 94.84H180.17c-52.34 0-94.84-42.44-94.84-94.84V180.17zM512 341.33h256v85.34H512v-85.34zm256 256H512v85.34h256v-85.34zm-274.72-277.5L359.94 469.9l-80.44-60.3 38.4-51.2 33.33 25.03 94.21-106.15 47.84 42.5zM359.94 725.9L493.28 575.9l-47.78-42.5-94.27 105.98-33.33-25.03-38.4 51.2 80.44 60.36z" /></svg>