<svg viewBox="0 0 1024 1024" focusable="false"><path d="M277.14 456.11a32.85 32.85 0 11-65.7 0 32.85 32.85 0 0165.7 0m178.3 0a32.85 32.85 0 11-65.7 0 32.85 32.85 0 0165.7 0m178.24 0a32.85 32.85 0 11-65.7 0 32.85 32.85 0 0165.7 0m178.25 1.62a32.85 32.85 0 11-65.7 0 32.85 32.85 0 0165.7 0M277.14 602.86a32.85 32.85 0 11-65.7 0 32.85 32.85 0 0165.7 0m178.29 0a32.85 32.85 0 11-65.7 0 32.85 32.85 0 0165.7 0m178.24 0a32.85 32.85 0 11-65.7 0 32.85 32.85 0 0165.7 0m178.25 1.57a32.85 32.85 0 11-65.7 0 32.85 32.85 0 0165.7 0M277.14 744.79a32.85 32.85 0 11-65.7 0 32.85 32.85 0 0165.7 0m178.29 0a32.85 32.85 0 11-65.7 0 32.85 32.85 0 0165.7 0m178.24 0a32.85 32.85 0 11-65.7 0 32.85 32.85 0 0165.7 0m178.25 1.57a32.85 32.85 0 11-65.7 0 32.85 32.85 0 0165.7 0" /><path d="M827.45 928.38h-630.9A112.14 112.14 0 0184.5 816.42V228.28a112.14 112.14 0 01112.05-112.01h38.97a27.77 27.77 0 110 55.62h-38.97c-31.14 0-56.48 25.25-56.48 56.34v588.2c0 31.05 25.34 56.34 56.48 56.34h630.9c31.18 0 56.48-25.25 56.48-56.34V228.28a56.42 56.42 0 00-56.43-56.39h-44.78a27.81 27.81 0 010-55.62h44.78a112.1 112.1 0 01112 111.96v588.2a112.1 112.1 0 01-112.05 111.96" /><path d="M569.74 171.89H454.3a27.77 27.77 0 110-55.62h115.42a27.81 27.81 0 010 55.62m256.5 165.6H197.82a21.38 21.38 0 110-42.75h628.42a21.38 21.38 0 010 42.75M349.1 203.66a27.77 27.77 0 01-27.81-27.81v-63.54a27.77 27.77 0 1155.58 0v63.54a27.77 27.77 0 01-27.77 27.81m325.8 0a27.77 27.77 0 01-27.77-27.81v-63.54a27.77 27.77 0 1155.58 0v63.54a27.77 27.77 0 01-27.77 27.81" /></svg>