<svg viewBox="0 0 1024 1024" focusable="false"><path d="M894.57 502.5c-5.3-211.36-180.93-378.41-392.3-373.12-211.36 5.3-378.41 180.93-373.12 392.3 5.3 211.36 180.93 378.41 392.3 373.12 192.18-4.82 350.98-151.4 371.13-342.58h-158.8C718.54 667.92 612.4 749.36 496.7 734.13 381 718.89 299.56 612.75 314.79 497.05S436.18 299.9 551.88 315.14A211.3 211.3 0 01734.43 502.5h160.14zm64.74 9.6c0 247.13-200.34 447.46-447.46 447.46S64.38 759.22 64.38 512.1 264.72 64.64 511.85 64.64 959.31 264.97 959.31 512.1zm-288.37 12.43c.01-81-65.64-146.68-146.65-146.69S377.61 443.48 377.6 524.49v.04c.01 81 65.69 146.66 146.69 146.65 80.99-.02 146.64-65.67 146.65-146.65z" /></svg>