<svg viewBox="0 0 1024 1024" focusable="false"><path d="M678.6 306.46l-3.35 32.74-1.15 13.44H430.88l5.66 65.38h231.99l-2.26 16.8-14.64 167.95-1.15 11.23-129.5 36h-1.06l-130.75-36-7.87-100.32h63.02l4.51 50.78 71.04 19.06 70.85-19.06 7.97-82.32h-220.8l-15.75-175.68-1.2-16.9h318.87l-1.2 16.9zM520.36 868.93a31.2 31.2 0 110-62.4 31.2 31.2 0 010 62.4zM783.68 51.2h-526.7c-44.64 0-80.98 36.29-80.98 81.02v743.9c0 44.65 36.29 80.98 80.98 80.98h526.7a81.02 81.02 0 0080.98-80.97v-743.9c0-44.74-36.3-81.03-80.98-81.03z" /></svg>