<svg viewBox="0 0 1024 1024" focusable="false"><path d="M548.565333 949.717333a431.36 431.36 0 0 0 131.413334-32c41.941333-17.493333 80.384-41.130667 115.456-70.826666l-209.152-209.194667a151.893333 151.893333 0 0 1-37.717334 16v296.021333z m298.282667-154.282666a440.106667 440.106667 0 0 0 70.826667-115.456c17.578667-41.898667 28.245333-85.674667 32-131.413334h-295.978667a151.893333 151.893333 0 0 1-16 37.717334l209.152 209.152z m102.826667-320a431.36 431.36 0 0 0-32-131.413334 440.106667 440.106667 0 0 0-70.826667-115.456l-209.152 209.152c6.869333 11.434667 12.202667 23.978667 16 37.717334h296.021333z m-154.24-298.282667a440.106667 440.106667 0 0 0-115.456-70.826667 431.36 431.36 0 0 0-131.413334-32v295.978667c13.738667 3.797333 26.282667 9.130667 37.717334 16l209.152-209.152z m-320-102.826667a431.36 431.36 0 0 0-131.413334 32c-41.941333 17.493333-80.384 41.088-115.456 70.826667l209.152 209.152a151.893333 151.893333 0 0 1 37.717334-16V74.24zM177.152 228.522667a440.106667 440.106667 0 0 0-70.826667 115.413333 431.36 431.36 0 0 0-32 131.413333h295.978667a151.893333 151.893333 0 0 1 16-37.674666L177.152 228.565333z m-102.826667 320c3.754667 45.738667 14.421333 89.514667 32 131.413333 17.493333 41.941333 41.088 80.384 70.826667 115.456l209.152-209.152a180.864 180.864 0 0 1-16-37.717333H74.24z m154.24 298.282666c35.072 29.738667 73.514667 53.333333 115.413334 70.826667 41.941333 17.578667 85.76 28.245333 131.413333 32v-295.978667a180.864 180.864 0 0 1-37.674667-16l-209.152 209.152zM512 1024c-144.768-3.84-265.344-53.888-361.728-150.272C53.888 777.301333 3.84 656.768 0 512c3.84-144.768 53.888-265.344 150.272-361.728C246.698667 53.888 367.232 3.84 512 0c144.768 3.84 265.344 53.888 361.728 150.272C970.112 246.698667 1020.16 367.232 1024 512c-3.84 144.768-53.888 265.344-150.272 361.728C777.301333 970.112 656.768 1020.16 512 1024z m0-438.869333a73.856 73.856 0 0 0 51.413333-21.717334c13.738667-13.696 20.565333-30.848 20.565334-51.413333 0-20.565333-6.826667-37.717333-20.565334-51.413333-13.696-13.738667-30.848-20.565333-51.413333-20.565334-20.565333 0-37.717333 6.826667-51.413333 20.565334-13.738667 13.696-20.565333 30.848-20.565334 51.413333 0 20.565333 6.826667 37.717333 20.565334 51.413333 13.696 13.738667 30.848 20.949333 51.413333 21.76z"></path></svg>
