<svg viewBox="0 0 1024 1024" focusable="false"><path d="M896 853.33a42.67 42.67 0 110 85.34H128a42.67 42.67 0 110-85.34h768zM158.17 311.17l170.66 170.66a42.67 42.67 0 010 60.34L158.17 712.83c-26.88 26.88-72.84 7.85-72.84-30.16V341.33c0-37.97 45.96-57.04 72.84-30.16zM896 640a42.67 42.67 0 110 85.33H554.67a42.67 42.67 0 110-85.33H896zm0-170.67a42.67 42.67 0 110 85.34H554.67a42.67 42.67 0 110-85.34H896zm0-170.66a42.67 42.67 0 110 85.33H554.67a42.67 42.67 0 110-85.33H896zm0-213.34a42.67 42.67 0 110 85.34H128a42.67 42.67 0 010-85.34h768z" /></svg>