<svg viewBox="0 0 1024 1024" focusable="false"><path d="M341.33 85.33a42.67 42.67 0 015 85.04l-5 .3H170.67v170.66a42.67 42.67 0 01-37.68 42.37l-4.99.3a42.67 42.67 0 01-42.37-37.67l-.3-5V128a42.67 42.67 0 0137.68-42.37l4.99-.3h213.33zM133 640.3L128 640l-5 .3a42.67 42.67 0 00-37.37 37.37l-.3 5V896l.3 5a42.67 42.67 0 0037.38 37.37l4.99.3h213.33l5-.3a42.67 42.67 0 000-84.74l-5-.3H170.67V682.67l-.3-5a42.67 42.67 0 00-37.38-37.37zm805.38 37.37A42.67 42.67 0 00896 640l-5 .3a42.67 42.67 0 00-37.67 42.37v170.66H682.67l-5 .3a42.67 42.67 0 005 85.04H896l5-.3A42.67 42.67 0 00938.66 896V682.67l-.3-5zM900.99 85.63l-4.99-.3H682.67l-5 .3a42.67 42.67 0 000 84.74l5 .3h170.66v170.66l.3 5a42.67 42.67 0 0037.38 37.37l4.99.3 5-.3a42.67 42.67 0 0037.37-37.37l.3-5V128l-.3-5a42.67 42.67 0 00-37.38-37.37z" /></svg>