<svg viewBox="0 0 1024 1024" focusable="false"><path d="M494.72 442.69A34.69 34.69 0 01459.97 408V165.31h-208V858.7h554.69v34.62A34.62 34.62 0 01772.03 928H217.34a34.69 34.69 0 01-34.68-34.69V130.7A34.69 34.69 0 01217.34 96h288.07v.2l1.28.06a69.46 69.46 0 0142.88 20.03l236.8 236.8c12.99 12.99 20.29 30.65 20.29 49.02v40.58H494.72zm235.26 89.79l2.3 1.92 104 104a17.34 17.34 0 011.93 22.08l-1.92 2.43-104 104a17.28 17.28 0 01-29.44-9.28l-.2-2.94V685.3H477.45a17.34 17.34 0 01-17.4-17.28v-34.69A17.28 17.28 0 01477.37 616h225.34v-69.31a17.28 17.28 0 0127.33-14.21zM529.34 194.11v179.2h179.2l-179.2-179.2z" /></svg>