<svg viewBox="0 0 1024 1024" focusable="false"><path d="M959.87 357.38c-.13-9.6-2.75-13.57-11.65-16.07-144.9-40.9-289.72-82.17-434.5-123.45a32.32 32.32 0 00-18.3.19L88.83 332.8c-23.49 6.6-23.49 6.6-24.13 32.26 0 2.5.39 5.12-.06 7.48-2.56 13.12 2.69 18.82 14.53 22.6 40.19 12.8 80 26.94 119.93 40.76 90.5 31.3 181 62.53 271.36 94.21 17.28 6.02 33.8 9.54 52.1 3.01 37.44-13.44 75.4-25.34 113.15-37.5a29585.11 29585.11 0 01202.05-64.7c13.38-4.23 6.27-14.92 7.49-22.73 1.28-8.32-5.19-7.36-10.18-7.93L734.08 389.3c-58.37-6.4-116.8-12.8-175.17-19.39a26.88 26.88 0 00-15.49 3.46c-25.15 12.28-50.62 12.35-75.26-1.28-14.46-7.94-14.53-21.76-1.28-31.17 21.31-15.17 63.36-14.08 83.2 2.81a24.9 24.9 0 0014.72 6.08 5407.8 5407.8 0 0178.98 8.13c64.19 7.17 128.32 14.72 192.5 21.7 27.78 2.94 28.04 2.43 28.68 32.77.13 7.55 1.92 9.4 8.64 7.1 18.88-6.4 37.89-12.29 56.83-18.5 30.34-9.92 29.95-9.98 29.44-43.64z" /><path d="M750.46 602.88c0-33.02-.32-66.11.13-99.2.13-8.96-2.94-9.73-8.96-6.53-10.24 5.31-21.5 6.72-32.19 10.24-67.33 22.34-134.78 44.48-202.18 66.75a21 21 0 01-14.2.13c-43.2-15.17-86.47-30.2-129.73-45.31-37.89-13.31-75.9-26.3-113.67-39.94-8.19-2.94-11.07-2.75-10.88 8.13.58 35.84.2 71.75.2 107.65h-.07c0 36.8.13 73.6-.13 110.27-.06 6.4 1.67 10.5 6.4 14.27 16.26 12.61 33.35 23.5 51.59 32 99.84 46.34 203.26 56.96 309.57 35.2 49.02-10.1 94.59-29.7 134.59-63.3a24.32 24.32 0 009.79-21.3c-.58-36.3-.2-72.7-.26-109zm157.44-21.44a26.11 26.11 0 00-15.55-24.9c-6.59-3.32-6.4-6.01-3.07-11.32 9.92-16 4.35-33.16-14.08-41.99-7.42-3.58-8.83-7.36-8.77-13.44.26-22.78.13-45.63.13-69.31-22.14 4.1-22.08 4.1-22.14 19.9 0 16.9-.26 33.8.12 50.56.07 5.25-1.92 7.88-7.68 10.44-22.08 10.04-28.6 26.43-17.34 44.67 3.4 5.57 1.92 7.55-3.58 10.5-9.86 5.3-15.04 13.05-15.04 22.71-.13 21.76.12 43.52-.2 65.28-.12 5.44 2.24 8.07 8.64 9.48 29.57 6.52 59.08 6.4 88.77.25 7.62-1.53 10.11-4.6 9.92-11-.51-20.55-.19-41.22-.13-61.83z" /></svg>