<svg viewBox="0 0 1024 1024" focusable="false"><path d="M906.04 450.15l15.36 15.36V245.86c0-42.44-34.46-76.9-76.86-76.9H730.27l15.36 15.36v-52.74c0-42.39-34.46-76.85-76.86-76.85H88.83c-42.4 0-76.9 34.46-76.9 76.85v755.66c0 42.45 34.5 76.9 76.9 76.9h755.71c42.4 0 76.8-34.45 76.8-76.84V685.16l-15.36 15.36h26.42c42.4 0 76.85-34.46 76.85-76.8v-96.77c0-42.4-34.45-76.85-76.85-76.85h-26.36zm72.5 76.85v96.67a46.23 46.23 0 01-46.14 46.13h-41.72v217.5a46.23 46.23 0 01-46.14 46.13H88.84a46.23 46.23 0 01-46.19-46.13V131.64a46.23 46.23 0 0146.18-46.19h579.94a46.17 46.17 0 0146.14 46.13v68.1h129.63a46.16 46.16 0 0146.08 46.13v235h41.83a46.21 46.21 0 0146.14 46.2zM668.76 120.58c6.05 0 11.01 4.96 11.01 11v52.74l15.36-15.36H88.84a75.81 75.81 0 00-33.03 7.68l6.65 13.82h15.36v-58.88c0-6.04 4.92-11 11.01-11h579.94zm-621.67 11v83.3l22.02-10.54a45.36 45.36 0 0119.71-4.66H710.5v-68.1a41.73 41.73 0 00-41.73-41.72H88.83a41.73 41.73 0 00-41.73 41.72zM844.54 898.3H88.84a11 11 0 01-11.02-11V245.8c0-6.04 4.97-11 11.01-11h755.71c6.05 0 10.96 4.96 10.96 11v219.65l15.36-15.36H703.95c-42.45 0-76.9 34.5-76.9 76.9v96.67c0 42.4 34.45 76.85 76.9 76.85h166.91l-15.36-15.36V887.3h15.36v-15.36H855.5v15.36a11.06 11.06 0 01-10.96 11zm26.32-11v15.36h15.36V669.8H704a46.23 46.23 0 01-46.18-46.08v-96.77A46.21 46.21 0 01704 480.82h182.22V245.86a41.73 41.73 0 00-41.68-41.78H88.84a41.78 41.78 0 00-41.74 41.73v641.43a41.78 41.78 0 0041.73 41.78h755.71a41.76 41.76 0 0041.68-41.72h-15.36zm61.54-252.62H703.95a11 11 0 01-11-11.01V527c0-6.04 4.9-11 11-11H932.4c6.04 0 11.01 4.96 11.01 11v96.67a11.06 11.06 0 01-11 11zM974.13 527a41.73 41.73 0 00-41.73-41.73H703.95A41.78 41.78 0 00662.22 527v96.67a41.74 41.74 0 0041.73 41.73H932.4a41.74 41.74 0 0041.73-41.73V527z" /><path d="M932.35 465.51h-26.31V245.86c0-33.94-27.6-61.54-61.5-61.54H730.27v-52.74c0-33.89-27.6-61.49-61.5-61.49H88.83c-33.94 0-61.54 27.6-61.54 61.5v755.65a61.63 61.63 0 0061.54 61.55h755.71c33.9 0 61.44-27.6 61.44-61.5V685.17h26.42c33.9 0 61.5-27.55 61.5-61.44v-96.77c0-33.9-27.6-61.5-61.5-61.5zM88.88 105.21h579.95a26.4 26.4 0 0126.36 26.37v52.74H88.83c-9.47 0-18.33 2.3-26.37 6.14v-58.88a26.36 26.36 0 0126.37-26.36zM870.91 887.3a26.42 26.42 0 01-26.31 26.36H88.83a26.37 26.37 0 01-26.37-26.36V245.8a26.4 26.4 0 0126.37-26.37h755.71a26.35 26.35 0 0126.32 26.37v219.65H703.95A61.63 61.63 0 00642.4 527v96.67c0 33.94 27.6 61.49 61.54 61.49h166.91V887.3zm87.91-263.63a26.42 26.42 0 01-26.37 26.37H704a26.37 26.37 0 01-26.37-26.37V527A26.36 26.36 0 01704 500.63h228.45A26.4 26.4 0 01958.82 527v96.67z" /><path d="M773.12 604.16a30.72 30.72 0 100-61.44 30.72 30.72 0 000 61.44zM213.5 325.73q33.28 0 33.28 33.28v445.44q0 33.28-33.28 33.28t-33.28-33.28V359.01q0-33.28 33.28-33.28z" /></svg>