<svg viewBox="0 0 1024 1024" focusable="false"><path d="M512.07 129c114.48 0 225.9 40.72 309.72 111.27 85.76 72.17 135.8 169.68 135.8 273.14 0 58.8-18.62 116.08-53.48 170.16-28.64 44.43-67.92 86.17-115.47 123.87l32 106.28c6.7 22.28-16.99 41.48-37.39 30.3L656.7 874.71l-8.43 2.08c-23.94 5.91-38.27 9.16-54.53 12.28l-2.85.54-1.65.3c-28 5.2-53.03 7.9-77.17 7.9C264.62 897.81 66 727.47 66 513.41 66 299.58 264.75 129 512.07 129zm0 52C291.86 181 118 330.21 118 513.41c0 183.41 173.72 332.4 394.07 332.4 21.05 0 43.48-2.47 69.2-7.3 17.41-3.28 32.06-6.62 59.69-13.47l12.98-3.24a26 26 0 0118.81 2.41l79.8 43.7-18.86-62.62a26 26 0 019.3-28.3l3.08-2.32c101.26-76.91 159.51-168.22 159.51-261.26 0-87.33-42.74-170.63-117.27-233.36C713.85 217.38 614.29 181 512.07 181zM494.7 656.31h26.77a10.2 10.2 0 0110.22 9.9v26.9a10.2 10.2 0 01-9.94 10.17H494.7a10.2 10.2 0 01-10.21-9.89v-26.91a10.2 10.2 0 019.93-10.16h27.05zm31.7-336.04c63.66 3.65 99.45 36.72 104.38 96.75 3.83 39.44-20.04 73.19-69.19 100.61-22.68 13.74-33.1 30.91-32.36 52.96l.03.67v15.16a10.2 10.2 0 01-9.94 10.17h-23.98a10.2 10.2 0 01-10.22-9.9v-17.11c0-33.84 17-62.65 50.37-86.01 35.42-22.8 50.66-44.82 47.88-66.1-3.94-34.26-24.12-52-62.87-54.99-44.64-1-70.93 20.78-81.2 67.78a10.22 10.22 0 01-12.76 7.63l-.27-.08-27.09-8.42a10.16 10.16 0 01-6.9-12c15.8-67.76 61.46-100.74 134.12-97.12z" /></svg>