<svg viewBox="0 0 1024 1024" focusable="false"><path d="M290.33 395.63h-41.04a11.25 11.25 0 00-11.25 11.25v59.22c0 6.21 5.04 11.25 11.25 11.25h41.04c13.23 0 23.54-3.29 30.87-9.99 7.33-6.62 11.03-17.19 11.03-31.64 0-14.4-3.7-24.75-11.03-30.87-7.33-6.16-17.64-9.22-30.87-9.22m233.41 0h-42.3a11.25 11.25 0 00-11.25 11.25v158.67c0 6.25 5 11.25 11.25 11.25h42.3c27.45 0 46.53-13.5 57.38-40.5 5.9-14.76 8.87-32.4 8.87-52.92 0-28.22-4.46-49.95-13.32-65.07-8.87-15.12-26.51-22.68-52.92-22.68" /><path d="M867.86 385.32a11.25 11.25 0 01-11.25 11.25H738.8a11.25 11.25 0 00-11.25 11.25v41.36c0 6.21 5.04 11.25 11.25 11.25h100.48a11.25 11.25 0 0111.25 11.25v25.7a11.25 11.25 0 01-11.25 11.25H738.8a11.25 11.25 0 00-11.25 11.25v93.91a11.25 11.25 0 01-11.25 11.25h-35.1a11.25 11.25 0 01-11.25-11.25V359a11.25 11.25 0 0111.25-11.25h175.41A11.25 11.25 0 01867.86 359v26.28zm-71.42 408.83v-70.2h70.2l-70.2 70.2zm-169.78-220.9C606.59 607.8 575.54 625 533.56 625H425.15a11.25 11.25 0 01-11.25-11.25V358.69a11.25 11.25 0 0111.25-11.25H533.6c17.23.27 31.55 2.25 42.98 6.03 19.48 6.43 35.23 18.17 47.29 35.23a123.77 123.77 0 0119.8 44.82c3.51 16.07 5.31 31.41 5.31 45.99 0 36.9-7.43 68.17-22.28 93.78zm-261.18-68.4c-16.29 13.59-39.46 20.38-69.66 20.38h-46.53a11.25 11.25 0 00-11.25 11.25v77.31a11.25 11.25 0 01-11.25 11.25H191.6a11.25 11.25 0 01-11.25-11.25V358.64a11.25 11.25 0 0111.25-11.25h108c27.45 0 49.37 7.2 65.7 21.51 16.34 14.27 24.48 36.45 24.48 66.47 0 32.76-8.1 55.93-24.34 69.48zm567.27-379.8H91.25A29.25 29.25 0 0062 154.25v706.5A29.28 29.28 0 0091.25 890h730.17a29.25 29.25 0 0021.15-9.04l111.28-116.2a29.25 29.25 0 008.1-20.24V154.25A29.25 29.25 0 00932.7 125z" /></svg>