<svg viewBox="0 0 1024 1024" focusable="false"><path d="M214.997333 286.549333l-23.893333-21.333333 23.893333 21.333333z m556.8-16.341333l18.005334-26.496-17.962667 26.453333z m86.954667 399.317333l29.098667 13.354667-29.098667-13.354667z m-338.773333 247.808l-12.458667 29.44a32 32 0 0 0 20.394667 1.578667l-7.893334-31.018667z m-293.717334-180.224l-21.461333 23.722667 21.461333-23.722667z m181.845334-337.109333l-29.013334-13.525333 29.013334 13.525333z m-31.146667 247.253333a32 32 0 1 0 62.293333-14.506666l-62.293333 14.506666z m85.333333-590.506666a32 32 0 1 0-28.586666 57.173333l28.586666-57.173333zM512 138.666667l31.061333-7.765334L512 138.666667z m-42.325333 80.810666a32 32 0 0 0 63.36 9.045334l-63.402667-9.045334z m137.856 22.186667l1.109333-32-1.109333 32z m-30.208-38.570667l31.317333 6.613334-31.317333-6.613334z m48.384-88.064l-19.754667-25.173333 19.754667 25.173333z m97.066666-25.898666l-1.109333 32 1.109333-32z m30.208 38.570666l31.317334 6.570667-31.317334-6.570667z m-48.341333 88.106667l19.712 25.173333-19.712-25.173333zM238.848 307.882667C283.306667 258.090667 345.002667 242.773333 407.466667 245.290667c62.805333 2.474667 122.026667 22.954667 154.026666 39.253333l29.013334-57.045333c-38.698667-19.712-106.965333-43.264-180.48-46.165334-73.898667-2.944-157.354667 14.976-218.88 83.882667l47.701333 42.666667z m348.586667-21.973334c13.696-5.248 42.88-11.904 76.032-12.032 33.194667-0.170667 66.005333 6.272 90.410666 22.784l35.882667-52.949333c-39.253333-26.624-86.613333-34.048-126.592-33.834667-40.064 0.170667-76.970667 7.978667-98.56 16.213334l22.784 59.818666z m166.4 10.752c69.461333 47.104 160.725333 174.421333 75.818666 359.509334l58.197334 26.709333c100.608-219.392-8.490667-378.410667-98.090667-439.168l-35.882667 52.949333z m75.818666 359.509334c-33.408 72.874667-94.506667 126.08-157.909333 163.669333a636.288 636.288 0 0 1-159.573333 66.474667l15.744 62.037333c37.418667-9.514667 106.581333-32 176.469333-73.472 69.76-41.386667 142.677333-103.082667 183.466667-192l-58.197334-26.709333z m-297.130666 231.68c-52.906667-22.4-164.864-65.749333-284.757334-174.464L204.8 760.832c128.597333 116.565333 249.6 163.413333 302.72 185.984l25.002667-58.922667zM247.765333 713.386667c-100.181333-90.837333-129.237333-270.933333-8.96-405.504l-47.701333-42.666667c-144.725333 161.962667-111.445333 382.165333 13.653333 495.616l43.008-47.445333z m316.586667-487.210667c-41.685333 16.256-134.784 52.053333-185.258667 160.298667l58.026667 27.050666c39.04-83.754667 110.122667-111.957333 150.485333-127.701333L564.394667 226.133333zM379.136 386.474667c-53.930667 115.669333-12.117333 218.154667-2.133333 260.778666l62.293333-14.506666c-12.416-53.376-44.458667-128.554667-2.133333-219.221334l-58.026667-27.050666z m54.613333-272.512c3.626667 1.834667 7.850667 3.072 9.045334 3.456 2.346667 0.725333 4.224 1.28 6.613333 2.133333 4.565333 1.493333 9.386667 3.328 13.909333 5.845333 8.917333 4.864 15.189333 11.136 17.664 21.034667l62.122667-15.530667c-8.192-32.768-30.336-51.413333-49.024-61.610666a147.626667 147.626667 0 0 0-24.405333-10.496l-7.68-2.432c-2.730667-0.853333-1.493333-0.597333 0.341333 0.341333l-28.586667 57.258667z m47.232 32.426666c3.029333 12.16 2.048 21.717333-0.469333 31.829334-1.450667 5.76-3.114667 10.752-5.290667 17.92-1.962667 6.528-4.266667 14.549333-5.546666 23.338666l63.402666 9.045334c0.512-3.669333 1.578667-7.850667 3.413334-13.824 1.621333-5.376 4.138667-13.141333 6.101333-20.949334 4.266667-16.981333 6.826667-37.632 0.512-62.848l-62.122667 15.530667z m127.701334 63.317334a2.218667 2.218667 0 0 1-0.426667-0.085334h-0.042667a0.938667 0.938667 0 0 1 0.426667 0.554667c0 0.042667 0 0 0 0l0.042667-0.469333-62.634667-13.184a63.488 63.488 0 0 0 60.416 77.141333l2.218667-64z m0 0c5.290667-25.258667 16.298667-53.461333 36.778666-69.504l-39.466666-50.346667c-38.570667 30.208-53.717333 76.970667-59.946667 106.666667l62.634667 13.184z m36.778666-69.504c20.48-16.042667 50.474667-19.968 76.245334-19.072l2.218666-64c-30.293333-1.024-79.36 2.474667-117.930666 32.725333l39.466666 50.346667z m76.245334-19.072l0.426666 0.042666h0.085334a0.938667 0.938667 0 0 1-0.426667-0.554666v0.042666l-0.085333 0.469334 62.634666 13.141333a63.488 63.488 0 0 0-60.416-77.098667l-2.218666 63.957334z m0 0c-5.290667 25.216-16.298667 53.418667-36.778667 69.461333l39.466667 50.346667c38.613333-30.208 53.76-76.970667 59.946666-106.666667l-62.634666-13.141333z m-36.778667 69.461333c-20.48 16.042667-50.474667 20.010667-76.245333 19.114667l-2.218667 63.957333c30.336 1.024 79.36-2.474667 117.930667-32.682667l-39.466667-50.346666z"></path></svg>
