<svg viewBox="0 0 1024 1024" focusable="false"><path d="M917.7 309.94L714.05 106.31a55.14 55.14 0 00-78.05 0 55.14 55.14 0 000 78.04l7 6.92a11.01 11.01 0 01-1.43 16.8l-273.03 192.9a19.83 19.83 0 01-25.43-2.18l-54-53.96a55.14 55.14 0 00-78.05 0 55.14 55.14 0 000 78.04l390.06 389.97a55.18 55.18 0 0078.04 0 55.14 55.14 0 000-78.04l-54-53.96a19.83 19.83 0 01-2.15-25.44l192.83-273.07a11.01 11.01 0 0116.8-1.43l6.95 6.96a55.14 55.14 0 1078.05-77.96m-579.9 320.28l55.95 55.94a13.27 13.27 0 01-.76 19.4C318.69 768.8 218.4 859 196.9 875.82c-46.66 36.62-88.93 53.03-103.19 57.93a2.74 2.74 0 01-3.46-3.46c4.85-14.26 21.3-56.53 57.88-103.23l170.35-196.17a13.2 13.2 0 0119.28-.71" /></svg>