<svg viewBox="0 0 1024 1024" focusable="false"><path d="M84.5 939.5v-855h855v855zm55.62-55.53h743.8v-743.9H140.08z" /><path d="M512 255.5a26.32 26.32 0 00-23.98 15.62l-58.5 123.97a27.05 27.05 0 01-20.25 15.3l-130.78 19.94c-22 3.33-30.78 31.54-14.85 47.79l94.64 96.52a28.73 28.73 0 017.7 24.8l-22.33 136.25a27.68 27.68 0 0026.42 32.81 25.29 25.29 0 0012.42-3.29l117.05-64.3a25.79 25.79 0 0124.93 0l117 64.3a26 26 0 0012.5 3.29 27.68 27.68 0 0026.37-32.8l-22.32-136.26a28.8 28.8 0 017.74-24.8l94.6-96.52c15.93-16.2 7.15-44.46-14.85-47.8l-130.78-19.88a27 27 0 01-20.2-15.3l-58.5-124.02A26.23 26.23 0 00512 255.5m0 104.49l29.43 62.46c12.55 26.55 36.72 44.95 64.71 49.23l65.97 9.99-47.7 48.65a92.39 92.39 0 00-24.75 79.6l11.25 68.67-58.95-32.4a82.62 82.62 0 00-80.01 0L413 678.59l11.25-68.67a92.25 92.25 0 00-24.75-79.6l-47.7-48.6 65.97-10.04a86.44 86.44 0 0064.75-49.23z" /></svg>