<svg viewBox="0 0 1024 1024" focusable="false"><path d="M711.13 81.8a117.33 117.33 0 01107.86 71.12l2.77 7.08H848a117.33 117.33 0 01117.12 110.17l.21 7.16v39.13a117.33 117.33 0 01-110.2 117.12l-7.13.21H554.67a39.13 39.13 0 00-38.83 34.56l-.3 4.52v45.79A117.42 117.42 0 01593.5 621.3l.3 8.02v195.54a117.33 117.33 0 01-234.45 7.17l-.21-7.17V629.33a117.33 117.33 0 0171.12-107.9l7.08-2.77v-45.79A117.33 117.33 0 01547.5 355.75l7.17-.2H848a39.1 39.1 0 0038.83-34.57l.3-4.52v-39.13a39.13 39.13 0 00-34.56-38.82l-4.57-.3h-26.24a117.42 117.42 0 01-102.66 78l-7.97.25H241.79A117.33 117.33 0 01234.62 82l7.17-.22h469.34zM476.5 590.2h-.13a39.13 39.13 0 00-39.04 39.13v195.54a39.13 39.13 0 1078.21 0V629.33a39.13 39.13 0 00-39.04-39.12zM711.13 160H241.79a39.13 39.13 0 000 78.25h469.34a39.13 39.13 0 100-78.25z" /></svg>