<svg viewBox="0 0 1024 1024" focusable="false"><path d="M87.38 481.36a24.47 24.47 0 0124.48 24.43v150.66a24.43 24.43 0 11-48.91 0V505.79a24.43 24.43 0 0124.43-24.43zm847.17 0a24.47 24.47 0 0124.48 24.43v150.66a24.43 24.43 0 11-48.91 0V505.79a24.43 24.43 0 0124.43-24.43zM377 677h270a30.02 30.02 0 000-60.03H377a30.02 30.02 0 000 60.03zm449.77-376.64c22.5 0 41.09 18.4 40.91 41.08V863.9a41.09 41.09 0 01-41.13 41.09H195.2a41.09 41.09 0 01-41.08-41.09V341.45a41.1 41.1 0 0141.08-41.08h288.4v-67.78l48.92-20.65v88.42h294.25zM362.02 504.49H422a30.02 30.02 0 100-59.99h-59.99a30.02 30.02 0 100 59.98zm225 0H647a30.02 30.02 0 000-59.99h-59.98a30.02 30.02 0 100 59.98zm-172.44-374.5l55.44 37.35-1 53.64-79.6-53.68a45 45 0 1125.2-37.35z" /></svg>