<svg viewBox="0 0 1024 1024" focusable="false"><path d="M947.2 828.83c6.4 12.8 6.4 25.6 0 38.4a30.41 30.41 0 01-32 12.8L796.77 857.6l-38.4 112.03C752.03 982.43 742.4 992 729.6 992h-3.23a33.59 33.59 0 01-28.77-16.03L559.97 736c-15.97 3.23-31.94 3.23-47.97 3.23-16.03 0-32 0-48.03-3.23L326.4 976.03A33.59 33.59 0 01297.57 992h-3.17c-12.8-3.23-25.6-9.63-28.83-22.43l-38.4-111.97-118.37 22.43a30.41 30.41 0 01-32-12.8 34.66 34.66 0 010-35.23l144.03-249.6A336.59 336.59 0 01160 387.17C160 192 316.83 32 512 32a350.98 350.98 0 01352 352c0 73.63-22.43 140.8-60.83 195.23L947.2 828.77zM303.97 883.2l92.83-169.63c-51.2-15.97-96-44.74-134.4-83.14l-96 169.52 76.8-12.8c16.03 0 28.83 6.4 35.23 22.42l25.6 73.58zm476.83-96l73.63 19.2-96.06-169.63c-35.17 35.23-83.14 64-134.34 83.26l95.94 163.17 25.6-73.63a29.5 29.5 0 0135.23-22.37zM707.17 384c-19.14-3.23-35.17 9.63-35.17 25.6C659.2 486.4 591.97 544 515.17 544c-79.97 0-147.14-57.6-156.77-134.4-3.23-16.03-19.2-28.83-35.23-25.6-15.97 3.23-28.77 19.2-25.6 35.23C313.6 527.97 406.37 608 518.4 608c112.03 0 204.8-80.03 220.83-188.83C736 403.2 723.2 387.23 707.17 384z" /></svg>