<svg viewBox="0 0 1024 1024" focusable="false"><path d="M235.870534 475.060083c16.650732-86.102984 41.671351-159.161411 75.017336-219.041718 28.582273-50.041238 73.459113-109.120173 134.63052-177.192285h-139.349711a36.506953 36.506953 0 0 1-27.424736-11.130168 39.044632 39.044632 0 0 1-10.684962-28.270629c0-11.486334 3.561654-20.924717 10.684962-28.315149A36.506953 36.506953 0 0 1 306.124158 0.024486h457.44993a36.506953 36.506953 0 0 1 27.380215 11.085648c7.123308 7.390432 10.684962 16.828815 10.684962 28.315149s-3.561654 20.924717-10.684962 28.270629a36.506953 36.506953 0 0 1-27.380215 11.130168h-177.503929c17.452104 48.393973 48.83918 106.627015 94.116706 174.743648 28.582273 41.849434 53.602892 74.438568 75.017337 97.811922 21.458965 23.417875 38.91107 37.575449 52.400834 42.472723 69.897459 3.29453 129.065435 28.493232 177.503929 75.685147s75.863229 106.849619 82.185165 179.106673c4.006861 73.013906-14.469219 136.589429-55.383719 190.72657-40.9145 54.181661-95.897533 88.239977-164.99362 102.174948-69.051566 10.684962-131.781197-2.448637-188.188891-39.400797-56.363174-36.95216-94.517392-89.842721-114.373613-158.760725-17.452104-70.565269-11.130169-136.589429 19.09937-198.117002 30.140497-61.572093 77.822139-105.870164 142.911365-132.938734-26.979529-28.715835-56.363174-66.870053-88.150936-114.462654-46.83575-68.918004-80.582421-130.04489-101.240014-183.425179-65.890598 71.411162-112.548265 131.736676-139.973 180.976542-27.380215 49.195345-48.616577 109.520859-63.709086 180.8875 70.65431 13.979492 126.438716 48.83918 167.353216 104.623585 40.9145 55.784405 58.544687 120.651028 52.979603 194.466307-8.726052 73.013906-38.28778 132.67161-88.729705 179.062152C394.497697 1000.849249 333.548893 1024 262.04869 1024c-72.257055-3.29453-132.404486-29.339124-180.442294-78.133784C33.524068 897.027036 6.767143 835.677547 1.202058 761.862269c-1.602744-73.859799 19.455535-137.657926 63.130317-191.39438 43.630261-53.736454 100.839328-85.524216 171.538159-95.363285z m32.143927 470.138323c54.003578-1.602744 98.835897-20.924717 134.585999-57.832356 35.750102-36.907639 54.404264-83.253661 56.007008-139.038067-1.602744-55.828926-20.256907-102.174948-56.007008-139.082587-35.705581-36.95216-80.582421-56.229612-134.585999-57.876877-54.003578 1.647265-98.835897 20.924717-134.586 57.876877-35.750102 36.95216-54.404264 83.253661-56.007008 139.082587 1.602744 55.784405 20.256907 102.130427 56.007008 139.038067 35.705581 36.95216 80.582421 56.229612 134.586 57.876877z m533.669325-78.712552c54.003578-1.647265 98.835897-20.924717 134.585999-57.876877 35.750102-36.95216 54.404264-83.253661 56.007008-139.082587-1.602744-55.784405-20.256907-102.130427-56.007008-139.038067-35.750102-36.95216-80.582421-56.229612-134.585999-57.876877-54.003578 1.647265-98.880418 20.924717-134.63052 57.876877-35.705581 36.907639-54.404264 83.253661-55.962488 139.038067 1.558224 55.828926 20.256907 102.174948 55.962488 139.082587 35.750102 36.95216 80.582421 56.229612 134.63052 57.876877z"></path></svg>
