<svg viewBox="0 0 1024 1024" focusable="false"><path d="M384 512c-82.35 0-149.33-66.99-149.33-149.33S301.65 213.33 384 213.33s149.33 66.99 149.33 149.34S466.35 512 384 512zm64-149.33c0-35.42-28.59-64-64-64s-64 28.58-64 64 28.59 64 64 64 64-28.59 64-64zM85.33 736c0-99.41 198.83-149.33 298.67-149.33S682.67 636.59 682.67 736v74.67H85.33V736zM384 672c-76.37 0-162.99 28.59-198.83 53.33h397.66C546.99 700.6 460.37 672 384 672zm300.37-82.77C733.87 625.07 768 672.85 768 736v74.67h170.67V736c0-86.19-149.34-135.25-254.3-146.77zm104.96-226.56C789.33 445 722.35 512 640 512c-23.04 0-44.37-5.55-64-14.93 26.88-37.98 42.67-84.48 42.67-134.4s-15.79-96.43-42.67-134.4c19.63-9.39 40.96-14.94 64-14.94 82.35 0 149.33 66.99 149.33 149.34z" /></svg>