<svg viewBox="0 0 1024 1024" focusable="false"><path d="M85.33 512c0-235.52 190.72-426.67 426.24-426.67 235.95 0 427.1 191.15 427.1 426.67s-191.15 426.67-427.1 426.67C276.05 938.67 85.33 747.52 85.33 512zM681.4 341.33h125.86a342.61 342.61 0 00-184.74-151.89c25.6 47.36 45.22 98.56 58.88 151.9zM512 172.37a601.03 601.03 0 00-81.5 168.96h163A601.03 601.03 0 00512 172.37zM170.67 512c0 29.44 4.26 58.03 11.09 85.33h144.21C322.56 569.17 320 541.01 320 512c0-29.01 2.56-57.17 5.97-85.33H181.76c-6.83 27.3-11.1 55.89-11.1 85.33zm46.08 170.67a340.78 340.78 0 00184.74 151.89 667.73 667.73 0 01-58.88-151.9H216.75zm0-341.34H342.6C356.27 288 375.9 236.8 401.5 189.44a340.77 340.77 0 00-184.74 151.9zM512 851.63a601.03 601.03 0 0081.5-168.96h-163A601.03 601.03 0 00512 851.63zm-99.84-254.3h199.68c3.84-28.16 6.83-56.32 6.83-85.33 0-29.01-2.99-57.6-6.83-85.33H412.16c-3.84 27.73-6.83 56.32-6.83 85.33 0 29.01 2.99 57.17 6.83 85.33zm210.35 237.23a342.61 342.61 0 00184.74-151.9H681.4a667.73 667.73 0 01-58.88 151.9zM704 512c0 29.01-2.56 57.17-5.97 85.33h144.21c6.83-27.3 11.1-55.89 11.1-85.33s-4.27-58.03-11.1-85.33H698.03c3.41 28.16 5.97 56.32 5.97 85.33z" /></svg>