<svg viewBox="0 0 1024 1024" focusable="false"><path d="M84.76 940.8V276.17h720V940.8zm55.84-58.45h608.36V334.61h-608.4z" /><path d="M759.76 474.7v260.86l203.53 76.37v-413.6zm58.5 220.32V515.24l86.58-32.49v244.76zM662.1 180.53H536.2a19.35 19.35 0 010-38.7h125.9a19.35 19.35 0 010 38.7m0-97.2H536.2a77.85 77.85 0 00-72 48.6H317.4c-75.9 0-141.97 57.87-157.18 137.61a29.2 29.2 0 1057.47 10.94c9.9-52.2 51.88-90.1 99.72-90.1H464.2a77.85 77.85 0 0072 48.6h125.9c42.9 0 77.81-34.91 77.81-77.84 0-42.89-34.92-77.8-77.85-77.8m-454 600.92v-249.7H631.5V684.3zm58.5-58.5H573v-132.7H266.56z" /></svg>