<svg viewBox="0 0 1024 1024" focusable="false"><path d="M512 85.33c-117.63 0-213.33 95.7-213.33 213.34V384H256c-47.06 0-85.33 38.27-85.33 85.33v384c0 47.06 38.27 85.34 85.33 85.34h512c47.06 0 85.33-38.28 85.33-85.34v-384c0-47.06-38.27-85.33-85.33-85.33h-42.67v-85.33c0-117.63-95.7-213.34-213.33-213.34zM384 298.67c0-70.57 57.43-128 128-128s128 57.43 128 128V384H384v-85.33zm384.08 554.66H554.68v-97.19c25.38-14.8 42.66-42.03 42.66-73.47 0-47.06-38.27-85.34-85.33-85.34s-85.33 38.28-85.33 85.34c0 31.4 17.28 58.66 42.66 73.47v97.2H256v-384h512l.09 384z" /></svg>