<svg viewBox="0 0 1026 1024" focusable="false"><path d="M159.38 702.17a29.25 29.25 0 0040.86 35.41l94.81-47.47 18.45 3.78a657.34 657.34 0 0024.93 4.63 333.81 333.81 0 0086.54 3.78 29.25 29.25 0 10-4.5-58.32 276.39 276.39 0 01-72.36-3.15 615.12 615.12 0 01-23.04-4.32l-25.11-5.08-3.33-.68a29.25 29.25 0 00-18.77 2.57l-40.63 20.34 7.38-22.19a29.25 29.25 0 00-11.03-33.2c-70.2-48.97-106.33-108.05-106.33-176.18 0-122.85 118.62-222.84 267.75-222.84 133.11 0 248.44 80.1 271.04 185.08a29.25 29.25 0 1057.19-12.28c-28.8-133.83-169.2-231.3-328.23-231.3-179.41 0-326.25 123.75-326.25 281.34 0 82.48 40.05 153.9 113.63 211.05l-22.95 69.03zm679.9 176.72a29.25 29.25 0 0042.03-34.11l-16.56-55c62.51-51.75 99.5-114.3 99.5-181.34 0-134.29-131-244.36-281.52-244.36-155.79 0-281.83 108-281.83 244.35 0 136.53 126 244.35 281.83 244.35 25.56 0 45.77-3.37 85.05-12.96l71.5 39.06zm-53.41-95.85a29.25 29.25 0 00-21.15-2.7c-42.12 10.52-60.57 13.94-81.99 13.94-125.42 0-223.34-83.79-223.34-185.84 0-101.89 98.02-185.86 223.34-185.86 120.24 0 223.02 86.36 223.02 185.85 0 51.48-33.39 103.19-92.3 147.29a29.25 29.25 0 00-10.48 31.86l1.71 5.71-18.81-10.26z" /><path d="M244.47 352.75a36.63 36.54 0 1073.27 0 36.63 36.54 0 10-73.27 0zM562.53 556.41a31.41 31.32 0 1062.82 0 31.41 31.32 0 10-62.82 0zM453.73 352.75a36.63 36.54 0 1073.26 0 36.63 36.54 0 10-73.27 0zM742.45 556.41a31.41 31.32 0 1062.82 0 31.41 31.32 0 10-62.82 0z" /></svg>