<svg viewBox="0 0 1024 1024" focusable="false"><path d="M802.43 85.33a71.72 71.72 0 0166.35 44.46l39.8 97.67c25.9 64.6 36.61 95.01 39 109.82l.43 3.67.09 1.96a194.65 194.65 0 01-62.72 143.36v390.15a71.81 71.81 0 01-62.04 71.12l-6.32.56-3.4.08H219.85a71.8 71.8 0 01-71.12-62.04l-.6-6.31-.09-3.41v-389.8A194.65 194.65 0 0185.33 343.5l.3-3.88c1.88-14.72 13.57-46.98 40.92-113.88l8.66-21.12 31.4-75.3a71.8 71.8 0 0160.04-43.74l6.18-.26h569.6zM634.58 495.96l-8.23 6.1a194.13 194.13 0 01-81.5 32.25l-11 1.33-11.1.72-5.93.13a194.43 194.43 0 01-109.9-34.56l-7.99-5.84-8.66 6.35a194.22 194.22 0 01-81.96 32.26l-11.1 1.28-11.22.68-5.88.09c-19.03 0-37.08-2.22-53.93-6.7l.08 339.92h580.95V529.62a213.5 213.5 0 01-53.59 6.79 194.1 194.1 0 01-110.8-34.4l-8.24-6.05zm-79.61 107.52c36.26 0 65.49 26.28 65.49 59.86 0 11.82-3.46 23.08-10.07 34.13-9.64 16.04-21.16 27.56-52.86 53.85l-39.39 32.3-34.68-28.3c-32.6-26.87-45.44-38.99-55.13-53.88l-2.56-4.14a65.54 65.54 0 01-10.03-33.96c0-33.58 29.19-59.86 65.5-59.86a74.5 74.5 0 0136.1 9.43l.76.42.77-.42a74.04 74.04 0 0131.83-9.35zM798.12 163.5H237.1l-33.7 81.07-17.63 43.52-15.15 38.95-5.88 16.47-1.2 2.69.04 1.62a116.5 116.5 0 0042.16 85.46 35.2 35.2 0 019.39 6.95l6.31 3.97 3.84 2.14c15.19 8.1 33.5 12.24 54.74 12.24 31.45 0 61.44-12.76 83.29-35.24l7.68-8.53a39.08 39.08 0 0157.77 2.26 115.5 115.5 0 0087.98 41.26A115.41 115.41 0 00599 423.25l5.63-6.31a39.08 39.08 0 0159.9 0 115.4 115.4 0 0088.88 41.26c21.76-.09 40.53-4.48 55.85-12.85 4.14-2.3 8.1-4.77 11.95-7.5a23.04 23.04 0 013.5-2.78 115.97 115.97 0 0044.96-84.35l.18-4.35-1.75-5.55-4.36-12.37-10.24-27.35-19.5-49.4-15.23-37.68-20.65-50.52z" /></svg>