<svg viewBox="0 0 1024 1024" focusable="false"><path d="M875.15 188.81v647.82h-56.7v55.58h112.32V133.23H814.8v55.58zM140.07 830.6V182.83h60.35v-55.58H84.5v758.92h112.28V830.6zm414.68-19.35a42.75 42.75 0 11-85.5 0 42.75 42.75 0 0185.5 0" /><path d="M255.5 939.5v-855h519.3v855zm55.58-55.58h408.14V140.08H311.07z" /><path d="M383.75 212.75l1.03 14.63 13.73 152.32H590.8l-6.98 71.37-61.65 16.56-61.92-16.56-3.91-43.97h-54.95l6.84 86.85 113.9 31.28h.94L635.84 494l.99-9.77 12.78-145.53 1.94-14.57h-202.1l-4.95-56.7h211.9l.95-11.7 2.97-28.35.94-14.63z" /></svg>