<svg viewBox="0 0 1024 1024" focusable="false"><path d="M236.59 727.04l-53.46 53.5 60.33 60.33L839.34 245 779 184.66 702.68 261 598.7 364.97 364.97 598.7 236.54 727.08h.05zM512 213.34c53.89 0 103.8 10.75 149.25 28.7L556.2 347.15A170.88 170.88 0 00347.14 556.2L203.22 700.12C140.6 643.75 101.97 574.25 85.33 512c49.8-116.14 204.8-298.67 426.67-298.67zm0 469.33c-15.27 0-30.12-2-44.2-5.76L357.03 787.63c45.66 14.59 97.28 23.04 154.97 23.04 256 0 391.13-165.93 426.67-298.67-22.62-52.82-67.08-119.42-129.71-176.3l-132.1 132.1A170.67 170.67 0 01512 682.67z" /></svg>