<svg viewBox="0 0 1024 1024" focusable="false"><path d="M602.45 213.33l78.08 85.34h172.8v512H170.67v-512h172.8l78.08-85.34h180.9zM640 128H384l-78.08 85.33H170.67c-46.94 0-85.34 38.4-85.34 85.34v512c0 46.93 38.4 85.33 85.34 85.33h682.66c46.94 0 85.34-38.4 85.34-85.33v-512c0-46.94-38.4-85.34-85.34-85.34H718.08L640 128zM512 426.67c70.4 0 128 57.6 128 128s-57.6 128-128 128-128-57.6-128-128 57.6-128 128-128zm0-85.34c-117.76 0-213.33 95.58-213.33 213.34S394.24 768 512 768s213.33-95.57 213.33-213.33S629.76 341.33 512 341.33z" /></svg>