<svg viewBox="0 0 1024 1024" focusable="false"><path d="M939.23 917H84.77C72.17 917 62 906.11 62 892.7V131.3c0-13.41 10.17-24.3 22.77-24.3h854.46c12.6 0 22.77 10.89 22.77 24.3v761.4c0 13.41-10.21 24.3-22.77 24.3zM346.85 580.85a124.56 124.56 0 00124.02-124.78 124.56 124.56 0 00-124.02-124.79 124.56 124.56 0 00-124.06 124.79 124.56 124.56 0 00124.06 124.78zm81-3.02a23.76 23.76 0 100 47.52c7.7 0 14.76 2.21 21.24 5.54l25.38 35.01c.5 2.83 1.62 5.36 1.62 8.32v26.82a23.85 23.85 0 0047.61 0v-26.81a96.21 96.21 0 00-95.85-96.4zm-162 0c-52.88 0-95.85 43.2-95.85 96.4v26.82a23.76 23.76 0 1047.57 0v-26.82c0-2.97 1.17-5.5 1.66-8.28l25.38-35.06c6.48-3.28 13.54-5.53 21.24-5.53a23.76 23.76 0 100-47.52zm336.69-190.57h220.23a23.76 23.76 0 000-47.52H602.54a23.76 23.76 0 000 47.52zm220.23 119.57H602.54a23.71 23.71 0 100 47.56h220.23a23.85 23.85 0 000-47.56zm0 155.6h-125.1a23.76 23.76 0 100 47.53h125.1a23.76 23.76 0 100-47.52zM346.89 378.8c42.12 0 76.41 34.65 76.41 77.22a76.95 76.95 0 01-76.4 77.27 76.95 76.95 0 01-76.46-77.27 76.95 76.95 0 0176.5-77.22z" /></svg>