<svg viewBox="0 0 1024 1024" focusable="false"><path d="M512 85.33c235.65 0 426.67 191.02 426.67 426.67S747.65 938.67 512 938.67 85.33 747.65 85.33 512 276.35 85.33 512 85.33zm0 85.34a341.33 341.33 0 100 682.66 341.33 341.33 0 000-682.66zM426.67 576l.25 4.48C430.12 609.07 463.45 640 512 640c51.11 0 85.33-34.22 85.33-64h85.34l-.22 7.42C677.97 657.5 607.06 725.33 512 725.33c-98.22 0-170.67-72.44-170.67-149.33h85.34zm-85.34-192a42.67 42.67 0 110 85.33 42.67 42.67 0 010-85.33zm341.34 0a42.67 42.67 0 110 85.33 42.67 42.67 0 010-85.33z" /></svg>