<svg viewBox="0 0 1024 1024" focusable="false"><path d="M720.55 85.33H322.01a21.33 21.33 0 00-17.33 33.84l199.26 276.1a21.33 21.33 0 0034.64 0l199.25-276.1a21.33 21.33 0 00-17.28-33.84zm17.28 819.5l-199.25-276.1a21.33 21.33 0 00-34.6 0l-199.25 276.1A21.33 21.33 0 00322 938.67h398.5a21.33 21.33 0 0017.32-33.84zM898.9 465.62h39.77v85.33H898.9v-85.33zm-139.1 0h79.5v85.33h-79.53v-85.33zm-139.13 0h79.49v85.33h-79.49v-85.33zm-139.13 0h79.48v85.33h-79.48v-85.33zm-139.14 0h79.49v85.33H342.4v-85.33zm-139.1 0h79.45v85.33h-79.49v-85.33zm-99.4 0h39.76v85.33h-39.77v-85.33z" /></svg>