<svg viewBox="0 0 1024 1024" focusable="false"><path d="M683.32 255.92h-406.9a27.42 27.42 0 100 54.89h406.9a27.42 27.42 0 000-54.85m-205.5 197.4h-201.4a27.42 27.42 0 100 54.89h201.4a27.42 27.42 0 000-54.85" /><path d="M861.73 613.67a8.44 8.44 0 01-8.43 8.44H741.42l.88-2.28c21.43-56.78-.72-118.25-49.36-137.1a87.08 87.08 0 00-67.29 2.6c-26.95 12.07-48.93 36.29-60.07 65.78l-27.13 65.81a8.44 8.44 0 01-7.8 5.23H170.28a8.44 8.44 0 01-8.44-8.44V161.84c0-4.64 3.8-8.43 8.44-8.43H754.7a8.44 8.44 0 018.48 8.43v85.64a12.66 12.66 0 0012.66 12.66h77.03a8.44 8.44 0 018.44 8.44l.42 345.1zm-132.89 65.94c4.52 6.12 12.03 16.33 12.53 20.84.21 1.82-.84 6.62-1.47 9.54-6.16 28.64-15.95 52.81-16 54-1.22.97-2.73 1.68-4.21 2.48a44.04 44.04 0 01-19.62 4.81c-.17-3.45.17-6.45-.08-10-.68-9.2-1.77-13.58-2.7-17.3-.42-1.85-.6-2.31-.5-5.1 1.55-8.01 15.35-43.28 22.65-61.84h7.59c.63.84 1.1 1.69 1.81 2.53zm68.81-570.08a33.58 33.58 0 00-24.85-10.97H166.06A59.06 59.06 0 00107 157.62v460.36a59.06 59.06 0 0059.06 59.06h87.2a8.44 8.44 0 018.36 7.38l13.37 107.11c4.43 35.27-7.04 68.9-20.12 101.89a27.5 27.5 0 1051.17 19.83 341.13 341.13 0 0019.2-162.09l-8.02-64.63a8.44 8.44 0 018.31-9.5h205.45a62.86 62.86 0 0058.05-38.89l27.6-66.9c6.15-16.46 17.92-29.8 31.42-35.87 6.12-2.66 15.45-5.19 25.1-1.47 20.34 7.88 28.48 38.34 17.85 66.57l-11.56 30.63c-.84 1.39-1.98 2.53-2.53 4.09l-7 17.93c-21.4 54.38-27.09 70.96-27.68 80.79-.71 11.9 2.75 27.08 3.08 31.55 3.88 50.92-5.06 86.66-30.12 119.65a27.42 27.42 0 0043.7 33.11c21.14-27.84 33.12-58.05 38.4-92.47 1.1 0 2.2.34 3.29.34 17.8 0 35.44-5.83 45.86-11.69 5.52-3.08 14.89-8.27 21.55-18.06 6.5-9.45 18.78-43.45 25.53-74.71 1.52-7 3.58-16.58 2.36-27.42a65.05 65.05 0 00-4.81-17.17h66.4a59.06 59.06 0 0059.07-59.07v-365.5a33.58 33.58 0 00-8.86-22.83l-110.03-120.1z" /></svg>