<svg viewBox="0 0 1024 1024" focusable="false"><path d="M512 85.33c235.52 0 426.67 191.15 426.67 426.67S747.52 938.67 512 938.67 85.33 747.52 85.33 512 276.48 85.33 512 85.33zm0 85.34c-188.16 0-341.33 153.17-341.33 341.33S323.84 853.33 512 853.33 853.33 700.16 853.33 512 700.16 170.67 512 170.67z" /><path d="M554.67 682.67V768h-85.34v-85.33zm-213.34-256C341.33 332.37 417.71 256 512 256s170.67 76.37 170.67 170.67c0 54.74-33.71 84.18-66.56 112.9-31.06 27.17-61.44 53.71-61.44 100.43h-85.34c0-77.7 40.2-108.5 75.52-135.6 27.74-21.24 52.48-40.23 52.48-77.73 0-46.94-38.4-85.34-85.33-85.34s-85.33 38.4-85.33 85.34h-85.34z" /></svg>