<svg viewBox="0 0 1024 1024" focusable="false"><path d="M579.96 567.85H147.91v-60.68h259.6c-32.65-15.3-58.99-32.04-79.01-50.37a169.06 169.06 0 01-56.43-128.94c0-57.71 23-105.4 68.99-143.03 46.36-37.93 106.44-56.92 180.35-56.92 50.36 0 95.2 9.71 134.47 29.19 39.62 19.48 70.2 46.36 91.62 80.64 21.85 34.23 32.77 71.67 32.77 112.27h-97.15c0-44.3-14.08-79.07-42.3-104.26-28.21-25.48-67.96-38.22-119.35-38.22-47.7 0-84.96 10.55-111.84 31.67-26.52 20.88-39.8 49.88-39.8 87.2 0 29.86 12.62 55.22 37.8 76.03 25.48 20.45 68.63 39.27 129.43 56.44 52.61 14.74 95.27 30.82 127.98 48.3h211.05v60.68h-133.5c5.28 6.43 9.95 13.1 14.02 19.97 16.8 27.48 25.18 59.89 25.18 97.2 0 59.48-23.12 107.11-69.48 143.03-46.36 35.62-108.32 53.4-185.87 53.4-50.36 0-97.4-9.58-141.02-28.7-43.7-19.48-77.43-46-101.28-79.61a194.54 194.54 0 01-35.2-114.33h97.16c0 44.3 16.32 79.44 48.85 105.29 32.95 25.48 76.76 38.23 131.5 38.23 50.96 0 90.16-10.32 117.35-31.2 27.19-20.8 40.78-49.15 40.78-85.13 0-35.92-12.56-63.6-37.75-83.13-15.04-11.78-37.31-23.43-66.8-35.02z" /></svg>