<svg viewBox="0 0 1024 1024" focusable="false"><path d="M931.94 204.8H177.15v-66.56l-33.38 33.28 821.35 2.4-33.18-33.27v64.15zm66.46 38.45a33.74 33.74 0 00.1-2.61v-100a33.28 33.28 0 00-33.18-33.27l-821.35-2.41a33.28 33.28 0 00-33.38 33.28v66.56H51.61c-14.34 0-26.01 11.26-26.01 25.5v665.8c0 14.08 11.62 25.5 26.01 25.5h920.78c14.34 0 26.01-11.26 26.01-25.5V243.3zM87.04 409.6V266.24H230.4A143.36 143.36 0 0187.04 409.6zm849.92 0A143.36 143.36 0 01793.6 266.24h143.36V409.6zM87.04 721.92A143.36 143.36 0 01230.4 865.28H87.04V721.92zm844.8 0v143.36H788.48a143.36 143.36 0 01143.36-143.36zM649.98 565.86a142.44 142.44 0 11-284.87-.82 142.44 142.44 0 01284.87.82z" /></svg>