<svg viewBox="0 0 1024 1024" focusable="false"><path d="M395.38 113.78h460.8a89.6 89.6 0 0189.6 89.6v460.8a89.6 89.6 0 01-89.6 89.6h-102.4v102.4a89.6 89.6 0 01-89.6 89.6h-460.8a89.6 89.6 0 01-89.6-89.6v-460.8a89.6 89.6 0 0189.6-89.6h102.4v-102.4a89.6 89.6 0 0189.6-89.6zm286.89 760.49a25.6 25.6 0 007.5-18.1l.86-101.54-139.55-139.55-149.27 166.46a31.97 31.97 0 01-42.67 5.29l-94.1-62.3-87.26 87.27v44.38a25.6 25.6 0 0025.6 25.6h460.8a25.6 25.6 0 0018.09-7.51zm-109.8-328.7l117.3 118.6v-268.8a25.6 25.6 0 00-25.6-25.6h-460.8a25.6 25.6 0 00-25.6 25.6v326.38l60.6-59.9a31.97 31.97 0 0140.33-4.1l93.01 59.73 154.46-170.66a31.35 31.35 0 0135.5-8.37 31.1 31.1 0 0110.8 7.11zm301.8 136.7a25.6 25.6 0 007.5-18.1v-460.8a25.6 25.6 0 00-25.6-25.6h-460.8a25.6 25.6 0 00-25.6 25.6v102.4h294.4a89.6 89.6 0 0189.6 89.6v294.4h102.4a25.6 25.6 0 0018.1-7.5zM292.52 575.03a64 64 0 1190.51-90.5 64 64 0 01-90.5 90.5z" /></svg>