<svg viewBox="0 0 1024 1024" focusable="false"><path d="M85.33 512C85.33 276.9 276.91 85.33 512 85.33s426.67 172.38 426.67 384c0 141.23-114.78 256-256 256h-75.52a21.13 21.13 0 00-21.34 21.34c0 5.12 2.14 9.81 5.55 14.08 17.5 20.05 27.3 45.22 27.3 71.25A106.67 106.67 0 01512 938.67C276.9 938.67 85.33 747.09 85.33 512zm192-85.33a64 64 0 100 128 64 64 0 000-128zm64-106.67a64 64 0 10128 0 64 64 0 00-128 0zm277.34-64a64 64 0 100 128 64 64 0 000-128zm64 234.67a64 64 0 10128 0 64 64 0 00-128 0z" /></svg>