<svg viewBox="0 0 1024 1024" focusable="false"><path d="M866.13 418.13C857.6 251.73 704 115.2 512 115.2S166.4 247.47 157.87 418.13c-42.67 17.07-72.54 59.74-72.54 102.4v98.14c0 64 55.47 115.2 128 115.2h29.87c17.07 0 29.87-12.8 29.87-25.6V435.2c0-12.8-12.8-25.6-29.87-25.6h-25.6C230.4 273.07 358.4 170.67 512 170.67c153.6 0 281.6 102.4 294.4 238.93h-25.6c-17.07 0-29.87 12.8-29.87 25.6v273.07c0 12.8 12.8 25.6 29.87 25.6h8.53c-4.26 17.06-12.8 38.4-34.13 59.73-34.13 29.87-89.6 46.93-162.13 46.93-4.27-12.8-17.07-17.06-29.87-17.06H460.8c-17.07 0-29.87 12.8-29.87 25.6v38.4c0 12.8 12.8 25.6 29.87 25.6h98.13c12.8 0 25.6-8.54 29.87-21.34 89.6 0 157.87-21.33 204.8-64 38.4-34.13 51.2-76.8 51.2-98.13 51.2-17.07 89.6-59.73 89.6-106.67V524.8c4.27-46.93-25.6-85.33-68.27-106.67z" /></svg>