<svg viewBox="0 0 1024 1024" focusable="false"><path d="M874.3 77.67h-725a72.5 72.5 0 00-72.5 72.5v726.68a72.53 72.53 0 0072.5 72.5h725a72.57 72.57 0 0072.49-72.5V150.17a72.53 72.53 0 00-72.5-72.5zM334.33 796.42H205.62v-386.2h128.77v386.2zm-64.36-433a73.11 73.11 0 110-146.18 73.11 73.11 0 010 146.18zm548.4 433H689.2l-2.97-229.38s2.97-61.24-63.48-60.42c-66.41.72-75.99 60.42-75.99 60.42v229.38H416.72v-386.2h124.67v53.3s5.12-17.36 33.8-37.8c28.66-20.37 76.28-24.93 96.7-24.16 20.44.77 48.34-2.76 95.14 29.5 50.07 34.4 51.35 124.56 51.35 124.56v240.8z" /></svg>