<svg viewBox="0 0 1024 1024" focusable="false"><path d="M511.19 939.23a122.4 122.4 0 01-59.71-15.43L156.19 758.78a122.49 122.49 0 01-62.68-106.82v-437.4c0-39.95 28.3-75.05 67.27-83.51l285.25-61.92a301.36 301.36 0 01130.36 0l285.16 61.92a85.95 85.95 0 0167.32 83.47v437.44c0 44.32-24.03 85.22-62.68 106.82L570.86 923.8a122.13 122.13 0 01-59.67 15.43zm242.55-599.12a31.81 31.81 0 00-46.98-42.75L460.07 568a4.14 4.14 0 01-5.94.18L345.5 462.06a30.55 30.55 0 00-22.77-9.09 31.81 31.81 0 00-21.64 54.5L436.3 639.62a31.95 31.95 0 0045.72-1.35l271.7-298.17z" /></svg>