<svg viewBox="0 0 1024 1024" focusable="false"><path d="M653.2 734.29a200.22 200.22 0 0171.09 70.2 200.22 200.22 0 0171.08-70.2 200.47 200.47 0 01-71.08-70.16 200.47 200.47 0 01-71.09 70.16M724.3 931.3a27.42 27.42 0 01-27.42-27.42c0-78.47-65.31-142.17-145.64-142.17a27.42 27.42 0 010-54.85c80.33 0 145.64-63.74 145.64-142.17a27.42 27.42 0 1154.84 0c0 78.43 65.3 142.17 145.63 142.17a27.42 27.42 0 110 54.85c-80.32 0-145.63 63.7-145.63 142.17a27.42 27.42 0 01-27.42 27.42M496.56 145.01c-110.91 0-201.15 91-201.15 202.92 0 111.88 90.28 202.92 201.15 202.92 110.95 0 201.15-91.04 201.15-202.92 0-111.92-90.24-202.92-201.15-202.92m0 460.69c-141.16 0-255.95-115.6-255.95-257.77S355.4 90.13 496.56 90.13s256 115.59 256 257.76-114.84 257.85-256 257.85M125.98 933.92a27.42 27.42 0 01-27.42-27.42v-61.22c0-106.44 86.02-193.05 191.79-193.05h183.1a27.42 27.42 0 010 54.89h-183.1c-75.52 0-136.94 61.97-136.94 138.16v61.22a27.42 27.42 0 01-27.43 27.42" /></svg>