<svg viewBox="0 0 1024 1024" focusable="false"><path d="M511.19 135.57a242.9 242.9 0 00-52.42 5.67l-285.21 61.92A25.56 25.56 0 00153.53 228v437.45a62.47 62.47 0 0031.95 54.45l295.29 165.02a63 63 0 0060.84 0l295.33-165.06a62.4 62.4 0 0031.91-54.41v-437.4a25.56 25.56 0 00-20.03-24.89L563.66 141.2a249.57 249.57 0 00-52.47-5.67m0 817.15a122.4 122.4 0 01-59.72-15.43L156.18 772.24A122.49 122.49 0 0193.5 665.45v-437.4c0-39.96 28.3-75.06 67.28-83.52l285.25-61.92a301.37 301.37 0 01130.37 0l285.16 61.92A85.95 85.95 0 01928.88 228v437.45c0 44.33-24.03 85.23-62.69 106.83L570.87 937.3a122.13 122.13 0 01-59.67 15.43" /><path d="M500.75 269.81zm77.44 400.9c-33.66 0-70.65-3.19-109.89-9.36l-56.07-9.31a23.09 23.09 0 01-19.3-22.77V498.73a23.09 23.09 0 1146.21 0V609.7l36.59 6.03c36.63 5.8 71.23 8.77 102.46 8.77 15.4 0 17.73-.54 24.57-2.2 3.96-1.04 8.91-2.16 16.79-3.6 18.5-3.83 27.36-14.45 30.06-36.32l24.97-172.89c-.22-8.82-10.21-18.72-22.4-18.72l-74.75-.45c-36.9 3.42-42.03-19.94-42.75-27.14a88.65 88.65 0 01-.14-12.6l1.08-16.33c1.35-17.28 3.15-40.95-3.73-51.3a31.86 31.86 0 00-26.1-13.5l-.63 35.73c-.09 19.03-.23 40.68-13.32 62.1-13.63 22.41-42.88 41.98-69.57 46.53a23.13 23.13 0 01-7.79-45.54c13.5-2.3 31.19-14.04 37.9-25.02 6.43-10.58 6.52-22.82 6.61-38.39l.72-41.17a40.45 40.45 0 0134.24-39.56 77.53 77.53 0 0176.23 33.12c15.84 23.54 13.5 55.13 11.48 80.51l-.45 6.43 70.96.41c37.71 0 68.4 30.6 68.4 68.22l-25.2 175.63c-6.39 52.11-39.96 69.93-66.96 75.56-7.29 1.3-11.38 2.34-14.8 3.15-9.77 2.38-15.44 3.56-35.42 3.56zM319.4 652.17a23.09 23.09 0 01-23.04-23.08v-230.4a23.09 23.09 0 1146.17 0v230.4a23.07 23.07 0 01-23.09 23.08" /></svg>