<svg viewBox="0 0 1024 1024" focusable="false"><path d="M84.5 242h247.95c24.25 0 45.81 1.94 64.75 5.85a177.26 177.26 0 0152.79 19.8c16.29 9.36 28.8 22.77 37.58 40.32 8.77 17.55 13.14 38.97 13.14 64.3 0 50.36-23.9 86.94-71.78 109.8 31.72 8.87 55.66 24.89 71.77 47.97 16.2 23.13 24.26 51.53 24.26 85.19 0 20.88-3.42 39.87-10.26 56.97-6.8 17.1-15.98 31.5-27.54 43.2s-25.25 21.6-41.13 29.7a197.55 197.55 0 01-50.49 17.5 281.94 281.94 0 01-55.98 5.4H84.5V242zm115.65 212.49h117.31c21.7 0 38.89-5.08 51.58-15.21 12.6-10.17 18.99-25.96 18.99-47.38 0-40.1-26.46-60.12-79.34-60.12H200.15v122.71zm0 224.19h123.57c57.06 0 85.59-23.22 85.59-69.75 0-50.04-27.72-75.15-83.07-75.15H200.15v144.9zm557.33 20.88c17.55 0 34.51-4.45 50.94-13.36 16.42-8.91 27-21.02 31.72-36.32h92.25c-27.81 85.46-87.25 128.16-178.25 128.16-59.58 0-106.96-18.36-142.2-55.08-35.14-36.77-52.78-85.05-52.78-144.9 0-57.87 18.18-105.97 54.5-144.22 36.31-38.25 83.16-57.42 140.49-57.42 38.38 0 71.86 9.45 100.39 28.39a175.05 175.05 0 0163.9 74.7c14.04 30.91 21.06 65.43 21.06 103.59 0 4.72-.27 11.25-.86 19.62H663.96c0 30.87 8.01 54.77 23.99 71.55 16.02 16.88 39.15 25.29 69.52 25.29zm-6.66-244.21c-25.07 0-45.36 7.29-60.98 21.91-15.57 14.58-24.21 34.43-25.88 59.49H834.3c-5-54.27-32.85-81.45-83.47-81.45zm-108.14-126.1h213.3V277.5h-213.3v51.75z" /></svg>