<svg viewBox="0 0 1024 1024" focusable="false"><path d="M85.33 512c0 235.1 191.58 426.67 426.67 426.67A106.67 106.67 0 00618.67 832c0-26.03-9.82-51.2-27.31-71.25a22.53 22.53 0 01-5.55-14.08 21.13 21.13 0 0121.34-21.34h75.52c141.22 0 256-114.77 256-256 0-211.62-191.58-384-426.67-384S85.33 276.91 85.33 512zm85.34 0c0-188.16 153.17-341.33 341.33-341.33s341.33 133.97 341.33 298.66c0 94.3-76.37 170.67-170.66 170.67h-75.52a106.67 106.67 0 00-106.67 106.67c0 25.6 9.39 50.77 26.88 70.4 2.56 2.98 5.97 8.1 5.97 14.93A21.13 21.13 0 01512 853.33c-188.16 0-341.33-153.17-341.33-341.33zm106.66-85.33a64 64 0 100 128 64 64 0 000-128zm64-106.67a64 64 0 11128 0 64 64 0 01-128 0zm277.34-64a64 64 0 100 128 64 64 0 000-128zm64 234.67a64 64 0 11128 0 64 64 0 01-128 0z" /></svg>