<svg viewBox="0 0 1024 1024" focusable="false"><path d="M113.75 755.45A29.25 29.25 0 0184.5 726.2V172.25A47.27 47.27 0 01131.75 125h760.27c26.1 0 47.25 21.2 47.25 47.25v527.31a29.25 29.25 0 01-58.5 0V183.5H143v542.7a29.25 29.25 0 01-29.25 29.25" /><path d="M892.25 910.12h-760.5a47.35 47.35 0 01-47.25-47.34V726.34a29.4 29.4 0 018.55-20.7L238.4 560.1a29.2 29.2 0 0142.61 1.3l43.79 49.55 147.28-151.2a31.5 31.5 0 0121.06-8.87 29.3 29.3 0 0120.97 9l129.7 134.82 69.79-72a29.25 29.25 0 0140.5-1.53l175.59 156.38a29.15 29.15 0 019.81 21.82v163.4c0 26.1-21.2 47.34-47.25 47.34zM700.73 415.38a53.82 53.82 0 010-107.68 53.82 53.82 0 010 107.69" /></svg>