<svg viewBox="0 0 1024 1024" focusable="false"><path d="M932.75 889.96H91.25A29.25 29.25 0 0162 860.7V154.2A29.25 29.25 0 0191.25 125h730.17a29.25 29.25 0 0121.15 9L953.9 250.14a29.25 29.25 0 018.1 20.25V860.7a29.25 29.25 0 01-29.25 29.25zM342.04 345.95a9.45 9.45 0 00-9.45 9.13l-3.29 96.53h15.16c6.3-33.39 15.67-55.03 28.09-64.98 12.46-9.9 35.9-14.85 70.29-14.85h25.51a9.45 9.45 0 019.45 9.45V602c0 26.82-3.29 43.52-9.77 50.17-6.47 6.66-22.85 10.98-49.18 13.01v11.52h181.3v-11.52c-25.33-1.8-41.71-5.58-49.18-11.34-7.51-5.72-11.25-20.61-11.25-44.55V381.14a9.45 9.45 0 019.45-9.45h25.2c36 0 59.63 5.04 70.88 15.07 11.25 10.04 20.47 31.64 27.76 64.8h14.85l-3.01-96.52a9.45 9.45 0 00-9.45-9.14H342.04zM803.6 223.6v70.24h70.25l-70.2-70.2z" /></svg>