<svg viewBox="0 0 1024 1024" focusable="false"><path d="M286.01 225.35c30.15 3.1 54.23 3.83 114.89 4.23 36.72.27 50.62.45 73.12.81a29.25 29.25 0 101.08-58.5c-22.82-.4-36.9-.54-73.8-.81-58.82-.45-81.68-1.08-109.35-3.92-43.47-4.4-86.31-14.26-150.89-35.14a29.25 29.25 0 10-18 55.62c68.22 22.14 114.98 32.85 162.95 37.76z" /><path d="M728.99 116.54a146.03 146.03 0 00-54-13.59c-29.7-1.94-60.57 3.38-90.9 13.32a266.04 266.04 0 00-34.83 13.86 6149.39 6149.39 0 00-83.39 41.53l-4.81 2.43c-43.52 22.14-70.7 36.72-80.42 43.88-12.87 9.5-76.05 44.95-90.9 52.47-41.62 22.36-37.44 75.6-10.08 104.94 23.67 25.2 47.3 37.62 80.82 42.26 37.94 5.22 83.66 1.08 114.35-12.6 12.38-5.54 21.51-10.8 44.06-24.71l4.5-2.79c17.28-10.58 27.45-16.11 36.63-19.67 17.59-6.75 23.4-3.91 43.29 17.91l2.38 2.57c6.57 7.2 10.66 11.43 15.61 15.84 16.52 14.76 38.16 35.77 67.32 65.2l5.67 5.67c2.84 2.88 55.53 56.39 67.6 68.4a4530.15 4530.15 0 0027.99 27.59l14.26 16.29c11.25 16.11 11.74 33.75.99 44.64-12.06 12.15-24.07 12.1-45.67-3.38-26.87-19.21-59.99 13.77-40.91 40.68 12.78 18.05 12.96 35.55 1.8 46.8-11.38 11.52-26.28 11.07-48.69-4.95-26.82-19.26-59.94 13.77-40.86 40.68 11.97 16.88 11.48 31.82-.58 43.97-9.54 10.71-24.98 8.95-47.21-6.93L566 802.61l-16.96 23.85c-5.9-4.23-7.2-7.34-7.56-9.45.31 2.07.4 5.62.13 9.94a108.86 108.86 0 01-2.7 18.45 24.34 24.34 0 01-16.92 14.18c-22.55 5.58-33.75-.68-60.39-31.1A29.25 29.25 0 00417.59 867c39.56 45.18 68.85 61.65 118.35 49.41 25.65-6.3 47.12-24.3 57.06-48.78 10.4-25.2 13.37-72.18-10.04-88.83-31.72-22.63-65.7 24.98-33.97 47.61 43.56 31.14 90.9 36.54 123.84-.58 31.95-32.09 33.44-78.75 5.67-117.9l-40.86 40.72c43.78 31.37 90.31 32.85 124.2-1.35 33.03-33.2 32.53-82.26 4.41-121.86l-40.86 40.73c43.42 31.05 87.3 31.23 121.28-3.02 32.98-33.2 31.54-82.26 3.28-122.04l-17.55-20.16a1438.34 1438.34 0 00-15.44-15.3l-13.9-13.72c-11.7-11.7-64.17-64.94-67.23-68.04l-5.67-5.76a1724 1724 0 00-69.88-67.55 157.72 157.72 0 01-11.39-11.7l-2.34-2.52c-34.29-37.62-61.42-50.71-107.41-33.12-13.64 5.22-26.1 12.02-46.35 24.48l-4.64 2.84c-20.07 12.37-27.99 16.96-37.08 20.97-19.71 8.82-54.72 11.97-82.57 8.14-20.16-2.79-31.6-8.77-46.08-24.25-4.73-5.04-5.36-13.28-5.63-13.14 17.1-8.64 82.22-45.14 98.6-57.24 5.76-4.23 33.34-19.04 72.22-38.79l4.73-2.43a6714.09 6714.09 0 0182.89-41.27c5.17-2.6 14.62-6.61 27.09-10.7 23.85-7.84 47.6-11.93 68.85-10.54 12.15.81 23.08 3.47 32.53 7.97 78.66 37.71 125.69 39.82 190.04 1.62a29.25 29.25 0 10-29.88-50.31c-45.59 27.09-72.45 25.87-134.87-4.05zM186.38 624.05a25.96 25.96 0 01.04-36.31L216 557.98a24.52 24.52 0 0135.1 0 26.01 26.01 0 01-.09 36.36l-29.48 29.79a24.52 24.52 0 01-35.1-.05zm96.57 1.98c27.23-27.5 27.32-72 .23-99.58a69.53 69.53 0 00-99.19-.14l-29.52 29.7a70.97 70.97 0 00-.13 99.63 69.53 69.53 0 0099.14.14l29.47-29.75z" /><path d="M257.57 689.52a25.96 25.96 0 010-36.31l29.57-29.75a24.52 24.52 0 0135.1 0 26.01 26.01 0 01-.1 36.36l-29.47 29.8a24.52 24.52 0 01-35.1-.1zm96.57 1.98c27.23-27.49 27.32-72 .23-99.58a69.53 69.53 0 00-99.19-.14l-29.52 29.7a70.97 70.97 0 00-.18 99.63 69.53 69.53 0 0099.14.14l29.52-29.75z" /><path d="M327.86 755a25.96 25.96 0 01.04-36.36l29.57-29.75a24.52 24.52 0 0135.1 0 26.01 26.01 0 01-.09 36.36l-29.47 29.8a24.52 24.52 0 01-35.1-.05zm96.57 1.94c27.23-27.46 27.32-72 .23-99.59a69.53 69.53 0 00-99.19-.14l-29.52 29.7a70.97 70.97 0 00-.13 99.63 69.53 69.53 0 0099.14.14l29.47-29.7z" /><path d="M399.37 821.55a25.96 25.96 0 01.09-36.36l29.52-29.74a24.52 24.52 0 0135.1 0 26.01 26.01 0 01-.1 36.36l-29.47 29.79a24.52 24.52 0 01-35.1-.05zm96.61 1.94c27.23-27.45 27.32-72 .18-99.59a69.53 69.53 0 00-99.14-.13l-29.56 29.7a70.97 70.97 0 00-.13 99.63 69.53 69.53 0 0099.13.18l29.52-29.79zM114.92 568.02c10.35 6.66 17.55 13.5 20.52 19.17a29.25 29.25 0 0051.93-26.86c-8.46-16.43-22.68-29.88-40.86-41.54a206.1 206.1 0 00-41.31-20.47 29.25 29.25 0 00-19.4 55.21c6.85 2.39 18.14 7.47 29.12 14.5zm749.57 12.7a317.88 317.88 0 0076.32-28.9l4.95-2.74a29.25 29.25 0 10-28.8-50.85l-3.96 2.12c-19.62 10.62-40.95 18.31-62.28 23.49a210.78 210.78 0 01-27.32 5.04 29.25 29.25 0 105.4 58.27c7.65-.72 20.03-2.7 35.69-6.43z" /></svg>