<svg viewBox="0 0 1024 1024" focusable="false"><path d="M87.38 502.69a24.47 24.47 0 0124.48 24.43v150.66a24.43 24.43 0 11-48.91 0V527.12a24.43 24.43 0 0124.43-24.43zm847.17 0a24.47 24.47 0 0124.48 24.43v150.66a24.43 24.43 0 11-48.91 0V527.12a24.43 24.43 0 0124.43-24.43zm-107.78-181c22.5 0 41.09 18.41 40.91 41.1v522.44a41.09 41.09 0 01-41.13 41.09H195.2a41.09 41.09 0 01-41.08-41.09V362.78a41.1 41.1 0 0141.08-41.08h288.4V168.88a46.03 46.03 0 0124.44-84.92 45.9 45.9 0 0124.48 84.92V321.7h294.25zM327.05 542.8a45.99 45.99 0 1091.98 0 45.99 45.99 0 00-91.98 0zm270 0a45.99 45.99 0 1091.98 0 45.99 45.99 0 00-91.98 0zM346.99 780.82a30.02 30.02 0 0060.03 0c0-2.16.09-4.32.31-6.43 4.1-41.63 48.83-76.05 104.67-76.05 59.09 0 104.98 38.25 104.98 82.48a30.02 30.02 0 0060.03 0c0-80.05-74.97-142.51-165.01-142.51-84.87 0-157 55.62-164.38 130.18a125.1 125.1 0 00-.63 12.33z" /></svg>