<svg viewBox="0 0 1024 1024" focusable="false"><path d="M387.98 530.86v36.45h-65.84v169.2h-46.3V567.3h-66.15v-36.45zm178.29 0h47.79L539 736.5h-43.47L421.1 530.85h49.14l47.79 156.16zm96.25 21.46c17.69-16.92 40.23-25.38 67.6-25.38 36.72 0 63.45 11.34 80.45 34.02 9.27 12.78 14.31 25.56 15.03 38.38h-46.03c-2.88-9.85-6.62-17.28-11.25-22.32-8.19-8.9-20.3-13.4-36.45-13.4-16.34 0-29.25 6.3-38.7 18.9s-14.27 30.46-14.27 53.55c0 23.03 5.04 40.31 14.99 51.79 9.99 11.52 22.68 17.23 38.02 17.23 15.8 0 27.9-4.9 36.14-14.8 4.59-5.26 8.41-13.23 11.43-23.85h45.63a90.63 90.63 0 01-30.15 54.67c-16.2 14.09-36.95 21.15-62.28 21.15-31.32 0-55.94-9.54-73.89-28.53-17.91-19.03-26.86-45.18-26.86-78.39 0-35.9 10.21-63.58 30.6-83.02z" /><path d="M87.29 946.25v-623.3h857.12V946.2zm58.5-58.5h740.12v-506.3H145.78z" /><path d="M919.79 62L62 176.84 88.6 357.2l857.78-114.89zm-49.45 65.61l9.53 64.62-741.82 99.32-9.54-64.58z" /></svg>