<svg viewBox="0 0 1024 1024" focusable="false"><path d="M810.67 554.67A85.33 85.33 0 01896 640v170.67A85.33 85.33 0 01810.67 896H640a85.33 85.33 0 01-85.33-85.33V640A85.33 85.33 0 01640 554.67h170.67zm-426.67 0A85.33 85.33 0 01469.33 640v170.67A85.33 85.33 0 01384 896H213.33A85.33 85.33 0 01128 810.67V640a85.33 85.33 0 0185.33-85.33H384zM810.67 640H640v170.67h170.67V640zM384 640H213.33v170.67H384V640zm0-512a85.33 85.33 0 0185.33 85.33V384A85.33 85.33 0 01384 469.33H213.33A85.33 85.33 0 01128 384V213.33A85.33 85.33 0 01213.33 128H384zm426.67 0A85.33 85.33 0 01896 213.33V384a85.33 85.33 0 01-85.33 85.33H640A85.33 85.33 0 01554.67 384V213.33A85.33 85.33 0 01640 128zM384 213.33H213.33V384H384V213.33zm426.67 0H640V384h170.67V213.33z" /></svg>