<svg viewBox="0 0 1024 1024" focusable="false"><path d="M512 256v85.33H170.67v512h682.66V512h85.34v341.33a85.33 85.33 0 01-85.34 85.34H170.67a85.33 85.33 0 01-85.34-85.34v-512A85.33 85.33 0 01170.67 256H512zm91.43 298.67L768 768H256l128-160 91.43 107 128-160.33zM844.8 85.33c75.7 0 136.53 58.03 136.53 132.18 0 26.07-7.2 50.95-20.99 75.31-20.1 35.5-44.07 60.93-110.16 118.91l-82.1 71.34-72.31-62.5c-67.89-59.31-94.72-86.1-114.9-118.92l-5.38-9.13c-13.66-24.27-20.82-49.06-20.82-75 0-74.16 60.84-132.19 136.53-132.19 26.62 0 52.74 7.47 75.18 20.82l1.62.94 1.62-.98a148.05 148.05 0 0166.35-20.56zm0 85.34c-17.07 0-34.13 7.68-44.97 19.75L768 226.13l-31.83-35.67a61.65 61.65 0 00-44.97-19.8c-29.44 0-51.2 20.74-51.2 46.85 0 10.54 3.03 21.08 9.81 33.11 12.68 22.49 31.4 42.84 79.4 85.68l38.66 33.92 24.2-21c56.14-49.27 78.07-71.76 92.07-95.05l1.92-3.38c6.87-12.11 9.94-22.7 9.94-33.28 0-26.1-21.76-46.84-51.2-46.84z" /></svg>