<svg viewBox="0 0 1024 1024" focusable="false"><path d="M895.7952 589.32337778c0-49.9712-20.28657778-95.28888889-53.05457778-128.15928889 29.21813333-32.98417778 46.14826667-75.90115555 46.14826667-120.54755556 0-100.16995555-81.49902222-181.68035555-181.66897778-181.68035555-10.52444445 0-20.95786667 1.25155555-31.27751111 3.04924444 23.99573333-33.09795555 68.24391111-82.35235555 117.78275555-79.24622222 6.42844445 0.39822222 12.9024 1.71804445 19.26257778 3.86844445 14.77973333 5.07448889 30.70862222-2.88995555 35.69208889-17.59004445 4.99484445-14.71146667-2.88995555-30.70862222-17.60142222-35.69208889-11.03644445-3.75466667-22.39146667-6.03022222-33.75786667-6.7584-70.50808889-4.63075555-126.17955555 48.70826667-159.45955555 91.97795556-7.28177778-19.84284445-25.37244445-55.1936-67.20853333-81.1008-62.3616-38.63893333-151.66577778-41.84746667-265.15911112-9.65973334-8.33991111 2.28693333-15.50791111 7.95306667-19.67217778 15.51928889-4.096 7.44106667-5.0176 16.33848889-2.56 24.40533333 10.69511111 35.10044445 54.55644445 87.42684445 59.51715556 93.26364445 2.36657778 2.78755555 5.2224 4.86968889 8.26026667 6.49671111-12.8 13.59644445-23.62026667 29.11573333-31.78951111 46.2848-8.86328889-1.49048889-17.90862222-2.4576-27.19288889-2.4576-90.22577778 0-163.6352 73.40942222-163.6352 163.6352 0 49.58435555 22.24355555 93.99182222 57.18471111 124.02915556-10.46755555 23.39271111-15.82648889 48.3328-15.82648889 74.14897778 0 58.11768889 27.53422222 109.81831111 70.13262222 143.0983111-29.44568889 32.9728-46.06862222 75.32088889-46.06862222 120.57031112 0 100.16995555 81.49902222 181.68035555 181.68035555 181.68035555 76.15146667 0 142.62044445-46.70577778 169.3240889-116.06471111 5.50684445 0.50062222 11.0592 0.84195555 16.6912 0.84195556 82.44337778 0 153.94133333-55.5008 175.22915555-133.82542222 89.52035555-11.20711111 159.0272-87.60888889 159.0272-180.08746667z m-63.1808-248.71822223c0 33.21173333-12.85688889 64.03413333-35.55555555 87.26755556-24.89457778-12.84551111-53.05457778-20.22968889-82.944-20.22968889-9.80764445 0-19.56977778 1.03537778-29.2408889 2.59413333-6.58773333-20.71893333-17.38524445-39.53777778-31.2775111-55.61457777 7.41831111-20.10453333 11.40053333-41.1648 11.40053333-62.83946667 0-22.10702222-4.02773333-43.65653333-11.76462223-64.12515556 16.78222222-8.02133333 35.23697778-12.45866667 53.97617778-12.45866666 69.15413333 0 125.40586667 56.26311111 125.40586667 125.40586666zM533.53813333 560.77653333c-56.5248 0-102.52515555-45.98897778-102.52515555-102.52515555s45.98897778-102.52515555 102.52515555-102.52515556 102.52515555 45.98897778 102.52515556 102.52515556-45.98897778 102.52515555-102.52515556 102.52515555z m6.25777778-476.23964444c34.06506667 20.53688889 44.39608889 49.36817778 46.71715556 57.56017778-29.60497778-20.40035555-65.26293333-31.98293333-103.19644445-31.98293334-33.32551111 0-64.85333333 9.13635555-92.03484444 25.12213334-1.05813333-3.81155555-2.8672-7.4752-5.59786667-10.69511112-11.09333333-13.06168889-26.14613333-32.90453333-36.72746666-49.90293333 82.31822222-19.29671111 147.92248889-15.99715555 190.83946666 9.89866667z m-56.46791111 81.86311111c51.8144 0 97.60995555 31.1296 116.66773333 79.30311111 5.79128889 14.6432 8.72675555 30.13973333 8.72675556 46.08 0 8.62435555-0.87608889 17.11217778-2.58275556 25.40657778-21.78844445-11.25262222-46.43271111-17.72657778-72.59022222-17.72657778-31.59608889 0-61.00764445 9.38666667-85.76568889 25.36106667-12.62933333-39.15093333-39.65155555-71.81653333-74.78613333-91.92106667 21.31057778-39.90186667 63.08977778-66.50311111 110.33031111-66.50311111z m-191.26044445 101.18257778c58.7776 0 106.63253333 47.50222222 107.29244445 106.13191111-12.81137778 20.26382222-21.28782222 43.52-23.80231111 68.56248889-20.52551111 25.41795555-50.77902222 40.01564445-83.49013334 40.01564444-59.19857778 0-107.36071111-48.16213333-107.3607111-107.36071111s48.16213333-107.34933333 107.3607111-107.34933333z m-57.4464 260.38044444c17.90862222 6.74702222 37.20533333 10.61546667 57.4464 10.61546667 33.34826667 0 64.95573333-10.05795555 91.648-28.18275556 14.90488889 42.7008 47.42257778 77.18684445 88.95146667 94.49244445-14.41564445 55.18222222-63.8976 93.62773333-121.19608889 93.62773333-69.14275555 0-125.39448889-56.26311111-125.39448888-125.40586666 0-15.65582222 2.98097778-30.78826667 8.5447111-45.14702223z m140.91377778 434.21013333c-69.15413333 0-125.40586667-56.26311111-125.40586666-125.40586666 0-35.65795555 14.89351111-68.75591111 40.97137778-92.51271111 18.92124445 6.69013333 39.17368889 10.52444445 60.3591111 10.52444444 10.60408889 0 21.02613333-0.9216 31.1864889-2.67377777 10.4448 61.31484445 51.55271111 112.26453333 107.09902222 136.27164444-19.92248889 44.3392-63.97724445 73.79626667-114.21013334 73.79626666zM561.55022222 846.96177778c-65.10364445 0-118.72711111-49.85742222-124.79146667-113.39093333 44.46435555-23.58613333 78.35875555-65.21742222 91.0904889-116.80426667 1.90008889 0.06826667 3.76604445 0.28444445 5.68888888 0.28444444 0.39822222 0 0.79644445-0.05688889 1.19466667-0.05688889 11.65084445 76.35626667 69.57511111 135.68 143.49653333 150.39146667-18.50026667 47.19502222-64.36408889 79.57617778-116.67911111 79.57617778z m152.56462223-132.25528889c-63.0784 0-115.65511111-46.25066667-124.1088-108.21404444 57.41226667-21.94773333 98.816-76.19697778 101.94488888-140.48142223 7.30453333-1.28568889 14.71146667-2.09351111 22.16391112-2.09351111 69.15413333 0 125.40586667 56.26311111 125.40586666 125.40586667 0 69.14275555-56.25173333 125.38311111-125.40586666 125.38311111z"></path></svg>
