<svg viewBox="0 0 1024 1024" focusable="false"><path d="M148.14 572.63l121.3-121.26a42.88 42.88 0 0163.96 56.88l-3.33 3.75-121.3 121.3a128.64 128.64 0 00176.42 187.1l5.55-5.17L512 693.93a42.88 42.88 0 0164 56.92l-3.37 3.71-121.26 121.3A214.4 214.4 0 01141.7 579.33l6.4-6.7zM572.67 148.1a214.4 214.4 0 11303.2 303.27L754.55 572.63A42.88 42.88 0 11693.97 512l121.26-121.3A128.64 128.64 0 10633.3 208.77L512 330.07a42.88 42.88 0 01-60.63-60.63l121.26-121.3zm0 242.6a42.88 42.88 0 1160.59 60.67L451.37 633.3a42.88 42.88 0 11-60.67-60.67L572.63 390.7z" /></svg>