<svg viewBox="0 0 1024 1024" focusable="false"><path d="M829.08 101.38A123.9 123.9 0 00921.96 8.5c.87-3.58 5.43-3.58 6.24 0a123.93 123.93 0 0092.93 92.88c3.64.82 3.64 5.42 0 6.24a124 124 0 00-92.93 92.88c-.81 3.69-5.37 3.69-6.24 0a123.9 123.9 0 00-92.88-92.88c-3.58-.82-3.58-5.42 0-6.24M2.05 941.4a91.08 91.08 0 0068.15-68.2c.56-2.66 3.99-2.66 4.6 0a90.91 90.91 0 0068.1 68.2c2.71.62 2.71 3.95 0 4.56a90.84 90.84 0 00-68.1 68.2c-.61 2.71-4.04 2.71-4.6 0A91.14 91.14 0 002 945.97c-2.67-.61-2.67-3.94 0-4.6M913.5 365.4a33.28 33.28 0 001.38-66.56l-111.36-2.35a33.28 33.28 0 00-27.39 53.1 308.22 308.22 0 01-388.6 457.47 33.28 33.28 0 10-30.47 59.18 374.78 374.78 0 00506.11-501.91l50.33 1.02zM116.94 673.28a33.28 33.28 0 10-1.38 66.56l111.3 2.36a33.28 33.28 0 0027.45-53.15 308.22 308.22 0 11385.18-459.16 33.28 33.28 0 0029.7-59.55 374.78 374.78 0 00-501.92 504.07l-50.33-1.03z" /></svg>