<svg viewBox="0 0 1024 1024" focusable="false"><path d="M928.73 737.02a142.6 142.6 0 00-49.28 19.93 119.68 119.68 0 01-53.85 32.55 79.7 79.7 0 0125.6-47.53 177.93 177.93 0 0024.53-57.6 52.82 52.82 0 1153 52.65zm-96.6-126.46a176.94 176.94 0 00-57.43-24.75A52.82 52.82 0 11827.52 533a143.14 143.14 0 0019.71 49.41 120.37 120.37 0 0132.22 54.1 79.7 79.7 0 01-47.15-25.94h-.21zm-87-186.03C729.22 291.2 591.15 186.71 424.11 186.71c-177.97 0-322.78 118.44-322.78 264.1a246.91 246.91 0 00115.33 200.41 329.23 329.23 0 0035.2 22.61l-14.33 57.14c5.16 2.43 10.15 4.99 15.44 7.25l72.28-36.14c10.58 2.73 21.67 4.48 32.72 6.36a371.84 371.84 0 00156.25-4.35 259.14 259.14 0 0010.67 57.64A445.56 445.56 0 01424.1 773.5a438.27 438.27 0 01-90.54-9.94l-131.12 65.45a28.93 28.93 0 01-31.4-3.28 29.31 29.31 0 01-10.15-29.95l23.46-94.51a305.96 305.96 0 01-141.7-250.5C42.67 272.47 213.43 128 424.12 128c200.02 0 363.82 130.39 379.73 296.15a256.64 256.64 0 00-27.7-2.73 258.56 258.56 0 00-31 2.99v.08zM623.32 632.75a142.35 142.35 0 0049.28-19.97 119.68 119.68 0 0153.89-32.47 79.93 79.93 0 01-25.69 47.49 177.27 177.27 0 00-24.5 57.64 52.82 52.82 0 11-53.03-52.74zm95.1 127.02a176.03 176.03 0 0057.26 25 52.82 52.82 0 11-52.82 52.82 143.1 143.1 0 00-19.54-49.5 120.1 120.1 0 01-32-54.27 79.58 79.58 0 0147.1 26.24v-.3z" /></svg>