<svg viewBox="0 0 1024 1024" focusable="false"><path d="M707.23 384c-19.26-3.23-35.23 9.63-35.23 25.6C659.2 486.4 591.97 544 515.17 544c-79.97 0-147.14-57.6-156.77-134.4-3.23-16.03-19.2-28.83-35.23-25.6-15.97 3.23-28.77 19.2-25.6 35.23C313.6 527.97 406.37 608 518.4 608c112.03 0 204.8-80.03 220.83-188.83C736 403.2 723.2 387.23 707.17 384z" /><path d="M947.2 828.83l-144.03-249.6A336.59 336.59 0 00864.05 384 350.98 350.98 0 00512 32c-195.23 0-352 160-352 355.23 0 73.57 22.43 140.8 60.83 195.17L76.8 832a34.66 34.66 0 000 35.23 30.41 30.41 0 0032 12.8l118.43-22.43 38.4 112.03c3.17 12.8 15.97 19.2 28.77 22.37h3.23c12.8 0 22.37-6.4 28.77-16.03L464.03 736c15.97 3.23 31.94 3.23 47.97 3.23 16.03 0 32 0 48.03-3.23L697.6 976.03A33.59 33.59 0 00726.43 992h3.17c12.8 0 22.43-9.63 28.83-22.43l38.4-111.97 118.37 22.43c12.8 3.17 25.6-3.23 32-12.8a40.8 40.8 0 000-38.4zM303.97 883.2l-25.6-73.63c-6.4-15.97-19.2-22.37-35.17-22.37L166.4 800l96-169.63c38.4 38.4 83.2 67.23 134.4 83.26L303.97 883.2zM224 387.17c0-160 128-288 288-288s288 128 288 288-128 288-288 288S224 544 224 387.23zM780.8 787.2a29.5 29.5 0 00-35.23 22.43l-25.6 73.57-95.94-163.23c51.2-19.14 99.17-47.97 134.34-83.14l96.06 169.57-73.63-19.2z" /></svg>