<svg viewBox="0 0 1024 1024" focusable="false"><path d="M512 213.33a279.6 279.6 0 01274.39 225.5C883.46 445.57 960 525.44 960 624a186.75 186.75 0 01-186.67 186.67H288a224.17 224.17 0 01-224-224 223.79 223.79 0 01199.72-222.51A279.85 279.85 0 01512 213.33zm0 74.67c-76.93 0-146.35 42.54-181.8 110.9l-18.7 35.45-39.93 4.1a148.3 148.3 0 00-132.9 148.22C138.67 669.18 205.48 736 288 736h485.33a112.34 112.34 0 00112-112 111.27 111.27 0 00-103.8-110.5l-57.1-4.1-11.21-56.02A205.44 205.44 0 00512 288z" /><path d="M469.33 533.33H384L512 384l128 149.33h-85.33v149.34h-85.34z" /></svg>