<svg viewBox="0 0 1024 1024" focusable="false"><path d="M952.92 123.86c30.08 35.16 32.42 81.32 24.57 122.58-7.25 37.98-24.32 79.5-48 121.9a455.1 455.1 0 0111.9 32.6c73.22 227.71-48.8 470.61-272.55 542.6C549.8 981.75 426.03 964 325.16 904.7c-49.06 20.44-96.25 33.58-137.77 35.63-41.38 2.05-86.18-6.83-116.3-41.98-34.1-39.85-32.73-93.49-20.66-139.95 10.37-39.98 30.8-83.8 58.33-128.98l9.43-15.1-.17-1.2.25-.94C76 399.7 196.01 185.73 403.67 118.95a419.24 419.24 0 01281.47 8.67c48.98-20.53 98.65-35.97 142.3-40.75 40.7-4.44 92.67-1.28 125.43 37zm-82.78 141.87c-7.42 19.28-18.13 41.21-32.3 65.4-48.68 83.12-132.82 183.05-241.49 278.5S378.07 775.24 289.96 812.28a477.87 477.87 0 01-56.66 20.1 429.78 429.78 0 0077.65 63.57l14.21 8.74 2.18-.93c100.18-42.16 218.62-118.92 333.01-219.4 114.4-100.48 206.21-208.3 261.55-302.8l3.84-6.62 3.75-6.6-6.87-15.92a436.7 436.7 0 00-52.48-86.7zM161.11 739.2c-7.25 16.21-12.59 31.02-16.04 44.25-9.1 34.98-2.3 47.18 0 49.92 2.04 2.38 10.5 9.38 37.8 8.06 11.3-.56 24.4-2.56 39.12-6.1l11.35-2.95a435.16 435.16 0 01-68.48-92.58h-3.4zm676.7-553.86c-11.87 1.28-25.1 3.84-39.43 7.56a434.87 434.87 0 0171.85 72.83c5.42-14.08 9.13-26.75 11.26-37.89 5.17-27.18-.47-36.65-2.51-39h-.05c-1.02-.72-10.15-6.87-41.08-3.5z" /></svg>