<svg viewBox="0 0 1024 1024" focusable="false"><path d="M761.6 168.83a69.42 69.42 0 0069.42-69.42 69.45 69.45 0 0069.42 69.42 69.45 69.45 0 00-69.42 69.42 69.42 69.42 0 00-69.42-69.42z" /><path d="M831.02 251.93a13.65 13.65 0 01-13.68-13.62 55.8 55.8 0 00-55.74-55.8 13.71 13.71 0 010-27.36 55.74 55.74 0 0055.74-55.74 13.71 13.71 0 0127.36 0 55.8 55.8 0 0055.74 55.74 13.68 13.68 0 110 27.36 55.83 55.83 0 00-55.74 55.8c0 7.5-6.12 13.62-13.68 13.62zm-23.76-83.1a83 83 0 0123.76 23.76 83.76 83.76 0 0123.76-23.76 84.54 84.54 0 01-23.76-23.76 83.76 83.76 0 01-23.76 23.76zM290.6 943.28H141.2a27.36 27.36 0 01-27.39-27.39V361.55a27.37 27.37 0 0127.39-27.36h149.4a27.37 27.37 0 0127.36 27.36v554.34a27.36 27.36 0 01-27.36 27.39zm-122.04-54.75h94.62V388.94h-94.62v499.59z" /><path d="M670.73 929.09c-60.54 0-126.81-5.7-198.15-16.92l-145.95-18.6-43.47-11.94a27.39 27.39 0 01-18.93-33.78 27.57 27.57 0 0133.78-18.9l39.48 11.1 142.83 17.91c122.79 19.38 232.41 21.42 317.94 5.85 14.73-2.25 29.13 7.17 31.8 22.11a27.39 27.39 0 01-22.05 31.8c-41.76 7.5-87.6 11.34-137.25 11.34z" /><path d="M803.06 918.14a27.3 27.3 0 01-26.73-21.75 27.3 27.3 0 0121.18-32.4c33.72-7.05 42.75-25.95 46.26-54.15l18.6-409.59c-.06-13.92-12.33-26.16-27.42-26.16l-218.67 2.31c-7.29-1.41-14.34-2.73-19.56-7.95a27.27 27.27 0 01-8.16-19.44V238.37c-.72-28.26-9.15-48.78-25.74-61.92-22.56-17.97-56.01-19.71-77.79-18.39l-.78 36.75c-.27 9.75-.21 19.56-.21 29.34a644.7 644.7 0 01-1.26 51.63c-9.3 118.74-88.59 133.71-152.25 145.8a879.7 879.7 0 00-30.18 6.03 27.33 27.33 0 01-12.09-53.31c10.74-2.46 21.51-4.5 32.07-6.51 63.51-12 101.79-19.23 107.85-96.24 1.2-15.72 1.14-31.47 1.11-47.25 0-10.35-.06-20.64.21-30.99l1.2-60.18a27.36 27.36 0 0121.84-26.28c3.51-.81 88.2-17.79 144.27 26.73 29.73 23.55 45.33 58.65 46.47 104.19v83.67l191.34-2.04a82.26 82.26 0 0182.41 82.11l-18.78 413.04c-7.23 58.2-37.35 92.13-89.64 103.08a23.97 23.97 0 01-5.64.54z" /></svg>