<svg viewBox="0 0 1024 1024" focusable="false"><path d="M115.28 514.64h352.66a35.27 35.27 0 0135.23 35.28v352.66a35.28 35.28 0 01-35.23 35.23H115.28A35.28 35.28 0 0180 902.58V549.92a35.28 35.28 0 0135.28-35.28zm0 22.94a12.34 12.34 0 00-12.34 12.34v352.66c0 6.81 5.52 12.33 12.34 12.33h352.66a12.34 12.34 0 0012.33-12.33V549.92a12.34 12.34 0 00-12.33-12.34zm105.8-22.94h141.06v229.25H221.02zm20.34 206.3h100.32V537.58H241.42zm39.6-67v-49.3h-44.1v-21.17h44.1V519.1h21.12v64.32h54.92v21.22h-54.87v49.34h54.87v21.17h-54.87v61.73h-21.17v-61.73h-44.1v-21.12z" /><path d="M691.9 102.94L897.3 308.3v600.48H551.7v22.9h368.5V298.77L701.4 80H227.23v407.47h22.94V102.94z" /><path d="M379.76 429.1h386.88a11.47 11.47 0 100-22.9H379.76a11.47 11.47 0 100 22.9zM575.7 552.56h190.94a11.47 11.47 0 100-22.94H575.7a11.47 11.47 0 100 22.94zm0 141.07h190.94a11.47 11.47 0 000-22.94H575.7a11.47 11.47 0 000 22.94zM698.62 109.1a11.47 11.47 0 00-22.9 0v213.6h222.49a11.47 11.47 0 000-22.9H698.62z" /></svg>