<svg viewBox="0 0 1024 1024" focusable="false"><path d="M861.92 598.3a27.12 27.12 0 01-26.74 26.74h-38.06c20.64-106.03 20.02-215.9 14.78-293.09h23.28c14.5 0 26.74 12.2 26.74 26.69V598.3zM661.81 803.9c-40.66 52.41-93.46 81.02-161.28 87.36-67.92-6.34-120.67-34.95-161.28-87.36-26.16-33.7-45.27-75.03-59.47-119.71h441.45c-14.16 44.64-33.26 86.01-59.42 119.7zM165.82 625.04a27.12 27.12 0 01-26.73-26.74V358.64c0-14.5 12.29-26.69 26.73-26.69h23.24c-5.24 77.19-5.81 187.06 14.88 293.09h-38.12zm571.1 0h-472.8C242.39 522.94 242.25 412.02 248 332h504.96c5.76 80.06 5.62 191-16.03 293.09zM256.7 254c4.8-29.86 60-114.86 243.84-114.91 163.2 0 238.32 90.81 243.84 114.96.91 5.57 1.77 12 2.64 18.72H253.95c.96-6.72 1.83-13.15 2.74-18.72zm578.5 18.77h-28.61a796.7 796.7 0 00-3.84-28.23C794.34 193.18 693.34 80 500.48 80c-222.86.05-293.76 112.32-302.16 164.54-1.2 7.2-2.54 16.85-3.89 28.23h-28.65c-47.14 0-85.78 38.59-85.78 85.87V598.3c0 47.24 38.64 85.88 85.82 85.88h52.13c38.3 135.21 118.66 251.7 278.5 266.1l.29.92c1.34-.1 2.44-.34 3.79-.43 1.3.1 2.4.33 3.74.43l.24-.96c159.89-14.4 240.2-130.85 278.6-266.06h52.07c47.24 0 85.83-38.64 85.83-85.88V358.64c0-47.28-38.6-85.87-85.83-85.87z" /><path d="M602.72 472.98H394.88c-10.75 0-19.49-13.2-19.49-29.52 0-16.37 8.74-29.62 19.54-29.62h207.79c10.8 0 19.54 13.25 19.54 29.62 0 16.32-8.74 29.52-19.54 29.52" /></svg>