<svg viewBox="0 0 1024 1024" focusable="false"><path d="M706.4 411.75l44.45-52.94a28.16 28.16 0 00-1.54-37.89l-50.84-51.3a28.16 28.16 0 00-38.3-1.54l-49.66 42.5a218.78 218.78 0 00-34.82-14.85l-4.86-61.34a28.16 28.16 0 00-28.11-25.9h-71.88a28.16 28.16 0 00-28.06 25.9l-4.92 61.34a218.27 218.27 0 00-34.81 14.85l-49.67-42.5a28.16 28.16 0 00-38.3 1.54l-50.84 51.25a28.16 28.16 0 00-1.38 38.14l44.6 52.07c-4.2 8.81-7.84 17.92-10.86 27.24l-43.67 4.82a28.16 28.16 0 006.14 55.96l62.67-6.86a28.16 28.16 0 0024.42-21.81 167.27 167.27 0 0119.36-48.64 28.16 28.16 0 00-2.77-32.77l-40.19-46.85 14.08-14.23 45.1 38.7a28.16 28.16 0 0034.06 2 162.05 162.05 0 0154.78-23.55 28.16 28.16 0 0021.86-25.2l4.4-55.03h19.92l4.4 55.04a28.1 28.1 0 0021.87 25.19 163.12 163.12 0 0154.78 23.55 28.16 28.16 0 0034-2.05l45.1-38.65 14.34 14.38-40.14 47.77a28.16 28.16 0 00-2.71 32.41 164.26 164.26 0 0119 48.08 28.16 28.16 0 0024.93 21.91l73.11 6.71a28.16 28.16 0 105.12-56.06l-53.66-4.97a221.6 221.6 0 00-10.5-26.37z" /><path d="M546.82 500.53a36.92 36.92 0 01-36.61 37.22 36.92 36.92 0 01-36.61-37.22c0-20.58 16.44-37.17 36.6-37.17 20.18 0 36.62 16.59 36.62 37.17zm56.32 0a93.18 93.18 0 00-92.93-93.49 93.18 93.18 0 00-92.93 93.5 93.18 93.18 0 0092.93 93.53 93.18 93.18 0 0092.93-93.54z" /><path d="M136.24 482.97c31.24 24.37 77.57 60.21 135.22 104.5l1.64 1.28a81551.05 81551.05 0 00164.1 125.8l15.4 11.77c32.83 29.6 85.56 29.6 120.07-1.43 1.03-.67 1.03-.67 13.42-10.14a94829.36 94829.36 0 00161.07-123.29l1.54-1.18c60.67-46.59 108.6-83.55 139-107.26a28.16 28.16 0 10-34.6-44.44 24673.87 24673.87 0 01-138.7 107l-1.54 1.18A84572.88 84572.88 0 01551.88 670l-15.15 11.57c-14.85 13.21-35.07 13.21-48.23 1.44-4.5-3.59-4.5-3.59-17.1-13.21a91276.8 91276.8 0 01-164-125.7l-1.58-1.28a24772.71 24772.71 0 01-134.86-104.19 28.16 28.16 0 10-34.72 44.34z" /><path d="M82.64 393.42l404.43-315.8c14.59-13 34.81-13 47.92-1.23L941 393.42v562.54H82.6V393.42zm914.63-13.41a28.26 28.26 0 00-11.06-22.69L571.2 33.28c-33.08-29.7-85.81-29.7-120.32 1.23L37.37 357.32a28.26 28.26 0 00-11.05 22.69v604.05a28.18 28.18 0 0028.16 28.16H969.1a28.16 28.16 0 0028.16-28.16V379.9z" /></svg>