<svg viewBox="0 0 1024 1024" focusable="false"><path d="M657.92 267.95a31.57 31.57 0 0034.99-28.59 32 32 0 10-34.99 28.59zm-110.5 30.72a32 32 0 10-28.6-34.99 32 32 0 0028.6 34.99zm200.53 32a32 32 0 10-28.59-34.99 32 32 0 0028.59 34.99z" /><path d="M869.55 384a234.67 234.67 0 00-404.91-200.53l-31.15-75.95a42.67 42.67 0 00-55.89-22.19l-236.8 96.43a42.67 42.67 0 00-23.04 55.47L177.92 384h-7.25a85.33 85.33 0 00-85.34 85.33v384a85.33 85.33 0 0085.34 85.34h682.66a85.33 85.33 0 0085.34-85.34v-384A85.33 85.33 0 00869.55 384zm-384-115.63A170.67 170.67 0 01803.84 384H474.03a170.67 170.67 0 019.38-113.92zM384 151.47l40.1 98.13A236.37 236.37 0 00408.33 384H270.93l38.4-15.79a20.9 20.9 0 0011.52-26.88 21.33 21.33 0 00-27.73-11.94l-58.88 24.32-15.36-37.55 75.52-32A21.33 21.33 0 00306.35 256a21.76 21.76 0 00-28.16-11.95l-75.52 31.15-17.92-42.67zm469.33 701.86H170.67v-384h682.66z" /></svg>