<svg viewBox="0 0 1024 1024" focusable="false"><path d="M692.36 287.18V169.41c0-41.85-34.88-75.91-77.72-75.91H409.37c-42.84 0-77.72 34.06-77.72 75.91v117.77H171.22c-42.84 0-77.72 34.02-77.72 75.87v491.49c0 41.85 34.88 75.92 77.72 75.92h681.57c42.84 0 77.71-34.07 77.71-75.92V363.05c0-41.85-34.87-75.92-77.71-75.92H692.36zM394.64 166.04c0-5.94 6.75-10.98 14.71-10.98h205.3c7.96 0 14.71 5.04 14.71 10.98v121.28H394.64V166.03zm-223.43 182.7H852.8c7.96 0 14.71 6.57 14.71 14.4v123.17h-711V363.1c0-7.79 6.75-14.4 14.71-14.4zm681.58 520.2H171.22a14.71 14.71 0 01-14.72-14.4V556.1h322.92v95.85c0 19.21 16.07 34.97 35.73 34.97 19.67 0 35.73-15.75 35.73-34.92v-95.85H867.5v298.44c0 7.78-6.75 14.35-14.71 14.35z" /></svg>