<svg viewBox="0 0 1024 1024" focusable="false"><path d="M512 92c122.4 0 220 108.08 220 240 0 46.12-12 90.4-34 128.32l-6.24 10.16-3.72 5.44 1.44.8c68.44 36.8 115.04 110.48 121.68 194.48l.64 10.56.2 10.24c0 125.08-87.92 229.32-202.6 239.24l-8.64.56-8.76.2H272a60 60 0 01-59.72-54.24L212 872V152a60 60 0 0154.24-59.72L272 92h240zm79.36 480H332v240h260c52.12 0 96.6-49.08 99.8-112.6l.2-7.4c0-62-39.32-112.28-87.84-119.16l-6.12-.64-6.68-.2zm-80-360H332v240h180c52.12 0 96.6-49.08 99.8-112.6l.2-7.4c0-62-39.32-112.28-87.84-119.16l-6.12-.64-6.68-.2z" /></svg>