<svg viewBox="0 0 1024 1024" focusable="false"><path d="M685.65 278.75c70 20 135 100 27.5 208.5-98.06 98.97-128.77 148.98-129.96 150.94l-.04.06c177-3 323-89 332-94s27-26 49-3-24 61-24 61c-126.5 103.5-352 139-352 139-41.5 6.5-44-18-44-18-4.5-31.5 37-33 37-33-37-1-52-13-55-33s11-59 80-134 90-83 103-126-7.5-65.5-56-75c-44.78-8.78-91.06-8.02-91.98-8h-.01l14 28C363.3 368.98 247.49 430 245.19 431.23l-.03.02 18 36-71.63 60.6c59.4 21.62 118.48 12.72 178.32-26.96-7.49-6.25-18.18-11.73-32.36-16.46a11 11 0 116.96-20.87c39.63 13.22 60.95 34.53 60.95 63.87a11 11 0 01-22 0v-.54a31.47 31.47 0 00-1.1-7.86l.4-.26c-64.5 43-129.74 53.47-194.7 31.17l4.16 24.3s-89.88 60.5-64 96c21.07 28.92 66.63 29.5 68.44 29.5h.06c132-8 223-60 223-60s21.5-6.5 31.5 14.5-12 33-12 33c-241 137-339 35-339 35-154-172 118.5-341.5 118.5-341.5 244.5-143.5 410.2-118.22 467-102z" /></svg>