<svg viewBox="0 0 1024 1024" focusable="false"><path d="M926.36 286.95c14.18 0 25.74-12.64 25.74-28.08v-91.21c0-15.44-11.56-28.04-25.74-28.04h-828c-14.17 0-25.74 12.6-25.74 28.04v101.03c0 15.43 11.57 28.08 25.74 28.08 14.18 0 25.74 12.6 25.74 28.03 0 15.44-11.56 28.08-25.74 28.08-14.17 0-25.74 12.6-25.74 28.08v89.78c0 15.43 11.57 28.08 25.74 28.08 14.18 0 25.74 12.6 25.74 28.03 0 15.44-11.56 28.08-25.74 28.08-14.17 0-25.74 12.6-25.74 28.04v88.42c0 15.44 11.57 28.04 25.74 28.04 14.18 0 25.74 12.6 25.74 28.08 0 15.43-11.56 28.03-25.74 28.03-14.17 0-25.74 12.64-25.74 28.08v79.97c0 15.43 11.57 28.08 25.74 28.08H925.1c14.18 0 25.79-12.6 25.79-28.08v-91.17c0-15.44-11.61-28.08-25.79-28.08-14.13 0-25.74-12.6-25.74-28.08 0-15.44 11.61-28.04 25.74-28.04 14.18 0 25.79-12.6 25.79-28.08v-88.38c0-15.44-11.61-28.08-25.79-28.08-14.13 0-25.74-12.6-25.74-28.04 0-15.43 11.61-28.08 25.74-28.08 14.18 0 25.79-12.6 25.79-28.03v-88.42c0-15.44-11.61-28.04-25.79-28.04-14.13 0-25.74-12.6-25.74-28.08 0-15.44 11.61-28.04 27.05-28.04zm-25.74-51.93C870.96 246.27 849.1 277.1 849.1 315s21.87 67.36 51.52 79.97v42.12c-29.66 11.25-51.52 42.07-51.52 79.96 0 37.89 21.87 67.37 51.52 79.97v42.12c-29.66 11.2-51.52 42.07-51.52 79.96 0 37.89 21.87 67.32 51.52 79.97v39.28H124.1v-28.08c29.66-11.2 51.53-42.07 51.53-79.96 0-37.9-21.87-67.32-51.53-79.97v-42.08c29.66-11.25 51.53-42.12 51.53-80 0-37.85-21.87-67.32-51.53-79.97v-42.03c29.66-11.25 51.53-42.12 51.53-79.97 0-37.89-21.87-67.36-51.53-80v-50.54h775.22v39.28h1.3zm-578.2 488.25a24.43 24.43 0 0018 8.42 24.43 24.43 0 0018.04-8.42l343.8-374.62a28.8 28.8 0 000-39.28 23.49 23.49 0 00-36 0l-343.8 374.62a28.8 28.8 0 000 39.28zm57.96-218.88c42.48 0 78.57-37.89 78.57-85.59s-34.79-85.59-78.57-85.59-78.57 37.9-78.57 85.6 36.09 85.58 78.57 85.58zm0-113.62c14.17 0 27 12.6 27 29.48 0 16.83-11.57 29.43-27 29.43-15.44 0-27.05-12.6-27.05-29.43 0-16.88 12.87-29.48 27.05-29.48zm251.1 150.12c-42.48 0-78.57 37.89-78.57 85.59s34.78 85.59 78.56 85.59 78.57-37.89 78.57-85.59-36.09-85.59-78.57-85.59zm0 113.67c-14.18 0-27-12.64-27-29.48 0-15.43 11.56-29.47 27-29.47 14.17 0 27 12.6 27 29.47 0 16.83-12.83 29.48-27 29.48z" /></svg>