<svg viewBox="0 0 1024 1024" focusable="false"><path d="M861.87 708.27h-64V486.4c0-140.8-102.4-260.27-238.94-285.87v-25.6c0-25.6-21.33-46.93-46.93-46.93s-46.93 21.33-46.93 46.93v29.87c-136.54 21.33-238.94 140.8-238.94 285.87v221.86h-64c-17.06-4.26-34.13 12.8-34.13 29.87s17.07 34.13 34.13 34.13h704c17.07 0 34.14-17.06 34.14-34.13s-21.34-34.13-38.4-34.13zm-128 0H290.13V486.4c0-123.73 98.14-221.87 221.87-221.87s221.87 98.14 221.87 221.87v221.87zM576 853.33H452.27c-17.07 0-34.14 17.07-34.14 34.14s17.07 34.13 34.14 34.13H576c17.07 0 34.13-17.07 34.13-34.13-4.26-21.34-17.06-34.14-34.13-34.14z" /></svg>