<svg viewBox="0 0 1024 1024" focusable="false"><path d="M512 85.33c235.52 0 426.67 191.15 426.67 426.67S747.52 938.67 512 938.67 85.33 747.52 85.33 512 276.48 85.33 512 85.33zm42.67 597.34h-85.34V768h85.34v-85.33zM512 256c-94.3 0-170.67 76.37-170.67 170.67h85.34c0-46.94 38.4-85.34 85.33-85.34s85.33 38.4 85.33 85.34c0 37.54-24.74 56.49-52.48 77.74-35.32 27.09-75.52 57.9-75.52 135.59h85.34c0-46.72 30.33-73.26 61.44-100.44 32.85-28.71 66.56-58.15 66.56-112.9C682.67 332.38 606.29 256 512 256z" /></svg>