<svg viewBox="0 0 1024 1024" focusable="false"><path d="M928.61 718.01V505.38a28.21 28.21 0 00-56.43 0v151.56l-122.85-106.6a28.21 28.21 0 00-38.52 1.48l-67.72 68.13-125.69-127.3a27.99 27.99 0 00-19.98-8.41h-.05a28.21 28.21 0 00-19.98 8.32L334.7 635.21l-42.66-46.98a28.21 28.21 0 00-40.5-1.17l-92.66 90.31V191.15H450a28.17 28.17 0 100-56.39H130.72a28.21 28.21 0 00-28.22 28.17V744.2l.05.09v145.53a28.16 28.16 0 0028.21 28.17h769.82a28.13 28.13 0 0028.17-28.17V718.95c0-.31-.14-.58-.14-.9" /><path d="M724.31 155.78h-.23s-38.16-56.7-100.75-53.1c0 0-115.34-.18-115.34 139.23 0 0 0 129.74 216.1 261.9h.44c216.05-132.17 216.05-261.9 216.05-261.9 0-139.41-115.34-139.23-115.34-139.23-62.59-3.6-100.66 53.1-100.66 53.1h-.27z" /></svg>