<svg viewBox="0 0 1307 1024" focusable="false"><path d="M1258.79.87H925.36A370.12 370.12 0 00723.99 60.4l-70.92 45.65-70.93-45.65A370.12 370.12 0 00380.78.87H47.34a46.47 46.47 0 00-17.93 0 37.5 37.5 0 00-14.68 13.86A37.5 37.5 0 00.87 29.41a46.47 46.47 0 000 17.93V874a46.47 46.47 0 0046.47 46.46h333.44a377.46 377.46 0 01201.36 58.7l64.4 41.58a8.97 8.97 0 006.53 0 7.34 7.34 0 005.7 0L724 979.16a384.8 384.8 0 01201.37-59.51h333.43a46.47 46.47 0 0046.47-46.47V47.34a46.47 46.47 0 000-17.93 37.5 37.5 0 00-10.6-14.68A37.5 37.5 0 001276.73.87a46.47 46.47 0 00-17.94 0zM380.78 816.11H106.04V106.04h274.74a266.58 266.58 0 01144.3 42.4l71.73 45.65 9.79 6.52v672.57a476.1 476.1 0 00-225.82-57.07zm819.31 0H925.36a476.1 476.1 0 00-225.82 57.07V200.61l9.78-6.52 71.74-45.66a266.58 266.58 0 01144.3-42.4h274.73zm-389.68-513.6v66.04a10.6 10.6 0 0010.6 10.6h269.84a10.6 10.6 0 0010.6-10.6V302.5a10.6 10.6 0 00-10.6-10.6H821.01a10.6 10.6 0 00-10.6 10.6zm280.44 193.21H821.01a10.6 10.6 0 00-10.6 11.42v64.4a10.6 10.6 0 0010.6 10.6h269.84a10.6 10.6 0 0010.6-10.6v-65.22z" /></svg>