<svg viewBox="0 0 1024 1024" focusable="false"><path d="M505.766957 865.947826a33.391304 33.391304 0 0 1-33.391305-33.391304v-44.521739a33.391304 33.391304 0 0 1 66.782609 0v44.521739a33.391304 33.391304 0 0 1-33.391304 33.391304z"></path><path d="M899.561739 300.076522a236.410435 236.410435 0 0 0-148.702609-106.629565 164.953043 164.953043 0 0 0 23.596522-22.26087 133.565217 133.565217 0 0 0 30.497391-107.965217L795.158261 8.904348h-55.652174c-109.078261 0-179.2 36.062609-222.608696 73.015652C473.488696 44.744348 403.366957 8.904348 294.288696 8.904348h-55.652174l-10.685218 53.648695a133.565217 133.565217 0 0 0 30.497392 107.965218c7.123478 8.169739 15.026087 15.62713 23.596521 22.260869a237.968696 237.968696 0 0 0-159.165217 338.587827l179.867826 359.95826a238.413913 238.413913 0 0 0 426.518261 0l179.867826-359.95826a236.855652 236.855652 0 0 0-9.572174-231.290435z m-311.652174-116.869565l-8.45913-21.147827a181.426087 181.426087 0 0 0-17.363478-30.942608 268.688696 268.688696 0 0 1 178.086956-55.652174s16.918261 89.266087-152.932174 107.742609h0.667826zM294.288696 75.686957a268.688696 268.688696 0 0 1 178.086956 55.652173 181.426087 181.426087 0 0 0-17.363478 30.942609l-8.459131 21.147826C276.702609 164.730435 294.288696 75.686957 294.288696 75.686957z m556.521739 426.51826l-179.867826 359.958261a171.631304 171.631304 0 0 1-306.977392 0L184.097391 502.205217a171.631304 171.631304 0 0 1 152.932174-248.431304h359.958261a171.631304 171.631304 0 0 1 153.377391 248.431304h0.445218z"></path><path d="M283.158261 353.947826a33.391304 33.391304 0 0 0-33.391304 33.391304v44.52174a33.391304 33.391304 0 0 0 66.782608 0v-44.52174a33.391304 33.391304 0 0 0-33.391304-33.391304zM505.766957 353.947826a33.391304 33.391304 0 0 0-33.391305 33.391304v44.52174a33.391304 33.391304 0 0 0 66.782609 0v-44.52174a33.391304 33.391304 0 0 0-33.391304-33.391304zM728.375652 353.947826a33.391304 33.391304 0 0 0-33.391304 33.391304v44.52174a33.391304 33.391304 0 0 0 66.782609 0v-44.52174a33.391304 33.391304 0 0 0-33.391305-33.391304zM394.462609 554.295652a33.391304 33.391304 0 0 0-33.391305 33.391305v44.521739a33.391304 33.391304 0 0 0 66.782609 0v-44.521739a33.391304 33.391304 0 0 0-33.391304-33.391305zM617.071304 554.295652a33.391304 33.391304 0 0 0-33.391304 33.391305v44.521739a33.391304 33.391304 0 0 0 66.782609 0v-44.521739a33.391304 33.391304 0 0 0-33.391305-33.391305z"></path></svg>
