<svg viewBox="0 0 1024 1024" focusable="false"><path d="M891.3 85.33H132.7a47.36 47.36 0 00-47.37 47.36v758.62a47.36 47.36 0 0047.36 47.36h758.62a47.36 47.36 0 0047.36-47.36V132.69a47.36 47.36 0 00-47.36-47.36zm-19.2 786.78H151.9V151.89h720.2z" /><path d="M479.57 599.47H328.96v-66.99h135.68v-47.79H328.96v-58.02h144.21v-49.92h-198.4v270.5h204.8zm-20.9-108.8zM280.75 640V384zm192.85-36.27zm103.25-134.4l122.03 178.35h50.35V376.75H694.6v177.92L573.87 376.75h-51.2v270.5h54.18zM528.64 384v256-256h42.67l128 186.45V384v186.45L570.88 384z" /></svg>