<svg viewBox="0 0 1024 1024" focusable="false"><path d="M952.92 123.86c30.08 35.16 32.42 81.32 24.57 122.58-7.25 37.98-24.32 79.36-47.87 121.69a453.34 453.34 0 0111.95 32.8c73.26 227.72-48.77 470.62-272.56 542.6-119.04 38.27-242.86 20.48-343.72-38.91-49.1 20.48-96.34 33.7-137.9 35.71-41.38 2.05-86.18-6.83-116.3-41.98-34.1-39.85-32.73-93.49-20.66-139.95 11.6-44.67 35.76-94.17 68.31-144.94-43.1-212.82 77.1-427.6 285.1-494.5a419.24 419.24 0 01281.43 8.61c48.94-20.48 98.56-35.92 142.16-40.7 40.7-4.44 92.68-1.28 125.44 37zm-94.08 350.76c-52.65 68.95-120.32 141.1-198.49 209.75-74.84 65.71-151.38 121.3-223.4 163.67a321.28 321.28 0 00201.94 1.75c156.59-50.34 249.98-211.67 219.95-375.17zm-696.1 260.95c-8.12 17.62-14 33.71-17.72 47.92-9.08 34.98-2.34 47.19 0 49.92 2.05 2.39 10.5 9.38 37.8 8.06 14.17-.72 31.15-3.62 50.6-9.09a435.2 435.2 0 01-70.69-96.76zM434 212.7c-170.5 54.83-266.07 241.24-209.03 418.73a338 338 0 00109.53 160.3c79.14-39.9 170.8-102.1 261.84-182.06 94.98-83.4 171.18-170.24 221.44-246.31-77.4-133-236.54-198.02-383.78-150.66zm403.75-27.3c-11.82 1.28-25 3.84-39.25 7.5a433.07 433.07 0 0171.68 72.71 221.44 221.44 0 0011.26-37.72c5.16-27.18-.47-36.65-2.52-39-1.02-.72-10.15-6.86-41.08-3.5z" /></svg>