<svg viewBox="0 0 1024 1024" focusable="false"><path d="M910.52 84.5H113.57a29.02 29.02 0 00-29.07 28.93v797.13a29 29 0 0029.07 28.94h796.95a28.93 28.93 0 0028.98-28.93V113.43a28.8 28.8 0 00-28.98-28.93zm-28.93 271.35v525.74H142.46V355.85h739.13zm0-213.53v155.7H142.46v-155.7h739.13zM261.93 502.64h250.2a28.93 28.93 0 000-57.87h-250.2a28.98 28.98 0 100 57.87zm0 115.97h250.2a28.93 28.93 0 000-57.83h-250.2a28.98 28.98 0 000 57.83zm0 116.05h250.2a28.98 28.98 0 000-57.91h-250.2a28.98 28.98 0 100 57.91zm341.69 0h158.62a28.92 28.92 0 0028.94-28.98V473.71a28.89 28.89 0 00-28.94-28.94H603.62a28.93 28.93 0 00-28.94 28.93V705.6a28.93 28.93 0 0028.94 29.07zm28.89-58V502.64h100.8v174.01h-100.8z" /></svg>