<svg viewBox="0 0 1024 1024" focusable="false"><path d="M341.33 298.67a128 128 0 01128-128h85.34a128 128 0 01128 128v92.67a33.7 33.7 0 002.73 14.08c1.36 2.94 2.81 4.14 3.92 4.73l2.3 1.28c9.74 5.42 23.35 13.02 39.05 27.01a282.84 282.84 0 0172.1 99.42c17.5 41.17 4.19 80.64-21.76 106.53-24.66 24.67-60.84 38.28-97.75 38.28h-128.6V832a42.67 42.67 0 01-85.33 0V682.67h-128.6c-36.9 0-73.08-13.66-97.74-38.27-25.94-25.95-39.26-65.37-21.76-106.5a282.84 282.84 0 0172.1-99.41c15.7-14.08 29.31-21.64 39.04-27.05l2.3-1.28c1.16-.6 2.57-1.8 3.93-4.7a33.66 33.66 0 002.73-14.16v-92.63zm341.93 298.66c17.16 0 30.68-6.53 37.42-13.3a15.36 15.36 0 004.48-6.92c.22-.9.43-2.56-.9-5.72a197.59 197.59 0 00-50.34-69.25c-8.53-7.6-14.93-11.18-24.36-16.42l-1.92-1.11c-37.93-21.2-50.3-61.44-50.3-93.27v-92.67A42.67 42.67 0 00554.66 256h-85.34a42.67 42.67 0 00-42.66 42.67v92.67c0 31.87-12.38 72.1-50.3 93.27l-1.93 1.1c-9.38 5.26-15.78 8.84-24.32 16.43a197.59 197.59 0 00-50.34 69.25c-1.41 3.16-1.16 4.82-.94 5.72.3 1.28 1.28 3.75 4.48 6.91 6.74 6.79 20.3 13.31 37.42 13.31h342.52z" /></svg>