<svg viewBox="0 0 1024 1024" focusable="false"><path d="M440.45 80.51a91.05 91.05 0 01118.87-37.59l6.06 3.2L918.87 250.2a91.05 91.05 0 0137.84 115.33l-2.98 6.27L665.3 913.66a91 91 0 01-73.17 48l-7.17.3h-229a45.31 45.31 0 01-10.23 2.43l-5.38.35H95.23a45.52 45.52 0 01-4.99-90.76l5-.3h139.08l-88.19-190.16a91.05 91.05 0 01-.42-75.65l3.58-7.08L440.45 80.56zm79.4 44.46L228.7 645.21l104.7 225.7h251.57l288.38-541.86-353.49-204.08z" /><path d="M592.68 305.75a45.52 45.52 0 10-45.48 78.8l91 52.57a45.52 45.52 0 1045.5-78.85l-91.02-52.52z" /></svg>