<svg viewBox="0 0 1024 1024" focusable="false"><path d="M86.49 213.55a128 128 0 01128-128h469.33a128 128 0 01128 128V384.2a42.67 42.67 0 11-85.33 0V213.55a42.67 42.67 0 00-42.67-42.67H214.49a42.67 42.67 0 00-42.67 42.67v597.33a42.67 42.67 0 0042.67 42.67h248.1a42.67 42.67 0 010 85.33H214.5a128 128 0 01-128-128V213.55z" /><path d="M257.15 298.88a42.67 42.67 0 0142.67-42.67h256a42.67 42.67 0 110 85.34h-256a42.67 42.67 0 01-42.67-42.67zm0 170.67a42.67 42.67 0 0142.67-42.67h170.67a42.67 42.67 0 110 85.33H299.82a42.67 42.67 0 01-42.67-42.66zm0 170.66a42.67 42.67 0 0142.67-42.66h85.33a42.67 42.67 0 110 85.33h-85.33a42.67 42.67 0 01-42.67-42.67zm506.37-175.66l-4.78-2.38a42.67 42.67 0 00-53.5 18L554.4 741.47l-2.52 5.03a42.67 42.67 0 00-1.75 27.3l33.11 123.65 1.58 4.74a42.67 42.67 0 0050.69 25.43l123.65-33.11 5.29-1.84a42.67 42.67 0 0020.6-18.05l150.88-261.29 2.34-4.78a42.67 42.67 0 00-18-53.5l-156.76-90.5zM637.14 768.77L757.8 559.79l82.86 47.83L720 816.68l-65.37 17.5-17.49-65.37z" /></svg>