<svg viewBox="0 0 1024 1024" focusable="false"><path d="M788.7 905.22H228.02a112.1 112.1 0 01-112.07-112.18V512.8h56.07V157.81a56.13 56.13 0 0156.11-56.07h560.59a56.1 56.1 0 0156.07 56.07v355h56.1v280.34a112.25 112.25 0 01-112.17 112.07zm0-747.4H228.02V512.8h168.17v112.18h224.28V512.84H788.6V157.85h.1zm55.97 411.05h-168.1v56.1a56.1 56.1 0 01-56.07 56.08H396.22a56.1 56.1 0 01-56.07-56.07V568.9h-168.2v224.28A56.12 56.12 0 00228 849.26h560.63a56.1 56.1 0 0056.07-56.07V568.9z" /><path d="M676.75 305.16h-336.3a27.96 27.96 0 110-56h336.3a27.96 27.96 0 110 56zM480.62 436.12H340.44a27.96 27.96 0 110-56h140.18a27.96 27.96 0 110 56z" /></svg>