<svg viewBox="0 0 1024 1024" focusable="false"><path d="M805.031447 111.631027a319.060797 319.060797 0 0 0-203.243606 69.501048 180.327044 180.327044 0 0 1 58.901467-111.362683 41.163941 41.163941 0 0 0 0-57.69392 40.036897 40.036897 0 0 0-56.915723 0 256.295178 256.295178 0 0 0-82.837736 173.886792A318.389937 318.389937 0 0 0 322.012579 111.631027c-183.574004 0-322.012579 206.08805-322.012579 469.06499 0 258.683438 147.347589 443.035639 335.429769 443.035639a678.534172 678.534172 0 0 0 161.945493-35.15304c22.594549-6.440252 52.595388-15.027254 66.146751-17.979035 13.417191 2.951782 43.552201 11.538784 66.14675 17.979035a678.426834 678.426834 0 0 0 161.945493 35.15304c188.08218 0 335.429769-184.352201 335.429769-443.035639 0-262.976939-138.438574-469.06499-322.012578-469.06499z m-13.417191 831.597485c-51.387841 0-197.393711-53.400419-228.092243-53.40042s-176.704403 53.400419-228.092244 53.40042c-140.8 0-254.926625-152.687631-254.926624-362.532495S181.212579 192.134172 322.012579 192.134172c147.589099 0 187.840671 107.337526 241.509434 107.337526s67.085954-107.337526 241.509434-107.337526c140.8 0 241.509434 178.716981 241.509434 388.561845s-114.126625 362.532495-254.926625 362.532495zM778.197065 295.714885a40.654088 40.654088 0 0 0 0 81.308176c3.837317 0 93.920335 1.878407 93.920335 149.467505a40.251572 40.251572 0 1 0 80.503145 0c0-182.473795-114.09979-230.775681-174.42348-230.775681z"></path></svg>
