<svg viewBox="0 0 1024 1024" focusable="false"><path d="M311.66 474.29a35.82 35.82 0 100 71.55 35.82 35.82 0 000-71.6" /><path d="M922.76 349.95c-6.75-63.9-43.88-143.41-111.6-177.2-57.33-28.8-119.16-22.1-173.75-16.2l-19.12 2.02c-73.62 7.38-116.91-14.31-188.46-50.31a2415.98 2415.98 0 00-37.22-18.5c-72.99-35.55-148.99-36.99-208.53-4.14-52.87 29.21-87.07 81.77-93.87 144.23-6.07 55.8 11.08 103.68 49.6 138.33 14.26 12.87 31.23 22.95 49.32 31.45l-14.63 95.81-14.85 39.55-59.17 114.3a29.2 29.2 0 009.58 37.71l61.56 41.67 2.07 94.05c0 100.08 60.16 130.68 110.66 138.74a27.27 27.27 0 007.96.18l145.75-16.7a29.34 29.34 0 0025.79-32.4 29.3 29.3 0 00-32.4-25.69l-141.61 16.2c-40.95-7.7-57.65-31.23-57.65-81l-2.38-109.8a29.39 29.39 0 00-12.87-23.54l-52.65-35.59 48.73-94.28 17.28-45.63a27.45 27.45 0 001.53-5.94l13.46-88.06c56.56 13.63 118.08 14.08 166.27 7.65 6.21 38.2 18.81 71.46 37.49 99 6.97 10.35 44.19 61.83 92.11 64.44 14.58.4 36.45-2.92 55.22-24.98 5.67-6.61 16.74-8.1 22.72-3.06 6.7 5.67 3.96 19.44 2.07 26.51-12.06 45.67-18 44.23-26.82 41.8a29.7 29.7 0 00-32.49 13.5 29.61 29.61 0 004 35.1c1.58 1.71 37.99 41.31 30.97 124.43-3.6 42.52 16.6 75.73 55.35 91.03 15.25 6.03 32.49 8.87 50.53 8.87 53.78 0 114.17-25.02 145.8-64.98 51.62-65.25 73.89-173.25 77.54-252.68 3.96-85.09 5.71-143.46-3.29-235.89" /></svg>