<svg viewBox="0 0 1024 1024" focusable="false"><path d="M149.53 97.75a51.78 51.78 0 0151.78 51.78v392.81l15.17-15.17a51.78 51.78 0 0173.22 73.22L186.14 703.95a51.78 51.78 0 01-88.4-36.6V149.52a51.78 51.78 0 0151.79-51.78zm643.64 0H439a82.33 82.33 0 00-82.33 82.33v34.28a48.05 48.05 0 0048.05 48.05h13.77a34.28 34.28 0 0034.28-34.28 34.32 34.32 0 0134.28-34.28h26.62a60.95 60.95 0 0160.94 60.95v303.34a35.52 35.52 0 01-35.52 35.47 35.52 35.52 0 00-35.52 35.52v12.53a48.05 48.05 0 0048.05 48.05h142.66a48.05 48.05 0 0048.05-48.05v-12.22a35.83 35.83 0 00-35.78-35.83 35.83 35.83 0 01-35.83-35.78V255.06a61.23 61.23 0 0161.2-61.2h26.93a34.33 34.33 0 0134.33 34.27 34.25 34.25 0 0034.28 34.28h13.78a48.05 48.05 0 0048.05-48.05v-34.28a82.33 82.33 0 00-82.33-82.33h-13.78zm8.08 724.94H253.1a51.78 51.78 0 100 103.56h673.16a51.78 51.78 0 0036.61-88.39L859.3 734.3a51.78 51.78 0 00-73.22 73.22l15.17 15.17z" /></svg>