<svg viewBox="0 0 1024 1024" focusable="false"><path d="M482.22 355.7a166.68 166.68 0 00-166.65-166.73h-65.13v520.05h231.73V355.7zM193.78 765.72v-633.4h121.8A223.38 223.38 0 01538.91 355.7v410.02h-345.1z" /><path d="M874.85 857.18H589a50.08 50.08 0 01-50.07-50.08h-56.7a106.73 106.73 0 00106.77 106.74h342.56V316.5H822.88v56.7h51.97v484.02z" /><path d="M146.78 373.2h62.74v-56.74H90.12v597.38H432.7A106.73 106.73 0 00539.42 807.1l-.55-62.44-56.65.51.54 62.14c0 27.42-22.44 49.78-50.11 49.78H146.78V373.2z" /><path d="M482.22 765.72V324.9A192.59 192.59 0 01674.84 132.3h161.92v633.4H482.22zm297.84-56.7V188.97H674.84A135.93 135.93 0 00538.92 324.9v384.12h241.14z" /></svg>