<svg viewBox="0 0 1024 1024" focusable="false"><path d="M670.14 243.52a42.69 42.69 0 01-60.28 0l-55.17-55.17v408.96a42.69 42.69 0 01-85.38 0V188.35l-55.17 55.17a42.69 42.69 0 01-60.28-60.35l128-128a42.64 42.64 0 0160.28 0l128 128a42.72 42.72 0 010 60.35zm-547.26 92.6a128 128 0 0190.5-37.43h128a42.69 42.69 0 010 85.31h-128a42.69 42.69 0 00-42.63 42.69v384a42.69 42.69 0 0042.63 42.62h597.37a42.69 42.69 0 0042.63-42.62v-384a42.69 42.69 0 00-42.7-42.69h-128a42.69 42.69 0 110-85.31h128a128 128 0 01128 128v384a128 128 0 01-128 128H213.32a128 128 0 01-128-128v-384a128 128 0 0137.5-90.56z" /></svg>