<svg viewBox="0 0 1024 1024" focusable="false"><path d="M485.63 707a54.84 54.84 0 0135.86-13.34h317.8c10.34 0 20.34-10.72 20.34-25.82V186.27c0-15.1-10-25.82-20.34-25.82H184.96c-10.33 0-20.33 10.72-20.33 25.82v481.57c0 15.1 10 25.82 20.33 25.82H324.9a54.84 54.84 0 0154.84 54.84v122.35l-35.86 30.96-18.98-8.73v-47.33l160.73-138.8zm-300.67 41.5c-41.51 0-75.18-36.1-75.18-80.66V186.27c0-44.55 33.67-80.66 75.18-80.66H839.3c41.51 0 75.18 36.11 75.18 80.66v481.57c0 44.55-33.67 80.66-75.18 80.66H521.5L324.9 918.22V748.5H184.97z" /><path d="M481.25 583.5v-59.86H402.1v-46.23h79.15v-27H402.1v-47.34h56.95l-64.63-136.01h64.63l53.08 119.64 53.07-119.64h64.67l-64.71 136.01h56.9v47.25h-79.1v27h79.1v46.32h-79.1v59.87h-30.88z" /></svg>