<svg viewBox="0 0 1024 1024" focusable="false"><path d="M478.07 579.27v201.78c0 28.04-9.9 51.84-29.7 71.46a98.55 98.55 0 01-72.05 29.43H172.8a98.55 98.55 0 01-72.09-29.43A96.89 96.89 0 0171 781.1V411.2c0-36.45 7.16-71.23 21.46-104.31a270.94 270.94 0 0158.06-85.95 273.6 273.6 0 0186.66-57.51 266.31 266.31 0 01105.17-21.33h33.93c9.18 0 17.1 3.33 23.85 9.99 6.7 6.66 10.04 14.54 10.04 23.63v67.27a32.17 32.17 0 01-10.04 23.63 32.76 32.76 0 01-23.85 9.99h-33.93c-37.48 0-69.44 13.14-95.94 39.42a129.06 129.06 0 00-39.78 95.13v16.78c0 14.04 4.95 25.92 14.85 35.73 9.9 9.81 21.92 14.72 36.05 14.72h118.75a98.55 98.55 0 0172.09 29.43c19.8 19.62 29.7 43.42 29.7 71.46zm474.93 0v201.78c0 28.04-9.9 51.84-29.7 71.46a98.55 98.55 0 01-72.09 29.43H647.67a98.55 98.55 0 01-72.09-29.43 96.89 96.89 0 01-29.7-71.45v-369.9c0-36.46 7.2-71.24 21.51-104.32a270.94 270.94 0 0158.05-85.95 273.6 273.6 0 0186.67-57.5 266.31 266.31 0 01105.21-21.29h33.89c9.22 0 17.14 3.33 23.85 9.99 6.75 6.66 10.08 14.54 10.08 23.63v67.27a32.17 32.17 0 01-10.04 23.63 32.76 32.76 0 01-23.85 9.99h-33.93c-37.48 0-69.43 13.14-95.94 39.42a129.06 129.06 0 00-39.78 95.13v16.78c0 14.04 4.95 25.92 14.85 35.73 9.9 9.81 21.92 14.72 36.05 14.72h118.71a98.55 98.55 0 0172.09 29.43c19.8 19.62 29.7 43.42 29.7 71.46z" /></svg>