<svg viewBox="0 0 1024 1024" focusable="false"><path d="M778.54 913.62H251.9a33.02 33.02 0 01-33.03-32.98v-744a33.04 33.04 0 0133.03-32.98h526.65a33.01 33.01 0 0133.03 32.98v744a33.01 33.01 0 01-33.03 32.98zm81.03-776.93c0-44.69-36.29-80.98-81.03-80.98H251.9c-44.74 0-81.03 36.29-81.03 80.98v743.95c0 44.69 36.3 80.98 81.03 80.98h526.65c44.74 0 81.03-36.3 81.03-80.98v-744z" /><path d="M515.22 873.44a31.2 31.2 0 110-62.4 31.2 31.2 0 010 62.4zm.62-579.36H355.86l1.2 16.9 15.7 175.68H593.6l-8.02 82.27-70.84 19.1-71.04-19.1-4.47-50.74h-63.07l7.82 100.32 130.76 36h1.1l129.5-36 1.16-11.28 14.64-167.85 2.2-16.85H431.36l-5.62-65.38h243.22l1.1-13.44 3.46-32.73 1.1-16.9z" /></svg>