<svg viewBox="0 0 1024 1024" focusable="false"><path d="M967.04 511.52c0 82.66-20.35 158.88-61.06 228.67A453.46 453.46 0 01740.2 906c-69.79 40.7-146.01 61.1-228.67 61.1-82.6 0-158.88-20.4-228.62-61.1a453.46 453.46 0 01-165.8-165.8C76.35 670.4 56 594.18 56 511.52c0-82.6 20.35-158.88 61.1-228.62a453.5 453.5 0 01165.8-165.8C352.64 76.35 428.9 56 511.52 56c82.66 0 158.88 20.35 228.67 61.1 69.8 40.7 125.04 96 165.8 165.8 40.7 69.79 61.05 146.01 61.05 228.62zm-66.43-4.13c-1.15-91.73-30.63-172.8-88.32-243.21l-.63.62a523.9 523.9 0 01-11.28 14.5 340.7 340.7 0 01-25.77 26.4 490 490 0 01-42.15 35.9c-14.83 11.28-34.56 24.1-59.32 38.54a605.17 605.17 0 01-77.96 38.26 3715.14 3715.14 0 0126.07 56.35c.81 2.4 2.06 5.86 3.84 10.37 1.82 4.56 3.31 7.82 4.46 9.8 14.26-1.93 29-3.37 44.16-4.14a841.1 841.1 0 0184.58-.28 977.28 977.28 0 0199.93 9.45l21.65 3.55c5.95 1.01 10.9 1.92 14.83 2.7l5.9 1.2zM768.37 219.68c-73.15-64.85-158.79-97.3-256.8-97.3-30.1 0-60.72 3.75-91.97 11.28 51.84 67.2 100.42 142.76 145.92 226.56a550.9 550.9 0 0077.09-35.85c24.14-13.68 43.2-25.83 57.26-36.48a381.12 381.12 0 0038.83-33.84c11.86-11.86 19.3-19.87 22.23-24l7.44-10.37zM421.7 133.71c-1.49 0-2.97.72-4.51 2.21 1.54-1.44 3.02-2.2 4.51-2.2zm474.2 439.49c-83.05-23.71-163.93-29.42-242.6-17.18a1670.74 1670.74 0 0175.89 278.2 388.66 388.66 0 00109.73-112.41A383.52 383.52 0 00895.9 573.2zM490.15 383.98c-47.42-84.14-95.66-158.92-144.72-224.16a383.9 383.9 0 00-138.72 110.26 384.43 384.43 0 00-75.94 161.33c119.43 0 239.24-15.84 359.43-47.47zm63.5 125.76c-8.3-19.34-18.81-41.28-31.44-65.8-123.02 36.76-256.03 55.1-399.21 55.1a95.95 95.95 0 00-.58 12.48c0 48.96 8.69 95.76 26.11 140.26a389.42 389.42 0 0073.54 119.52c19.78-35.24 44.16-68.16 73.25-98.79 29.09-30.62 57.26-55.25 84.53-73.82 27.26-18.58 53.08-34.61 77.42-48.05 24.29-13.44 43.97-22.94 59-28.46l21.93-7.73 7.68-2.07a46.94 46.94 0 007.77-2.68zm109.73 360c-16.6-95.23-44.3-193.72-83.04-295.34h-1.2l-1.2.58-25.49 9.79c-10.7 4.17-30.67 13.87-59.9 29.09a760.74 760.74 0 00-81.26 48.62c-24.96 17.18-50.84 39.84-77.72 67.92-26.88 28.08-47.23 57.36-61.1 87.8l-8.88-6.54c72.77 59.33 155.42 89 247.92 89a389 389 0 00151.87-30.87z" /></svg>