<svg viewBox="0 0 1024 1024" focusable="false"><path d="M505.6 673.7A160.85 160.85 0 10345.17 512 160.85 160.85 0 00505.6 673.7zM416.85 512a89.17 89.17 0 1188.75 89.17A88.75 88.75 0 01416.85 512z" /><path d="M889.6 439.9a85.33 85.33 0 0017.5-85.34v-4.7a567.04 567.04 0 00-55.9-99.83 82.77 82.77 0 00-83.2-30.3 105.81 105.81 0 01-77.65-11.94A104.53 104.53 0 01640 146.77a85.33 85.33 0 00-68.27-58.02 483.41 483.41 0 00-116.48 0 85.33 85.33 0 00-67.84 58.02 109.23 109.23 0 01-49.06 61.02 107.1 107.1 0 01-78.08 11.94 85.33 85.33 0 00-85.34 29.44 396.8 396.8 0 00-57.17 101.55 85.33 85.33 0 0016.64 85.33 110.08 110.08 0 010 146.35 85.33 85.33 0 00-16.64 87.47 433.92 433.92 0 0058.03 100.69 85.33 85.33 0 0082.77 29.87 107.52 107.52 0 01128 72.96H384a85.33 85.33 0 0067.84 58.02 381.44 381.44 0 0060.16 7.26c18.35 0 37.97 0 58.45-2.99A85.33 85.33 0 00640 877.65a109.65 109.65 0 0149.5-61.01 108.37 108.37 0 0177.65-12.37 85.33 85.33 0 0082.77-29.44 395.52 395.52 0 0058.03-100.27 85.33 85.33 0 00-16.64-85.33 110.08 110.08 0 01-1.71-149.34zM186.45 634.44a180.48 180.48 0 000-243.2 11.95 11.95 0 010-12.37 370.77 370.77 0 0146.94-80.21 11.1 11.1 0 0111.09-3.42 181.33 181.33 0 00128-19.2 170.67 170.67 0 0083.2-105.38c0-3.84 3.84-5.98 8.53-7.26a338.35 338.35 0 0195.15 0h2.56a8.1 8.1 0 017.68 6.83 170.67 170.67 0 0081.5 102.83 183.04 183.04 0 00128 19.2 8.96 8.96 0 0110.23 2.56 350.72 350.72 0 0149.07 82.34 12.8 12.8 0 01-2.13 12.8 180.48 180.48 0 000 242.78 7.25 7.25 0 012.56 5.97 13.65 13.65 0 010 5.97 373.33 373.33 0 01-49.07 82.78 11.52 11.52 0 01-10.24 3.41 179.63 179.63 0 00-128 19.2 170.67 170.67 0 00-83.2 103.25c0 3.84-3.84 5.98-8.53 7.26h-5.12c-15.36 0-29.44 2.56-45.23 2.56s-32.43 0-47.36-2.99a10.67 10.67 0 01-8.96-7.68 183.04 183.04 0 00-170.67-128 162.13 162.13 0 00-37.97 4.27 19.2 19.2 0 01-6.83 0 8.1 8.1 0 01-4.69-3.42 359.25 359.25 0 01-47.79-82.77 10.67 10.67 0 011.28-8.1z" /></svg>