<svg viewBox="0 0 1024 1024" focusable="false"><path d="M756.57 134.7a30.08 30.08 0 00-26.63-29.44L607.06 85.63C523.01 72.75 445.01 66.3 373.63 66.3c-58.5 0-49.88 4.36-100 13.1-62.73 12.76-98.74 52.1-107.36 119.77L111.5 566.06c0 52.86 44.46 96 99.5 96 66.56 0 97.83.85 164.35.85 15.1 0 41.21-7.08 43.48 13.87.8 7.17 0 15.91-.26 23.17-2.56 51.67-15.79 125.9 14.68 169.9C458.92 907 505.86 925.65 551.3 919a37.67 37.67 0 0031.83-36.48l1.32-64.98c1.24-45.96-3.37-88.37 22.18-128.99 23.81-37.88 76.5-69.37 118.15-76.24a37.5 37.5 0 0031.74-36.7V134.7h.05zm74.7 487.25h72.28c9.56 0 17.28-10.37 17.28-22.95V120.2c0-12.77-7.72-23.05-17.28-23.05h-72.28c-9.55 0-17.28 10.28-17.28 23.04V599c0 12.6 7.73 22.96 17.28 22.96" /></svg>