<svg viewBox="0 0 1024 1024" focusable="false"><path d="M647.34 128a85.33 85.33 0 0160.33 25L871 316.33a85.33 85.33 0 0125 60.33v434A85.33 85.33 0 01810.67 896H213.33A85.33 85.33 0 01128 810.67V213.33A85.33 85.33 0 01213.33 128h434zm-348.67 85.33h-85.34v597.34h597.34v-434l-128-128v92.66a85.33 85.33 0 01-85.34 85.34H384a85.33 85.33 0 01-85.33-85.34v-128zm213.33 256a128 128 0 110 256 128 128 0 010-256zm0 85.34a42.67 42.67 0 100 85.33 42.67 42.67 0 000-85.33zm85.33-341.34H384v128h213.33v-128z" /></svg>