<svg viewBox="0 0 1024 1024" focusable="false"><path d="M135.57 720.35v61.48c-.33 13.95 3.15 52.48 22.84 72.73 9.34 9.57 21.66 14.18 37.75 14.18h535.78c-15.25-28.3-20.59-61.82-20.59-86.9v-61.49H135.57zm71.61-56.7H768v118.13c0 3.54.68 85.95 54.85 87.01l5.73-.05c53.67-1.02 54.34-83.42 54.34-86.9v-608.3H208.14l-.96 490.11zm616.73 261.79H196.16c-31.4 0-58.56-10.92-78.58-31.62C77.8 852.77 78.7 788.2 78.93 780.94V663.65h71.6l1.08-546.8H939.5v664.98c0 52.48-23.23 141.92-110.42 143.55l-5.23.06z" /><path d="M844.77 585.4h-178.2v-56.75h82.75l-42.41-77.63 49.78-27.16zM455.13 422h56.65c0 18.11 13.95 32.29 31.66 32.29a31.56 31.56 0 0031.67-32.23 31.73 31.73 0 00-31.67-31.73V333.7a88.7 88.7 0 010 177.3c-48.7 0-88.3-39.94-88.3-88.93zm-20.7-1.35h-175.5V336.5h56.59v27.4h62.27v-63.4h-31.17v-56.7h87.81z" /></svg>