<svg viewBox="0 0 1024 1024" focusable="false"><path d="M42.67 170.67A42.67 42.67 0 0185.33 128h256a213.33 213.33 0 01213.34 213.33v597.34a42.67 42.67 0 11-85.34 0A85.33 85.33 0 00384 853.33H85.33a42.67 42.67 0 01-42.66-42.66v-640zm426.66 620.2V341.33a128 128 0 00-128-128H128V768h256a170.67 170.67 0 0185.33 22.87z" /><path d="M531.8 190.46A213.33 213.33 0 01682.67 128h256a42.67 42.67 0 0142.66 42.67v640a42.67 42.67 0 01-42.66 42.66H640a85.33 85.33 0 00-85.33 85.34 42.67 42.67 0 11-85.34 0V341.33a213.33 213.33 0 0162.47-150.87zm22.87 600.4A170.67 170.67 0 01640 768h256V213.33H682.67a128 128 0 00-128 128v449.54z" /></svg>