<svg viewBox="0 0 1024 1024" focusable="false"><path d="M480.43 157.48A51.2 51.2 0 01512 204.8v614.4a51.2 51.2 0 01-87.38 36.18L234.79 665.6H102.4a51.2 51.2 0 01-51.2-51.2V409.6a51.2 51.2 0 0151.2-51.2h132.4l189.82-189.78a51.2 51.2 0 0155.8-11.1zm270-7.5a51.2 51.2 0 0172.4 0A510.6 510.6 0 01972.8 512a510.46 510.46 0 01-149.97 362.03 51.2 51.2 0 01-72.4-72.4A408.1 408.1 0 00870.4 512a408.1 408.1 0 00-119.98-289.62 51.2 51.2 0 010-72.4zM605.6 294.73a51.16 51.16 0 0172.45 0A306.35 306.35 0 01768 512a306.35 306.35 0 01-89.94 217.26 51.2 51.2 0 11-72.45-72.45A203.99 203.99 0 00665.6 512a203.95 203.95 0 00-59.99-144.81 51.2 51.2 0 010-72.45z" /></svg>