<svg viewBox="0 0 1024 1024" focusable="false"><path d="M318 217.3a27.3 27.3 0 00-19.33-46.63 128 128 0 00-128 128c0 24.32 29.44 36.52 46.63 19.32L318 217.3zM170.66 520.62c0-12.8 5.07-25 14.08-34.05l301.82-301.82a48.3 48.3 0 0134.05-14.08c42.84 0 64.34 51.84 34 82.13L252.8 554.62c-30.3 30.3-82.13 8.84-82.13-34zm38.82 213.42c-19.7 19.7-27.82 50.26-10.24 71.9 20.06 24.74 56.32 18.08 78.85-4.45L801.5 278.1c22.52-22.53 29.18-58.8 4.43-78.89-21.63-17.5-52.18-9.43-71.9 10.24L209.5 734.08zm643.84-255.58c0-42.83-51.84-64.3-82.13-34L444.46 771.2c-30.3 30.3-8.83 82.13 34.05 82.13a48.2 48.2 0 0034-14.08l326.74-326.74a48.2 48.2 0 0014.08-34zm0 246.87c0-33.53-40.53-50.34-64.21-26.58l-90.41 90.37c-23.64 23.68-6.87 64.21 26.62 64.21a128 128 0 00128-128z" /></svg>