<svg viewBox="0 0 1024 1024" focusable="false"><path d="M549.72 243.63a128 128 0 01180.99 0l60.37 60.33a128 128 0 010 180.99l-65.53 65.53c-4.27 4.27-6.83 8.54-8.02 11.9-1.11 3.04-.94 4.87-.6 6.11l.72 2.56c3.08 10.71 7.34 25.69 8.54 46.72a282.8 282.8 0 01-19.37 121.26c-16.64 41.47-53.98 59.95-90.67 59.95-34.9 0-70.1-16-96.21-42.07l-90.88-90.93-105.6 105.6a42.67 42.67 0 01-60.38-60.37l105.6-105.56-90.88-90.92c-26.1-26.11-42.1-61.35-42.1-96.21 0-36.7 18.47-74.03 59.94-90.67a282.88 282.88 0 01121.26-19.37c21.03 1.2 36 5.46 46.76 8.53l2.52.73c1.23.34 3.07.51 6.14-.56a33.66 33.66 0 0011.86-8.1l65.54-65.5zm30.59 452.95c12.12 12.11 26.33 17.06 35.84 17.06a15.36 15.36 0 008.1-1.7c.77-.52 2.14-1.54 3.42-4.7a197.5 197.5 0 0013.35-84.56c-.68-11.48-2.68-18.52-5.63-28.89l-.6-2.13c-11.77-41.77 7.9-78.98 30.43-101.55l65.53-65.5a42.67 42.67 0 000-60.32l-60.37-60.33a42.67 42.67 0 00-60.33 0l-65.5 65.5c-22.57 22.52-59.73 42.23-101.54 30.41l-2.13-.6c-10.37-2.98-17.41-4.95-28.85-5.59a197.55 197.55 0 00-84.56 13.36c-3.2 1.28-4.23 2.6-4.7 3.41a15.4 15.4 0 00-1.7 8.07c0 9.51 4.9 23.72 17.06 35.84l242.18 242.22z" /></svg>