<svg viewBox="0 0 1024 1024" focusable="false"><path d="M840.77 759.5A31.27 31.27 0 00872 728.27V187.73a31.27 31.27 0 00-31.23-31.23H300.23A31.27 31.27 0 00269 187.73h-58.5c0-49.54 40.28-89.73 89.73-89.73h540.54c49.55 0 89.73 40.27 89.73 89.73v540.54A89.78 89.78 0 01840.77 818v-58.5z" /><path d="M152 845.27a31.3 31.3 0 0031.23 31.23h540.54A31.27 31.27 0 00755 845.27V304.73a31.27 31.27 0 00-31.23-31.23H183.23A31.27 31.27 0 00152 304.73v540.54zM183.23 215h540.54c49.55 0 89.73 40.27 89.73 89.73v540.54A89.78 89.78 0 01723.77 935H183.23a89.78 89.78 0 01-89.73-89.73V304.73c0-49.55 40.28-89.73 89.73-89.73z" /><path d="M759.5 453.5h29.25V395h-679.5v58.5h29.25z" /></svg>