<svg viewBox="0 0 1024 1024" focusable="false"><path d="M480.56 98.14L137.6 441.1c-111.46 111.46-111.46 293.62 0 405.03 111.4 111.45 293.57 111.45 405.02 0l313.73-313.78 50.3-51.36c85.69-85.68 85.69-226.03-.23-311.9a221.28 221.28 0 00-312.15 0l-353.9 353.95a151.68 151.68 0 10214.51 214.51L786.7 405.68a31.2 31.2 0 10-44.1-44.11L410.76 693.44a89.28 89.28 0 01-126.29-126.29L638.43 213.2a158.88 158.88 0 01223.87 0 158.88 158.88 0 010 223.87L812 488.48 498.46 802.02a224.74 224.74 0 01-316.75 0 224.74 224.74 0 010-316.8l342.96-342.96a31.2 31.2 0 10-44.16-44.12z" /></svg>