<svg viewBox="0 0 1024 1024" focusable="false"><path d="M363.78 128a41.22 41.22 0 0141.25 41.39v48h195.93a41.22 41.22 0 0141.26 41.38 41.43 41.43 0 01-41.26 41.39h-79.45a398.5 398.5 0 01-95.91 220.8A313.47 313.47 0 00576 573.74l76.97-154.71a41.39 41.39 0 0136.9-22.87 41.17 41.17 0 0136.96 22.87L934.3 836.18a41.47 41.47 0 01-18.43 55.47 41.17 41.17 0 01-55.38-18.52l-47.91-96.3H567.17L519.3 873.1a41.3 41.3 0 11-73.86-36.9l91.48-183.9a396.54 396.54 0 01-173.1-73.82 393.9 393.9 0 01-237.23 79.2 41.17 41.17 0 01-41.26-41.4 41.43 41.43 0 0141.26-41.38 311.6 311.6 0 00175.36-53.84 397.65 397.65 0 01-75.39-129.33 41.47 41.47 0 0125.09-52.82 41.17 41.17 0 0152.73 25.26 315.1 315.1 0 0059.35 102.02 315.86 315.86 0 0074.67-166.02H126.55a41.22 41.22 0 01-41.22-41.39 41.43 41.43 0 0141.26-41.38h195.97v-48A41.43 41.43 0 01363.78 128zm326.1 402.22l-81.5 163.84h163l-81.5-163.84z" /></svg>