<svg viewBox="0 0 1024 1024" focusable="false"><path d="M734.46 215.36c-20.48 0-37.95 7.23-52.41 21.63-14.53 14.53-21.76 32-21.76 52.48v74.05h74.24c20.41 0 37.89-7.23 52.41-21.63 14.47-14.53 21.7-32 21.7-52.48 0-20.48-7.23-37.95-21.76-52.35-14.46-14.53-32-21.76-52.42-21.76zm0 444.8H660.3v74.24c0 20.48 7.23 37.95 21.76 52.42 14.46 14.52 32 21.76 52.41 21.76 20.48 0 37.9-7.24 52.36-21.76 14.52-14.47 21.76-32 21.76-52.48 0-20.48-7.24-37.9-21.76-52.42-14.47-14.4-31.94-21.76-52.36-21.76zM586.24 437.89H437.89V586.1h148.29V437.82zm-296.7-222.53c-20.48 0-37.9 7.23-52.42 21.63-14.46 14.53-21.76 32-21.76 52.48 0 20.48 7.3 37.95 21.76 52.35 14.53 14.53 32 21.76 52.48 21.76h74.11v-74.17c0-20.35-7.23-37.89-21.7-52.42-14.52-14.4-32-21.76-52.47-21.76v.13zM363.7 734.4v-74.24h-74.17c-20.48 0-37.9 7.36-52.42 21.76-14.46 14.53-21.76 32-21.76 52.48 0 20.35 7.3 37.89 21.76 52.42 14.53 14.4 32 21.76 52.48 21.76 20.48 0 37.89-7.36 52.35-21.76 14.53-14.53 21.76-32 21.76-52.48zm370.75-593.22c40.96 0 75.84 14.53 104.9 43.52 28.93 28.93 43.46 63.81 43.46 104.84 0 40.96-14.53 75.9-43.52 104.83-29 28.93-63.88 43.52-104.84 43.52H660.3v148.29h74.24c40.9 0 75.84 14.4 104.83 43.45 28.93 28.93 43.46 63.87 43.46 104.83 0 40.9-14.53 75.84-43.52 104.84-29 28.99-63.88 43.52-104.84 43.52s-75.84-14.53-104.9-43.52c-28.92-29-43.38-63.94-43.38-104.84V660.3h-148.3v74.24c0 40.83-14.52 75.77-43.51 104.77-28.93 28.99-63.94 43.52-104.83 43.52-40.96 0-75.9-14.53-104.84-43.52-28.99-29-43.52-63.94-43.52-104.84 0-40.96 14.53-75.9 43.52-104.83 28.93-29.05 63.94-43.52 104.84-43.52h74.17V437.9h-74.24c-40.83 0-75.84-14.53-104.77-43.46a142.6 142.6 0 01-43.52-104.83c0-40.96 14.53-75.9 43.52-104.83 28.93-29 63.94-43.52 104.84-43.52 40.96 0 75.9 14.53 104.83 43.52 28.99 28.93 43.52 63.8 43.52 104.83v74.18H586.1v-74.24c0-40.96 14.53-75.84 43.52-104.77 29-29 63.87-43.52 104.83-43.52z" /></svg>