<svg viewBox="0 0 1024 1024" focusable="false"><path d="M143.4 880.55V186.2h469.18v-58.95H84.5V939.5h855V298.25l-58.9 85.19v497.11z" /><path d="M520.82 627.38c-40.19-6.12-81.9 0-122.53 13.63a358.74 358.74 0 00-15.75 5.72 240.7 240.7 0 00-100.98-74.83c-55-21.33-112.64-21.15-166.6-8.24a234.18 234.18 0 00-30.46 9.13l22.05 56.88c3.69-1.44 11.43-3.96 22.28-6.52 43.2-10.35 89.1-10.48 131.13 5.85 33.97 13.19 63.54 36.63 87.75 72.63l15.12 22.41 23.8-12.51c5.49-2.88 16.29-7.65 30.69-12.51 32.4-10.89 65.12-15.66 94.5-11.16 41.09 6.25 72.4 30.02 93.02 78.53l12.1 28.44 27.9-12.6c6.48-2.93 18.72-7.65 34.83-12.33 32.13-9.45 64.4-14.22 93.6-12.06 55.8 4.14 92.25 32.22 107.55 96.16l58.68-14.36c-21.73-91.12-81-136.8-161.78-142.78-37.35-2.79-76.4 3.02-114.84 14.31a443.16 443.16 0 00-15.52 4.86c-29.66-51.66-73.48-80.55-126.54-88.65zM212.75 341H426.5v-42.75H212.75zm0 85.5H341v-42.75H212.75zM724.53 84.5a212.53 212.53 0 100 425.02 212.53 212.53 0 000-425.02m0 59.85a152.87 152.87 0 01152.69 152.69 152.87 152.87 0 01-152.69 152.72 152.87 152.87 0 01-152.72-152.72A152.87 152.87 0 01724.54 144.3" /><path d="M757.25 212.75l-26.46 59.72-26.46-59.72h-32.27l32.27 67.86h-28.44v23.63h39.46v13.4H675.9v23.14h39.46v29.83h30.83v-29.84h39.47V317.6h-39.47v-13.41h39.47v-23.63H757.3l32.22-67.86z" /></svg>