<svg viewBox="0 0 1030 1024" focusable="false"><path d="M406.21 320.05a43.14 43.14 0 11-86.24-.04 43.14 43.14 0 0186.29.04m300.56 0a43.14 43.14 0 11-86.28 0 43.14 43.14 0 0186.24 0M616.92 440.64c-11.65 48.9-47.43 72.33-102.6 72.33-54.58 0-97.55-30.03-102-68.63a31.54 31.54 0 00-62.66 7.24c8.5 74 80.73 124.46 164.62 124.46 82.42 0 144.98-40.96 163.99-120.76a31.54 31.54 0 10-61.35-14.64z" /><path d="M362.61 831.4L502.13 713a31.54 31.54 0 0120.4-7.5h309.39c22.66 0 41.67-20.05 41.67-45.66V198.91c0-25.65-19.05-45.71-41.67-45.71H194.88c-22.62 0-41.63 20.1-41.63 45.7v460.94c0 25.61 19 45.67 41.63 45.67h136.24a31.54 31.54 0 0131.53 31.53v94.36zm-63.07-62.82h-104.7c-58.2 0-104.7-49.03-104.7-108.74V198.91c0-59.71 46.5-108.79 104.7-108.78h637.03c58.28 0 104.79 49.07 104.79 108.78v460.93c0 59.71-46.5 108.74-104.74 108.74H534.08l-182.57 155a31.54 31.54 0 01-51.97-24.06v-130.9z" /></svg>