<svg viewBox="0 0 1024 1024" focusable="false"><path d="M240.47 240.47l241.2 241.2 90.96-90.97a42.88 42.88 0 1160.67 60.67l-91 90.92 241.23 241.24a42.67 42.67 0 01-60.33 60.33l-119.94-119.9-151.89 151.9A214.4 214.4 0 01141.7 579.33l6.4-6.7 151.93-151.9-119.9-119.89a42.67 42.67 0 1160.34-60.37zm120.2 240.9l-151.9 151.89a128.64 128.64 0 00176.42 187.13l5.55-5.16L542.6 663.3l-60.63-60.63-30.59 30.63a42.88 42.88 0 11-60.67-60.67l30.63-30.6-60.67-60.66zm515.2-333.23a214.4 214.4 0 010 303.23L754.55 572.63A42.88 42.88 0 11693.97 512l121.26-121.3A128.64 128.64 0 10633.3 208.77L512 330.07a42.88 42.88 0 01-60.63-60.63l121.26-121.3a214.4 214.4 0 01303.23 0zM542.2 421.5l-60.38 60.33 60.34 60.34 60.33-60.34-60.33-60.33z" /></svg>