<svg viewBox="0 0 1024 1024" focusable="false"><path d="M247.8 911.94a134.88 134.88 0 01-134.87-134.88V247.8A134.88 134.88 0 01247.8 113.02h529.25a134.83 134.83 0 01134.88 134.79v529.34a134.83 134.83 0 01-134.88 134.83H247.8zM959.9 777.06V247.8A182.83 182.83 0 00777.06 64.98H247.8A182.88 182.88 0 0064.93 247.76V777.1A182.88 182.88 0 00247.8 959.94h529.25a182.83 182.83 0 00182.88-182.88z" /><path d="M512.43 793.86a281.42 281.42 0 110-562.85 281.42 281.42 0 010 562.85zm0-596.45a315.02 315.02 0 100 630.05 315.02 315.02 0 000-630.05z" /><path d="M512.43 701.84a189.4 189.4 0 110-378.82 189.4 189.4 0 010 378.82zm0-412.42a223 223 0 100 446.02 223 223 0 000-446.02z" /><path d="M213.92 778.4a16.8 16.8 0 1023.76 23.8l576.14-576.14a16.8 16.8 0 00-23.76-23.76L213.92 778.45z" /><path d="M790.06 802.2a16.8 16.8 0 0023.76-23.75L237.68 202.3a16.8 16.8 0 00-23.76 23.76l576.14 576.15z" /></svg>