<svg viewBox="0 0 1024 1024" focusable="false"><path d="M946.79 857.19l-83.66-155.34a155.14 155.14 0 0013.67-63.13c.41-86.63-69.99-157.44-157.44-157.85a157.08 157.08 0 00-158.31 156.57c0 22.17 4.71 44.39 14.08 64.41l-85.3 153.19a14.08 14.08 0 0015.77 20.48l72.09-16.23L602.01 928c1.74 5.12 6.86 8.96 12.39 9.37h1.28c5.12 0 10.24-2.97 12.8-7.22l74.24-136.96c5.12.41 10.24 1.69 15.77 1.69 5.12 0 9.42-.87 14.54-1.28l75.06 137.37a14.39 14.39 0 0012.8 7.68h1.28a14.23 14.23 0 0012.39-9.37l24.73-68.25 72.14 16.64a14.39 14.39 0 0014.49-5.12 15.16 15.16 0 00.87-15.36zm-329.83-43.52l-1.28-3.84a17.46 17.46 0 00-16.23-11.52c-1.28 0-2.56 0-4.25.41l-4.25.87 20.48-36.71c8.09 6.81 15.77 11.52 24.32 16.23l-18.79 34.56zm101.99-85.76h-2.56a89.96 89.96 0 01-87.91-90.47 90.62 90.62 0 0190.47-89.6h.41a90.11 90.11 0 0190.01 90.47 90.62 90.62 0 01-90.42 89.6zm125.44 81.46c-1.28-.41-2.56-.41-4.3-.41a18.94 18.94 0 00-17.46 12.39l-3.02 8.5-24.73-45.21c11.11-6.4 21.35-12.39 32-21.35l27.29 48.64-9.78-2.56z" /><path d="M897.28 85.35H146.33c-28.16 0-51.2 23.04-51.2 51.2v750.9c0 28.16 23.04 51.2 51.2 51.2h276.94a34.22 34.22 0 0034.1-34.1 34.23 34.23 0 00-34.1-34.15H163.43V153.6h716.8v275.61a34.23 34.23 0 0034.1 34.15 34.24 34.24 0 0034.15-34.15V136.55a51.09 51.09 0 00-51.2-51.2z" /><path d="M649.83 315.75h-324.3a34.25 34.25 0 01-34.1-34.15 34.23 34.23 0 0134.1-34.15h324.3a34.23 34.23 0 0134.1 34.15 33.95 33.95 0 01-34.1 34.15zm-85.35 136.5H325.53a34.25 34.25 0 01-34.1-34.1 34.23 34.23 0 0134.1-34.15h238.95a34.24 34.24 0 0134.15 34.15 33.95 33.95 0 01-34.15 34.1zM479.13 588.8h-153.6a34.25 34.25 0 01-34.1-34.15 34.22 34.22 0 0134.1-34.1h153.6a34.23 34.23 0 0134.15 34.1 33.95 33.95 0 01-34.15 34.15z" /></svg>