<svg viewBox="0 0 1024 1024" focusable="false"><path d="M307.35 312.9a31.73 31.73 0 11-63.46 0 31.73 31.73 0 0163.46 0m293.33 0a31.73 31.73 0 11-63.46 0 31.73 31.73 0 0163.46 0M508.85 374.52c0 23.52-40.03 55.88-82.46 55.88s-82.42-32.36-82.42-55.88h-45.6c0 51.08 62.3 101.48 128.02 101.48 65.76 0 128.06-50.4 128.06-101.48h-45.6z" /><path d="M799.45 105.24H53.33V651.1H167.2v106.13l127.3-106.08h504.96v-545.9zm-59.28 59.28v427.3H272.93l-16.46 13.78-30 25v-38.78h-113.9v-427.3h627.6z" /><path d="M935.67 759.82h-96v55.87l-67-55.87H365.52V647.16h-59.24v171.99h444.96L899 942.32V819.15h96V299.3H798.25v59.28h137.47z" /></svg>